<svg width="1924" height="1932" viewBox="0 0 1924 1932" fill="none" xmlns="http://www.w3.org/2000/svg">
<line x1="4" y1="352.796" x2="1924" y2="352.796" stroke="white" stroke-width="4" stroke-dasharray="5 5"/>
<line x1="4" y1="505.597" x2="1924" y2="505.597" stroke="white" stroke-width="4" stroke-dasharray="5 5"/>
<line x1="4" y1="658.398" x2="1924" y2="658.398" stroke="white" stroke-width="4" stroke-dasharray="5 5"/>
<line x1="4" y1="811.199" x2="1924" y2="811.199" stroke="white" stroke-width="4" stroke-dasharray="5 5"/>
<line x1="4" y1="964" x2="1924" y2="964" stroke="white" stroke-width="4" stroke-dasharray="5 5"/>
<line x1="4" y1="1116.8" x2="1924" y2="1116.8" stroke="white" stroke-width="4" stroke-dasharray="5 5"/>
<line x1="4" y1="1269.6" x2="1924" y2="1269.6" stroke="white" stroke-width="4" stroke-dasharray="5 5"/>
<line x1="4" y1="1422.4" x2="1924" y2="1422.4" stroke="white" stroke-width="4" stroke-dasharray="5 5"/>
<line x1="4" y1="1575.2" x2="1924" y2="1575.2" stroke="white" stroke-width="4" stroke-dasharray="5 5"/>
<line x1="2.16211" y1="1932" x2="2.16211" stroke="white" stroke-width="4" stroke-dasharray="5 5"/>
<line x1="154.014" y1="1932" x2="154.014" stroke="white" stroke-width="4" stroke-dasharray="5 5"/>
<line x1="305.866" y1="1932" x2="305.866" stroke="white" stroke-width="4" stroke-dasharray="5 5"/>
<line x1="457.718" y1="1932" x2="457.718" stroke="white" stroke-width="4" stroke-dasharray="5 5"/>
<line x1="609.569" y1="1932" x2="609.569" stroke="white" stroke-width="4" stroke-dasharray="5 5"/>
<line x1="761.421" y1="1932" x2="761.421" stroke="white" stroke-width="4" stroke-dasharray="5 5"/>
<line x1="913.273" y1="1932" x2="913.273" stroke="white" stroke-width="4" stroke-dasharray="5 5"/>
<line x1="1065.12" y1="1932" x2="1065.12" stroke="white" stroke-width="4" stroke-dasharray="5 5"/>
<line x1="1216.98" y1="1932" x2="1216.98" stroke="white" stroke-width="4" stroke-dasharray="5 5"/>
</svg>
