<svg width="1543" height="867" viewBox="0 0 1543 867" fill="none" xmlns="http://www.w3.org/2000/svg">
<path d="M1444.06 2.01221C1497.46 1.72125 1540.9 44.9259 1540.9 98.3228V664.978C1540.9 718.17 1497.78 761.289 1444.59 761.29H1225.73L1144.57 758.224C1114.62 757.093 1089.73 781.067 1089.73 811.039C1089.73 838.227 1067.75 860.303 1040.57 860.429L98.7563 864.805C45.3904 865.053 1.99677 821.861 1.99658 768.495V220.862C1.99672 183.637 33.2453 154.042 70.4155 156.063C109.568 158.192 142.482 127.018 142.482 87.8081V80.5161C142.482 41.014 174.391 8.9308 213.892 8.71533L1444.06 2.01221Z" fill="#E6EDFF" stroke="#0538B9" stroke-width="3.46032"/>
</svg>
