<svg width="89" height="45" viewBox="0 0 89 45" fill="none" xmlns="http://www.w3.org/2000/svg">
<path d="M68.5701 43.3204C57.6873 43.3204 48.865 33.83 48.865 22.1229C48.865 10.4159 57.6873 0.925415 68.5701 0.925415C79.4529 0.925415 88.2752 10.4159 88.2752 22.1229C88.2752 33.83 79.4529 43.3204 68.5701 43.3204Z" fill="#F7F5E9"/>
<path d="M73.1108 41.2728C64.7287 41.2728 57.9336 33.719 57.9336 24.4008C57.9336 15.0827 64.7287 7.52881 73.1108 7.52881C81.493 7.52881 88.288 15.0827 88.288 24.4008C88.288 33.719 81.493 41.2728 73.1108 41.2728Z" fill="#322E23"/>
<path d="M20.0023 44.7006C9.11949 44.7006 0.297215 35.2101 0.297215 23.5031C0.297215 11.796 9.11949 2.30554 20.0023 2.30554C30.8851 2.30554 39.7074 11.796 39.7074 23.5031C39.7074 35.2101 30.8851 44.7006 20.0023 44.7006Z" fill="#F7F5E9"/>
<path d="M24.5428 42.6515C16.1606 42.6515 9.36553 35.0976 9.36553 25.7795C9.36553 16.4613 16.1606 8.90747 24.5428 8.90747C32.9249 8.90747 39.72 16.4613 39.72 25.7795C39.72 35.0976 32.9249 42.6515 24.5428 42.6515Z" fill="#322E23"/>
</svg>
