<svg width="308" height="280" viewBox="0 0 308 280" fill="none" xmlns="http://www.w3.org/2000/svg">
<path d="M154 225.913V0.367941C165.377 52.7622 179.87 66.106 185.694 66.2287C199.672 70.3495 238.111 46.6053 255.583 34.2181C228.603 70.7175 228.63 94.5598 232.016 101.919C238.517 114.87 285.381 118.598 308 118.844C253.714 138.271 242.851 153.92 244.206 159.317C237.054 166.381 269.128 199.544 286.058 215.243C232.097 199.348 214.814 205.431 212.918 210.46C200.891 215.17 204.114 258.782 207.23 280C170.497 230.549 156.438 223.338 154 225.913Z" fill="#FF4900"/>
<path d="M154 225.545V0C142.623 52.3942 128.13 65.7381 122.306 65.8607C108.328 69.9816 69.8892 46.2374 52.4169 33.8502C79.3974 70.3495 79.3703 94.1919 75.9842 101.551C69.4828 114.502 22.6192 118.23 0 118.476C54.286 137.903 65.1486 153.552 63.7942 158.949C70.9456 166.013 38.8725 199.177 21.942 214.875C75.9029 198.98 93.1856 205.064 95.0818 210.092C107.109 214.802 103.886 258.414 100.77 279.632C137.503 230.181 151.562 222.97 154 225.545Z" fill="#FF4900"/>
</svg>
