<svg width="372" height="326" viewBox="0 0 372 326" fill="none" xmlns="http://www.w3.org/2000/svg">
<path d="M185.938 0C210.263 0 230.224 18.6855 232.252 42.4863C232.44 44.6874 234.213 46.4844 236.422 46.4844H367.875C370.084 46.4844 371.875 48.2752 371.875 50.4844V120.271C371.875 122.211 370.475 123.851 368.598 124.344C345.976 130.279 329 155.181 329 185C329 214.819 345.977 239.72 368.598 245.655C370.475 246.148 371.875 247.788 371.875 249.728V321.391C371.875 323.6 370.084 325.391 367.875 325.391H4C1.79086 325.391 6.76826e-08 323.6 0 321.391V50.4844C0 48.2752 1.79086 46.4844 4 46.4844H135.453C137.662 46.4844 139.435 44.6874 139.623 42.4863C141.651 18.6855 161.612 0 185.938 0Z" fill="#FF4900"/>
</svg>
