<svg width="65" height="44" viewBox="0 0 65 44" fill="none" xmlns="http://www.w3.org/2000/svg">
<path d="M49.9077 29.009C41.9523 29.009 35.5032 22.5151 35.5032 14.5045C35.5032 6.49388 41.9523 0 49.9077 0C57.863 0 64.3121 6.49388 64.3121 14.5045C64.3121 22.5151 57.863 29.009 49.9077 29.009Z" fill="#F7F5E9"/>
<path d="M53.2271 27.6081C47.0997 27.6081 42.1325 22.4393 42.1325 16.0633C42.1325 9.68731 47.0997 4.51855 53.2271 4.51855C59.3544 4.51855 64.3217 9.68731 64.3217 16.0633C64.3217 22.4393 59.3544 27.6081 53.2271 27.6081Z" fill="#322E23"/>
<path d="M14.4045 29.9533C6.4491 29.9533 -7.62939e-06 23.4594 -7.62939e-06 15.4488C-7.62939e-06 7.43822 6.4491 0.944336 14.4045 0.944336C22.3599 0.944336 28.809 7.43822 28.809 15.4488C28.809 23.4594 22.3599 29.9533 14.4045 29.9533Z" fill="#F7F5E9"/>
<path d="M17.7236 28.5514C11.5963 28.5514 6.62905 23.3827 6.62905 17.0067C6.62905 10.6307 11.5963 5.46191 17.7236 5.46191C23.851 5.46191 28.8182 10.6307 28.8182 17.0067C28.8182 23.3827 23.851 28.5514 17.7236 28.5514Z" fill="#322E23"/>
<path d="M39 38.25C37.3897 40.5351 34.5288 41.81 31.625 41.5293C28.4986 41.2247 25.8432 39.1721 24.9438 36.3418" stroke="#322E23" stroke-width="3" stroke-linecap="round" stroke-linejoin="round"/>
<path d="M26.2122 34.6338C26.1351 34.8984 25.8438 35.7242 24.9444 36.3416C24.1393 36.8948 23.3084 36.959 23.0001 36.967" stroke="#322E23" stroke-width="3" stroke-linecap="round" stroke-linejoin="round"/>
</svg>
