<svg width="265" height="52" viewBox="0 0 265 52" fill="none" xmlns="http://www.w3.org/2000/svg">
<rect y="0.516602" width="240.891" height="50.4961" rx="25.2481" fill="#0049FF"/>
<path d="M261.587 51.0128H218.955L236.753 33.6289C256.206 43.5626 270.279 51.0128 261.587 51.0128Z" fill="#0049FF"/>
<path d="M57.4593 16.2855H65.3032C67.1031 16.2855 68.4609 16.7278 69.3764 17.6122C70.2609 18.4191 70.7031 19.4743 70.7031 20.7777C70.7031 22.5622 69.7566 23.7415 67.8635 24.3156V24.3854C68.9497 24.6492 69.8109 25.138 70.4471 25.8518C71.0833 26.5656 71.4014 27.4733 71.4014 28.575C71.4014 29.3509 71.2695 30.0414 71.0057 30.6465C70.7419 31.2362 70.3617 31.7405 69.8652 32.1595C69.3686 32.625 68.7557 32.9819 68.0264 33.2301C67.3126 33.4784 66.4902 33.6025 65.5592 33.6025H57.4593V16.2855ZM64.8376 23.4311C65.6756 23.4311 66.335 23.2372 66.8161 22.8492C67.3126 22.4458 67.5609 21.8717 67.5609 21.1268C67.5609 20.413 67.3281 19.8622 66.8626 19.4743C66.4126 19.0708 65.7919 18.8691 65.0006 18.8691H60.648V23.4311H64.8376ZM65.2799 30.9724C65.7764 30.9724 66.2031 30.9103 66.56 30.7862C66.9324 30.6465 67.235 30.4603 67.4678 30.2276C67.9333 29.7931 68.1661 29.2035 68.1661 28.4586C68.1661 27.5742 67.8867 26.9147 67.3281 26.4802C66.7695 26.0457 66.0557 25.8285 65.1868 25.8285H60.648V30.9724H65.2799ZM72.9881 16.2855H76.0139V19.1484H72.9881V16.2855ZM73.0346 21.1734H75.9906V33.6025H73.0346V21.1734ZM78.2062 21.1734H81.0691V23.0587H81.1389C81.5424 22.3604 82.0467 21.8173 82.6518 21.4294C83.2725 21.0415 84.0096 20.8475 84.863 20.8475C85.6544 20.8475 86.3294 21.0415 86.888 21.4294C87.4621 21.8173 87.8888 22.3992 88.1681 23.1751H88.2147C88.7112 22.3682 89.2931 21.7785 89.9604 21.4061C90.6276 21.0337 91.3491 20.8475 92.125 20.8475C93.3974 20.8475 94.3827 21.2355 95.081 22.0113C95.7948 22.7716 96.1517 23.8268 96.1517 25.1768V33.6025H93.1957V25.5725C93.1957 24.8587 93.0095 24.3001 92.637 23.8966C92.2646 23.4932 91.7758 23.2915 91.1707 23.2915C90.4414 23.2915 89.8362 23.563 89.3552 24.1061C88.8897 24.6492 88.6569 25.363 88.6569 26.2475V33.6025H85.7009V25.5725C85.7009 24.8587 85.5302 24.3001 85.1889 23.8966C84.8475 23.4932 84.3665 23.2915 83.7458 23.2915C83.4044 23.2915 83.0785 23.369 82.7682 23.5242C82.4579 23.6639 82.1786 23.8656 81.9303 24.1294C81.6975 24.3777 81.5113 24.688 81.3717 25.0604C81.232 25.4173 81.1622 25.813 81.1622 26.2475V33.6025H78.2062V21.1734ZM103.27 33.9982C101.485 33.9982 100.096 33.6103 99.1033 32.8344C98.1257 32.0586 97.5904 31.0422 97.4973 29.7853H100.337C100.461 30.5302 100.787 31.0733 101.314 31.4146C101.842 31.7405 102.502 31.9034 103.293 31.9034C104.115 31.9034 104.72 31.7483 105.108 31.4379C105.496 31.1121 105.69 30.7009 105.69 30.2043C105.69 29.894 105.613 29.6457 105.458 29.4595C105.302 29.2578 105.085 29.0948 104.806 28.9707C104.526 28.831 104.185 28.7224 103.782 28.6448C103.394 28.5517 102.959 28.4586 102.478 28.3655C101.889 28.2569 101.322 28.125 100.779 27.9699C100.236 27.8147 99.755 27.6052 99.336 27.3414C98.9171 27.0621 98.5757 26.7052 98.3119 26.2707C98.0636 25.8207 97.9395 25.2466 97.9395 24.5483C97.9395 23.9587 98.0559 23.4389 98.2886 22.9889C98.5369 22.5234 98.8705 22.1354 99.2895 21.8251C99.724 21.4992 100.244 21.2587 100.849 21.1036C101.454 20.9329 102.121 20.8475 102.851 20.8475C104.511 20.8475 105.76 21.1889 106.598 21.8717C107.451 22.5389 107.956 23.4156 108.111 24.5018H105.295C105.077 23.4001 104.255 22.8492 102.827 22.8492C102.129 22.8492 101.602 22.9889 101.245 23.2682C100.903 23.5475 100.733 23.9044 100.733 24.3389C100.733 24.6182 100.81 24.8432 100.965 25.0139C101.121 25.1845 101.338 25.332 101.617 25.4561C101.896 25.5647 102.23 25.6578 102.618 25.7354C103.006 25.813 103.433 25.8983 103.898 25.9914C104.488 26.1 105.062 26.2319 105.62 26.3871C106.179 26.5268 106.676 26.744 107.11 27.0388C107.56 27.3181 107.917 27.6983 108.181 28.1793C108.445 28.6448 108.576 29.2578 108.576 30.0181C108.576 30.6698 108.445 31.2439 108.181 31.7405C107.917 32.237 107.545 32.656 107.064 32.9974C106.598 33.3232 106.039 33.5715 105.388 33.7422C104.736 33.9129 104.03 33.9982 103.27 33.9982ZM118.242 33.6025C118.133 33.4629 118.04 33.2689 117.962 33.0206C117.9 32.7569 117.854 32.4155 117.823 31.9965H117.776C117.373 32.5396 116.868 32.9974 116.263 33.3698C115.658 33.7267 114.859 33.9051 113.866 33.9051C113.261 33.9051 112.694 33.8275 112.167 33.6724C111.655 33.5172 111.212 33.2844 110.84 32.9741C110.468 32.6638 110.173 32.2836 109.956 31.8336C109.738 31.3681 109.63 30.8327 109.63 30.2276C109.63 29.5293 109.754 28.9552 110.002 28.5052C110.266 28.0397 110.623 27.6673 111.073 27.388C111.523 27.1087 112.058 26.8992 112.679 26.7595C113.299 26.6044 113.982 26.4802 114.727 26.3871C115.751 26.263 116.519 26.0923 117.031 25.875C117.543 25.6423 117.799 25.2466 117.799 24.688C117.799 24.1449 117.613 23.7104 117.241 23.3846C116.868 23.0587 116.31 22.8958 115.565 22.8958C114.727 22.8958 114.099 23.0742 113.68 23.4311C113.276 23.788 113.059 24.2768 113.028 24.8975H110.235C110.25 24.3699 110.367 23.8656 110.584 23.3846C110.817 22.888 111.15 22.4535 111.585 22.0811C112.035 21.7087 112.586 21.4139 113.237 21.1967C113.889 20.9639 114.657 20.8475 115.542 20.8475C116.255 20.8475 116.884 20.9018 117.427 21.0105C117.986 21.1191 118.467 21.3053 118.87 21.5691C120.049 22.2829 120.639 23.4621 120.639 25.107V31.6474C120.639 32.1595 120.678 32.5551 120.755 32.8344C120.848 33.1138 120.965 33.3 121.105 33.3931V33.6025H118.242ZM114.727 31.8801C115.239 31.8801 115.689 31.8026 116.077 31.6474C116.465 31.4767 116.791 31.2672 117.055 31.019C117.318 30.7552 117.52 30.4603 117.66 30.1345C117.799 29.7931 117.869 29.444 117.869 29.0871V27.2483C117.574 27.4345 117.21 27.5974 116.775 27.7371C116.341 27.8612 115.899 27.9699 115.449 28.063C114.533 28.2336 113.827 28.4586 113.33 28.7379C112.834 29.0017 112.586 29.475 112.586 30.1578C112.586 30.4836 112.64 30.7629 112.749 30.9957C112.873 31.2129 113.028 31.3914 113.214 31.531C113.416 31.6551 113.649 31.7483 113.912 31.8103C114.176 31.8569 114.448 31.8801 114.727 31.8801ZM122.953 16.2855H125.932V33.6025H122.953V16.2855ZM136.245 33.6025C136.136 33.4629 136.043 33.2689 135.965 33.0206C135.903 32.7569 135.857 32.4155 135.826 31.9965H135.779C135.376 32.5396 134.871 32.9974 134.266 33.3698C133.661 33.7267 132.862 33.9051 131.869 33.9051C131.264 33.9051 130.697 33.8275 130.17 33.6724C129.658 33.5172 129.216 33.2844 128.843 32.9741C128.471 32.6638 128.176 32.2836 127.959 31.8336C127.741 31.3681 127.633 30.8327 127.633 30.2276C127.633 29.5293 127.757 28.9552 128.005 28.5052C128.269 28.0397 128.626 27.6673 129.076 27.388C129.526 27.1087 130.061 26.8992 130.682 26.7595C131.303 26.6044 131.985 26.4802 132.73 26.3871C133.754 26.263 134.522 26.0923 135.034 25.875C135.546 25.6423 135.802 25.2466 135.802 24.688C135.802 24.1449 135.616 23.7104 135.244 23.3846C134.871 23.0587 134.313 22.8958 133.568 22.8958C132.73 22.8958 132.102 23.0742 131.683 23.4311C131.279 23.788 131.062 24.2768 131.031 24.8975H128.238C128.253 24.3699 128.37 23.8656 128.587 23.3846C128.82 22.888 129.153 22.4535 129.588 22.0811C130.038 21.7087 130.589 21.4139 131.24 21.1967C131.892 20.9639 132.66 20.8475 133.545 20.8475C134.259 20.8475 134.887 20.9018 135.43 21.0105C135.989 21.1191 136.47 21.3053 136.873 21.5691C138.052 22.2829 138.642 23.4621 138.642 25.107V31.6474C138.642 32.1595 138.681 32.5551 138.758 32.8344C138.852 33.1138 138.968 33.3 139.108 33.3931V33.6025H136.245ZM132.73 31.8801C133.242 31.8801 133.692 31.8026 134.08 31.6474C134.468 31.4767 134.794 31.2672 135.058 31.019C135.321 30.7552 135.523 30.4603 135.663 30.1345C135.802 29.7931 135.872 29.444 135.872 29.0871V27.2483C135.577 27.4345 135.213 27.5974 134.778 27.7371C134.344 27.8612 133.902 27.9699 133.452 28.063C132.536 28.2336 131.83 28.4586 131.334 28.7379C130.837 29.0017 130.589 29.475 130.589 30.1578C130.589 30.4836 130.643 30.7629 130.752 30.9957C130.876 31.2129 131.031 31.3914 131.217 31.531C131.419 31.6551 131.652 31.7483 131.915 31.8103C132.179 31.8569 132.451 31.8801 132.73 31.8801ZM147.659 33.9982C146.821 33.9982 146.069 33.8198 145.401 33.4629C144.734 33.106 144.214 32.5551 143.842 31.8103H143.772V33.6025H140.909V16.2855H143.865V20.382C143.865 20.8786 143.858 21.3596 143.842 21.8251C143.827 22.2906 143.803 22.6863 143.772 23.0122H143.842C144.245 22.3604 144.765 21.8406 145.401 21.4527C146.038 21.0492 146.798 20.8475 147.682 20.8475C148.474 20.8475 149.195 21.0027 149.847 21.313C150.514 21.6234 151.081 22.0656 151.546 22.6397C152.012 23.2139 152.369 23.9044 152.617 24.7113C152.881 25.5182 153.013 26.4181 153.013 27.4112C153.013 28.4198 152.888 29.3354 152.64 30.1578C152.392 30.9646 152.035 31.6551 151.57 32.2293C151.104 32.8034 150.538 33.2456 149.87 33.556C149.219 33.8508 148.482 33.9982 147.659 33.9982ZM147.031 31.5776C148.024 31.5776 148.769 31.1896 149.265 30.4138C149.762 29.6379 150.01 28.6293 150.01 27.388C150.01 26.7828 149.948 26.2242 149.824 25.7121C149.7 25.1845 149.514 24.7345 149.265 24.3621C149.017 23.9742 148.707 23.6794 148.334 23.4777C147.962 23.2604 147.527 23.1518 147.031 23.1518C146.472 23.1518 145.983 23.2682 145.564 23.5009C145.145 23.7182 144.804 24.0208 144.54 24.4087C144.277 24.7811 144.075 25.2311 143.935 25.7587C143.811 26.2707 143.749 26.8216 143.749 27.4112C143.749 28.0164 143.819 28.575 143.958 29.0871C144.098 29.5991 144.308 30.0414 144.587 30.4138C144.866 30.7707 145.208 31.0577 145.611 31.275C146.014 31.4767 146.488 31.5776 147.031 31.5776ZM154.558 16.2855H157.584V19.1484H154.558V16.2855ZM154.605 21.1734H157.561V33.6025H154.605V21.1734ZM159.776 21.1734H162.639V23.0587H162.709C163.112 22.3604 163.617 21.8173 164.222 21.4294C164.842 21.0415 165.58 20.8475 166.433 20.8475C167.224 20.8475 167.899 21.0415 168.458 21.4294C169.032 21.8173 169.459 22.3992 169.738 23.1751H169.785C170.281 22.3682 170.863 21.7785 171.53 21.4061C172.198 21.0337 172.919 20.8475 173.695 20.8475C174.967 20.8475 175.953 21.2355 176.651 22.0113C177.365 22.7716 177.722 23.8268 177.722 25.1768V33.6025H174.766V25.5725C174.766 24.8587 174.579 24.3001 174.207 23.8966C173.835 23.4932 173.346 23.2915 172.741 23.2915C172.011 23.2915 171.406 23.563 170.925 24.1061C170.46 24.6492 170.227 25.363 170.227 26.2475V33.6025H167.271V25.5725C167.271 24.8587 167.1 24.3001 166.759 23.8966C166.417 23.4932 165.936 23.2915 165.316 23.2915C164.974 23.2915 164.649 23.369 164.338 23.5242C164.028 23.6639 163.749 23.8656 163.5 24.1294C163.267 24.3777 163.081 24.688 162.942 25.0604C162.802 25.4173 162.732 25.813 162.732 26.2475V33.6025H159.776V21.1734ZM180.161 21.1268V16.2855H183.28V21.1268L182.512 28.0397H180.953L180.161 21.1268ZM180.115 30.3672H183.373V33.6025H180.115V30.3672Z" fill="white"/>
</svg>
