<svg width="323" height="359" viewBox="0 0 323 359" fill="none" xmlns="http://www.w3.org/2000/svg">
<g filter="url(#filter0_d_2782_441)">
<path d="M205.972 335.623C152.531 322.883 112.451 290.421 105.087 250.249C103.522 241.729 102.91 230.008 106.563 215.602" stroke="#010101" stroke-width="39.8307" stroke-linecap="round" stroke-linejoin="round"/>
<path d="M85.2363 180.831C92.3312 166.542 114.855 163.287 135.545 173.56C156.235 183.833 167.255 203.744 160.16 218.033C153.066 232.322 130.542 235.577 109.852 225.304C89.1623 215.031 78.1414 195.119 85.2363 180.831Z" fill="#F24103"/>
<path d="M126.856 210.466C112.718 203.924 91.1021 193.918 82.2478 170.082C81.5231 168.123 70.5096 137.131 87.774 117.665C103.65 99.7592 131.934 104.575 149.123 107.505C162.248 109.741 201.021 116.319 214.879 147.716C216.892 152.268 224.366 170.904 216.46 191.358C215.002 195.134 210.349 206.733 199.018 214.63C173.834 232.194 138.22 215.715 126.856 210.451L126.856 210.466Z" fill="#FF4900"/>
<path d="M111.697 141.225C97.4391 140.554 87.4636 131.503 86.4291 130.534C77.2348 121.954 74.8353 111.33 74.162 107.102C70.363 83.1696 89.4316 58.8187 110.475 50.4789C120.851 46.3656 129.519 47.0182 131.647 47.2187C134.224 47.4604 155.02 49.7332 163.362 65.9968C169.174 77.3148 165.69 89.0623 163.667 95.8988C157.242 117.581 136.408 142.388 111.691 141.222L111.697 141.225Z" fill="#D32F1E"/>
<path d="M153.299 125.843C145.985 135.522 138.179 144.011 127.962 150.521C124.66 152.7 121.167 154.639 117.437 156.78C134.71 157.849 151.784 143.069 153.299 125.843Z" fill="#F24103"/>
<path d="M148.533 127.581C147.119 139.63 144.674 150.901 139.142 161.677C137.398 165.22 135.362 168.664 133.227 172.399C148.669 164.597 155.932 143.21 148.536 127.575L148.533 127.581Z" fill="#F24103"/>
<path d="M147.721 135.733C133.22 135.048 123.071 125.842 122.024 124.868C112.675 116.142 110.232 105.33 109.553 101.038C105.692 76.6962 125.081 51.9287 146.488 43.4513C157.043 39.2677 165.857 39.9321 168.021 40.1355C170.641 40.3831 191.789 42.6943 200.28 59.2366C206.187 70.7456 202.649 82.6936 200.589 89.6485C194.056 111.701 172.869 136.932 147.724 135.742L147.721 135.733Z" fill="#DD3217"/>
<path d="M158.59 140.925C151.575 136.669 148.507 130.259 147.616 128.332C137.813 107.153 157.744 81.8592 160.94 77.8022C163.193 74.9434 175.928 59.2434 198.24 53.4583C206.971 51.1945 216.759 48.6609 226.69 53.6829C241.328 61.0801 243.753 78.5495 243.927 79.9236C245.466 92.4006 239.618 102.012 235.929 107.885C219.101 134.667 180.157 154.005 158.593 140.919L158.59 140.925Z" fill="#E83E0A"/>
<path d="M205.146 116.555C207.247 99.4613 221.639 83.7357 239.245 82.3031C250.473 81.3858 262.018 86.3608 269.071 95.1507C284.568 114.459 273.454 144.639 259.642 161.683" fill="#F24103"/>
<path d="M216.32 181.493C195.326 177.758 158.998 160.962 162.441 134.497C163.829 123.814 172.705 115.047 182.974 111.789C193.243 108.532 204.561 110.121 214.592 114.057C228.727 119.598 248.299 130.104 257.123 142.91C269.648 161.092 260.803 187.617 246.849 202.34C232.195 217.8 210.796 223.516 190.281 218.723C175.359 215.239 159.803 208.56 147.473 199.415" fill="#FF4900"/>
<path d="M196.494 179.92C193.543 178.462 190.657 177.15 187.976 175.486C185.292 173.858 182.707 172.15 180.374 170.166L179.48 169.449L178.637 168.675C178.087 168.151 177.494 167.683 176.967 167.141C176.441 166.599 175.926 166.048 175.391 165.525C174.858 164.995 174.407 164.393 173.905 163.833L173.175 162.985L172.505 162.091L171.831 161.204C171.597 160.914 171.384 160.611 171.192 160.296L169.967 158.445L168.887 156.515C168.494 155.888 168.228 155.203 167.904 154.542L167.431 153.542C167.288 153.206 167.174 152.854 167.04 152.514L166.64 151.49C166.505 151.15 166.365 150.808 166.276 150.453C166.07 149.753 165.877 149.043 165.648 148.346C165.334 146.917 165.008 145.483 164.828 144.015C164.714 143.284 164.703 142.543 164.622 141.806C164.596 141.066 164.551 140.316 164.558 139.57C164.563 133.564 166.087 127.457 168.471 121.376C163.914 126.083 160.787 132.364 159.775 139.194C159.238 142.61 159.402 146.139 159.998 149.578C160.182 150.427 160.397 151.276 160.602 152.129C160.692 152.559 160.835 152.972 160.973 153.381L161.389 154.618C161.533 155.03 161.668 155.445 161.839 155.849L162.376 157.04C162.749 157.831 163.063 158.646 163.512 159.391C165.128 162.482 167.266 165.241 169.643 167.716C172.011 170.21 174.739 172.315 177.624 174.073C183.396 177.614 189.963 179.632 196.497 179.914L196.494 179.92Z" fill="#F24103"/>
</g>
<defs>
<filter id="filter0_d_2782_441" x="53.6759" y="27.9717" width="242.914" height="355.571" filterUnits="userSpaceOnUse" color-interpolation-filters="sRGB">
<feFlood flood-opacity="0" result="BackgroundImageFix"/>
<feColorMatrix in="SourceAlpha" type="matrix" values="0 0 0 0 0 0 0 0 0 0 0 0 0 0 0 0 0 0 127 0" result="hardAlpha"/>
<feOffset dy="8"/>
<feGaussianBlur stdDeviation="10"/>
<feComposite in2="hardAlpha" operator="out"/>
<feColorMatrix type="matrix" values="0 0 0 0 0 0 0 0 0 0 0 0 0 0 0 0 0 0 0.2 0"/>
<feBlend mode="normal" in2="BackgroundImageFix" result="effect1_dropShadow_2782_441"/>
<feBlend mode="normal" in="SourceGraphic" in2="effect1_dropShadow_2782_441" result="shape"/>
</filter>
</defs>
</svg>
