<svg width="534" height="481" viewBox="0 0 534 481" fill="none" xmlns="http://www.w3.org/2000/svg">
<g filter="url(#filter0_d_2259_913)">
<path d="M384.657 238.635C387.991 239.666 464.895 262.152 510.344 215.714C523.005 202.779 529.829 187.97 533.595 175.538" stroke="#010101" stroke-width="32.3072" stroke-linecap="round" stroke-linejoin="round"/>
<path d="M397.017 242.475C400.767 207.34 384.136 176.758 359.87 174.168C335.603 171.578 312.892 197.96 309.141 233.095C305.391 268.23 322.023 298.812 346.289 301.402C370.555 303.993 393.267 277.61 397.017 242.475Z" fill="#F24103"/>
<path d="M303.795 43.3077C288.11 62.1492 304.419 85.1273 295.333 117.534C293.329 124.674 289.731 133.561 282.765 143.285C272.124 144.058 256.398 144.28 237.964 141.033C230.513 139.727 212.095 135.998 153.328 110.287C120.437 95.8977 102.773 86.8144 88.5122 94.8742C80.4245 99.4459 76.1685 107.998 75.9945 108.345C69.3754 122.007 75.4948 136.389 76.1776 137.95C84.4108 156.577 108.173 157.396 143.832 170.419C157.353 175.361 175.595 183.144 196.41 195.651C176.687 201.064 150.62 205.753 120.281 204.333C71.3634 202.053 41.2362 185.3 28.3191 200.116C19.0359 210.754 23.627 231.924 32.3611 244.402C44.4158 261.628 65.7707 264.291 85.8993 266.805C119.775 271.032 132.962 260.364 174.334 264.616C180.126 265.207 185.306 265.97 189.691 266.73C189.679 267.615 189.676 268.5 189.692 269.379C177.283 273.873 158.677 280.629 147.17 284.799C119.594 294.808 119.99 294.686 119.527 294.837C70.4763 310.318 40.662 295.17 31.3808 309.982C25.2704 319.734 31.9748 336.252 39.7958 345.39C64.8012 374.612 125.177 356.403 130.876 354.618C145.61 349.988 149.375 346.124 181.638 334.816C194.933 330.161 206.145 326.69 213.993 324.367C213.992 324.376 214.008 324.396 214.007 324.405C209.952 329.791 204.108 336.877 196.392 344.384C172.919 367.217 143.179 383.124 139.025 385.32C119.299 395.729 110.504 397.339 107.273 406.904C104.097 416.293 108.132 427.868 115.252 434.41C125.376 443.712 140.03 441.037 151.33 438.973C162.201 436.992 169.561 433.164 178.634 428.351C197.669 418.252 209.866 405.652 220.94 394.329C229.051 386.024 235.621 378.221 240.775 371.609L240.234 370.428C241.271 369.872 242.329 369.282 243.41 368.657C251.54 370.365 263.521 371.845 277.636 369.853C302.771 366.288 319.501 353.834 328.6 346.885C340.912 337.485 356.457 325.607 364.342 304.188C375.627 273.514 363.167 245.028 359.562 237.464C380.233 202.804 367.69 164.736 365.483 158.033C361.704 146.541 356.46 137.559 352.057 131.234C358.413 120.458 364.977 104.407 363.413 85.1672C361.734 64.5271 350.164 33.6968 330.134 31.2848C320.394 30.1082 310.048 35.8182 303.804 43.3087L303.795 43.3077ZM337.908 261.477L334.25 265.544C334.591 264.832 334.923 264.118 335.264 263.406C336.133 262.795 337.023 262.15 337.908 261.477Z" fill="#FF4900"/>
<path d="M243.101 206.216C237.347 234.622 235.828 263.406 241.332 291.853C243.071 301.402 245.53 310.716 248.149 320.148C225.614 287.636 223.574 240.596 243.092 206.215L243.101 206.216Z" fill="#E83E0A"/>
</g>
<defs>
<filter id="filter0_d_2259_913" x="3.21094" y="19.1306" width="566.542" height="449.854" filterUnits="userSpaceOnUse" color-interpolation-filters="sRGB">
<feFlood flood-opacity="0" result="BackgroundImageFix"/>
<feColorMatrix in="SourceAlpha" type="matrix" values="0 0 0 0 0 0 0 0 0 0 0 0 0 0 0 0 0 0 127 0" result="hardAlpha"/>
<feOffset dy="8"/>
<feGaussianBlur stdDeviation="10"/>
<feComposite in2="hardAlpha" operator="out"/>
<feColorMatrix type="matrix" values="0 0 0 0 0 0 0 0 0 0 0 0 0 0 0 0 0 0 0.35 0"/>
<feBlend mode="normal" in2="BackgroundImageFix" result="effect1_dropShadow_2259_913"/>
<feBlend mode="normal" in="SourceGraphic" in2="effect1_dropShadow_2259_913" result="shape"/>
</filter>
</defs>
</svg>
