<svg width="34" height="34" viewBox="0 0 34 34" fill="none" xmlns="http://www.w3.org/2000/svg">
<g clip-path="url(#clip0_4571_7226)">
<path fill-rule="evenodd" clip-rule="evenodd" d="M16.9313 33.6786C21.3623 33.6786 25.6118 31.9184 28.745 28.7852C31.8782 25.652 33.6384 21.4024 33.6384 16.9714C33.6384 12.5404 31.8782 8.29089 28.745 5.15769C25.6118 2.02449 21.3623 0.264282 16.9313 0.264282C12.5003 0.264282 8.25073 2.02449 5.11753 5.15769C1.98433 8.29089 0.224121 12.5404 0.224121 16.9714C0.224121 21.4024 1.98433 25.652 5.11753 28.7852C8.25073 31.9184 12.5003 33.6786 16.9313 33.6786ZM19.0197 10.7062C19.0197 11.2601 18.7996 11.7913 18.408 12.183C18.0163 12.5746 17.4851 12.7946 16.9313 12.7946C16.3774 12.7946 15.8462 12.5746 15.4546 12.183C15.0629 11.7913 14.8429 11.2601 14.8429 10.7062C14.8429 10.1524 15.0629 9.62118 15.4546 9.22953C15.8462 8.83788 16.3774 8.61786 16.9313 8.61786C17.4851 8.61786 18.0163 8.83788 18.408 9.22953C18.7996 9.62118 19.0197 10.1524 19.0197 10.7062ZM14.8429 14.883C14.4275 14.883 14.0291 15.0481 13.7353 15.3418C13.4416 15.6355 13.2766 16.0339 13.2766 16.4493C13.2766 16.8647 13.4416 17.2631 13.7353 17.5569C14.0291 17.8506 14.4275 18.0156 14.8429 18.0156H15.365V22.1924H13.2766C12.8612 22.1924 12.4628 22.3574 12.169 22.6512C11.8753 22.9449 11.7103 23.3433 11.7103 23.7587C11.7103 24.1741 11.8753 24.5725 12.169 24.8662C12.4628 25.16 12.8612 25.325 13.2766 25.325H20.586C21.0014 25.325 21.3998 25.16 21.6935 24.8662C21.9872 24.5725 22.1523 24.1741 22.1523 23.7587C22.1523 23.3433 21.9872 22.9449 21.6935 22.6512C21.3998 22.3574 21.0014 22.1924 20.586 22.1924H18.4976V14.883H14.8429Z" fill="#0538B9"/>
</g>
<defs>
<clipPath id="clip0_4571_7226">
<rect width="33.4143" height="33.4143" fill="white" transform="translate(0.224121 0.264282)"/>
</clipPath>
</defs>
</svg>
