<svg width="317" height="284" viewBox="0 0 317 284" fill="none" xmlns="http://www.w3.org/2000/svg">
<g filter="url(#filter0_d_2783_391)">
<path d="M104.987 -41.7123C159.218 -30.0057 201.039 1.05447 210.437 40.033C212.433 48.2995 213.634 59.6917 210.693 73.7502" stroke="#010101" stroke-width="38.1737" stroke-linecap="round" stroke-linejoin="round"/>
<path d="M233.822 107.297C227.423 121.286 204.998 124.74 183.735 115.013C162.472 105.286 150.422 86.0609 156.821 72.0725C163.22 58.084 185.645 54.6294 206.908 64.3565C228.171 74.0835 240.221 93.3087 233.822 107.297Z" fill="#0D56CC"/>
<path d="M190.596 78.9955C205.102 85.1781 227.281 94.6332 237.355 117.704C238.179 119.599 250.777 149.601 234.439 168.756C219.415 186.375 190.81 182.052 173.424 179.423C160.15 177.416 120.938 171.515 105.467 141.155C103.221 136.753 94.7914 118.723 101.695 98.7282C102.968 95.0369 107.053 83.6959 118.02 75.87C142.396 58.4641 178.937 74.0361 190.597 79.0103L190.596 78.9955Z" fill="#0049FF"/>
<path d="M209.273 146.151C223.605 146.621 234.063 155.297 235.149 156.225C244.799 164.453 247.738 174.755 248.625 178.859C253.634 202.088 235.731 226.016 215.046 234.397C204.847 238.531 196.121 238.007 193.977 237.839C191.381 237.637 170.411 235.693 161.231 219.981C154.835 209.047 157.741 197.577 159.427 190.902C164.784 169.731 184.434 145.336 209.279 146.154L209.273 146.151Z" fill="#184F7C"/>
<path d="M168.319 161.641C175.168 152.133 182.571 143.777 192.491 137.315C195.693 135.153 199.1 133.222 202.732 131.092C185.357 130.274 168.975 144.868 168.319 161.641Z" fill="#1553AD"/>
<path d="M173.017 159.89C173.831 148.153 175.719 137.16 180.727 126.608C182.298 123.139 184.167 119.764 186.121 116.103C171.026 123.89 164.814 144.784 173.014 159.896L173.017 159.89Z" fill="#1553AD"/>
<path d="M173.423 151.952C188 152.433 198.639 161.257 199.737 162.191C209.55 170.559 212.542 181.043 213.438 185.209C218.529 208.835 200.326 233.172 179.284 241.692C168.908 245.896 160.036 245.362 157.855 245.192C155.216 244.985 133.891 243.008 124.547 227.027C118.047 215.909 120.997 204.243 122.714 197.452C128.16 175.92 148.143 151.109 173.419 151.944L173.423 151.952Z" fill="#19549B"/>
<path d="M162.26 147.048C169.508 151.098 172.906 157.293 173.896 159.156C184.788 179.63 166.068 204.486 163.066 208.473C160.95 211.282 148.966 226.716 126.88 232.628C118.238 234.942 108.548 237.531 98.3376 232.774C83.2872 225.767 79.9804 208.807 79.7373 207.472C77.5679 195.357 82.9513 185.933 86.3564 180.174C101.891 153.91 139.976 134.603 162.257 147.054L162.26 147.048Z" fill="#1553AD"/>
<path d="M116.795 171.341C115.545 187.993 101.9 203.473 84.316 205.092C73.1016 206.128 61.2743 201.437 53.7613 192.978C37.2532 174.396 46.8864 144.901 59.8833 128.146" fill="#0D56CC"/>
<path d="M102.329 108.322C123.571 111.686 160.844 127.556 158.716 153.341C157.86 163.749 149.398 172.39 139.263 175.689C129.128 178.989 117.699 177.588 107.442 173.889C92.9887 168.68 72.8347 158.713 63.3442 146.37C49.8719 128.847 57.4131 102.934 70.6697 88.4354C84.5903 73.2116 105.764 67.3783 126.577 71.7768C141.716 74.9751 157.65 81.2716 170.474 90.0087" fill="#0049FF"/>
<path d="M122.288 109.602C125.32 110.982 128.28 112.221 131.053 113.806C133.826 115.355 136.503 116.983 138.942 118.883L139.875 119.568L140.759 120.311C141.337 120.813 141.955 121.261 142.51 121.781C143.065 122.301 143.609 122.831 144.172 123.333C144.733 123.841 145.215 124.421 145.747 124.96L146.522 125.775L147.239 126.635L147.958 127.489C148.208 127.769 148.437 128.061 148.645 128.365L149.967 130.149L151.146 132.013C151.572 132.618 151.873 133.281 152.23 133.919L152.755 134.886C152.916 135.211 153.047 135.552 153.199 135.88L153.652 136.872C153.803 137.2 153.962 137.531 154.069 137.875C154.309 138.554 154.539 139.242 154.804 139.917C155.19 141.302 155.588 142.693 155.842 144.119C155.994 144.828 156.042 145.548 156.16 146.264C156.224 146.984 156.306 147.713 156.336 148.439C156.633 154.28 155.41 160.239 153.324 166.185C157.658 161.548 160.479 155.399 161.152 148.742C161.519 145.414 161.177 141.984 160.408 138.646C160.181 137.822 159.923 136.999 159.674 136.173C159.563 135.755 159.398 135.356 159.239 134.96L158.76 133.762C158.595 133.363 158.439 132.96 158.248 132.571L157.649 131.419C157.236 130.654 156.879 129.865 156.393 129.146C154.616 126.161 152.334 123.505 149.826 121.128C147.327 118.732 144.486 116.72 141.505 115.047C135.538 111.678 128.852 109.799 122.285 109.608L122.288 109.602Z" fill="#1553AD"/>
</g>
<defs>
<filter id="filter0_d_2783_391" x="25.0164" y="-72.8032" width="244.458" height="346.112" filterUnits="userSpaceOnUse" color-interpolation-filters="sRGB">
<feFlood flood-opacity="0" result="BackgroundImageFix"/>
<feColorMatrix in="SourceAlpha" type="matrix" values="0 0 0 0 0 0 0 0 0 0 0 0 0 0 0 0 0 0 127 0" result="hardAlpha"/>
<feOffset dy="8"/>
<feGaussianBlur stdDeviation="10"/>
<feComposite in2="hardAlpha" operator="out"/>
<feColorMatrix type="matrix" values="0 0 0 0 0 0 0 0 0 0 0 0 0 0 0 0 0 0 0.2 0"/>
<feBlend mode="normal" in2="BackgroundImageFix" result="effect1_dropShadow_2783_391"/>
<feBlend mode="normal" in="SourceGraphic" in2="effect1_dropShadow_2783_391" result="shape"/>
</filter>
</defs>
</svg>
