<svg width="588" height="348" viewBox="0 0 588 348" fill="none" xmlns="http://www.w3.org/2000/svg">
<g filter="url(#filter0_d_2259_1052)">
<path d="M128.901 162.4C124.977 161.416 34.5305 140.225 -15.1622 196.847C-29.0061 212.619 -35.9737 230.193 -39.5508 244.822" stroke="#010101" stroke-width="37.457" stroke-miterlimit="10" stroke-linecap="round"/>
<path d="M228.235 278.619C190.572 265.797 172.541 235.618 166.293 224.779C140.885 180.74 134.538 108.199 178.379 68.7871C210.405 39.9906 252.474 43.9417 258.209 44.5671C318.991 51.2218 366.488 111.712 367.419 171.402C367.616 184.023 366.33 235.056 324.229 265.364C281.788 295.917 232.919 280.202 228.236 278.608L228.235 278.619Z" fill="#0049FF"/>
<path d="M351.8 82.7189C353.954 80.0366 370.902 58.9226 362.906 40.3482C355.615 23.4133 332.631 20.3082 323.825 19.1221C297.416 15.5645 272.403 27.7385 258.209 44.5671C254.118 49.4156 247.902 57.0006 246.474 68.4411C245.172 78.8549 248.094 90.3953 254.079 97.561C272.033 119.1 327.421 113.105 351.8 82.7189Z" fill="#1553AD"/>
<path d="M383.115 123.892C384.464 122.296 406.511 95.5952 396.207 73.9587C388.659 58.1071 368.236 54.4287 356.295 52.2781C312.983 44.4661 280.442 72.4134 272.826 78.9448C258.731 91.044 256.601 99.3373 256.041 103.61C254.01 118.942 265.525 131.489 267.261 133.382C291.35 159.628 354.622 157.544 383.114 123.913L383.115 123.892Z" fill="#0D56CC"/>
<path d="M335.172 125.044C352.635 117.728 438.116 82.5935 498.864 82.192C511.1 82.112 528.506 83.3978 544.244 94.435C548.242 97.2372 569.606 112.226 567.346 132.344C567.152 134.053 565.916 143.616 558.195 150.342C550.297 157.228 539.467 157.444 529.574 156.666C502.332 154.53 475.845 160.986 449.167 165.84C424.873 170.269 388.625 179.908 342.492 203.393C340.056 177.274 337.609 151.153 335.172 125.034L335.172 125.044Z" fill="#1553AD"/>
<path d="M111.132 158.565C109.002 199.476 130.182 233.834 158.437 235.305C186.693 236.776 211.326 204.803 213.456 163.892C215.585 122.981 194.406 88.6229 166.15 87.1519C137.895 85.6809 113.262 117.654 111.132 158.565Z" fill="#0049FF"/>
<path d="M343.296 177.601C381.31 194.015 434.262 205.229 474.399 214.679C510.817 223.26 549.834 236.806 559.831 277.292C562.218 286.948 561.873 297.623 556.972 306.288C544.313 328.67 519.954 316.73 503.04 307.214C489.629 299.672 475.744 292.949 461.508 287.094C418.705 269.491 373.092 259.904 326.819 259.351C336.397 232.95 333.718 204.002 343.296 177.601Z" fill="#0D56CC"/>
<path d="M189.098 141.598C201.967 125.502 223.699 116.816 244.269 119.911C265.472 122.998 283.472 138.792 290.906 158.645C296.001 171.564 296.454 185.96 292.744 198.684C292.584 192.033 291.929 185.577 290.503 179.355C289.966 176.691 288.742 172.863 287.866 170.244C287.513 169.329 285.988 165.612 285.661 164.804C285.324 164.186 284.43 162.325 284.095 161.665C264.412 123.702 222.956 118.327 189.108 141.598L189.098 141.598Z" fill="#0D56CC"/>
<path d="M268.057 282.168C279.671 281.666 301.896 278.9 323.017 263.719C337.51 253.296 350.943 238.136 356.431 220.611C363.249 198.822 351.134 185.232 344.272 165.747C335.14 139.827 346.194 107.766 332.706 95.4329C320.798 84.5529 290.238 89.4364 275.116 108.294C259.305 128.012 262.221 160.716 285.335 180.984" fill="#0049FF"/>
</g>
<defs>
<filter id="filter0_d_2259_1052" x="-78.2837" y="6.50171" width="665.797" height="340.547" filterUnits="userSpaceOnUse" color-interpolation-filters="sRGB">
<feFlood flood-opacity="0" result="BackgroundImageFix"/>
<feColorMatrix in="SourceAlpha" type="matrix" values="0 0 0 0 0 0 0 0 0 0 0 0 0 0 0 0 0 0 127 0" result="hardAlpha"/>
<feOffset dy="8"/>
<feGaussianBlur stdDeviation="10"/>
<feComposite in2="hardAlpha" operator="out"/>
<feColorMatrix type="matrix" values="0 0 0 0 0 0 0 0 0 0 0 0 0 0 0 0 0 0 0.35 0"/>
<feBlend mode="normal" in2="BackgroundImageFix" result="effect1_dropShadow_2259_1052"/>
<feBlend mode="normal" in="SourceGraphic" in2="effect1_dropShadow_2259_1052" result="shape"/>
</filter>
</defs>
</svg>
