<svg width="271" height="286" viewBox="0 0 271 286" fill="none" xmlns="http://www.w3.org/2000/svg">
<path d="M187.524 286C187.524 286 149.5 231 135.5 231C121.5 231 82.5 286 82.5 286C82.5 286 95 227.243 82.5 216.122C70 205 20 220.687 20 220.687C20 220.687 57.5 179 56 163.508C54.2382 145.313 0.5 122.129 0.5 122.129C0.5 122.129 59.5756 119.5 67 104.825C74.5 90 46.5 36.5 46.5 36.5C46.5 36.5 97.5 72.1739 109.5 68C121.5 63.8261 136 0.5 136 0.5C136 0.5 153.584 62.8356 165 68C176.416 73.1644 224.862 35.6082 224.862 35.6082C224.862 35.6082 198 90 204.127 104.825C210.272 119.693 270.978 122.129 270.978 122.129C270.978 122.129 217.436 148 214.852 163.508C212.104 180 251.673 220.687 251.673 220.687C251.673 220.687 198 205.973 187.524 216.122C178.359 225 187.524 286 187.524 286Z" fill="#FF4900"/>
</svg>
