<svg width="240" height="238" viewBox="0 0 240 238" fill="none" xmlns="http://www.w3.org/2000/svg">
<path d="M238.981 119.508H239.015C239.015 53.9434 185.071 -0.000915527 119.507 -0.000915527C53.9423 -0.000915527 0.842752 53.1504 0.0324661 118.042H-0.00201416L-0.00201416 176.797C-0.00201416 210.587 27.3925 237.999 61.2004 237.999C94.9911 237.999 122.403 210.605 122.403 176.797V135.179C130.161 192.433 179.744 237.172 238.981 237.172C239.239 237.172 238.912 236.516 239.17 236.516L238.981 119.508Z" fill="#0049FF"/>
<path d="M79.3539 100.644C94.1883 100.644 106.214 87.7076 106.214 71.7496C106.214 55.7916 94.1883 42.8552 79.3539 42.8552C64.5195 42.8552 52.4938 55.7916 52.4938 71.7496C52.4938 87.7076 64.5195 100.644 79.3539 100.644Z" fill="#F7F5E9"/>
<path d="M73.1641 97.8534C84.5899 97.8534 93.8523 87.5566 93.8523 74.855C93.8523 62.1534 84.5899 51.8567 73.1641 51.8567C61.7384 51.8567 52.476 62.1534 52.476 74.855C52.476 87.5566 61.7384 97.8534 73.1641 97.8534Z" fill="#322E23"/>
<path d="M145.557 97.8531C160.391 97.8531 172.417 84.9166 172.417 68.9586C172.417 53.0006 160.391 40.0641 145.557 40.0641C130.722 40.0641 118.697 53.0006 118.697 68.9586C118.697 84.9166 130.722 97.8531 145.557 97.8531Z" fill="#F7F5E9"/>
<path d="M139.368 95.0599C150.793 95.0599 160.056 84.7632 160.056 72.0616C160.056 59.3599 150.793 49.0632 139.368 49.0632C127.942 49.0632 118.679 59.3599 118.679 72.0616C118.679 84.7632 127.942 95.0599 139.368 95.0599Z" fill="#322E23"/>
<path d="M101.525 110.336C104.766 115.249 110.524 117.99 116.369 117.387C122.661 116.732 128.006 112.318 129.816 106.233" stroke="#322E23" stroke-width="5.59355" stroke-linecap="round" stroke-linejoin="round"/>
<path d="M127.263 102.56C127.419 103.129 128.005 104.905 129.815 106.232C131.435 107.422 133.108 107.56 133.728 107.577" stroke="#322E23" stroke-width="5.59355" stroke-linecap="round" stroke-linejoin="round"/>
</svg>
