<svg width="119" height="118" viewBox="0 0 119 118" fill="none" xmlns="http://www.w3.org/2000/svg">
<path d="M102.145 74.6797L90.9648 59.7687C102.486 59.3991 112.424 50.8247 114.111 39.0231C116.002 25.8 106.815 13.5462 93.5917 11.6552L39.2777 3.88797C26.0545 1.99698 13.8007 11.1845 11.9098 24.4077C11.5773 26.7325 11.596 29.0319 11.9067 31.2447C12.2899 35.7495 13.8896 40.2016 16.802 44.0859L62.194 104.627C70.4616 115.654 86.1131 117.892 97.1398 109.624C108.167 101.357 110.405 85.7054 102.137 74.6787L102.145 74.6797Z" fill="#FF4900"/>
<path d="M35.5472 20.4138L60.0907 23.9237L59.0796 30.9943C58.1108 37.7687 51.8242 42.4757 45.0571 41.5079C38.2827 40.5391 33.5757 34.2525 34.5435 27.4855L35.5546 20.4149L35.5472 20.4138Z" fill="#F9F2EC"/>
<path d="M39.1824 20.934L54.8414 23.1734L54.2284 27.4602C53.6185 31.7247 49.658 34.6942 45.3935 34.0843L45.1862 34.0547C40.9216 33.4448 37.9522 29.4843 38.562 25.2198L39.175 20.933L39.1824 20.934Z" fill="#333333"/>
<path d="M33.5109 20.1229L61.2306 24.087" stroke="#322E23" stroke-width="4.11622" stroke-linecap="round" stroke-linejoin="round"/>
<path d="M69.3967 25.2546L93.9402 28.7645L92.9291 35.8351C91.9603 42.6095 85.6737 47.3165 78.9066 46.3487C72.1322 45.38 67.4252 39.0933 68.393 32.3263L69.4041 25.2557L69.3967 25.2546Z" fill="#F9F2EC"/>
<path d="M73.0323 25.7746L88.6913 28.0139L88.0783 32.3007C87.4684 36.5653 83.508 39.5347 79.2434 38.9249L79.0361 38.8952C74.7715 38.2854 71.802 34.3249 72.4119 30.0604L73.0249 25.7736L73.0323 25.7746Z" fill="#333333"/>
<path d="M67.361 24.9636L95.0882 28.9288" stroke="#322E23" stroke-width="4.11622" stroke-linecap="round" stroke-linejoin="round"/>
<path d="M53.4006 50.7327C53.8385 50.3646 56.8956 47.8477 61.2088 48.5401C65.4565 49.2155 67.5778 52.4503 67.8844 52.9475" stroke="#322E23" stroke-width="4.11622" stroke-linecap="round" stroke-linejoin="round"/>
</svg>
