<svg width="100" height="100" viewBox="0 0 100 100" fill="none" xmlns="http://www.w3.org/2000/svg">
<circle cx="50" cy="50" r="50" fill="#FF4900"/>
<path d="M20.1057 41H45.4885V48.3124C45.4885 55.3185 39.7994 60.9999 32.8009 60.9999C25.7948 60.9999 20.1134 55.3108 20.1134 48.3124V41H20.1057Z" fill="#F9F2EC"/>
<path d="M26.928 41H43.1224V45.4334C43.1224 49.8438 39.539 53.4272 35.1286 53.4272H34.9142C30.5038 53.4272 26.9203 49.8438 26.9203 45.4334V41H26.928Z" fill="#333333"/>
<path d="M18 41H46.6676" stroke="#322E23" stroke-width="1.53183" stroke-linecap="round" stroke-linejoin="round"/>
<path d="M55.1134 41H80.4962V48.3124C80.4962 55.3185 74.8071 60.9999 67.8086 60.9999C60.8025 60.9999 55.1211 55.3108 55.1211 48.3124V41H55.1134Z" fill="#F9F2EC"/>
<path d="M61.9356 41H78.13V45.4334C78.13 49.8438 74.5466 53.4272 70.1362 53.4272H69.9218C65.5114 53.4272 61.9279 49.8438 61.9279 45.4334V41H61.9356Z" fill="#333333"/>
<path d="M53.0076 41H81.6829" stroke="#322E23" stroke-width="1.53183" stroke-linecap="round" stroke-linejoin="round"/>
<path d="M34 72.8787C34 72.8787 63.2345 69.2974 64.8874 70.1238C66.5404 70.9503 49.4437 82.5371 49.4437 82.5371L34 72.8787Z" fill="#322E23"/>
</svg>
