<svg width="105" height="103" viewBox="0 0 105 103" fill="none" xmlns="http://www.w3.org/2000/svg">
<path d="M104.748 28.603C104.748 13.3046 92.3425 0.898682 77.0441 0.898682H0.988525L20.8291 48.1255C9.35531 51.5136 0.988525 62.1219 0.988525 74.6906C0.988525 89.989 13.3945 102.395 28.6929 102.395H104.748L84.9079 55.1681C96.3817 51.78 104.748 41.1717 104.748 28.603Z" fill="#0049FF"/>
<path d="M55.3465 56.2256C53.9557 58.334 51.4849 59.5102 48.9771 59.2513C46.277 58.9702 43.9837 57.0763 43.2069 54.465" stroke="#322E23" stroke-width="4.11621" stroke-linecap="round" stroke-linejoin="round"/>
<path d="M44.3017 52.897C44.2351 53.1411 43.9836 53.9031 43.2069 54.4727C42.5115 54.9831 41.7939 55.0423 41.5276 55.0497" stroke="#322E23" stroke-width="4.11621" stroke-linecap="round" stroke-linejoin="round"/>
<path d="M28.2642 23.3584H52.7875V30.4232C52.7875 37.1921 47.291 42.6811 40.5295 42.6811C33.7606 42.6811 28.2715 37.1847 28.2715 30.4232V23.3584H28.2642Z" fill="#F9F2EC"/>
<path d="M34.8556 23.3578H50.5018V27.641C50.5018 31.9021 47.0397 35.3642 42.7786 35.3642H42.5715C38.3104 35.3642 34.8483 31.9021 34.8483 27.641V23.3578H34.8556Z" fill="#333333"/>
<path d="M26.2223 23.3583H53.9266" stroke="#322E23" stroke-width="4.11621" stroke-linecap="round" stroke-linejoin="round"/>
<path d="M62.087 23.3578H86.6104V30.4226C86.6104 37.1915 81.1139 42.6805 74.3524 42.6805C67.5835 42.6805 62.0944 37.1841 62.0944 30.4226V23.3578H62.087Z" fill="#F9F2EC"/>
<path d="M68.678 23.3577H84.3242V27.6409C84.3242 31.902 80.862 35.3641 76.601 35.3641H76.3938C72.1328 35.3641 68.6707 31.902 68.6707 27.6409V23.3577H68.678Z" fill="#333333"/>
<path d="M60.0519 23.3579H87.7488" stroke="#322E23" stroke-width="4.11621" stroke-linecap="round" stroke-linejoin="round"/>
</svg>
