<svg width="100" height="100" viewBox="0 0 100 100" fill="none" xmlns="http://www.w3.org/2000/svg">
<circle cx="50" cy="50" r="50" fill="#0049FF"/>
<path d="M20.1057 41H45.4885V48.3124C45.4885 55.3185 39.7994 60.9999 32.8009 60.9999C25.7948 60.9999 20.1134 55.3108 20.1134 48.3124V41H20.1057Z" fill="#F9F2EC"/>
<path d="M26.9279 41H43.1224V45.4334C43.1224 49.8438 39.5389 53.4272 35.1285 53.4272H34.9141C30.5037 53.4272 26.9203 49.8438 26.9203 45.4334V41H26.9279Z" fill="#333333"/>
<path d="M18 41H46.6676" stroke="#322E23" stroke-width="1.53183" stroke-linecap="round" stroke-linejoin="round"/>
<path d="M55.1135 41H80.4963V48.3124C80.4963 55.3185 74.8072 60.9999 67.8087 60.9999C60.8026 60.9999 55.1212 55.3108 55.1212 48.3124V41H55.1135Z" fill="#F9F2EC"/>
<path d="M61.9358 41H78.1302V45.4334C78.1302 49.8438 74.5467 53.4272 70.1363 53.4272H69.922C65.5116 53.4272 61.9281 49.8438 61.9281 45.4334V41H61.9358Z" fill="#333333"/>
<path d="M53.0077 41H81.6829" stroke="#322E23" stroke-width="1.53183" stroke-linecap="round" stroke-linejoin="round"/>
<path d="M34 72.8787C34 72.8787 63.2345 69.2974 64.8874 70.1238C66.5404 70.9503 49.4437 82.5371 49.4437 82.5371L34 72.8787Z" fill="#322E23"/>
</svg>
