<svg width="1820" height="844" viewBox="0 0 1820 844" fill="none" xmlns="http://www.w3.org/2000/svg">
<g filter="url(#filter0_d_3562_2902)">
<path d="M26.6431 111.627V374.706V753.687C26.6431 807.26 76.9287 817.464 102.071 815.87H798.693C817.615 815.87 824.028 785.33 840.218 785.33H988.446C1001.32 785.33 1013.15 813.326 1027.87 815.87C1042.59 818.413 1444.04 815.87 1711.72 815.87C1761.65 815.87 1793.14 798.057 1793.14 753.687C1791.67 577.565 1789.61 183.67 1793.14 115.674C1796.67 47.6783 1749.23 28.2265 1725.07 27C1497.31 27.4906 992.126 27 992.126 27C968.998 27 915.383 36.9868 910.127 100.589V165.241C910.127 194.151 891.99 190.095 861.243 189.946H277.265C239.419 189.946 227.473 182.376 228.381 148.421V100.063C228.381 100.063 224.702 31.0473 169.405 31.0473C114.108 31.0473 142.692 30.4586 88.8254 31.0473C34.9586 31.636 24.926 85.0123 26.6431 111.627Z" fill="white"/>
<path d="M26.6431 111.627V374.706V753.687C26.6431 807.26 76.9287 817.464 102.071 815.87H798.693C817.615 815.87 824.028 785.33 840.218 785.33H988.446C1001.32 785.33 1013.15 813.326 1027.87 815.87C1042.59 818.413 1444.04 815.87 1711.72 815.87C1761.65 815.87 1793.14 798.057 1793.14 753.687C1791.67 577.565 1789.61 183.67 1793.14 115.674C1796.67 47.6783 1749.23 28.2265 1725.07 27C1497.31 27.4906 992.126 27 992.126 27C968.998 27 915.383 36.9868 910.127 100.589V165.241C910.127 194.151 891.99 190.095 861.243 189.946H277.265C239.419 189.946 227.473 182.376 228.381 148.421V100.063C228.381 100.063 224.702 31.0473 169.405 31.0473C114.108 31.0473 142.692 30.4586 88.8254 31.0473C34.9586 31.636 24.926 85.0123 26.6431 111.627Z" stroke="#0049FF" stroke-width="5.88709"/>
</g>
<defs>
<filter id="filter0_d_3562_2902" x="0.394613" y="0.928427" width="1819" height="842.143" filterUnits="userSpaceOnUse" color-interpolation-filters="sRGB">
<feFlood flood-opacity="0" result="BackgroundImageFix"/>
<feColorMatrix in="SourceAlpha" type="matrix" values="0 0 0 0 0 0 0 0 0 0 0 0 0 0 0 0 0 0 127 0" result="hardAlpha"/>
<feOffset/>
<feGaussianBlur stdDeviation="11.5639"/>
<feComposite in2="hardAlpha" operator="out"/>
<feColorMatrix type="matrix" values="0 0 0 0 0.0634896 0 0 0 0 0.292431 0 0 0 0 0.6625 0 0 0 1 0"/>
<feBlend mode="normal" in2="BackgroundImageFix" result="effect1_dropShadow_3562_2902"/>
<feBlend mode="normal" in="SourceGraphic" in2="effect1_dropShadow_3562_2902" result="shape"/>
</filter>
</defs>
</svg>
