<svg width="750" height="695" viewBox="0 0 750 695" fill="none" xmlns="http://www.w3.org/2000/svg">
<path d="M126.646 112.802C126.646 137.187 146.414 156.956 170.799 156.956H714.888C733.954 156.956 749.41 172.412 749.41 191.478C749.41 210.544 733.954 226 714.888 226H686.776C667.881 226 655.088 245.251 662.406 262.671C668.508 277.195 658.995 294.172 651.496 308.026C648.628 313.324 647 319.391 647 325.839C647 346.538 663.785 363.323 684.483 363.323H705.257C729.642 363.323 749.41 383.091 749.41 407.476V650.156C749.41 674.541 729.642 694.309 705.257 694.309H45.0625C20.6774 694.309 0.90918 674.541 0.90918 650.156V44.6266C0.909386 20.2416 20.6775 0.474243 45.0625 0.474243H82.4923C106.877 0.474243 126.646 20.2423 126.646 44.6274V112.802Z" fill="#FFC3AB"/>
</svg>
