<svg width="758" height="694" viewBox="0 0 758 694" fill="none" xmlns="http://www.w3.org/2000/svg">
<path d="M713.259 0.0020752C737.644 0.00231709 757.411 19.7704 757.411 44.1554V87.4305C757.411 119.818 725.915 144.856 706.796 170.997C700.19 180.029 696.333 190.912 696.333 202.624C696.333 214.337 700.189 225.219 706.795 234.251C725.915 260.392 757.411 285.43 757.411 317.817V394.04C757.411 404.107 746.12 410.972 736.053 410.972C711.84 410.972 692.212 429.703 692.212 452.809C692.212 475.915 711.84 494.646 736.053 494.647C746.12 494.647 757.411 501.51 757.411 511.578V649.685C757.411 674.07 737.644 693.838 713.259 693.838H151.472C133.594 693.838 119.094 679.361 119.065 661.484L119.012 629.041C119.012 629.031 119.02 629.024 119.029 629.024C119.039 629.024 119.047 629.016 119.047 629.006C119.04 582.715 92.9117 542.054 54.7193 521.08C26.9534 505.831 0.501099 480.999 0.501099 449.322V44.1554C0.501099 19.7704 20.2685 0.00227141 44.6534 0.0020752H713.259ZM0.8927 655.577C1.82493 659.68 2.96713 663.707 4.30872 667.646C2.62644 663.873 1.45863 659.82 0.8927 655.577Z" fill="#BACEFF"/>
</svg>
