<svg width="1048" height="702" viewBox="0 0 1048 702" fill="none" xmlns="http://www.w3.org/2000/svg">
<g filter="url(#filter0_d_5484_4232)">
<path d="M999.848 0C1024.23 0.000175237 1044 19.7683 1044 44.1533V97.8673C1044 121.503 1023.06 139.658 999.667 136.312C983.011 133.931 967.576 145.504 965.194 162.159C964.776 165.087 964.799 167.984 965.19 170.771C965.673 176.446 967.688 182.054 971.356 186.946L1028.53 263.203C1035.44 272.414 1044 282.055 1044 293.567V470.357C1044 499.256 1004.9 519 976 519C919.115 519 873 565.115 873 622C873 651.713 852.323 694 822.61 694H155.054C137.131 694 122.594 679.486 122.565 661.563L122.512 629.039C122.512 629.029 122.52 629.021 122.529 629.021C122.539 629.021 122.547 629.014 122.547 629.004C122.539 576.298 88.6676 530.889 41.6825 513.529C21.4932 506.069 4.00098 489.037 4.00098 467.514V44.1533C4.00098 19.7683 23.7684 0.000179425 48.1533 0H999.848ZM4.34082 655.344C5.33565 659.763 6.57349 664.094 8.04199 668.322C6.18052 664.288 4.90973 659.925 4.34082 655.344Z" fill="url(#paint0_linear_5484_4232)"/>
</g>
<defs>
<filter id="filter0_d_5484_4232" x="0.000976562" y="0" width="1048" height="702" filterUnits="userSpaceOnUse" color-interpolation-filters="sRGB">
<feFlood flood-opacity="0" result="BackgroundImageFix"/>
<feColorMatrix in="SourceAlpha" type="matrix" values="0 0 0 0 0 0 0 0 0 0 0 0 0 0 0 0 0 0 127 0" result="hardAlpha"/>
<feOffset dy="4"/>
<feGaussianBlur stdDeviation="2"/>
<feComposite in2="hardAlpha" operator="out"/>
<feColorMatrix type="matrix" values="0 0 0 0 0 0 0 0 0 0 0 0 0 0 0 0 0 0 0.25 0"/>
<feBlend mode="normal" in2="BackgroundImageFix" result="effect1_dropShadow_5484_4232"/>
<feBlend mode="normal" in="SourceGraphic" in2="effect1_dropShadow_5484_4232" result="shape"/>
</filter>
<linearGradient id="paint0_linear_5484_4232" x1="524.001" y1="0" x2="524.001" y2="694" gradientUnits="userSpaceOnUse">
<stop stop-color="#ADC2F0"/>
<stop offset="1" stop-color="#0049FF"/>
</linearGradient>
</defs>
</svg>
