<svg width="129" height="124" viewBox="0 0 129 124" fill="none" xmlns="http://www.w3.org/2000/svg">
<path d="M0.534485 28.1726L0.534485 34.997C0.534485 47.9119 9.35848 58.7631 21.3011 61.8543H4.27689L4.27689 123.09H101.047C116.237 123.09 128.547 110.781 128.547 95.5909V89.3536C128.547 76.5578 119.814 65.8076 107.982 62.7348H124.804V0.443985H28.2723C12.9541 0.443985 0.534485 12.8636 0.534485 28.1818V28.1726Z" fill="#0049FF"/>
<path d="M67.9801 40.0876C67.9801 32.6965 61.5367 26.7048 53.5884 26.7048C45.6401 26.7048 39.1967 32.6965 39.1967 40.0876C39.1967 47.4786 45.6401 53.4703 53.5884 53.4703C61.5367 53.4703 67.9801 47.4786 67.9801 40.0876Z" fill="#F7F5E9"/>
<path d="M66.595 37.0051C66.595 31.3161 61.4658 26.7043 55.1385 26.7043C48.8113 26.7043 43.682 31.3161 43.682 37.0051C43.682 42.6941 48.8113 47.3059 55.1385 47.3059C61.4658 47.3059 66.595 42.6941 66.595 37.0051Z" fill="#322E23"/>
<path d="M66.5863 73.0536C66.5863 65.6625 60.1429 59.6708 52.1946 59.6708C44.2463 59.6708 37.8029 65.6625 37.8029 73.0536C37.8029 80.4447 44.2463 86.4363 52.1946 86.4363C60.1429 86.4363 66.5863 80.4447 66.5863 73.0536Z" fill="#F7F5E9"/>
<path d="M65.2014 69.9715C65.2014 64.2826 60.0721 59.6708 53.7449 59.6708C47.4176 59.6708 42.2883 64.2826 42.2883 69.9715C42.2883 75.6605 47.4176 80.2723 53.7449 80.2723C60.0721 80.2723 65.2014 75.6605 65.2014 69.9715Z" fill="#322E23"/>
<path d="M73.0062 79.0803C78.5464 76.4202 82.1879 70.8616 82.3806 64.7436C82.6007 58.1485 78.7849 52.0121 72.7585 49.2878" stroke="#322E23" stroke-width="1.77748" stroke-linecap="round" stroke-linejoin="round"/>
<path d="M77.6842 76.3657C82.1971 78.778 86.8109 78.246 88.2143 76.2097C89.792 73.9257 88.2968 68.413 82.7108 65.2302C82.3897 66.9821 81.7843 69.2845 80.5644 71.7886C79.638 73.6873 78.6106 75.2099 77.6842 76.3748V76.3657Z" fill="#322E23"/>
</svg>
