<svg width="17" height="20" viewBox="0 0 17 20" fill="none" xmlns="http://www.w3.org/2000/svg">
<path opacity="0.3" d="M8.30374 3.64578V0.855782C8.30374 0.405782 7.76374 0.185782 7.45374 0.505782L3.65374 4.29578C3.45374 4.49578 3.45374 4.80578 3.65374 5.00578L7.44374 8.79578C7.76374 9.10578 8.30374 8.88578 8.30374 8.43578V5.64578C12.0337 5.64578 14.9837 9.06578 14.1637 12.9358C13.6937 15.2058 11.8537 17.0358 9.59374 17.5058C6.02374 18.2558 2.84374 15.8058 2.36374 12.4958C2.32809 12.2607 2.20986 12.0461 2.03027 11.8903C1.85068 11.7345 1.62146 11.6478 1.38374 11.6458C0.783739 11.6458 0.303739 12.1758 0.383739 12.7758C1.00374 17.1658 5.18374 20.4158 9.91374 19.4958C13.0337 18.8858 15.5437 16.3758 16.1537 13.2558C17.1437 8.12578 13.2437 3.64578 8.30374 3.64578Z" fill="black"/>
</svg>
