<svg width="425" height="516" viewBox="0 0 425 516" fill="none" xmlns="http://www.w3.org/2000/svg">
<rect x="47.4729" y="0.546469" width="378.383" height="480.189" rx="58.0295" transform="rotate(5.60818 47.4729 0.546469)" fill="url(#paint0_linear_2313_151)" stroke="white"/>
<mask id="mask0_2313_151" style="mask-type:alpha" maskUnits="userSpaceOnUse" x="109" y="164" width="219" height="216">
<path d="M159.922 348.338C160.371 331.533 180.46 318.438 204.792 319.089C229.124 319.739 248.485 333.889 248.036 350.693C247.586 367.497 227.497 380.593 203.165 379.942C178.833 379.292 159.472 365.142 159.922 348.338Z" fill="#F24103"/>
<path d="M212.844 358.221C196.428 358.232 171.33 358.248 152.3 339.386C150.74 337.835 126.474 313.089 134.351 286.828C141.591 262.674 170.764 254.742 188.495 249.923C202.033 246.244 242.014 235.347 269.178 259.219C273.119 262.679 288.525 277.181 290.032 300.238C290.312 304.494 291.005 317.645 283.673 330.217C267.384 358.17 226.034 358.201 212.837 358.206L212.844 358.221Z" fill="#FF4900"/>
<path d="M167.663 298.748C153.736 304.427 140.188 300.195 138.77 299.728C126.177 295.601 119.174 286.509 116.657 282.765C102.418 261.57 109.853 229.84 126.273 212.54C134.369 204.009 142.945 200.791 145.068 200.04C147.639 199.128 168.527 192.084 183.71 203.934C194.282 212.177 196.158 224.952 197.254 232.384C200.722 255.959 191.802 288.908 167.656 298.748L167.663 298.748Z" fill="#D32F1E"/>
<path d="M200.614 265.604C197.913 278.099 194.213 289.673 187.331 300.425C185.14 303.971 182.661 307.374 180.044 311.073C197.03 304.439 206.801 282.742 200.614 265.604Z" fill="#F24103"/>
<path d="M196.83 269.38C200.818 281.524 203.476 293.382 202.964 306.136C202.867 310.296 202.447 314.491 202.062 319.008C213.366 304.705 210.83 281.041 196.83 269.372L196.83 269.38Z" fill="#F24103"/>
<path d="M199.666 277.531C185.5 283.303 171.718 279.001 170.285 278.533C157.48 274.336 150.353 265.083 147.801 261.281C133.321 239.722 140.879 207.452 157.585 189.86C165.821 181.182 174.542 177.91 176.701 177.146C179.315 176.221 200.556 169.057 216.005 181.107C226.753 189.491 228.666 202.482 229.78 210.043C233.309 234.02 224.238 267.53 199.673 277.538L199.666 277.531Z" fill="#DD3217"/>
<path d="M212.358 277.677C203.765 276.718 197.991 271.95 196.285 270.502C177.527 254.601 185.369 221.587 186.626 216.292C187.513 212.561 192.728 191.908 211.494 176.488C218.836 170.454 227.071 163.694 238.791 164.093C256.063 164.676 266.123 180.302 266.899 181.538C273.901 192.783 272.57 204.564 271.647 211.813C267.43 244.874 238.772 280.622 212.358 277.67L212.358 277.677Z" fill="#E83E0A"/>
<path d="M246.062 233.745C240.494 216.473 247.282 195.061 263.478 185.888C273.805 180.035 287.047 179.674 297.685 184.95C321.057 196.54 323.809 230.317 318.16 252.732" fill="#F24103"/>
<path d="M285.526 290.87C263.801 296.605 221.628 296.651 213.19 269.825C209.782 258.998 214.381 246.682 222.754 239.017C231.127 231.351 242.651 227.854 253.984 227.17C269.953 226.202 293.32 227.571 307.431 235.902C327.464 247.731 330.765 277.009 323.951 297.269C316.794 318.543 298.871 333.491 277.135 338.003C261.326 341.285 243.495 341.796 227.654 338.518" fill="#FF4900"/>
<path d="M265.877 298.156C262.41 298.07 259.069 298.095 255.768 297.692C252.481 297.325 249.254 296.838 246.144 295.976L244.971 295.687L243.822 295.32C243.064 295.064 242.289 294.878 241.546 294.594C240.802 294.309 240.067 294.011 239.323 293.748C238.579 293.478 237.881 293.101 237.152 292.789L236.078 292.302L235.042 291.745L234.005 291.195C233.652 291.021 233.314 290.826 232.991 290.61L230.999 289.384L229.112 288.017C228.458 287.592 227.9 287.055 227.298 286.567L226.402 285.821C226.116 285.563 225.852 285.277 225.573 285.012L224.736 284.21C224.457 283.945 224.171 283.68 223.928 283.38C223.422 282.801 222.923 282.209 222.394 281.644C221.461 280.417 220.514 279.19 219.691 277.866C219.258 277.218 218.919 276.515 218.515 275.847C218.162 275.15 217.787 274.454 217.463 273.737C214.805 267.994 213.556 261.48 213.139 254.61C210.869 261.13 210.664 268.52 212.724 275.499C213.724 279.001 215.446 282.302 217.539 285.326C218.092 286.056 218.674 286.773 219.248 287.496C219.524 287.868 219.844 288.199 220.157 288.529L221.103 289.527C221.424 289.858 221.736 290.195 222.079 290.504L223.12 291.405C223.827 291.996 224.489 292.636 225.248 293.15C228.164 295.388 231.43 297.077 234.8 298.39C238.169 299.725 241.709 300.528 245.246 300.93C252.334 301.756 259.505 300.775 265.877 298.148L265.877 298.156Z" fill="#F24103"/>
</mask>
<g mask="url(#mask0_2313_151)">
<g filter="url(#filter0_d_2313_151)">
<path d="M159.922 348.338C160.371 331.533 180.46 318.438 204.792 319.089C229.124 319.739 248.485 333.889 248.036 350.693C247.586 367.497 227.497 380.593 203.165 379.942C178.833 379.292 159.472 365.142 159.922 348.338Z" fill="#F24103"/>
<path d="M212.844 358.221C196.429 358.232 171.33 358.248 152.3 339.386C150.74 337.835 126.475 313.089 134.351 286.828C141.591 262.674 170.764 254.742 188.495 249.923C202.033 246.244 242.014 235.347 269.178 259.219C273.12 262.679 288.525 277.181 290.033 300.238C290.312 304.494 291.005 317.645 283.674 330.217C267.384 358.17 226.034 358.201 212.837 358.206L212.844 358.221Z" fill="#FF4900"/>
<path d="M167.664 298.748C153.736 304.427 140.188 300.195 138.77 299.728C126.177 295.601 119.175 286.509 116.657 282.765C102.418 261.57 109.853 229.84 126.273 212.541C134.369 204.009 142.945 200.791 145.068 200.04C147.639 199.129 168.527 192.084 183.71 203.934C194.282 212.177 196.158 224.952 197.254 232.384C200.722 255.959 191.802 288.908 167.656 298.748L167.664 298.748Z" fill="#AF381A"/>
<path d="M200.614 265.604C197.913 278.099 194.213 289.673 187.331 300.425C185.14 303.971 182.661 307.374 180.044 311.074C197.03 304.439 206.801 282.742 200.614 265.604Z" fill="#F24103"/>
<path d="M196.83 269.38C200.818 281.524 203.477 293.382 202.964 306.136C202.867 310.296 202.447 314.491 202.062 319.008C213.366 304.705 210.83 281.041 196.83 269.373L196.83 269.38Z" fill="#F24103"/>
<path d="M199.666 277.531C185.5 283.303 171.718 279.001 170.285 278.534C157.48 274.336 150.353 265.083 147.801 261.281C133.321 239.723 140.879 207.452 157.585 189.86C165.821 181.182 174.542 177.911 176.701 177.146C179.315 176.221 200.556 169.057 216.006 181.108C226.753 189.492 228.666 202.482 229.78 210.043C233.309 234.02 224.238 267.531 199.673 277.538L199.666 277.531Z" fill="#CC3C18"/>
<path d="M212.358 277.677C203.765 276.718 197.991 271.95 196.285 270.502C177.527 254.601 185.369 221.587 186.626 216.292C187.513 212.561 192.728 191.908 211.494 176.488C218.837 170.454 227.071 163.694 238.791 164.093C256.063 164.676 266.124 180.302 266.899 181.538C273.901 192.783 272.57 204.564 271.647 211.813C267.43 244.874 238.772 280.622 212.358 277.67L212.358 277.677Z" fill="#E83E0A"/>
<path d="M246.062 233.746C240.494 216.474 247.282 195.062 263.478 185.889C273.805 180.035 287.047 179.674 297.685 184.951C321.057 196.54 323.809 230.317 318.16 252.732" fill="#F24103"/>
<path d="M285.527 290.87C263.801 296.605 221.628 296.651 213.19 269.825C209.782 258.998 214.381 246.682 222.754 239.017C231.128 231.351 242.651 227.854 253.985 227.17C269.953 226.202 293.32 227.571 307.431 235.902C327.464 247.731 330.765 277.009 323.951 297.269C316.795 318.543 298.871 333.492 277.135 338.003C261.326 341.285 243.496 341.796 227.655 338.519" fill="#FF4900"/>
<path d="M265.877 298.156C262.41 298.07 259.069 298.095 255.768 297.692C252.481 297.325 249.254 296.839 246.144 295.976L244.971 295.687L243.823 295.32C243.064 295.064 242.289 294.879 241.546 294.594C240.803 294.31 240.067 294.011 239.323 293.748C238.579 293.478 237.881 293.101 237.153 292.789L236.078 292.302L235.042 291.745L234.005 291.195C233.652 291.021 233.314 290.826 232.991 290.61L230.999 289.384L229.112 288.017C228.458 287.592 227.9 287.055 227.298 286.567L226.403 285.821C226.116 285.563 225.852 285.277 225.573 285.012L224.736 284.21C224.457 283.945 224.171 283.68 223.929 283.38C223.422 282.801 222.923 282.209 222.394 281.644C221.462 280.417 220.514 279.19 219.692 277.867C219.258 277.218 218.919 276.516 218.515 275.847C218.162 275.151 217.787 274.454 217.463 273.737C214.806 267.994 213.556 261.481 213.139 254.61C210.869 261.13 210.665 268.52 212.724 275.499C213.725 279.002 215.446 282.302 217.539 285.326C218.092 286.056 218.674 286.773 219.248 287.496C219.524 287.869 219.844 288.199 220.157 288.529L221.104 289.527C221.424 289.858 221.737 290.195 222.079 290.504L223.12 291.405C223.827 291.996 224.489 292.636 225.248 293.15C228.164 295.388 231.43 297.077 234.8 298.391C238.169 299.725 241.709 300.528 245.246 300.93C252.334 301.756 259.505 300.775 265.877 298.149L265.877 298.156Z" fill="#F24103"/>
</g>
<g style="mix-blend-mode:soft-light">
<rect x="96.3575" y="157.776" width="244.57" height="246.758" fill="#C4B300"/>
</g>
</g>
<path d="M88.775 44.721L103.429 46.1599C104.848 46.2993 106.164 46.6392 107.375 47.1797C108.545 47.716 109.535 48.3612 110.338 49.1988C111.141 50.0364 111.76 51.0245 112.155 52.1592C112.549 53.2938 112.681 54.5291 112.55 55.8651C112.365 57.7437 111.75 59.2851 110.746 60.4932C109.697 61.7389 108.141 62.5557 106.076 62.9851L106.064 63.1104C107.643 63.7712 108.734 64.6792 109.345 65.7509C109.952 66.8643 110.268 68.3706 110.246 70.3074C110.271 72.6281 110.266 74.398 110.268 75.6627C110.271 76.9275 110.489 77.7076 110.886 77.9574L110.857 78.2496L105.013 77.6757C104.62 77.3842 104.439 76.6499 104.474 75.431C104.506 74.2538 104.503 72.5675 104.582 70.4678C104.596 68.6145 104.184 67.2252 103.348 66.3001C102.511 65.3749 101.175 64.8221 99.3376 64.6418L92.6997 63.9899L91.4862 76.3475L85.7249 75.7817L88.775 44.721ZM93.1342 59.5646L100.649 60.3025C102.486 60.4829 103.905 60.2007 104.905 59.4559C105.905 58.7112 106.521 57.5914 106.665 56.1302C106.816 54.5855 106.476 53.3297 105.723 52.4128C104.97 51.4958 103.633 50.943 101.796 50.7627L94.073 50.0043L93.1342 59.5646ZM123.948 80.2094C122.194 80.0373 120.678 79.5933 119.32 78.8277C117.958 78.1039 116.871 77.1541 115.976 75.9703C115.077 74.8282 114.448 73.5019 114.045 72.0292C113.641 70.5565 113.543 68.9872 113.707 67.3172C113.871 65.6473 114.273 64.1272 114.955 62.7611C115.637 61.3949 116.511 60.2163 117.62 59.2292C118.724 58.2839 119.975 57.5637 121.452 57.1186C122.929 56.6735 124.506 56.4912 126.26 56.6634C127.972 56.8315 129.483 57.3171 130.846 58.041C132.166 58.7607 133.253 59.7105 134.152 60.8526C135.048 62.0364 135.676 63.3627 136.079 64.8354C136.441 66.304 136.582 67.8774 136.418 69.5474C136.254 71.2173 135.81 72.7333 135.169 74.1035C134.487 75.4697 133.613 76.6483 132.508 77.5937C131.4 78.5807 130.149 79.3009 128.714 79.7501C127.233 80.237 125.659 80.3775 123.948 80.2094ZM124.3 76.1975C125.26 76.2918 126.111 76.2068 126.904 75.8631C127.692 75.5611 128.372 75.0799 128.942 74.4194C129.509 73.8006 129.966 73.0025 130.311 72.0669C130.652 71.173 130.921 70.1457 131.032 69.0185C131.139 67.9331 131.074 66.873 130.918 65.8882C130.762 64.9034 130.468 64.0315 130.037 63.2726C129.605 62.5137 129.033 61.9094 128.322 61.4182C127.607 60.9686 126.793 60.6779 125.833 60.5836C124.831 60.4852 123.975 60.612 123.187 60.9139C122.395 61.2576 121.715 61.7389 121.144 62.3994C120.574 63.0599 120.116 63.858 119.771 64.7936C119.426 65.7292 119.199 66.7606 119.092 67.8461C118.981 68.9733 119.004 70.0293 119.164 70.9724C119.321 71.9572 119.614 72.829 120.05 73.5462C120.481 74.3051 121.054 74.9093 121.769 75.3588C122.479 75.8501 123.298 76.0991 124.3 76.1975ZM148.347 82.6054C146.594 82.4332 145.078 81.9893 143.762 81.2277C142.4 80.5039 141.313 79.5541 140.417 78.3703C139.518 77.2282 138.889 75.902 138.528 74.4333C138.124 72.9606 138.026 71.3913 138.19 69.7214C138.354 68.0514 138.756 66.5313 139.438 65.1652C140.078 63.7949 140.953 62.6163 142.061 61.6292C143.124 60.6798 144.375 59.9596 145.81 59.5104C147.245 59.0612 148.823 58.8789 150.576 59.0511C151.995 59.1905 153.227 59.5222 154.359 60.0127C155.487 60.545 156.436 61.1861 157.205 61.9361C157.971 62.7278 158.598 63.6324 159.043 64.6877C159.487 65.7429 159.756 66.8653 159.85 68.0548L154.673 67.5464C154.542 66.3111 154.093 65.2976 153.328 64.5059C152.563 63.7142 151.556 63.236 150.22 63.1048C149.218 63.0064 148.363 63.1331 147.574 63.4351C146.786 63.737 146.148 64.2224 145.582 64.8412C145.011 65.5017 144.595 66.3039 144.254 67.1977C143.91 68.1333 143.682 69.1647 143.575 70.2502C143.469 71.3357 143.491 72.3917 143.652 73.3347C143.812 74.2778 144.064 75.1455 144.499 75.8627C144.935 76.5799 145.466 77.18 146.18 77.6295C146.891 78.1208 147.71 78.3698 148.712 78.4682C150.173 78.6117 151.379 78.3507 152.295 77.5977C153.208 76.8865 153.82 75.8085 154.135 74.3219L159.311 74.8303C159.097 76.158 158.69 77.2983 158.082 78.3345C157.475 79.3708 156.675 80.2196 155.724 80.885C154.774 81.5503 153.668 82.0741 152.458 82.3768C151.207 82.6754 149.85 82.7529 148.347 82.6054ZM170.1 73.2763L167.212 75.6482L166.421 83.7056L161.16 83.1891L164.21 52.1283L169.471 52.6449L168.29 64.6684C168.183 65.7539 168.043 66.7517 167.907 67.7078C167.767 68.7057 167.647 69.4948 167.586 70.121L176.834 62.2196L183.138 62.8386L174.156 70.1761L181.909 85.2265L175.73 84.6198L170.1 73.2763Z" fill="white"/>
<path d="M85.1036 91.6117L90.7924 92.1703C92.1553 92.3041 93.1734 92.781 93.8468 93.601C94.0914 93.9122 94.2722 94.265 94.389 94.6594C94.5177 95.0549 94.5582 95.4956 94.5105 95.9815C94.4395 96.7045 94.1857 97.2779 93.7492 97.7017C93.3127 98.1255 92.7291 98.4032 91.9982 98.5349L91.9929 98.5882C92.3866 98.7226 92.7406 98.895 93.055 99.1053C93.3812 99.3168 93.6554 99.5711 93.8775 99.8681C94.1008 100.153 94.2602 100.48 94.3556 100.848C94.4641 101.206 94.4968 101.604 94.4537 102.043C94.4014 102.576 94.2648 103.053 94.0439 103.474C93.8243 103.883 93.5387 104.232 93.1873 104.521C92.7697 104.875 92.2718 105.131 91.6939 105.29C91.1159 105.448 90.4714 105.493 89.7603 105.423L83.8048 104.838L85.1036 91.6117ZM89.9901 97.7813C90.7723 97.8581 91.3942 97.7397 91.8558 97.426C92.3304 97.1017 92.6008 96.6017 92.6672 95.9262C92.7288 95.2981 92.5751 94.7924 92.2059 94.4091C91.8485 94.027 91.3143 93.801 90.6032 93.7312L86.7633 93.3541L86.3635 97.4252L89.9901 97.7813ZM89.8107 103.812C90.6996 103.9 91.3848 103.746 91.8664 103.35C92.2935 103.021 92.538 102.543 92.5997 101.914C92.6776 101.12 92.481 100.503 92.0098 100.062C91.5504 99.6217 90.9296 99.3633 90.1474 99.2865L86.2186 98.9007L85.7752 103.416L89.8107 103.812ZM98.3348 106.462C97.8844 106.418 97.4636 106.317 97.0723 106.159C96.6916 106.014 96.3642 105.814 96.09 105.56C95.8277 105.307 95.6299 105.006 95.4965 104.658C95.3644 104.298 95.321 103.887 95.3664 103.425C95.4211 102.868 95.5607 102.421 95.7852 102.084C96.0216 101.748 96.3281 101.491 96.7046 101.312C97.0929 101.135 97.5418 101.012 98.0512 100.942C98.5724 100.874 99.1447 100.834 99.768 100.823C100.127 100.823 100.452 100.807 100.742 100.776C101.032 100.744 101.283 100.691 101.493 100.616C101.705 100.529 101.872 100.414 101.994 100.27C102.116 100.127 102.189 99.9304 102.213 99.6816C102.265 99.1601 102.127 98.7337 101.801 98.4025C101.486 98.0725 100.997 97.8749 100.333 97.8097C99.5746 97.7352 98.9895 97.8453 98.5776 98.1399C98.1776 98.4357 97.9379 98.8668 97.8583 99.4334L96.2583 99.2763C96.3098 98.8745 96.4365 98.498 96.6385 98.1469C96.8405 97.7958 97.1154 97.4938 97.4633 97.2407C97.8113 96.9877 98.2304 96.8015 98.7208 96.6822C99.223 96.564 99.7941 96.5363 100.434 96.5991C100.884 96.6433 101.301 96.7261 101.684 96.8475C102.067 96.9689 102.404 97.1336 102.695 97.3416C103.074 97.6182 103.356 97.9809 103.539 98.4297C103.722 98.8784 103.782 99.4228 103.72 100.063L103.281 104.525C103.244 104.904 103.281 105.195 103.393 105.397C103.505 105.6 103.773 105.674 104.197 105.62L104.268 105.627L104.155 106.782C104.033 106.806 103.899 106.823 103.755 106.833C103.621 106.856 103.453 106.857 103.252 106.837C102.742 106.787 102.369 106.631 102.131 106.368C101.895 106.094 101.754 105.697 101.71 105.178L101.692 105.177C101.517 105.375 101.319 105.559 101.099 105.729C100.879 105.898 100.631 106.048 100.355 106.176C100.081 106.293 99.7732 106.376 99.4332 106.427C99.1039 106.49 98.7377 106.502 98.3348 106.462ZM98.8624 105.294C99.3364 105.34 99.7529 105.303 100.112 105.183C100.484 105.052 100.794 104.879 101.042 104.664C101.304 104.438 101.502 104.183 101.638 103.897C101.786 103.612 101.873 103.334 101.9 103.061L102.053 101.497C101.801 101.627 101.474 101.733 101.071 101.813C100.681 101.882 100.287 101.933 99.8891 101.966C99.491 101.999 99.1279 102.041 98.7998 102.093C98.4728 102.132 98.1897 102.212 97.9506 102.332C97.7126 102.44 97.5179 102.595 97.3666 102.795C97.2283 102.985 97.1429 103.246 97.1103 103.578C97.08 103.886 97.1084 104.146 97.1952 104.358C97.2833 104.558 97.4104 104.726 97.5765 104.862C97.7426 104.998 97.936 105.101 98.1565 105.17C98.39 105.229 98.6253 105.27 98.8624 105.294ZM105.314 97.3116L106.807 97.4582L107.102 94.4539L108.737 94.6145L108.442 97.6188L110.416 97.8126L110.29 99.0926L108.317 98.8988L107.725 104.925C107.691 105.269 107.751 105.514 107.904 105.661C108.07 105.797 108.307 105.88 108.615 105.91C108.758 105.924 108.907 105.927 109.063 105.918C109.233 105.899 109.366 105.882 109.463 105.868L109.517 105.873L109.38 107.26C108.92 107.322 108.47 107.332 108.031 107.289C107.393 107.214 106.886 107.015 106.511 106.691C106.137 106.355 105.984 105.837 106.053 105.138L106.681 98.7382L105.188 98.5916L105.314 97.3116ZM116.937 108.092L117.068 106.758L117.033 106.755C116.643 107.195 116.208 107.535 115.73 107.776C115.265 108.005 114.688 108.086 114.001 108.019C113.006 107.921 112.245 107.565 111.719 106.951C111.193 106.337 110.979 105.526 111.078 104.519L111.724 97.9411L113.377 98.1034L112.74 104.592C112.681 105.197 112.812 105.688 113.134 106.067C113.469 106.435 113.968 106.651 114.631 106.716C114.999 106.752 115.337 106.72 115.646 106.619C115.955 106.517 116.222 106.364 116.445 106.159C116.682 105.942 116.869 105.68 117.007 105.37C117.157 105.062 117.25 104.724 117.286 104.357L117.857 98.5433L119.51 98.7057L118.573 108.252L116.937 108.092Z" fill="white"/>
<rect opacity="0.7" x="302.852" y="56.3997" width="85.5887" height="41.8372" rx="20.9186" transform="rotate(5.60818 302.852 56.3997)" fill="#001B5E"/>
<ellipse cx="321.229" cy="79.2233" rx="16.113" ry="17.015" transform="rotate(5.60818 321.229 79.2233)" fill="#FF4900"/>
<path d="M349.578 90.7083C349.735 89.6204 350.021 88.6979 350.435 87.9407C350.866 87.1852 351.381 86.5228 351.98 85.9535C352.743 85.2646 353.589 84.6857 354.518 84.2167C355.447 83.7477 356.366 83.2947 357.274 82.8577C357.861 82.5927 358.386 82.3388 358.851 82.0959C359.335 81.8378 359.744 81.5639 360.078 81.2742C360.412 80.9845 360.674 80.6537 360.863 80.2818C361.069 79.9116 361.198 79.4659 361.249 78.9447C361.353 77.8855 361.101 76.995 360.493 76.2733C359.901 75.5532 359.026 75.1362 357.866 75.0223C356.689 74.9067 355.736 75.1866 355.008 75.862C354.618 76.1972 354.314 76.6172 354.095 77.1219C353.894 77.6114 353.756 78.2345 353.682 78.991L351.185 78.7459C351.284 77.7371 351.513 76.8768 351.871 76.1651C352.23 75.4534 352.705 74.8466 353.298 74.3446C353.91 73.8106 354.644 73.4327 355.497 73.211C356.351 72.9892 357.273 72.9271 358.265 73.0245C359.19 73.1153 360.008 73.3399 360.72 73.6984C361.433 74.04 362.026 74.4887 362.498 75.0442C362.988 75.5846 363.343 76.2051 363.563 76.9057C363.782 77.6063 363.853 78.3517 363.776 79.1419C363.693 79.9826 363.489 80.684 363.162 81.246C362.853 81.7929 362.458 82.2718 361.977 82.6829C361.495 83.0939 360.933 83.4546 360.292 83.7651C359.669 84.0604 359.002 84.3684 358.291 84.689C357.792 84.9286 357.267 85.1825 356.714 85.4508C356.18 85.7039 355.659 85.9923 355.152 86.316C354.647 86.6228 354.189 86.9598 353.78 87.327C353.37 87.6942 353.059 88.105 352.844 88.5592L352.774 88.756L362.408 89.702L362.187 91.9466L349.578 90.7083Z" fill="white"/>
<defs>
<filter id="filter0_d_2313_151" x="89.1101" y="152.076" width="258.065" height="255.889" filterUnits="userSpaceOnUse" color-interpolation-filters="sRGB">
<feFlood flood-opacity="0" result="BackgroundImageFix"/>
<feColorMatrix in="SourceAlpha" type="matrix" values="0 0 0 0 0 0 0 0 0 0 0 0 0 0 0 0 0 0 127 0" result="hardAlpha"/>
<feOffset dy="8"/>
<feGaussianBlur stdDeviation="10"/>
<feComposite in2="hardAlpha" operator="out"/>
<feColorMatrix type="matrix" values="0 0 0 0 0 0 0 0 0 0 0 0 0 0 0 0 0 0 0.35 0"/>
<feBlend mode="normal" in2="BackgroundImageFix" result="effect1_dropShadow_2313_151"/>
<feBlend mode="normal" in="SourceGraphic" in2="effect1_dropShadow_2313_151" result="shape"/>
</filter>
<linearGradient id="paint0_linear_2313_151" x1="365.692" y1="31.3753" x2="222.894" y2="239.69" gradientUnits="userSpaceOnUse">
<stop stop-color="#FF4900"/>
<stop offset="1" stop-color="#992C00"/>
</linearGradient>
</defs>
</svg>
