<svg width="380" height="482" viewBox="0 0 380 482" fill="none" xmlns="http://www.w3.org/2000/svg">
<rect x="1.11121" y="0.891113" width="378.383" height="480.189" rx="58.0295" fill="url(#paint0_linear_2313_175)" stroke="white"/>
<mask id="mask0_2313_175" style="mask-type:alpha" maskUnits="userSpaceOnUse" x="81" y="131" width="177" height="296">
<path d="M253.271 343.373C247.782 368.177 229.897 381.742 223.458 386.469C197.295 405.691 151.705 414.819 123.61 389.767C103.083 371.467 102.633 344.491 102.627 340.807C102.576 301.765 137.626 267.369 175.441 262.581C183.438 261.569 215.915 258.797 238.109 283.385C260.483 308.171 253.946 340.289 253.264 343.374L253.271 343.373Z" fill="#FF4900"/>
<path d="M120.258 278.728C118.405 277.55 103.814 268.279 92.5878 274.66C82.353 280.477 81.9984 295.282 81.8649 300.954C81.4639 317.964 90.9486 332.982 102.627 340.807C105.991 343.062 111.242 346.474 118.603 346.576C125.303 346.67 132.422 344.004 136.549 339.702C148.956 326.793 141.257 292.064 120.258 278.728Z" fill="#E83E0A"/>
<path d="M144.187 255.96C143.079 255.216 124.584 243.102 111.577 251.162C102.048 257.067 101.149 270.287 100.624 278.016C98.7115 306.052 118.736 324.739 123.416 329.113C132.086 337.208 137.499 337.976 140.25 338.031C150.123 338.243 157.276 330.052 158.355 328.817C173.318 311.685 167.547 271.677 144.2 255.959L144.187 255.96Z" fill="#F24103"/>
<path d="M148.289 286.299C142.418 275.731 114.11 223.952 109.584 185.427C108.673 177.668 108.265 166.531 114.163 155.767C115.66 153.032 123.671 138.42 136.597 138.44C137.695 138.443 143.851 138.555 148.663 142.983C153.588 147.511 154.487 154.369 154.688 160.702C155.249 178.14 161.208 194.496 166.164 211.086C170.683 226.192 179.349 248.519 197.497 276.145C181.092 279.527 164.687 282.917 148.282 286.299L148.289 286.299Z" fill="#E83E0A"/>
<path d="M185.315 426.132C211.428 424.607 231.744 408.75 230.69 390.714C229.637 372.679 207.614 359.294 181.501 360.819C155.387 362.344 135.072 378.201 136.125 396.236C137.178 414.272 159.201 427.656 185.315 426.132Z" fill="#FF4900"/>
<path d="M181.072 277.454C188.816 252.175 192.21 217.782 195.385 191.645C198.27 167.93 204.124 142.216 229.114 133.024C235.075 130.831 241.873 130.299 247.718 132.8C262.812 139.26 256.947 155.559 252.097 166.962C248.253 176.003 244.963 185.288 242.248 194.735C234.086 223.136 231.209 252.758 234.112 282.163C216.683 277.941 198.5 281.676 181.072 277.454Z" fill="#F24103"/>
<path d="M169.065 377.838C157.945 370.803 150.904 357.622 151.423 344.35C151.89 330.677 160.649 318.143 172.725 312.029C180.566 307.887 189.67 306.587 198.006 308.047C193.796 308.616 189.745 309.486 185.897 310.829C184.244 311.356 181.9 312.403 180.3 313.143C179.744 313.431 177.492 314.66 177.003 314.925C176.634 315.182 175.516 315.88 175.12 316.139C152.412 331.3 151.916 357.987 169.064 377.832L169.065 377.838Z" fill="#E83E0A"/>
<path d="M252.731 317.851C251.595 310.515 248.277 296.605 237.158 284.269C229.524 275.803 218.958 268.345 207.451 266.094C193.144 263.299 185.371 271.943 173.487 277.668C157.679 285.286 136.555 280.525 129.677 289.952C123.609 298.274 128.857 317.325 141.888 325.596C155.513 334.244 176.063 330.094 187.301 314" fill="#FF4900"/>
</mask>
<g mask="url(#mask0_2313_175)">
<g filter="url(#filter0_d_2313_175)">
<path d="M253.271 343.373C247.782 368.177 229.897 381.742 223.458 386.469C197.295 405.69 151.705 414.819 123.61 389.767C103.083 371.467 102.633 344.491 102.627 340.807C102.576 301.765 137.626 267.369 175.441 262.581C183.438 261.568 215.915 258.796 238.109 283.384C260.483 308.171 253.946 340.289 253.264 343.374L253.271 343.373Z" fill="#FF4900"/>
<path d="M120.258 278.728C118.405 277.55 103.813 268.279 92.5877 274.659C82.3528 280.477 81.9982 295.282 81.8647 300.954C81.4637 317.964 90.9485 332.982 102.626 340.807C105.991 343.062 111.242 346.474 118.603 346.576C125.303 346.67 132.422 344.004 136.549 339.702C148.956 326.793 141.257 292.064 120.258 278.728Z" fill="#E83E0A"/>
<path d="M144.187 255.96C143.079 255.216 124.584 243.102 111.577 251.162C102.048 257.067 101.149 270.287 100.624 278.016C98.7114 306.052 118.736 324.739 123.416 329.113C132.086 337.208 137.499 337.976 140.25 338.031C150.123 338.242 157.276 330.052 158.355 328.817C173.318 311.684 167.547 271.677 144.2 255.959L144.187 255.96Z" fill="#F24103"/>
<path d="M148.289 286.299C142.418 275.73 114.11 223.952 109.584 185.427C108.673 177.667 108.265 166.531 114.163 155.767C115.66 153.032 123.671 138.42 136.597 138.44C137.695 138.443 143.851 138.555 148.663 142.982C153.588 147.51 154.487 154.368 154.688 160.701C155.249 178.14 161.208 194.496 166.164 211.085C170.683 226.191 179.349 248.518 197.497 276.144C181.092 279.527 164.687 282.917 148.282 286.299L148.289 286.299Z" fill="#E83E0A"/>
<path d="M185.315 426.131C211.428 424.607 231.743 408.75 230.69 390.714C229.637 372.679 207.614 359.294 181.501 360.819C155.387 362.344 135.072 378.201 136.125 396.236C137.178 414.272 159.201 427.656 185.315 426.131Z" fill="#FF4900"/>
<path d="M181.072 277.454C188.816 252.175 192.21 217.782 195.385 191.645C198.27 167.93 204.124 142.216 229.114 133.024C235.075 130.831 241.873 130.299 247.717 132.8C262.811 139.26 256.947 155.559 252.097 166.962C248.253 176.003 244.963 185.288 242.248 194.734C234.086 223.136 231.209 252.758 234.111 282.163C216.683 277.941 198.5 281.676 181.072 277.454Z" fill="#F24103"/>
<path d="M169.065 377.838C157.944 370.803 150.904 357.622 151.422 344.35C151.89 330.677 160.648 318.143 172.725 312.029C180.566 307.887 189.67 306.587 198.006 308.047C193.796 308.616 189.745 309.486 185.897 310.829C184.244 311.356 181.9 312.402 180.3 313.143C179.744 313.431 177.492 314.66 177.003 314.925C176.634 315.182 175.516 315.88 175.12 316.139C152.412 331.3 151.916 357.987 169.064 377.832L169.065 377.838Z" fill="#E83E0A"/>
<path d="M252.731 317.851C251.595 310.515 248.277 296.605 237.158 284.268C229.524 275.803 218.958 268.345 207.451 266.093C193.143 263.298 185.37 271.942 173.487 277.668C157.679 285.286 136.555 280.525 129.677 289.952C123.609 298.274 128.857 317.325 141.888 325.596C155.513 334.243 176.063 330.093 187.301 314" fill="#FF4900"/>
</g>
<g style="mix-blend-mode:soft-light">
<rect x="89.2252" y="116.29" width="244.57" height="299.802" transform="rotate(5.61 89.2252 116.29)" fill="#C3B300"/>
</g>
</g>
<path d="M59.8046 74.7104C57.6232 74.7104 55.7355 74.4588 54.0576 73.9554C52.3796 73.452 50.9953 72.6969 49.8626 71.774C48.6881 70.8511 47.8071 69.7185 47.1779 68.3761C46.5487 67.0757 46.2131 65.6075 46.1711 64.0134H52.0021C52.4215 68.0405 55.0224 70.0541 59.8465 70.0541C60.6855 70.0541 61.4826 69.9702 62.2376 69.8024C62.9927 69.6346 63.622 69.341 64.2092 68.9634C64.7965 68.5859 65.216 68.1244 65.5516 67.5371C65.8872 66.9499 66.055 66.2787 66.055 65.4816C66.055 64.6427 65.8453 63.9715 65.4677 63.4261C65.0902 62.8808 64.5448 62.4194 63.8737 62.0418C63.1605 61.6643 62.3215 61.3287 61.3148 61.077C60.308 60.8253 59.2173 60.5316 58.0008 60.238C56.5326 59.9024 55.1482 59.5668 53.8478 59.1473C52.5474 58.7698 51.4148 58.2244 50.4499 57.5533C49.4851 56.8821 48.73 56.0431 48.1427 55.0363C47.5554 54.0295 47.3038 52.7291 47.3038 51.135C47.3038 49.6668 47.5554 48.3664 48.1427 47.2757C48.73 46.185 49.5271 45.2622 50.5758 44.5071C51.5826 43.752 52.7991 43.2067 54.2254 42.8291C55.6097 42.4516 57.1618 42.2418 58.8398 42.2418C62.4893 42.2418 65.3419 43.0808 67.3554 44.7168C69.369 46.3528 70.5436 48.6181 70.8792 51.4706H65.216C64.9643 49.9605 64.2931 48.7859 63.2025 47.9469C62.0698 47.1079 60.6016 46.6884 58.7559 46.6884C56.994 46.6884 55.5677 47.066 54.519 47.7372C53.4703 48.4084 52.9669 49.3732 52.9669 50.6317C52.9669 51.3867 53.1347 51.974 53.5122 52.4355C53.8478 52.9389 54.3932 53.3164 55.0643 53.652C55.7355 53.9876 56.5745 54.2812 57.5393 54.5329C58.5042 54.7846 59.5948 55.0363 60.8114 55.288C62.2376 55.6236 63.622 55.9592 64.9643 56.3787C66.3067 56.7982 67.4813 57.3855 68.53 58.0986C69.5368 58.8117 70.3758 59.7346 71.005 60.8253C71.5923 61.9579 71.9279 63.3422 71.9279 65.0202C71.9279 66.6143 71.5923 67.9986 71.005 69.1732C70.3758 70.3897 69.5368 71.3965 68.4461 72.1935C67.3554 73.0325 66.097 73.6617 64.6287 74.0812C63.1186 74.5007 61.5245 74.7104 59.8046 74.7104ZM85.6253 74.6685C83.8634 74.6685 82.3113 74.3749 80.927 73.7456C79.5007 73.1583 78.3261 72.3193 77.3193 71.2287C76.3126 70.1799 75.5575 68.9215 75.0541 67.4952C74.5087 66.0689 74.257 64.5168 74.257 62.8388C74.257 61.1609 74.5087 59.6088 75.0541 58.1825C75.5575 56.7562 76.3126 55.4978 77.3193 54.4071C78.2842 53.3583 79.4587 52.5194 80.8431 51.9321C82.2274 51.3448 83.7795 51.0092 85.5414 51.0092C86.9676 51.0092 88.2261 51.2189 89.4007 51.5965C90.5753 52.016 91.582 52.5613 92.421 53.2325C93.26 53.9456 93.9731 54.7846 94.5185 55.7914C95.0638 56.7982 95.4414 57.8889 95.6511 59.0634H90.4494C90.1977 57.8469 89.6524 56.8821 88.8134 56.1689C87.9744 55.4558 86.9257 55.0783 85.5833 55.0783C84.5765 55.0783 83.7375 55.288 82.9825 55.6655C82.2274 56.0431 81.6401 56.5884 81.1367 57.2596C80.6333 57.9727 80.2977 58.8117 80.046 59.7346C79.7943 60.6994 79.6685 61.7482 79.6685 62.8388C79.6685 63.9295 79.7943 64.9783 80.046 65.9011C80.2977 66.824 80.6333 67.663 81.1367 68.3342C81.6401 69.0054 82.2274 69.5507 82.9825 69.9282C83.7375 70.3477 84.5765 70.5155 85.5833 70.5155C87.0515 70.5155 88.2261 70.138 89.0651 69.299C89.9041 68.502 90.4075 67.3694 90.5753 65.8592H95.7769C95.693 67.2016 95.3994 68.3761 94.896 69.4668C94.3926 70.5575 93.6795 71.4804 92.7986 72.2355C91.9176 72.9905 90.8689 73.6198 89.6943 74.0393C88.4778 74.4588 87.1354 74.6685 85.6253 74.6685ZM98.3499 42.7872H103.803V47.9469H98.3499V42.7872ZM98.4338 51.5965H103.761V73.9973H98.4338V51.5965ZM116.732 74.7104C113.501 74.7104 110.984 74.0393 109.223 72.613C107.461 71.2287 106.496 69.3829 106.328 67.1177H111.446C111.656 68.46 112.243 69.4668 113.208 70.0541C114.131 70.6414 115.347 70.935 116.773 70.935C118.242 70.935 119.332 70.6833 120.045 70.096C120.717 69.5088 121.094 68.7956 121.094 67.8727C121.094 67.3274 120.926 66.866 120.675 66.5304C120.381 66.1948 120.004 65.9011 119.5 65.6494C118.997 65.3977 118.368 65.2299 117.654 65.0622C116.941 64.8944 116.144 64.7266 115.305 64.5588C114.215 64.391 113.208 64.1393 112.243 63.8456C111.236 63.5939 110.397 63.2164 109.642 62.713C108.887 62.2096 108.258 61.5804 107.796 60.7833C107.335 59.9863 107.125 58.9376 107.125 57.6791C107.125 56.6304 107.335 55.7075 107.754 54.8685C108.174 54.0295 108.803 53.3583 109.558 52.7711C110.313 52.1838 111.278 51.7643 112.369 51.4706C113.459 51.177 114.634 51.0092 115.976 51.0092C118.955 51.0092 121.22 51.6384 122.73 52.855C124.24 54.0715 125.163 55.6655 125.457 57.5952H120.381C119.962 55.6236 118.493 54.6168 115.934 54.6168C114.676 54.6168 113.711 54.8685 113.082 55.3719C112.453 55.8753 112.159 56.5465 112.159 57.3016C112.159 57.805 112.285 58.2244 112.579 58.5181C112.83 58.8537 113.25 59.1054 113.753 59.3151C114.257 59.5249 114.844 59.6927 115.557 59.8185L117.864 60.28C118.913 60.4897 119.962 60.7414 120.968 60.9931C121.975 61.2448 122.856 61.6643 123.653 62.1677C124.45 62.6711 125.079 63.3842 125.583 64.2232C126.044 65.0622 126.296 66.1948 126.296 67.5371C126.296 68.7117 126.044 69.7605 125.583 70.6414C125.079 71.5643 124.408 72.3193 123.569 72.9066C122.73 73.4939 121.723 73.9554 120.549 74.249C119.374 74.5846 118.074 74.7104 116.732 74.7104ZM138.383 74.7104C135.153 74.7104 132.636 74.0393 130.874 72.613C129.112 71.2287 128.147 69.3829 127.979 67.1177H133.097C133.307 68.46 133.894 69.4668 134.859 70.0541C135.782 70.6414 136.999 70.935 138.425 70.935C139.893 70.935 140.984 70.6833 141.697 70.096C142.368 69.5088 142.746 68.7956 142.746 67.8727C142.746 67.3274 142.578 66.866 142.326 66.5304C142.032 66.1948 141.655 65.9011 141.151 65.6494C140.648 65.3977 140.019 65.2299 139.306 65.0622C138.593 64.8944 137.796 64.7266 136.957 64.5588C135.866 64.391 134.859 64.1393 133.894 63.8456C132.887 63.5939 132.049 63.2164 131.293 62.713C130.538 62.2096 129.909 61.5804 129.448 60.7833C128.986 59.9863 128.776 58.9376 128.776 57.6791C128.776 56.6304 128.986 55.7075 129.406 54.8685C129.825 54.0295 130.454 53.3583 131.21 52.7711C131.965 52.1838 132.929 51.7643 134.02 51.4706C135.111 51.177 136.285 51.0092 137.628 51.0092C140.606 51.0092 142.871 51.6384 144.382 52.855C145.892 54.0715 146.815 55.6655 147.108 57.5952H142.032C141.613 55.6236 140.145 54.6168 137.586 54.6168C136.327 54.6168 135.362 54.8685 134.733 55.3719C134.104 55.8753 133.81 56.5465 133.81 57.3016C133.81 57.805 133.936 58.2244 134.23 58.5181C134.482 58.8537 134.901 59.1054 135.404 59.3151C135.908 59.5249 136.495 59.6927 137.208 59.8185L139.515 60.28C140.564 60.4897 141.613 60.7414 142.62 60.9931C143.626 61.2448 144.507 61.6643 145.304 62.1677C146.101 62.6711 146.731 63.3842 147.234 64.2232C147.696 65.0622 147.947 66.1948 147.947 67.5371C147.947 68.7117 147.696 69.7605 147.234 70.6414C146.731 71.5643 146.06 72.3193 145.221 72.9066C144.382 73.4939 143.375 73.9554 142.2 74.249C141.026 74.5846 139.725 74.7104 138.383 74.7104ZM161.377 74.6685C159.615 74.6685 158.063 74.3749 156.636 73.7456C155.21 73.1583 154.035 72.3193 153.029 71.2287C152.022 70.1799 151.267 68.9215 150.721 67.4952C150.176 66.0689 149.924 64.5168 149.924 62.8388C149.924 61.1609 150.176 59.6088 150.721 58.1825C151.267 56.7562 152.022 55.4978 153.029 54.4071C154.035 53.3583 155.21 52.5194 156.636 51.9321C158.063 51.3448 159.615 51.0092 161.377 51.0092C163.096 51.0092 164.649 51.3448 166.075 51.9321C167.459 52.5194 168.634 53.3583 169.64 54.4071C170.647 55.4978 171.402 56.7562 171.948 58.1825C172.451 59.6088 172.745 61.1609 172.745 62.8388C172.745 64.5168 172.451 66.0689 171.948 67.4952C171.402 68.9215 170.647 70.1799 169.64 71.2287C168.634 72.3193 167.459 73.1583 166.075 73.7456C164.649 74.3749 163.096 74.6685 161.377 74.6685ZM161.335 70.6414C162.299 70.6414 163.138 70.4736 163.893 70.0541C164.649 69.6766 165.278 69.1312 165.781 68.4181C166.285 67.7469 166.662 66.9079 166.914 65.9431C167.165 65.0202 167.333 63.9715 167.333 62.8388C167.333 61.7482 167.165 60.6994 166.914 59.7346C166.662 58.7698 166.285 57.9308 165.781 57.2177C165.278 56.5045 164.649 55.9592 163.893 55.5397C163.138 55.1622 162.299 54.9524 161.335 54.9524C160.328 54.9524 159.489 55.1622 158.734 55.5397C157.979 55.9592 157.349 56.5045 156.846 57.2177C156.343 57.9308 155.965 58.7698 155.713 59.7346C155.462 60.6994 155.336 61.7482 155.336 62.8388C155.336 63.9715 155.462 65.0202 155.713 65.9431C155.965 66.9079 156.343 67.7469 156.846 68.4181C157.349 69.1312 157.979 69.6766 158.734 70.0541C159.489 70.4736 160.328 70.6414 161.335 70.6414ZM180.818 55.6236H180.943C182.37 52.7291 184.509 51.2609 187.362 51.2609C187.991 51.2609 188.452 51.3448 188.788 51.4706V56.2528H188.62C188.159 56.1689 187.655 56.085 187.152 56.085C185.39 56.085 183.922 56.6304 182.747 57.805C181.573 58.9795 180.985 60.6155 180.985 62.755V73.9973H175.658V51.5965H180.818V55.6236ZM200.428 74.7104C197.198 74.7104 194.681 74.0393 192.919 72.613C191.157 71.2287 190.193 69.3829 190.025 67.1177H195.143C195.352 68.46 195.94 69.4668 196.904 70.0541C197.827 70.6414 199.044 70.935 200.47 70.935C201.938 70.935 203.029 70.6833 203.742 70.096C204.413 69.5088 204.791 68.7956 204.791 67.8727C204.791 67.3274 204.623 66.866 204.371 66.5304C204.078 66.1948 203.7 65.9011 203.197 65.6494C202.693 65.3977 202.064 65.2299 201.351 65.0622C200.638 64.8944 199.841 64.7266 199.002 64.5588C197.911 64.391 196.904 64.1393 195.94 63.8456C194.933 63.5939 194.094 63.2164 193.339 62.713C192.584 62.2096 191.954 61.5804 191.493 60.7833C191.032 59.9863 190.822 58.9376 190.822 57.6791C190.822 56.6304 191.032 55.7075 191.451 54.8685C191.871 54.0295 192.5 53.3583 193.255 52.7711C194.01 52.1838 194.975 51.7643 196.065 51.4706C197.156 51.177 198.331 51.0092 199.673 51.0092C202.652 51.0092 204.917 51.6384 206.427 52.855C207.937 54.0715 208.86 55.6655 209.154 57.5952H204.078C203.658 55.6236 202.19 54.6168 199.631 54.6168C198.373 54.6168 197.408 54.8685 196.779 55.3719C196.149 55.8753 195.856 56.5465 195.856 57.3016C195.856 57.805 195.982 58.2244 196.275 58.5181C196.527 58.8537 196.946 59.1054 197.45 59.3151C197.953 59.5249 198.54 59.6927 199.254 59.8185L201.561 60.28C202.61 60.4897 203.658 60.7414 204.665 60.9931C205.672 61.2448 206.553 61.6643 207.35 62.1677C208.147 62.6711 208.776 63.3842 209.279 64.2232C209.741 65.0622 209.993 66.1948 209.993 67.5371C209.993 68.7117 209.741 69.7605 209.279 70.6414C208.776 71.5643 208.105 72.3193 207.266 72.9066C206.427 73.4939 205.42 73.9554 204.246 74.249C203.071 74.5846 201.771 74.7104 200.428 74.7104Z" fill="white"/>
<path d="M56.5702 97.4064H56.5167C56.0403 98.1328 55.4508 98.6746 54.7482 99.0319C54.0575 99.3892 53.2775 99.5678 52.4082 99.5678C51.4793 99.5678 50.6338 99.4011 49.8716 99.0676C49.1095 98.7223 48.4545 98.2459 47.9067 97.6386C47.347 97.0313 46.9183 96.3108 46.6206 95.4772C46.3229 94.6317 46.174 93.7028 46.174 92.6906C46.174 91.6783 46.3169 90.7495 46.6027 89.9039C46.8885 89.0465 47.3113 88.3022 47.871 87.6711C48.4069 87.0637 49.0619 86.5874 49.8359 86.242C50.6219 85.8967 51.5329 85.724 52.569 85.724C53.3549 85.724 54.0516 85.8252 54.6589 86.0277C55.2782 86.2301 55.814 86.5159 56.2666 86.8851C56.7191 87.2424 57.0883 87.677 57.3741 88.1891C57.6599 88.6893 57.8683 89.243 57.9993 89.8504H56.1058C55.9034 89.1001 55.5163 88.4868 54.9447 88.0105C54.3731 87.5341 53.5752 87.296 52.5511 87.296C51.777 87.296 51.1042 87.4329 50.5326 87.7068C49.961 87.9807 49.4906 88.3618 49.1214 88.85C48.7522 89.3264 48.4783 89.898 48.2997 90.5649C48.1211 91.2198 48.0318 91.9284 48.0318 92.6906C48.0318 93.4765 48.1389 94.197 48.3533 94.852C48.5796 95.495 48.8892 96.0488 49.2822 96.5132C49.6752 96.9777 50.1455 97.3409 50.6933 97.6029C51.2411 97.8529 51.8425 97.978 52.4975 97.978C53.1525 97.978 53.7241 97.8768 54.2123 97.6743C54.7125 97.46 55.1233 97.1742 55.4449 96.8169C55.7664 96.4596 56.0046 96.0488 56.1594 95.5844C56.3261 95.108 56.4095 94.6079 56.4095 94.0839V93.7981H52.5511V92.244H58.2136V99.282H57.0525L56.5702 97.4064ZM66.1671 99.282V97.9423H66.1314C65.786 98.4186 65.3871 98.7997 64.9346 99.0855C64.4939 99.3594 63.9283 99.4963 63.2376 99.4963C62.2373 99.4963 61.4453 99.2165 60.8618 98.6568C60.2783 98.0971 59.9865 97.3111 59.9865 96.2989V89.6896H61.6478V96.2096C61.6478 96.8169 61.8264 97.2932 62.1837 97.6386C62.5528 97.972 63.0709 98.1388 63.7377 98.1388C64.1069 98.1388 64.4404 98.0733 64.7381 97.9423C65.0358 97.8113 65.2859 97.6326 65.4883 97.4064C65.7027 97.1682 65.8634 96.8884 65.9706 96.5668C66.0897 96.2453 66.1492 95.8999 66.1492 95.5308V89.6896H67.8105V99.282H66.1671ZM71.409 91.0472H71.4626C71.808 90.5589 72.2248 90.1719 72.713 89.8861C73.2013 89.6003 73.7967 89.4574 74.4993 89.4574C75.5115 89.4574 76.3035 89.7253 76.8751 90.2612C77.4467 90.7971 77.7325 91.5712 77.7325 92.5834V99.282H76.0891V92.7799C76.0891 92.1606 75.8986 91.6843 75.5175 91.3508C75.1483 91.0174 74.6363 90.8507 73.9813 90.8507C73.6121 90.8507 73.2668 90.9162 72.9452 91.0472C72.6356 91.1663 72.3677 91.3389 72.1414 91.5652C71.9151 91.7915 71.7365 92.0654 71.6055 92.3869C71.4864 92.7084 71.4269 93.0597 71.4269 93.4408V99.282H69.7656V89.6896H71.409V91.0472ZM78.8494 89.6896H80.3498V86.6708H81.9932V89.6896H83.976V90.9757H81.9932V97.0313C81.9932 97.3766 82.0766 97.6148 82.2433 97.7458C82.4219 97.8649 82.6661 97.9244 82.9757 97.9244C83.1186 97.9244 83.2675 97.9125 83.4223 97.8887C83.589 97.8529 83.72 97.8232 83.8152 97.7994H83.8688V99.1927C83.4163 99.2998 82.9697 99.3534 82.5291 99.3534C81.8861 99.3415 81.3621 99.1927 80.9572 98.9069C80.5523 98.6091 80.3498 98.109 80.3498 97.4064V90.9757H78.8494V89.6896ZM85.3083 85.992H87.041V87.9212H85.3083V85.992ZM85.3441 89.6896H87.0053V99.282H85.3441V89.6896ZM90.5726 91.0472H90.6262C90.9715 90.5589 91.3883 90.1719 91.8766 89.8861C92.3648 89.6003 92.9603 89.4574 93.6629 89.4574C94.6751 89.4574 95.467 89.7253 96.0387 90.2612C96.6103 90.7971 96.8961 91.5712 96.8961 92.5834V99.282H95.2527V92.7799C95.2527 92.1606 95.0621 91.6843 94.6811 91.3508C94.3119 91.0174 93.7998 90.8507 93.1449 90.8507C92.7757 90.8507 92.4303 90.9162 92.1088 91.0472C91.7992 91.1663 91.5312 91.3389 91.305 91.5652C91.0787 91.7915 90.9001 92.0654 90.7691 92.3869C90.65 92.7084 90.5905 93.0597 90.5905 93.4408V99.282H88.9292V89.6896H90.5726V91.0472ZM102.832 102.64C101.569 102.64 100.587 102.402 99.8843 101.926C99.1936 101.461 98.8007 100.8 98.7054 99.9429H100.259C100.331 100.443 100.593 100.8 101.045 101.015C101.498 101.241 102.081 101.354 102.796 101.354C103.653 101.354 104.308 101.158 104.761 100.765C105.225 100.384 105.458 99.7821 105.458 98.9604V98.6925C105.458 98.4186 105.458 98.1626 105.458 97.9244C105.469 97.6743 105.481 97.4719 105.493 97.3171H105.458C105.124 97.7934 104.731 98.1685 104.279 98.4424C103.838 98.7163 103.278 98.8533 102.6 98.8533C101.992 98.8533 101.427 98.7401 100.903 98.5139C100.39 98.2876 99.9498 97.9661 99.5807 97.5493C99.2115 97.1325 98.9197 96.6383 98.7054 96.0667C98.5029 95.495 98.4017 94.8579 98.4017 94.1553C98.4017 93.417 98.5089 92.7561 98.7233 92.1725C98.9376 91.589 99.2294 91.1008 99.5985 90.7078C99.9796 90.3029 100.42 89.9933 100.92 89.7789C101.421 89.5646 101.95 89.4574 102.51 89.4574C103.201 89.4574 103.778 89.5884 104.243 89.8504C104.719 90.1004 105.112 90.4696 105.422 90.9579H105.458V89.6896H107.101V98.889C107.101 99.5321 107 100.086 106.797 100.55C106.595 101.027 106.309 101.42 105.94 101.729C105.559 102.039 105.106 102.265 104.582 102.408C104.058 102.563 103.475 102.64 102.832 102.64ZM102.76 97.4957C103.284 97.4957 103.725 97.4123 104.082 97.2456C104.439 97.067 104.725 96.8288 104.94 96.5311C105.166 96.2215 105.327 95.8583 105.422 95.4415C105.517 95.0247 105.565 94.5721 105.565 94.0839C105.565 93.0716 105.333 92.2797 104.868 91.7081C104.416 91.1246 103.707 90.8328 102.742 90.8328C101.861 90.8328 101.2 91.1365 100.76 91.7438C100.319 92.3512 100.099 93.161 100.099 94.1732C100.099 95.1973 100.325 96.0071 100.777 96.6025C101.23 97.198 101.891 97.4957 102.76 97.4957Z" fill="white"/>
<rect opacity="0.7" x="260.726" y="31.52" width="85.5887" height="41.8372" rx="20.9186" fill="#001B5E"/>
<ellipse cx="281.245" cy="52.4384" rx="16.113" ry="17.015" fill="#FF4900"/>
<path d="M317.301 61.5036C316.287 61.5036 315.341 61.3684 314.463 61.0981C313.601 60.8278 312.85 60.4224 312.208 59.8818C311.549 59.3412 311.033 58.6908 310.662 57.9305C310.29 57.1534 310.096 56.258 310.079 55.2444H312.461C312.495 56.579 312.926 57.6264 313.753 58.3867C314.598 59.13 315.755 59.5017 317.225 59.5017C318.425 59.5017 319.404 59.1976 320.165 58.5894C320.942 57.9812 321.33 57.0605 321.33 55.8272C321.33 54.7122 320.933 53.876 320.139 53.3185C319.362 52.7441 318.239 52.4569 316.769 52.4569H315.629V50.5816H316.744C318.095 50.5816 319.109 50.3198 319.785 49.7961C320.477 49.2555 320.824 48.5121 320.824 47.5661C320.824 47.093 320.722 46.6707 320.519 46.299C320.334 45.9105 320.063 45.5895 319.709 45.3361C319.371 45.0658 318.974 44.863 318.517 44.7279C318.061 44.5927 317.571 44.5251 317.048 44.5251C316.406 44.5251 315.84 44.6265 315.35 44.8292C314.86 45.0151 314.438 45.2854 314.083 45.6401C313.745 45.978 313.483 46.3919 313.297 46.8819C313.111 47.3549 313.019 47.8702 313.019 48.4277H310.662C310.662 47.583 310.805 46.8058 311.093 46.0963C311.397 45.3867 311.827 44.7786 312.385 44.2717C312.942 43.748 313.618 43.3426 314.412 43.0554C315.206 42.7682 316.11 42.6246 317.124 42.6246C317.968 42.6246 318.762 42.7428 319.506 42.9793C320.249 43.199 320.891 43.52 321.432 43.9423C321.989 44.3647 322.42 44.8884 322.724 45.5134C323.045 46.1216 323.206 46.8143 323.206 47.5914C323.206 48.605 322.927 49.416 322.369 50.0241C321.829 50.6323 321.111 51.08 320.215 51.3672V51.4432C321.482 51.7811 322.403 52.3386 322.978 53.1157C323.552 53.8929 323.839 54.8643 323.839 56.0299C323.839 56.9084 323.67 57.694 323.332 58.3867C322.994 59.0624 322.53 59.6368 321.939 60.1098C321.364 60.566 320.671 60.9123 319.861 61.1488C319.067 61.3853 318.213 61.5036 317.301 61.5036Z" fill="white"/>
<defs>
<filter id="filter0_d_2313_175" x="61.8524" y="119.14" width="215.544" height="335.109" filterUnits="userSpaceOnUse" color-interpolation-filters="sRGB">
<feFlood flood-opacity="0" result="BackgroundImageFix"/>
<feColorMatrix in="SourceAlpha" type="matrix" values="0 0 0 0 0 0 0 0 0 0 0 0 0 0 0 0 0 0 127 0" result="hardAlpha"/>
<feOffset dy="8"/>
<feGaussianBlur stdDeviation="10"/>
<feComposite in2="hardAlpha" operator="out"/>
<feColorMatrix type="matrix" values="0 0 0 0 0 0 0 0 0 0 0 0 0 0 0 0 0 0 0.2 0"/>
<feBlend mode="normal" in2="BackgroundImageFix" result="effect1_dropShadow_2313_175"/>
<feBlend mode="normal" in="SourceGraphic" in2="effect1_dropShadow_2313_175" result="shape"/>
</filter>
<linearGradient id="paint0_linear_2313_175" x1="112.008" y1="54.3864" x2="312.427" y2="340.133" gradientUnits="userSpaceOnUse">
<stop stop-color="#FF4900"/>
<stop offset="1" stop-color="#992C00"/>
</linearGradient>
</defs>
</svg>
