<svg width="380" height="482" viewBox="0 0 380 482" fill="none" xmlns="http://www.w3.org/2000/svg">
<rect x="1.104" y="0.885986" width="378.383" height="480.189" rx="58.0295" fill="url(#paint0_linear_2313_151)" stroke="white"/>
<mask id="mask0_2313_151" style="mask-type:alpha" maskUnits="userSpaceOnUse" x="87" y="144" width="220" height="220">
<path d="M147.002 336.023C145.807 319.256 164.521 304.26 188.8 302.529C213.079 300.799 233.73 312.989 234.925 329.757C236.12 346.524 217.406 361.52 193.127 363.25C168.848 364.981 148.197 352.791 147.002 336.023Z" fill="#F24103"/>
<path d="M200.637 340.687C184.301 342.303 159.324 344.771 138.543 327.859C136.838 326.468 110.271 304.212 115.543 277.307C120.388 252.561 148.646 241.816 165.821 235.288C178.935 230.303 217.66 215.551 247.026 236.654C251.287 239.712 268.036 252.64 271.79 275.439C272.484 279.648 274.459 292.668 268.391 305.895C254.911 335.306 213.762 339.379 200.629 340.673L200.637 340.687Z" fill="#FF4900"/>
<path d="M149.861 285.915C136.555 292.927 122.658 290.04 121.201 289.714C108.265 286.836 100.408 278.472 97.5363 274.992C81.2941 255.291 85.5934 222.986 100.244 204.164C107.468 194.883 115.688 190.842 117.727 189.887C120.197 188.729 140.296 179.676 156.564 189.986C167.892 197.157 171.007 209.687 172.824 216.976C178.58 240.099 172.922 273.763 149.854 285.915L149.861 285.915Z" fill="#D32F1E"/>
<path d="M179.415 249.709C177.948 262.408 175.397 274.288 169.598 285.661C167.765 289.405 165.629 293.034 163.387 296.971C179.643 288.709 187.247 266.161 179.415 249.709Z" fill="#F24103"/>
<path d="M176.017 253.836C181.173 265.533 184.978 277.075 185.714 289.817C186.024 293.967 186.017 298.183 186.074 302.716C195.927 287.376 191.091 264.073 176.017 253.829L176.017 253.836Z" fill="#F24103"/>
<path d="M179.637 261.671C166.103 268.801 151.966 265.866 150.495 265.54C137.34 262.614 129.343 254.102 126.432 250.568C109.915 230.528 114.282 197.673 129.19 178.532C136.538 169.091 144.897 164.983 146.971 164.011C149.482 162.836 169.922 153.63 186.475 164.113C197.991 171.406 201.164 184.147 203.012 191.564C208.867 215.081 203.114 249.318 179.645 261.678L179.637 261.671Z" fill="#DD3217"/>
<path d="M192.282 260.577C183.636 260.462 177.425 256.281 175.585 255.007C155.363 241.015 159.941 207.393 160.675 202C161.192 198.2 164.365 177.136 181.534 159.956C188.251 153.234 195.786 145.701 207.488 144.953C224.735 143.846 236.274 158.413 237.167 159.568C245.234 170.075 245.061 181.929 244.851 189.234C243.885 222.549 218.858 260.926 192.282 260.569L192.282 260.577Z" fill="#E83E0A"/>
<path d="M221.532 213.562C214.303 196.916 218.966 174.943 234.187 164.232C243.893 157.397 257.037 155.743 268.139 159.955C292.532 169.205 298.572 202.551 295.14 225.411" fill="#F24103"/>
<path d="M266.39 266.556C245.329 274.387 203.362 278.553 192.343 252.68C187.893 242.238 191.267 229.532 198.851 221.085C206.435 212.638 217.561 208.032 228.774 206.243C244.572 203.72 267.96 202.798 282.818 209.71C303.911 219.525 310.057 248.341 305.255 269.169C300.212 291.04 283.836 307.669 262.645 314.283C247.232 319.095 229.537 321.345 213.451 319.632" fill="#FF4900"/>
<path d="M247.546 275.727C244.088 275.981 240.765 276.332 237.441 276.254C234.133 276.21 230.874 276.041 227.695 275.486L226.5 275.313L225.32 275.06C224.54 274.879 223.751 274.771 222.984 274.56C222.216 274.35 221.454 274.124 220.688 273.935C219.922 273.739 219.19 273.433 218.435 273.193L217.318 272.813L216.232 272.36L215.147 271.915C214.778 271.776 214.423 271.615 214.08 271.431L211.978 270.406L209.966 269.23C209.274 268.871 208.666 268.391 208.02 267.964L207.055 267.309C206.745 267.08 206.454 266.821 206.151 266.585L205.239 265.868C204.936 265.632 204.625 265.396 204.355 265.121C203.794 264.595 203.239 264.054 202.658 263.543C201.61 262.414 200.547 261.285 199.599 260.048C199.105 259.446 198.699 258.779 198.231 258.153C197.811 257.495 197.37 256.838 196.978 256.156C193.772 250.701 191.892 244.34 190.805 237.544C189.183 244.254 189.702 251.629 192.433 258.373C193.772 261.761 195.807 264.878 198.186 267.683C198.808 268.355 199.457 269.012 200.099 269.675C200.41 270.019 200.761 270.316 201.105 270.614L202.144 271.515C202.495 271.813 202.839 272.118 203.21 272.393L204.335 273.187C205.096 273.706 205.817 274.278 206.623 274.716C209.743 276.658 213.159 278.02 216.641 278.998C220.124 279.997 223.726 280.45 227.285 280.504C234.42 280.634 241.461 278.956 247.546 275.72L247.546 275.727Z" fill="#F24103"/>
</mask>
<g mask="url(#mask0_2313_151)">
<g filter="url(#filter0_d_2313_151)">
<path d="M147.003 336.024C145.808 319.256 164.521 304.26 188.8 302.53C213.079 300.799 233.73 312.989 234.925 329.757C236.12 346.525 217.407 361.52 193.128 363.251C168.849 364.981 148.198 352.791 147.003 336.024Z" fill="#F24103"/>
<path d="M200.637 340.687C184.302 342.303 159.325 344.772 138.543 327.859C136.838 326.468 110.271 304.212 115.543 277.307C120.388 252.561 148.646 241.817 165.822 235.288C178.935 230.303 217.66 215.551 247.027 236.654C251.287 239.712 268.036 252.64 271.79 275.439C272.484 279.648 274.459 292.668 268.391 305.895C254.911 335.307 213.762 339.379 200.629 340.673L200.637 340.687Z" fill="#FF4900"/>
<path d="M149.861 285.915C136.555 292.927 122.658 290.04 121.201 289.714C108.266 286.837 100.408 278.472 97.5366 274.993C81.2944 255.291 85.5937 222.986 100.244 204.165C107.468 194.883 115.688 190.842 117.728 189.887C120.197 188.729 140.297 179.676 156.565 189.986C167.893 197.157 171.008 209.687 172.825 216.976C178.58 240.099 172.922 273.763 149.854 285.915L149.861 285.915Z" fill="#AF381A"/>
<path d="M179.416 249.709C177.948 262.408 175.397 274.288 169.599 285.662C167.765 289.405 165.63 293.034 163.387 296.971C179.643 288.709 187.247 266.161 179.416 249.709Z" fill="#F24103"/>
<path d="M176.018 253.836C181.174 265.533 184.978 277.075 185.715 289.817C186.025 293.967 186.017 298.183 186.075 302.716C195.927 287.376 191.091 264.073 176.017 253.829L176.018 253.836Z" fill="#F24103"/>
<path d="M179.637 261.672C166.103 268.801 151.966 265.866 150.495 265.541C137.341 262.615 129.344 254.103 126.433 250.568C109.915 230.528 114.283 197.673 129.19 178.532C136.539 169.092 144.898 164.983 146.972 164.011C149.483 162.836 169.923 153.63 186.476 164.113C197.991 171.407 201.165 184.148 203.012 191.564C208.867 215.081 203.114 249.318 179.645 261.678L179.637 261.672Z" fill="#CC3C18"/>
<path d="M192.283 260.577C183.637 260.462 177.425 256.281 175.585 255.007C155.363 241.015 159.941 207.393 160.675 202C161.193 198.2 164.365 177.136 181.534 159.956C188.252 153.234 195.786 145.701 207.489 144.953C224.735 143.846 236.275 158.413 237.167 159.568C245.235 170.075 245.062 181.929 244.851 189.234C243.885 222.549 218.858 260.926 192.282 260.569L192.283 260.577Z" fill="#E83E0A"/>
<path d="M221.532 213.562C214.303 196.917 218.966 174.944 234.188 164.232C243.894 157.397 257.037 155.743 268.139 159.955C292.533 169.206 298.572 202.552 295.141 225.412" fill="#F24103"/>
<path d="M266.39 266.556C245.329 274.387 203.363 278.553 192.343 252.681C187.893 242.238 191.267 229.532 198.851 221.085C206.435 212.638 217.561 208.032 228.774 206.243C244.572 203.72 267.96 202.798 282.818 209.71C303.911 219.526 310.058 248.341 305.256 269.169C300.213 291.04 283.836 307.669 262.645 314.283C247.232 319.095 229.537 321.346 213.451 319.632" fill="#FF4900"/>
<path d="M247.547 275.727C244.088 275.981 240.766 276.332 237.441 276.254C234.133 276.21 230.874 276.041 227.695 275.486L226.5 275.313L225.321 275.06C224.541 274.879 223.752 274.771 222.984 274.56C222.216 274.35 221.455 274.124 220.689 273.935C219.922 273.739 219.191 273.433 218.435 273.193L217.319 272.814L216.233 272.36L215.147 271.915C214.779 271.776 214.423 271.615 214.081 271.431L211.979 270.406L209.967 269.23C209.275 268.871 208.667 268.391 208.02 267.964L207.056 267.309C206.746 267.08 206.455 266.821 206.151 266.585L205.24 265.868C204.936 265.632 204.626 265.396 204.355 265.121C203.794 264.595 203.24 264.054 202.659 263.543C201.61 262.414 200.548 261.285 199.6 260.048C199.105 259.446 198.699 258.779 198.232 258.153C197.812 257.495 197.371 256.838 196.978 256.156C193.772 250.701 191.892 244.34 190.806 237.544C189.184 244.254 189.702 251.629 192.434 258.373C193.772 261.761 195.808 264.878 198.187 267.683C198.808 268.355 199.457 269.012 200.099 269.675C200.411 270.019 200.761 270.316 201.105 270.614L202.144 271.515C202.495 271.813 202.84 272.118 203.21 272.393L204.335 273.187C205.096 273.706 205.818 274.278 206.623 274.716C209.744 276.658 213.159 278.02 216.641 278.998C220.124 279.997 223.726 280.45 227.286 280.504C234.42 280.634 241.462 278.956 247.546 275.72L247.547 275.727Z" fill="#F24103"/>
</g>
<g style="mix-blend-mode:soft-light">
<rect x="65.1199" y="152.586" width="244.57" height="246.758" transform="rotate(-5.60818 65.1199 152.586)" fill="#C4B300"/>
</g>
</g>
<path d="M46.5252 40.8128H61.2494C62.6757 40.8128 64.018 41.0225 65.2765 41.442C66.493 41.8615 67.5418 42.4069 68.4227 43.162C69.3036 43.917 70.0167 44.8399 70.5201 45.9306C71.0235 47.0213 71.2752 48.2378 71.2752 49.5802C71.2752 51.4679 70.8138 53.0619 69.9329 54.3624C69.01 55.7047 67.5418 56.6696 65.5282 57.2988V57.4247C67.1642 57.928 68.3388 58.7251 69.0519 59.7319C69.7651 60.7806 70.2265 62.2488 70.3943 64.1785C70.646 66.4857 70.8138 68.2475 70.9396 69.506C71.0655 70.7645 71.3591 71.5196 71.7786 71.7293V72.0229H65.9057C65.4862 71.7713 65.2345 71.0581 65.1506 69.8416C65.0668 68.667 64.899 66.9891 64.7731 64.8916C64.6053 63.0458 64.06 61.7035 63.1371 60.8645C62.2142 60.0255 60.8299 59.606 58.9841 59.606H52.3142V72.0229H46.5252V40.8128ZM52.3142 55.1594H59.8651C61.7108 55.1594 63.0951 54.7399 64.018 53.9009C64.9409 53.0619 65.4443 51.8874 65.4443 50.4192C65.4443 48.867 64.9829 47.6505 64.1439 46.8115C63.3049 45.9725 61.9206 45.5531 60.0748 45.5531H52.3142V55.1594ZM84.9978 72.6941C83.236 72.6941 81.6838 72.4005 80.2576 71.7713C78.8313 71.184 77.6567 70.345 76.65 69.2543C75.6432 68.2056 74.8881 66.9471 74.3428 65.5208C73.7974 64.0946 73.5457 62.5424 73.5457 60.8645C73.5457 59.1865 73.7974 57.6344 74.3428 56.2081C74.8881 54.7819 75.6432 53.5234 76.65 52.4327C77.6567 51.384 78.8313 50.545 80.2576 49.9577C81.6838 49.3704 83.236 49.0348 84.9978 49.0348C86.7177 49.0348 88.2699 49.3704 89.6961 49.9577C91.0805 50.545 92.255 51.384 93.2618 52.4327C94.2686 53.5234 95.0237 54.7819 95.569 56.2081C96.0724 57.6344 96.366 59.1865 96.366 60.8645C96.366 62.5424 96.0724 64.0946 95.569 65.5208C95.0237 66.9471 94.2686 68.2056 93.2618 69.2543C92.255 70.345 91.0805 71.184 89.6961 71.7713C88.2699 72.4005 86.7177 72.6941 84.9978 72.6941ZM84.9559 68.667C85.9207 68.667 86.7597 68.4992 87.5148 68.0797C88.2699 67.7022 88.8991 67.1569 89.4025 66.4437C89.9059 65.7725 90.2834 64.9335 90.5351 63.9687C90.7868 63.0458 90.9546 61.9971 90.9546 60.8645C90.9546 59.7738 90.7868 58.7251 90.5351 57.7602C90.2834 56.7954 89.9059 55.9564 89.4025 55.2433C88.8991 54.5302 88.2699 53.9848 87.5148 53.5653C86.7597 53.1878 85.9207 52.978 84.9559 52.978C83.9491 52.978 83.1101 53.1878 82.355 53.5653C81.5999 53.9848 80.9707 54.5302 80.4673 55.2433C79.9639 55.9564 79.5864 56.7954 79.3347 57.7602C79.083 58.7251 78.9572 59.7738 78.9572 60.8645C78.9572 61.9971 79.083 63.0458 79.3347 63.9687C79.5864 64.9335 79.9639 65.7725 80.4673 66.4437C80.9707 67.1569 81.5999 67.7022 82.355 68.0797C83.1101 68.4992 83.9491 68.667 84.9559 68.667ZM109.515 72.6941C107.753 72.6941 106.201 72.4005 104.816 71.7713C103.39 71.184 102.216 70.345 101.209 69.2543C100.202 68.2056 99.447 66.9471 98.9436 65.5208C98.3983 64.0946 98.1466 62.5424 98.1466 60.8645C98.1466 59.1865 98.3983 57.6344 98.9436 56.2081C99.447 54.7819 100.202 53.5234 101.209 52.4327C102.174 51.384 103.348 50.545 104.733 49.9577C106.117 49.3704 107.669 49.0348 109.431 49.0348C110.857 49.0348 112.116 49.2446 113.29 49.6221C114.465 50.0416 115.472 50.5869 116.311 51.2581C117.15 51.9713 117.863 52.8103 118.408 53.817C118.953 54.8238 119.331 55.9145 119.541 57.0891H114.339C114.087 55.8725 113.542 54.9077 112.703 54.1946C111.864 53.4814 110.815 53.1039 109.473 53.1039C108.466 53.1039 107.627 53.3136 106.872 53.6912C106.117 54.0687 105.53 54.6141 105.026 55.2852C104.523 55.9984 104.187 56.8374 103.936 57.7602C103.684 58.7251 103.558 59.7738 103.558 60.8645C103.558 61.9552 103.684 63.0039 103.936 63.9268C104.187 64.8496 104.523 65.6886 105.026 66.3598C105.53 67.031 106.117 67.5763 106.872 67.9539C107.627 68.3734 108.466 68.5412 109.473 68.5412C110.941 68.5412 112.116 68.1636 112.955 67.3246C113.794 66.5276 114.297 65.395 114.465 63.8848H119.666C119.583 65.2272 119.289 66.4018 118.786 67.4924C118.282 68.5831 117.569 69.506 116.688 70.2611C115.807 71.0162 114.758 71.6454 113.584 72.0649C112.367 72.4844 111.025 72.6941 109.515 72.6941ZM130.252 61.284L127.609 63.9268V72.0229H122.323V40.8128H127.609V52.8941C127.609 53.9848 127.567 54.9916 127.525 55.9564C127.483 56.9632 127.441 57.7602 127.441 58.3895L135.873 49.6221H142.207L133.985 57.8022L143.172 72.0229H136.964L130.252 61.284Z" fill="white"/>
<path d="M47.4539 87.8379H53.17C54.5395 87.8379 55.5994 88.213 56.3496 88.9633C56.6235 89.2491 56.8379 89.5825 56.9927 89.9636C57.1594 90.3447 57.2428 90.7793 57.2428 91.2676C57.2428 91.994 57.0463 92.5895 56.6533 93.0539C56.2603 93.5183 55.7066 93.8518 54.9921 94.0542V94.1078C55.397 94.2031 55.7661 94.34 56.0996 94.5186C56.4449 94.6973 56.7426 94.9235 56.9927 95.1974C57.2428 95.4594 57.4333 95.7691 57.5643 96.1263C57.7072 96.4717 57.7787 96.8646 57.7787 97.3053C57.7787 97.8412 57.6894 98.3294 57.5107 98.77C57.3321 99.1987 57.082 99.5739 56.7605 99.8954C56.3794 100.288 55.909 100.592 55.3493 100.806C54.7896 101.021 54.1525 101.128 53.438 101.128H47.4539V87.8379ZM52.92 93.5005C53.7059 93.5005 54.3133 93.3218 54.742 92.9646C55.1826 92.5954 55.4029 92.0714 55.4029 91.3926C55.4029 90.7615 55.2005 90.2732 54.7956 89.9279C54.4026 89.5825 53.8488 89.4099 53.1343 89.4099H49.2759V93.5005H52.92ZM53.3308 99.5203C54.224 99.5203 54.8908 99.3 55.3315 98.8593C55.7244 98.4902 55.9209 97.99 55.9209 97.3589C55.9209 96.561 55.6649 95.9655 55.1528 95.5726C54.6527 95.1796 54.0096 94.9831 53.2236 94.9831H49.2759V99.5203H53.3308ZM62.073 101.324C61.6205 101.324 61.1918 101.265 60.7869 101.146C60.3939 101.039 60.0486 100.872 59.7509 100.646C59.465 100.419 59.2388 100.14 59.0721 99.8061C58.9053 99.4607 58.822 99.0558 58.822 98.5914C58.822 98.0317 58.9172 97.5732 59.1078 97.2159C59.3102 96.8587 59.5901 96.5729 59.9473 96.3585C60.3165 96.1442 60.7512 95.9775 61.2513 95.8584C61.7634 95.7393 62.3291 95.644 62.9483 95.5726C63.3056 95.5368 63.6271 95.4892 63.9129 95.4297C64.1987 95.3701 64.4428 95.2927 64.6453 95.1974C64.8477 95.0903 65.0026 94.9593 65.1097 94.8045C65.2169 94.6496 65.2705 94.4472 65.2705 94.1971C65.2705 93.6731 65.0919 93.2623 64.7346 92.9646C64.3893 92.6669 63.8831 92.518 63.2163 92.518C62.4541 92.518 61.8825 92.6847 61.5014 93.0182C61.1323 93.3516 60.9358 93.8041 60.9119 94.3757H59.3043C59.3162 93.9709 59.4055 93.5838 59.5722 93.2147C59.7389 92.8455 59.9831 92.518 60.3046 92.2322C60.6261 91.9464 61.0251 91.7201 61.5014 91.5534C61.9897 91.3867 62.5553 91.3033 63.1984 91.3033C63.6509 91.3033 64.0737 91.345 64.4667 91.4284C64.8596 91.5117 65.211 91.6427 65.5206 91.8213C65.9255 92.0595 66.241 92.393 66.4673 92.8217C66.6936 93.2504 66.8067 93.7863 66.8067 94.4293V98.9129C66.8067 99.294 66.8722 99.5798 67.0032 99.7703C67.1342 99.9609 67.4081 100.009 67.8249 99.9133H67.8963V101.074C67.7773 101.11 67.6463 101.14 67.5034 101.164C67.3724 101.199 67.2056 101.217 67.0032 101.217C66.4911 101.217 66.1041 101.098 65.8421 100.86C65.5801 100.61 65.4015 100.229 65.3062 99.7168H65.2884C65.1335 99.9311 64.9549 100.134 64.7525 100.324C64.55 100.515 64.3178 100.687 64.0558 100.842C63.7938 100.985 63.4961 101.098 63.1627 101.182C62.8411 101.277 62.4779 101.324 62.073 101.324ZM62.4839 100.11C62.9602 100.11 63.3711 100.032 63.7164 99.8775C64.0737 99.7108 64.3654 99.5084 64.5917 99.2702C64.8299 99.0201 65.0026 98.7462 65.1097 98.4485C65.2288 98.1508 65.2884 97.865 65.2884 97.5911V96.0191C65.0502 96.1739 64.7346 96.3109 64.3416 96.43C63.9605 96.5372 63.5735 96.6265 63.1805 96.6979C62.7876 96.7694 62.4303 96.8468 62.1088 96.9301C61.7872 97.0016 61.5133 97.1088 61.2871 97.2517C61.0608 97.3827 60.8822 97.5553 60.7512 97.7697C60.6321 97.9721 60.5725 98.2401 60.5725 98.5735C60.5725 98.8832 60.6261 99.1392 60.7333 99.3416C60.8405 99.5322 60.9834 99.687 61.162 99.8061C61.3407 99.9252 61.5431 100.009 61.7694 100.056C62.0075 100.092 62.2457 100.11 62.4839 100.11ZM68.1242 91.5355H69.6247V88.5167H71.2681V91.5355H73.2509V92.8217H71.2681V98.8772C71.2681 99.2226 71.3515 99.4607 71.5182 99.5917C71.6968 99.7108 71.941 99.7703 72.2506 99.7703C72.3935 99.7703 72.5423 99.7584 72.6971 99.7346C72.8639 99.6989 72.9949 99.6691 73.0901 99.6453H73.1437V101.039C72.6912 101.146 72.2446 101.199 71.804 101.199C71.1609 101.187 70.637 101.039 70.2321 100.753C69.8272 100.455 69.6247 99.9549 69.6247 99.2523V92.8217H68.1242V91.5355ZM80.7459 101.128V99.7882H80.7102C80.3649 100.265 79.9659 100.646 79.5134 100.931C79.0728 101.205 78.5071 101.342 77.8164 101.342C76.8161 101.342 76.0242 101.062 75.4406 100.503C74.8571 99.943 74.5654 99.1571 74.5654 98.1448V91.5355H76.2266V98.0555C76.2266 98.6628 76.4052 99.1392 76.7625 99.4845C77.1317 99.818 77.6497 99.9847 78.3166 99.9847C78.6857 99.9847 79.0192 99.9192 79.3169 99.7882C79.6146 99.6572 79.8647 99.4786 80.0671 99.2523C80.2815 99.0142 80.4423 98.7343 80.5494 98.4128C80.6685 98.0912 80.7281 97.7459 80.7281 97.3767V91.5355H82.3893V101.128H80.7459Z" fill="white"/>
<rect opacity="0.7" x="260.719" y="31.5149" width="85.5887" height="41.8372" rx="20.9186" fill="#001B5E"/>
<ellipse cx="281.238" cy="52.4332" rx="16.113" ry="17.015" fill="#FF4900"/>
<path d="M310.574 61.093C310.624 59.9949 310.819 59.0488 311.157 58.2548C311.511 57.4608 311.959 56.7513 312.5 56.1262C313.192 55.366 313.978 54.7071 314.856 54.1496C315.735 53.5921 316.605 53.0515 317.467 52.5278C318.024 52.2068 318.522 51.9027 318.962 51.6155C319.418 51.3114 319.798 50.9989 320.102 50.6779C320.406 50.3569 320.634 50.0021 320.786 49.6136C320.955 49.225 321.04 48.7689 321.04 48.2451C321.04 47.1808 320.702 46.3192 320.026 45.6604C319.367 45.0015 318.455 44.6721 317.289 44.6721C316.107 44.6721 315.186 45.0437 314.527 45.7871C314.172 46.1587 313.91 46.6064 313.741 47.1301C313.589 47.637 313.513 48.2705 313.513 49.0307H311.005C311.005 48.0171 311.148 47.1386 311.435 46.3952C311.723 45.6519 312.137 45.0015 312.677 44.444C313.235 43.8527 313.927 43.405 314.755 43.1009C315.583 42.7968 316.495 42.6448 317.492 42.6448C318.421 42.6448 319.257 42.7884 320.001 43.0756C320.744 43.3459 321.378 43.7344 321.901 44.2413C322.442 44.7312 322.856 45.314 323.143 45.9898C323.43 46.6656 323.574 47.4004 323.574 48.1945C323.574 49.0392 323.439 49.7572 323.168 50.3484C322.915 50.9228 322.569 51.4381 322.129 51.8942C321.69 52.3504 321.166 52.7643 320.558 53.136C319.967 53.4907 319.333 53.8624 318.658 54.251C318.185 54.5382 317.686 54.8422 317.162 55.1632C316.656 55.4673 316.166 55.8052 315.693 56.1769C315.22 56.5316 314.797 56.9118 314.426 57.3172C314.054 57.7227 313.784 58.1619 313.615 58.6349L313.564 58.8377H323.244V61.093H310.574Z" fill="white"/>
<defs>
<filter id="filter0_d_2313_151" x="67.1584" y="132.893" width="259.637" height="258.521" filterUnits="userSpaceOnUse" color-interpolation-filters="sRGB">
<feFlood flood-opacity="0" result="BackgroundImageFix"/>
<feColorMatrix in="SourceAlpha" type="matrix" values="0 0 0 0 0 0 0 0 0 0 0 0 0 0 0 0 0 0 127 0" result="hardAlpha"/>
<feOffset dy="8"/>
<feGaussianBlur stdDeviation="10"/>
<feComposite in2="hardAlpha" operator="out"/>
<feColorMatrix type="matrix" values="0 0 0 0 0 0 0 0 0 0 0 0 0 0 0 0 0 0 0.2 0"/>
<feBlend mode="normal" in2="BackgroundImageFix" result="effect1_dropShadow_2313_151"/>
<feBlend mode="normal" in="SourceGraphic" in2="effect1_dropShadow_2313_151" result="shape"/>
</filter>
<linearGradient id="paint0_linear_2313_151" x1="319.272" y1="31.7612" x2="176.474" y2="240.076" gradientUnits="userSpaceOnUse">
<stop stop-color="#FF4900"/>
<stop offset="1" stop-color="#992C00"/>
</linearGradient>
</defs>
</svg>
