<svg width="387" height="404" viewBox="0 0 387 404" fill="none" xmlns="http://www.w3.org/2000/svg">
<path d="M299.481 0.352783H278.006C237.364 0.352783 203.216 28.121 193.489 65.7033V12.1297H0.785645V316.656C0.785645 364.457 39.5226 403.194 87.3232 403.194H106.951C147.218 403.194 181.048 375.714 190.718 338.478V391.417H386.741V87.6407C386.741 39.4361 347.657 0.352783 299.453 0.352783H299.481Z" fill="#0049FF"/>
<path d="M261.986 212.597C285.245 212.597 304.1 192.32 304.1 167.308C304.1 142.295 285.245 122.019 261.986 122.019C238.727 122.019 219.872 142.295 219.872 167.308C219.872 192.32 238.727 212.597 261.986 212.597Z" fill="#F7F5E9"/>
<path d="M271.686 208.239C289.589 208.239 304.102 192.098 304.102 172.186C304.102 152.275 289.589 136.134 271.686 136.134C253.784 136.134 239.271 152.275 239.271 172.186C239.271 192.098 253.784 208.239 271.686 208.239Z" fill="#322E23"/>
<path d="M158.246 208.211C181.505 208.211 200.36 187.934 200.36 162.922C200.36 137.909 181.505 117.632 158.246 117.632C134.987 117.632 116.131 137.909 116.131 162.922C116.131 187.934 134.987 208.211 158.246 208.211Z" fill="#F7F5E9"/>
<path d="M167.944 203.853C185.847 203.853 200.36 187.712 200.36 167.801C200.36 147.889 185.847 131.748 167.944 131.748C150.042 131.748 135.529 147.889 135.529 167.801C135.529 187.712 150.042 203.853 167.944 203.853Z" fill="#322E23"/>
<path d="M139.28 228.414C147.651 245.849 165.143 257.308 184.396 257.914C205.15 258.607 224.461 246.599 233.034 227.635" stroke="#322E23" stroke-width="5.59355" stroke-linecap="round" stroke-linejoin="round"/>
<path d="M147.823 243.135C140.231 257.337 141.905 271.856 148.313 276.272C155.501 281.237 172.849 276.532 182.865 258.953C177.352 257.943 170.106 256.038 162.226 252.199C156.251 249.284 151.46 246.051 147.794 243.135H147.823Z" fill="#322E23"/>
</svg>
