<svg width="79" height="79" viewBox="0 0 79 79" fill="none" xmlns="http://www.w3.org/2000/svg">
<path d="M31.7063 40.1954H0.391434C0.391434 18.5163 17.9639 0.943848 39.643 0.943848C61.3221 0.943848 77.9615 17.6063 78.8485 38.4963H78.8888V78.6406H0.385681C0.385681 59.6801 13.8285 43.8585 31.7005 40.1897L31.7063 40.1954Z" fill="#0049FF"/>
<path d="M65.3138 50.8218H46.2208V56.3222C46.2208 61.5922 50.5002 65.8658 55.7645 65.8658C61.0345 65.8658 65.3081 61.5864 65.3081 56.3222V50.8218H65.3138Z" fill="#F9F2EC"/>
<path d="M62.4803 50.8218H50.2988V54.1566C50.2988 57.4741 52.9943 60.1696 56.3118 60.1696H56.4731C59.7906 60.1696 62.4861 57.4741 62.4861 54.1566V50.8218H62.4803Z" fill="#333333"/>
<path d="M66.8973 50.8213H45.3277" stroke="#322E23" stroke-width="1.13773" stroke-linecap="round" stroke-linejoin="round"/>
<path d="M38.9755 50.8213H19.8824V56.3217C19.8824 61.5917 24.1618 65.8653 29.4261 65.8653C34.6961 65.8653 38.9697 61.5859 38.9697 56.3217V50.8213H38.9755Z" fill="#F9F2EC"/>
<path d="M36.1471 50.8213H23.9656V54.1561C23.9656 57.4736 26.6611 60.1691 29.9786 60.1691H30.1398C33.4574 60.1691 36.1528 57.4736 36.1528 54.1561V50.8213H36.1471Z" fill="#333333"/>
<path d="M40.5587 50.8213H18.9948" stroke="#322E23" stroke-width="1.13773" stroke-linecap="round" stroke-linejoin="round"/>
<path d="M48.3921 71.994C48.0984 71.6657 46.0422 69.4137 42.6786 69.4713C39.3668 69.5231 37.397 71.7578 37.1091 72.1034" stroke="#322E23" stroke-width="1.13773" stroke-linecap="round" stroke-linejoin="round"/>
</svg>
