<svg width="425" height="516" viewBox="0 0 425 516" fill="none" xmlns="http://www.w3.org/2000/svg">
<rect x="0.546483" y="37.5359" width="378.383" height="480.189" rx="58.0295" transform="rotate(-5.61 0.546483 37.5359)" fill="url(#paint0_linear_2313_175)" stroke="white"/>
<mask id="mask0_2313_175" style="mask-type:alpha" maskUnits="userSpaceOnUse" x="109" y="143" width="177" height="301">
<path d="M284.979 353.727C281.94 378.949 265.467 394.197 259.521 399.531C235.363 421.218 190.883 434.759 160.474 412.574C138.256 396.368 135.171 369.566 134.805 365.9C130.938 327.05 162.457 289.392 199.623 280.93C207.483 279.141 239.534 273.207 264.025 295.508C288.715 317.988 285.349 350.592 284.972 353.728L284.979 353.727Z" fill="#FF4900"/>
<path d="M146.283 302.395C144.323 301.404 128.896 293.603 118.348 301.051C108.73 307.841 109.825 322.609 110.246 328.267C111.51 345.235 122.418 359.254 134.805 365.9C138.374 367.816 143.933 370.697 151.268 370.079C157.946 369.518 164.77 366.169 168.456 361.484C179.542 347.424 168.485 313.614 146.283 302.395Z" fill="#E83E0A"/>
<path d="M167.871 277.396C166.696 276.765 147.105 266.516 134.949 275.81C126.042 282.617 126.44 295.862 126.673 303.605C127.511 331.694 149.266 348.334 154.351 352.23C163.771 359.438 169.233 359.674 171.976 359.459C181.823 358.705 188.141 349.854 189.094 348.52C202.31 330.006 192.656 290.754 167.885 277.394L167.871 277.396Z" fill="#F24103"/>
<path d="M174.92 307.189C168.044 297.245 134.81 248.482 126.539 210.584C124.874 202.951 123.379 191.907 128.197 180.618C129.42 177.751 135.963 162.425 148.83 161.181C149.923 161.077 156.06 160.587 161.282 164.523C166.626 168.548 168.191 175.285 169.01 181.568C171.273 198.868 178.803 214.563 185.357 230.588C191.331 245.181 202.137 266.553 222.899 292.273C206.904 297.243 190.909 302.22 174.913 307.19L174.92 307.189Z" fill="#E83E0A"/>
<path d="M225.438 442.732C251.277 438.662 269.945 420.895 267.134 403.049C264.323 385.203 241.097 374.035 215.257 378.106C189.418 382.176 170.75 399.943 173.561 417.789C176.372 435.635 199.598 446.803 225.438 442.732Z" fill="#FF4900"/>
<path d="M206.681 295.182C211.917 269.267 211.932 234.706 212.537 208.384C213.09 184.501 216.402 158.338 240.374 146.747C246.092 143.982 252.806 142.788 258.867 144.706C274.52 149.659 270.277 166.453 266.564 178.276C263.623 187.649 261.256 197.211 259.478 206.878C254.132 235.941 254.164 265.702 259.927 294.683C242.169 292.185 224.439 297.68 206.681 295.182Z" fill="#F24103"/>
<path d="M204.544 396.259C192.79 390.344 184.495 377.915 183.713 364.656C182.842 351.002 190.333 337.672 201.754 330.407C209.152 325.518 218.086 323.335 226.525 323.973C222.39 324.951 218.444 326.212 214.745 327.925C213.152 328.612 210.922 329.882 209.402 330.775C208.877 331.116 206.756 332.56 206.294 332.871C205.952 333.163 204.908 333.967 204.54 334.263C183.422 351.571 185.537 378.179 204.543 396.252L204.544 396.259Z" fill="#E83E0A"/>
<path d="M281.946 328.38C280.098 321.19 275.437 307.671 263.164 296.481C254.74 288.803 243.496 282.412 231.823 281.297C217.311 279.914 210.42 289.277 199.153 296.136C184.166 305.263 162.678 302.59 156.754 312.644C151.529 321.519 158.614 339.966 172.391 346.924C186.797 354.198 206.842 348.059 216.453 330.944" fill="#FF4900"/>
</mask>
<g mask="url(#mask0_2313_175)">
<g filter="url(#filter0_d_2313_175)">
<path d="M284.978 353.727C281.94 378.949 265.467 394.198 259.521 399.531C235.363 421.218 190.883 434.759 160.474 412.574C138.256 396.368 135.171 369.566 134.805 365.9C130.938 327.05 162.457 289.392 199.623 280.93C207.482 279.141 239.534 273.208 264.025 295.508C288.715 317.988 285.349 350.592 284.972 353.728L284.978 353.727Z" fill="#FF4900"/>
<path d="M146.283 302.395C144.323 301.404 128.896 293.603 118.348 301.051C108.73 307.841 109.825 322.609 110.246 328.267C111.51 345.235 122.418 359.254 134.805 365.9C138.374 367.816 143.933 370.697 151.268 370.079C157.946 369.518 164.77 366.169 168.456 361.484C179.542 347.424 168.485 313.614 146.283 302.395Z" fill="#E83E0A"/>
<path d="M167.871 277.396C166.696 276.765 147.105 266.516 134.949 275.81C126.042 282.617 126.44 295.862 126.673 303.605C127.511 331.694 149.266 348.334 154.351 352.23C163.771 359.438 169.233 359.674 171.976 359.459C181.823 358.705 188.141 349.854 189.094 348.52C202.31 330.006 192.656 290.754 167.885 277.394L167.871 277.396Z" fill="#F24103"/>
<path d="M174.919 307.189C168.044 297.245 134.81 248.482 126.539 210.584C124.874 202.951 123.379 191.907 128.197 180.618C129.42 177.75 135.963 162.425 148.83 161.181C149.923 161.077 156.06 160.587 161.282 164.522C166.626 168.547 168.191 175.285 169.01 181.568C171.273 198.868 178.802 214.563 185.356 230.588C191.331 245.18 202.137 266.553 222.899 292.273C206.904 297.243 190.909 302.22 174.913 307.19L174.919 307.189Z" fill="#E83E0A"/>
<path d="M225.438 442.732C251.277 438.662 269.945 420.895 267.134 403.049C264.323 385.203 241.097 374.035 215.257 378.106C189.418 382.176 170.75 399.943 173.561 417.789C176.372 435.635 199.598 446.803 225.438 442.732Z" fill="#FF4900"/>
<path d="M206.681 295.182C211.917 269.267 211.932 234.706 212.537 208.385C213.09 184.501 216.402 158.338 240.374 146.747C246.092 143.982 252.806 142.788 258.867 144.706C274.52 149.659 270.277 166.453 266.564 178.276C263.623 187.649 261.256 197.211 259.478 206.878C254.132 235.941 254.164 265.702 259.927 294.683C242.169 292.185 224.439 297.68 206.681 295.182Z" fill="#F24103"/>
<path d="M204.544 396.259C192.79 390.344 184.495 377.915 183.713 364.656C182.842 351.002 190.333 337.672 201.754 330.407C209.152 325.518 218.086 323.335 226.525 323.973C222.39 324.951 218.444 326.213 214.745 327.925C213.152 328.612 210.922 329.882 209.402 330.775C208.877 331.116 206.756 332.56 206.294 332.871C205.952 333.163 204.908 333.967 204.54 334.263C183.422 351.571 185.537 378.179 204.543 396.252L204.544 396.259Z" fill="#E83E0A"/>
<path d="M281.946 328.38C280.099 321.191 275.437 307.671 263.164 296.481C254.74 288.803 243.496 282.413 231.823 281.297C217.311 279.914 210.42 289.277 199.153 296.136C184.166 305.263 162.678 302.59 156.754 312.644C151.529 321.52 158.614 339.966 172.391 346.924C186.797 354.198 206.842 348.059 216.453 330.944" fill="#FF4900"/>
</g>
<g style="mix-blend-mode:soft-light">
<rect x="99.5194" y="143.768" width="244.57" height="299.802" fill="#C3B300"/>
</g>
</g>
<path d="M66.1751 105.264C64.0042 105.477 62.1009 105.411 60.3818 105.074C58.6626 104.737 57.2111 104.121 55.9937 103.314C54.7346 102.51 53.7471 101.469 52.9897 100.194C52.2363 98.9617 51.7588 97.5334 51.5612 95.951L57.3642 95.381C58.1754 99.3478 60.9606 101.098 65.7617 100.626C66.5966 100.544 67.3816 100.382 68.1167 100.142C68.8518 99.9009 69.4493 99.5471 69.9968 99.114C70.5444 98.6808 70.9168 98.1806 71.1934 97.5633C71.4699 96.946 71.5713 96.2617 71.4934 95.4684C71.4114 94.6335 71.137 93.986 70.708 93.4802C70.2789 92.9744 69.6911 92.5684 68.9862 92.2583C68.2396 91.9523 67.3718 91.7003 66.3453 91.5483C65.3187 91.3962 64.2046 91.2106 62.9651 91.0373C61.4712 90.8468 60.0607 90.6482 58.7255 90.3578C57.3944 90.1092 56.2138 89.6772 55.188 89.1035C54.1622 88.5299 53.3287 87.7687 52.6458 86.8242C51.9629 85.8796 51.5853 84.61 51.4295 83.0236C51.286 81.5624 51.4093 80.2436 51.8872 79.1008C52.365 77.9579 53.068 76.9615 54.0379 76.1075C54.9661 75.2576 56.1234 74.596 57.506 74.0808C58.8468 73.5698 60.3709 73.2093 62.0409 73.0453C65.673 72.6885 68.5939 73.2446 70.7577 74.676C72.9215 76.1073 74.3119 78.2469 74.9248 81.0529L69.2888 81.6066C68.8907 80.1282 68.1079 79.0249 66.9404 78.2965C65.7312 77.5723 64.229 77.2984 62.3921 77.4788C60.6386 77.651 59.2561 78.1662 58.278 78.9367C57.2999 79.7072 56.8933 80.7166 57.0163 81.969C57.0901 82.7205 57.3145 83.2886 57.7353 83.7109C58.1185 84.1791 58.6982 84.5015 59.3989 84.7699C60.0997 85.0382 60.9634 85.2485 61.9482 85.4046C62.933 85.5608 64.0431 85.7047 65.2784 85.8362C66.7306 86.0308 68.1411 86.2294 69.5181 86.5157C70.895 86.802 72.1214 87.2716 73.2348 87.8788C74.3065 88.4901 75.2317 89.3266 75.9645 90.3505C76.6597 91.4203 77.129 92.7652 77.293 94.4351C77.4489 96.0215 77.2502 97.432 76.7806 98.6584C76.2733 99.9306 75.5367 101.015 74.5292 101.914C73.5257 102.856 72.3348 103.605 70.9146 104.166C69.4527 104.731 67.8868 105.096 66.1751 105.264ZM91.868 102.698C90.1146 102.87 88.5412 102.73 87.102 102.239C85.6251 101.794 84.3742 101.074 83.2656 100.087C82.1611 99.1415 81.2866 97.9629 80.6462 96.5926C79.9641 95.2265 79.5618 93.7064 79.3978 92.0365C79.2338 90.3666 79.3325 88.7973 79.7358 87.3245C80.0974 85.8559 80.7258 84.5296 81.6212 83.3458C82.4788 82.2077 83.5658 81.2579 84.8861 80.5381C86.2063 79.8183 87.7182 79.3326 89.4716 79.1604C90.8911 79.021 92.164 79.1067 93.3699 79.3676C94.5798 79.6703 95.6351 80.1146 96.5357 80.7005C97.4404 81.3282 98.2321 82.0935 98.8732 83.0421C99.5144 83.9908 99.9967 85.0393 100.32 86.1878L95.1435 86.6963C94.7741 85.5102 94.1371 84.6033 93.2324 83.9756C92.3277 83.3479 91.2471 83.0746 89.9112 83.2059C88.9092 83.3043 88.0947 83.595 87.3802 84.0446C86.6656 84.4941 86.1345 85.0943 85.6991 85.8115C85.2678 86.5704 85.0159 87.4382 84.8556 88.3812C84.6994 89.366 84.6767 90.422 84.7833 91.5075C84.8899 92.5929 85.1177 93.6244 85.4584 94.5182C85.7991 95.4121 86.2151 96.2142 86.7817 96.833C87.3483 97.4517 87.9861 97.9371 88.7745 98.239C89.5669 98.5826 90.4183 98.6676 91.4203 98.5692C92.8815 98.4257 94.0135 97.9351 94.7664 97.0181C95.5235 96.1429 95.9137 94.9665 95.9331 93.4472L101.11 92.9387C101.158 94.2828 100.98 95.4805 100.586 96.6151C100.191 97.7498 99.572 98.738 98.7691 99.5755C97.9662 100.413 96.984 101.142 95.8561 101.674C94.6864 102.211 93.3709 102.551 91.868 102.698ZM101.415 69.7256L106.842 69.1925L107.347 74.3275L101.92 74.8606L101.415 69.7256ZM102.36 78.4845L107.662 77.9637L109.852 100.257L104.55 100.778L102.36 78.4845ZM122.829 99.6991C119.615 100.015 117.044 99.5929 115.151 98.3457C113.263 97.1403 112.122 95.3977 111.734 93.1597L116.827 92.6594C117.167 93.9748 117.85 94.9193 118.867 95.4095C119.843 95.9038 121.083 96.0771 122.502 95.9376C123.963 95.7941 125.024 95.437 125.676 94.7828C126.287 94.1327 126.593 93.3861 126.503 92.4676C126.449 91.9249 126.237 91.4821 125.954 91.1727C125.629 90.8674 125.225 90.6121 124.699 90.4108C124.173 90.2095 123.531 90.1041 122.805 90.0068C122.079 89.9095 121.269 89.8204 120.418 89.7354C119.316 89.6751 118.289 89.523 117.3 89.3251C116.274 89.173 115.402 88.8793 114.601 88.4521C113.8 88.025 113.113 87.4603 112.576 86.7121C112.038 85.964 111.727 84.9408 111.604 83.6884C111.502 82.6447 111.62 81.7057 111.956 80.8298C112.291 79.9538 112.852 79.2243 113.546 78.566C114.24 77.9077 115.159 77.3959 116.216 76.9971C117.272 76.5982 118.425 76.3164 119.761 76.1852C122.725 75.894 125.041 76.2988 126.663 77.3619C128.285 78.4249 129.359 79.9211 129.84 81.8128L124.788 82.309C124.178 80.3879 122.618 79.5295 120.072 79.7796C118.819 79.9026 117.884 80.2474 117.307 80.8099C116.73 81.3724 116.503 82.0691 116.577 82.8206C116.626 83.3215 116.792 83.7267 117.113 83.9903C117.397 84.2996 117.839 84.5091 118.36 84.6686C118.882 84.8282 119.483 84.9378 120.205 84.9933L122.546 85.227C123.61 85.3332 124.678 85.4812 125.705 85.6332C126.732 85.7853 127.649 86.1167 128.492 86.5397C129.334 86.9628 130.03 87.611 130.613 88.3968C131.154 89.1866 131.515 90.2892 131.647 91.6252C131.762 92.7941 131.614 93.8624 131.24 94.7842C130.83 95.7519 130.236 96.569 129.458 97.2355C128.68 97.902 127.724 98.4596 126.583 98.8667C125.447 99.3155 124.165 99.5679 122.829 99.6991ZM144.377 97.5825C141.162 97.8983 138.592 97.4764 136.699 96.2292C134.81 95.0237 133.67 93.2811 133.281 91.0431L138.374 90.5428C138.714 91.8582 139.397 92.8028 140.415 93.2929C141.391 93.7872 142.63 93.9605 144.05 93.8211C145.511 93.6776 146.572 93.3204 147.224 92.6663C147.835 92.0162 148.141 91.2695 148.05 90.3511C147.997 89.8084 147.785 89.3655 147.502 89.0561C147.177 88.7509 146.772 88.4955 146.247 88.2943C145.721 88.093 145.078 87.9875 144.352 87.8902C143.626 87.7929 142.817 87.7039 141.965 87.6189C140.863 87.5585 139.837 87.4064 138.848 87.2085C137.821 87.0565 136.949 86.7627 136.149 86.3356C135.348 85.9084 134.66 85.3437 134.123 84.5956C133.586 83.8475 133.275 82.8243 133.152 81.5718C133.049 80.5281 133.168 79.5892 133.503 78.7132C133.839 77.8372 134.399 77.1077 135.093 76.4495C135.787 75.7912 136.707 75.2794 137.763 74.8805C138.82 74.4816 139.973 74.1998 141.309 74.0686C144.273 73.7774 146.589 74.1822 148.21 75.2453C149.832 76.3084 150.907 77.8046 151.387 79.6963L146.336 80.1925C145.726 78.2713 144.166 77.4129 141.619 77.663C140.367 77.7861 139.431 78.1309 138.854 78.6934C138.277 79.2559 138.051 79.9525 138.125 80.704C138.174 81.205 138.34 81.6102 138.661 81.8737C138.944 82.1831 139.386 82.3926 139.908 82.5521C140.429 82.7116 141.03 82.8212 141.752 82.8767L144.093 83.1104C145.158 83.2166 146.226 83.3646 147.253 83.5167C148.279 83.6687 149.197 84.0001 150.039 84.4232C150.882 84.8462 151.578 85.4944 152.161 86.2802C152.702 87.0701 153.063 88.1727 153.194 89.5086C153.309 90.6775 153.161 91.7459 152.788 92.6677C152.377 93.6353 151.783 94.4524 151.006 95.1189C150.228 95.7854 149.271 96.3431 148.131 96.7501C146.995 97.1989 145.713 97.4513 144.377 97.5825ZM167.256 95.293C165.503 95.4652 163.93 95.3247 162.449 94.8379C160.972 94.3929 159.721 93.6727 158.612 92.6857C157.508 91.7404 156.633 90.5618 155.951 89.1957C155.269 87.8295 154.867 86.3094 154.703 84.6395C154.539 82.9696 154.637 81.4003 155.041 79.9276C155.444 78.4548 156.073 77.1285 156.968 75.9447C157.867 74.8025 158.954 73.8528 160.316 73.1289C161.678 72.405 163.19 71.9192 164.944 71.747C166.655 71.5789 168.233 71.7611 169.71 72.2062C171.145 72.6553 172.396 73.3755 173.5 74.3208C174.609 75.3078 175.483 76.4864 176.165 77.8525C176.806 79.2228 177.25 80.7388 177.414 82.4087C177.578 84.0786 177.437 85.652 177.076 87.1206C176.672 88.5934 176.044 89.9197 175.145 91.0618C174.249 92.2457 173.162 93.1954 171.842 93.9152C170.484 94.6809 168.968 95.1249 167.256 95.293ZM166.821 91.2893C167.781 91.1949 168.6 90.9459 169.31 90.4546C170.025 90.0051 170.598 89.4009 171.029 88.6419C171.464 87.9247 171.758 87.0529 171.914 86.0681C172.074 85.125 172.139 84.0649 172.028 82.9377C171.922 81.8522 171.652 80.8249 171.307 79.8893C170.962 78.9537 170.505 78.1557 169.934 77.4952C169.363 76.8346 168.684 76.3534 167.891 76.0098C167.103 75.7078 166.248 75.5811 165.287 75.6754C164.285 75.7739 163.471 76.0646 162.756 76.5142C162.046 77.0055 161.473 77.6097 161.042 78.3686C160.61 79.1276 160.317 79.9994 160.161 80.9842C160.004 81.9691 159.982 83.0251 160.088 84.1105C160.199 85.2377 160.427 86.2691 160.767 87.163C161.112 88.0986 161.57 88.8966 162.137 89.5154C162.707 90.1759 163.387 90.6571 164.175 90.959C164.968 91.3027 165.819 91.3877 166.821 91.2893ZM184.743 74.4388L184.868 74.4265C186.004 71.4065 187.99 69.7361 190.829 69.4573C191.455 69.3958 191.923 69.4341 192.269 69.5266L192.736 74.2859L192.569 74.3023C192.102 74.2639 191.593 74.2296 191.092 74.2788C189.338 74.4511 187.93 75.1373 186.876 76.4211C185.822 77.7048 185.398 79.3904 185.607 81.5196L186.706 92.7081L181.404 93.2289L179.214 70.9354L184.349 70.431L184.743 74.4388ZM206.125 91.5172C202.911 91.8329 200.34 91.411 198.447 90.1638C196.558 88.9584 195.418 87.2158 195.029 84.9778L200.123 84.4775C200.463 85.7929 201.146 86.7374 202.163 87.2276C203.139 87.7219 204.378 87.8952 205.798 87.7557C207.259 87.6122 208.32 87.2551 208.972 86.6009C209.583 85.9508 209.889 85.2042 209.799 84.2857C209.745 83.743 209.533 83.3002 209.25 82.9908C208.925 82.6855 208.52 82.4302 207.995 82.2289C207.469 82.0276 206.827 81.9222 206.1 81.8249C205.374 81.7276 204.565 81.6385 203.713 81.5535C202.611 81.4932 201.585 81.3411 200.596 81.1432C199.569 80.9911 198.698 80.6974 197.897 80.2702C197.096 79.8431 196.408 79.2784 195.871 78.5302C195.334 77.7821 195.023 76.7589 194.9 75.5065C194.797 74.4628 194.916 73.5238 195.251 72.6479C195.587 71.7719 196.147 71.0424 196.842 70.3841C197.536 69.7258 198.455 69.214 199.512 68.8152C200.568 68.4163 201.721 68.1345 203.057 68.0033C206.021 67.7121 208.337 68.1169 209.959 69.18C211.58 70.243 212.655 71.7392 213.136 73.6309L208.084 74.1271C207.474 72.206 205.914 71.3476 203.368 71.5977C202.115 71.7207 201.18 72.0655 200.603 72.628C200.026 73.1905 199.799 73.8872 199.873 74.6387C199.922 75.1396 200.088 75.5448 200.409 75.8084C200.692 76.1177 201.135 76.3272 201.656 76.4867C202.178 76.6463 202.778 76.7559 203.5 76.8114L205.842 77.0451C206.906 77.1513 207.974 77.2993 209.001 77.4513C210.027 77.6034 210.945 77.9348 211.787 78.3578C212.63 78.7809 213.326 79.4291 213.909 80.2149C214.45 81.0047 214.811 82.1073 214.943 83.4433C215.057 84.6122 214.909 85.6805 214.536 86.6023C214.125 87.57 213.531 88.3871 212.754 89.0536C211.976 89.7201 211.019 90.2777 209.879 90.6848C208.743 91.1336 207.461 91.386 206.125 91.5172Z" fill="white"/>
<path d="M65.1749 128.167L65.1216 128.173C64.7186 128.942 64.1849 129.539 63.5206 129.963C62.8681 130.386 62.1093 130.64 61.2441 130.725C60.3197 130.816 59.4619 130.733 58.6708 130.476C57.8786 130.206 57.1802 129.796 56.5756 129.245C55.9592 128.696 55.4621 128.021 55.0844 127.22C54.7054 126.408 54.4665 125.498 54.3675 124.49C54.2686 123.483 54.32 122.545 54.5218 121.675C54.7224 120.794 55.0704 120.012 55.5657 119.329C56.0396 118.672 56.6449 118.134 57.3815 117.715C58.1299 117.294 59.0197 117.033 60.0508 116.932C60.833 116.855 61.5362 116.888 62.1604 117.03C62.7965 117.171 63.3578 117.403 63.8442 117.726C64.3295 118.038 64.7394 118.434 65.0739 118.916C65.4072 119.386 65.6687 119.916 65.8585 120.508L63.9741 120.693C63.6993 119.966 63.2541 119.394 62.6387 118.975C62.0233 118.557 61.2059 118.398 60.1867 118.498C59.4163 118.574 58.7601 118.776 58.218 119.105C57.6759 119.433 57.245 119.858 56.9253 120.38C56.6045 120.89 56.3878 121.486 56.2752 122.167C56.1615 122.836 56.1419 123.55 56.2164 124.309C56.2932 125.091 56.4703 125.798 56.7476 126.428C57.0357 127.046 57.398 127.567 57.8345 127.991C58.271 128.415 58.7746 128.73 59.3454 128.937C59.915 129.133 60.5257 129.198 61.1776 129.134C61.8294 129.07 62.3884 128.914 62.8545 128.665C63.3313 128.402 63.7123 128.078 63.9973 127.691C64.2824 127.304 64.4793 126.872 64.588 126.394C64.7073 125.904 64.7414 125.398 64.6902 124.877L64.6622 124.592L60.8223 124.969L60.6704 123.423L66.3058 122.869L66.9938 129.873L65.8383 129.987L65.1749 128.167ZM74.9092 129.096L74.7782 127.763L74.7427 127.766C74.4455 128.274 74.0858 128.692 73.6633 129.021C73.2516 129.336 72.702 129.528 72.0147 129.596C71.0191 129.693 70.2036 129.492 69.5682 128.992C68.9327 128.492 68.5656 127.739 68.4666 126.731L67.8205 120.154L69.4738 119.991L70.1112 126.48C70.1705 127.084 70.3949 127.541 70.7842 127.85C71.1842 128.146 71.716 128.261 72.3797 128.196C72.7471 128.16 73.0725 128.062 73.356 127.902C73.6395 127.743 73.8709 127.541 74.0503 127.296C74.2403 127.038 74.373 126.743 74.4482 126.413C74.5353 126.081 74.5608 125.732 74.5247 125.364L73.9537 119.551L75.607 119.389L76.5447 128.935L74.9092 129.096ZM79.321 120.388L79.3743 120.383C79.6703 119.863 80.0473 119.437 80.5052 119.105C80.9632 118.773 81.5418 118.572 82.2411 118.504C83.2485 118.405 84.0628 118.594 84.684 119.072C85.3053 119.549 85.6654 120.291 85.7644 121.299L86.4192 127.965L84.7837 128.126L84.1481 121.655C84.0875 121.039 83.8513 120.583 83.4395 120.289C83.0395 119.993 82.5136 119.877 81.8617 119.941C81.4943 119.977 81.157 120.076 80.8499 120.238C80.5534 120.387 80.3036 120.585 80.1005 120.832C79.8975 121.079 79.7465 121.369 79.6475 121.702C79.5604 122.034 79.5355 122.389 79.5728 122.768L80.1438 128.582L78.4905 128.744L77.5528 119.198L79.1883 119.037L79.321 120.388ZM86.593 118.31L88.0863 118.163L87.7912 115.159L89.4267 114.998L89.7218 118.002L91.6951 117.808L91.8208 119.088L89.8475 119.282L90.4395 125.309C90.4733 125.652 90.5795 125.881 90.7582 125.995C90.9476 126.097 91.1964 126.132 91.5046 126.102C91.6468 126.088 91.7938 126.061 91.9455 126.022C92.1079 125.971 92.2354 125.928 92.3279 125.895L92.3812 125.89L92.5174 127.277C92.0775 127.427 91.6383 127.524 91.1998 127.567C90.5587 127.618 90.0227 127.522 89.5918 127.277C89.1597 127.02 88.9093 126.542 88.8406 125.843L88.212 119.443L86.7187 119.59L86.593 118.31ZM92.6596 113.998L94.384 113.829L94.5726 115.749L92.8481 115.918L92.6596 113.998ZM93.0566 117.675L94.7099 117.512L95.6476 127.059L93.9943 127.221L93.0566 117.675ZM98.3928 118.515L98.4461 118.509C98.7421 117.99 99.1191 117.564 99.577 117.232C100.035 116.9 100.614 116.699 101.313 116.63C102.32 116.531 103.135 116.721 103.756 117.198C104.377 117.676 104.737 118.418 104.836 119.425L105.491 126.092L103.855 126.253L103.22 119.782C103.159 119.165 102.923 118.71 102.511 118.415C102.111 118.12 101.585 118.004 100.934 118.068C100.566 118.104 100.229 118.203 99.9216 118.365C99.6251 118.513 99.3754 118.711 99.1723 118.959C98.9692 119.206 98.8182 119.496 98.7193 119.829C98.6322 120.16 98.6073 120.516 98.6446 120.895L99.2156 126.708L97.5623 126.871L96.6246 117.324L98.2601 117.164L98.3928 118.515ZM111.726 128.854C110.47 128.977 109.469 128.836 108.723 128.431C107.991 128.036 107.535 127.417 107.356 126.573L108.903 126.421C109.023 126.912 109.319 127.242 109.79 127.411C110.262 127.592 110.854 127.647 111.565 127.577C112.419 127.493 113.051 127.234 113.463 126.799C113.888 126.374 114.06 125.753 113.98 124.935L113.954 124.668C113.927 124.396 113.902 124.141 113.879 123.904C113.866 123.654 113.858 123.451 113.855 123.296L113.819 123.299C113.534 123.806 113.18 124.218 112.756 124.535C112.344 124.85 111.801 125.041 111.125 125.108C110.521 125.167 109.947 125.11 109.403 124.936C108.871 124.761 108.401 124.484 107.993 124.105C107.585 123.726 107.247 123.263 106.977 122.715C106.72 122.166 106.557 121.542 106.488 120.843C106.416 120.108 106.458 119.44 106.614 118.838C106.771 118.236 107.013 117.722 107.342 117.295C107.682 116.854 108.09 116.503 108.567 116.241C109.044 115.979 109.561 115.82 110.118 115.766C110.805 115.698 111.393 115.772 111.881 115.987C112.379 116.19 112.806 116.519 113.162 116.974L113.198 116.971L113.074 115.709L114.709 115.548L115.609 124.703C115.671 125.343 115.625 125.904 115.469 126.386C115.314 126.88 115.068 127.299 114.731 127.643C114.382 127.989 113.953 128.258 113.446 128.452C112.94 128.657 112.366 128.791 111.726 128.854ZM111.152 123.741C111.674 123.69 112.104 123.564 112.444 123.363C112.782 123.15 113.043 122.885 113.227 122.568C113.422 122.238 113.546 121.86 113.6 121.436C113.655 121.012 113.658 120.557 113.61 120.071C113.511 119.064 113.203 118.298 112.684 117.775C112.177 117.238 111.443 117.017 110.483 117.112C109.606 117.198 108.978 117.565 108.599 118.212C108.22 118.86 108.08 119.687 108.179 120.694C108.279 121.714 108.583 122.498 109.092 123.046C109.6 123.594 110.287 123.826 111.152 123.741Z" fill="white"/>
<rect opacity="0.7" x="261.912" y="42.6392" width="85.5887" height="41.8372" rx="20.9186" transform="rotate(-5.61 261.912 42.6392)" fill="#001B5E"/>
<ellipse cx="284.378" cy="61.4514" rx="16.113" ry="17.015" transform="rotate(-5.61 284.378 61.4514)" fill="#FF4900"/>
<path d="M321.147 66.9485C320.138 67.0476 319.184 67.0056 318.283 66.8225C317.399 66.6377 316.611 66.3077 315.92 65.8324C315.211 65.3588 314.635 64.7619 314.19 64.0416C313.745 63.3045 313.464 62.4324 313.348 61.4253L315.718 61.1924C315.883 62.5174 316.414 63.5177 317.312 64.1933C318.225 64.8505 319.413 65.1073 320.876 64.9636C322.07 64.8464 323.015 64.4479 323.712 63.7683C324.426 63.0871 324.723 62.1328 324.602 60.9055C324.493 59.7958 324.016 59.0024 323.172 58.5251C322.342 58.0295 321.196 57.8535 319.733 57.9971L318.598 58.1086L318.415 56.2424L319.525 56.1334C320.87 56.0013 321.853 55.6416 322.474 55.0543C323.111 54.4486 323.383 53.6749 323.29 52.7334C323.244 52.2626 323.102 51.8522 322.864 51.5022C322.641 51.1336 322.34 50.8406 321.963 50.6231C321.6 50.3871 321.185 50.2242 320.718 50.1342C320.251 50.0443 319.757 50.025 319.235 50.0762C318.596 50.1389 318.043 50.2951 317.575 50.5448C317.106 50.7776 316.712 51.0879 316.394 51.4757C316.09 51.845 315.87 52.2825 315.733 52.7882C315.594 53.2772 315.552 53.799 315.607 54.3539L313.261 54.5842C313.179 53.7436 313.246 52.9562 313.462 52.2219C313.696 51.4861 314.065 50.8387 314.57 50.2798C315.074 49.7041 315.707 49.2345 316.469 48.8711C317.231 48.5076 318.116 48.2764 319.125 48.1773C319.966 48.0947 320.768 48.1348 321.53 48.2975C322.292 48.4434 322.962 48.7001 323.541 49.0675C324.137 49.4334 324.617 49.9125 324.981 50.5048C325.36 51.0787 325.587 51.7524 325.663 52.5258C325.763 53.5345 325.564 54.3688 325.069 55.0286C324.59 55.6867 323.92 56.2024 323.057 56.5758L323.064 56.6515C324.358 56.8639 325.329 57.3287 325.976 58.0459C326.624 58.7632 327.005 59.7019 327.119 60.862C327.205 61.7362 327.113 62.5346 326.845 63.2569C326.575 63.9625 326.168 64.5795 325.626 65.1081C325.099 65.6182 324.444 66.0306 323.66 66.3453C322.893 66.6583 322.055 66.8593 321.147 66.9485Z" fill="white"/>
<defs>
<filter id="filter0_d_2313_175" x="89.9812" y="131.768" width="215.35" height="339.801" filterUnits="userSpaceOnUse" color-interpolation-filters="sRGB">
<feFlood flood-opacity="0" result="BackgroundImageFix"/>
<feColorMatrix in="SourceAlpha" type="matrix" values="0 0 0 0 0 0 0 0 0 0 0 0 0 0 0 0 0 0 127 0" result="hardAlpha"/>
<feOffset dy="8"/>
<feGaussianBlur stdDeviation="10"/>
<feComposite in2="hardAlpha" operator="out"/>
<feColorMatrix type="matrix" values="0 0 0 0 0 0 0 0 0 0 0 0 0 0 0 0 0 0 0.35 0"/>
<feBlend mode="normal" in2="BackgroundImageFix" result="effect1_dropShadow_2313_175"/>
<feBlend mode="normal" in="SourceGraphic" in2="effect1_dropShadow_2313_175" result="shape"/>
</filter>
<linearGradient id="paint0_linear_2313_175" x1="111.397" y1="91.0824" x2="311.815" y2="376.829" gradientUnits="userSpaceOnUse">
<stop stop-color="#FF4900"/>
<stop offset="1" stop-color="#992C00"/>
</linearGradient>
</defs>
</svg>
