<svg width="64" height="41" viewBox="0 0 64 41" fill="none" xmlns="http://www.w3.org/2000/svg">
<path d="M52.8836 17.1081L63.6183 9.89674C63.6183 -7.55395 46.5856 5.56773 29.1337 5.56773C11.6817 5.56773 1.17325 -8.28646 0.459217 8.52907H0.426758L3.43187 40.8434H56.8809C56.8809 25.581 52.8012 12.8454 38.414 9.89212L52.8836 17.1081Z" fill="#0049FF"/>
<path d="M11.3545 18.4507H26.7246V22.8783C26.7246 27.1204 23.2797 30.5605 19.0419 30.5605C14.7994 30.5605 11.3591 27.1158 11.3591 22.8783V18.4507H11.3545Z" fill="#F9F2EC"/>
<path d="M13.6355 18.4507H23.4418V21.1351C23.4418 23.8055 21.2719 25.9753 18.6012 25.9753H18.4714C15.8008 25.9753 13.6309 23.8055 13.6309 21.1351V18.4507H13.6355Z" fill="#333333"/>
<path d="M10.0801 18.4502H27.4439" stroke="#322E23" stroke-width="0.910171" stroke-linecap="round" stroke-linejoin="round"/>
<path d="M32.5566 18.4502H47.9268V22.8778C47.9268 27.1199 44.4819 30.56 40.244 30.56C36.0016 30.56 32.5613 27.1153 32.5613 22.8778V18.4502H32.5566Z" fill="#F9F2EC"/>
<path d="M34.8337 18.4502H44.64V21.1346C44.64 23.805 42.4701 25.9748 39.7995 25.9748H39.6696C36.999 25.9748 34.8291 23.805 34.8291 21.1346V18.4502H34.8337Z" fill="#333333"/>
<path d="M31.2822 18.4502H48.6415" stroke="#322E23" stroke-width="0.910171" stroke-linecap="round" stroke-linejoin="round"/>
<path d="M24.9766 35.4934C25.213 35.2292 26.8683 33.4164 29.576 33.4628C32.242 33.5045 33.8277 35.3034 34.0596 35.5815" stroke="#322E23" stroke-width="0.910171" stroke-linecap="round" stroke-linejoin="round"/>
</svg>
