<svg width="176" height="175" viewBox="0 0 176 175" fill="none" xmlns="http://www.w3.org/2000/svg">
<path d="M175.64 122.613V174.727L104.548 174.727V141.427C95.7787 161.048 76.1067 174.727 53.2295 174.727H1.11558L1.11558 103.635H33.8855C14.0242 94.9659 0.143982 75.1677 0.143982 52.1139L0.143982 -4.57764e-05L175.653 -4.57764e-05L175.653 71.0919H141.911C161.773 79.7607 175.653 99.559 175.653 122.613H175.64Z" fill="#FF4900"/>
<path d="M67.4123 89.7666C77.58 89.7666 85.8225 98.6305 85.8225 109.565C85.8225 120.499 77.58 129.363 67.4123 129.363C57.2446 129.363 49.002 120.499 49.002 109.565C49.002 98.6305 57.2446 89.7666 67.4123 89.7666Z" fill="#F7F5E9"/>
<path d="M63.1853 91.6725C71.0114 91.6725 77.3557 98.7287 77.3557 107.433C77.3557 116.137 71.0114 123.193 63.1853 123.193C55.3591 123.193 49.0148 116.137 49.0148 107.433C49.0148 98.7287 55.3591 91.6725 63.1853 91.6725Z" fill="#322E23"/>
<path d="M112.763 91.6843C122.931 91.6843 131.173 100.548 131.173 111.483C131.173 122.417 122.931 131.281 112.763 131.281C102.595 131.281 94.3527 122.417 94.3527 111.483C94.3527 100.548 102.595 91.6843 112.763 91.6843Z" fill="#F7F5E9"/>
<path d="M108.523 93.5894C116.349 93.5894 122.693 100.646 122.693 109.35C122.693 118.054 116.349 125.11 108.523 125.11C100.696 125.11 94.3521 118.054 94.3521 109.35C94.3521 100.646 100.696 93.5894 108.523 93.5894Z" fill="#322E23"/>
<path d="M78.7944 78.4736C78.7944 78.4736 100.107 81.0856 101.306 80.4799C102.504 79.8742 90.05 71.4325 90.05 71.4325L78.7944 78.4736Z" fill="#322E23"/>
</svg>
