<svg width="387" height="385" viewBox="0 0 387 385" fill="none" xmlns="http://www.w3.org/2000/svg">
<path d="M386.57 192.863H386.625C386.625 87.0616 299.575 0.0109863 193.773 0.0109863C87.9715 0.0109863 2.28411 85.7818 0.97654 190.499H0.920898L0.920898 285.311C0.920898 339.839 45.1278 384.074 99.684 384.074C154.212 384.074 198.447 339.867 198.447 285.311V218.152C210.966 310.544 290.978 382.739 386.57 382.739C386.987 382.739 386.458 381.682 386.876 381.682L386.57 192.863Z" fill="#0049FF"/>
<path d="M128.978 162.424C152.917 162.424 172.323 141.548 172.323 115.796C172.323 90.0447 152.917 69.1689 128.978 69.1689C105.04 69.1689 85.6338 90.0447 85.6338 115.796C85.6338 141.548 105.04 162.424 128.978 162.424Z" fill="#F7F5E9"/>
<path d="M118.99 157.92C137.428 157.92 152.374 141.304 152.374 120.807C152.374 100.311 137.428 83.6948 118.99 83.6948C100.552 83.6948 85.605 100.311 85.605 120.807C85.605 141.304 100.552 157.92 118.99 157.92Z" fill="#322E23"/>
<path d="M235.81 157.92C259.749 157.92 279.155 137.044 279.155 111.292C279.155 85.5408 259.749 64.665 235.81 64.665C211.872 64.665 192.466 85.5408 192.466 111.292C192.466 137.044 211.872 157.92 235.81 157.92Z" fill="#F7F5E9"/>
<path d="M225.823 153.412C244.261 153.412 259.207 136.796 259.207 116.299C259.207 95.8027 244.261 79.1868 225.823 79.1868C207.385 79.1868 192.438 95.8027 192.438 116.299C192.438 136.796 207.385 153.412 225.823 153.412Z" fill="#322E23"/>
<path d="M164.756 178.062C169.987 185.991 179.279 190.415 188.71 189.441C198.864 188.384 207.489 181.262 210.41 171.441" stroke="#322E23" stroke-width="5.59355" stroke-linecap="round" stroke-linejoin="round"/>
<path d="M206.291 165.515C206.541 166.433 207.487 169.298 210.408 171.44C213.023 173.36 215.722 173.583 216.723 173.61" stroke="#322E23" stroke-width="5.59355" stroke-linecap="round" stroke-linejoin="round"/>
</svg>
