<svg width="64" height="42" viewBox="0 0 64 42" fill="none" xmlns="http://www.w3.org/2000/svg">
<path d="M53.0774 17.5637L63.7454 10.3971C63.7454 -6.94528 46.8185 6.09499 29.4748 6.09499C12.1311 6.09499 1.68778 -7.67325 0.978181 9.03796H0.945923L3.9324 41.1519H57.0498C57.0498 25.9841 52.9954 13.3275 38.6975 10.3926L53.0774 17.5637Z" fill="#FF4900"/>
<path d="M11.806 18.8979H27.0808V23.2981C27.0808 27.5139 23.6572 30.9326 19.4457 30.9326C15.2296 30.9326 11.8106 27.5093 11.8106 23.2981V18.8979H11.806Z" fill="#F9F2EC"/>
<path d="M14.073 18.8979H23.8184V21.5657C23.8184 24.2196 21.662 26.3758 19.0079 26.3758H18.8789C16.2248 26.3758 14.0684 24.2196 14.0684 21.5657V18.8979H14.073Z" fill="#333333"/>
<path d="M10.5392 18.8975H27.7953" stroke="#322E23" stroke-width="0.910171" stroke-linecap="round" stroke-linejoin="round"/>
<path d="M32.8774 18.8975H48.1523V23.2976C48.1523 27.5134 44.7287 30.9321 40.5172 30.9321C36.301 30.9321 32.8821 27.5088 32.8821 23.2976V18.8975H32.8774Z" fill="#F9F2EC"/>
<path d="M35.1401 18.8975H44.8856V21.5652C44.8856 24.2191 42.7291 26.3754 40.075 26.3754H39.946C37.2919 26.3754 35.1355 24.2191 35.1355 21.5652V18.8975H35.1401Z" fill="#333333"/>
<path d="M31.6106 18.8975H48.8621" stroke="#322E23" stroke-width="0.910171" stroke-linecap="round" stroke-linejoin="round"/>
<path d="M25.344 35.8353C25.579 35.5727 27.224 33.7712 29.9149 33.8173C32.5644 33.8587 34.1403 35.6464 34.3706 35.9229" stroke="#322E23" stroke-width="0.910171" stroke-linecap="round" stroke-linejoin="round"/>
</svg>
