<svg width="862" height="90" viewBox="0 0 862 90" fill="none" xmlns="http://www.w3.org/2000/svg">
<path d="M831.298 67.36C836.022 60.6882 838.744 52.9143 838.744 44.6077V45.1422C838.744 20.3712 814.637 0.290039 784.9 0.290039L54.6205 0.817678C24.8842 0.817678 0.776978 20.8989 0.776978 45.6699V45.1353C0.776978 69.9056 24.8842 89.9867 54.6205 89.9867L784.901 89.4591C796.322 89.4591 806.904 86.4887 815.616 81.4371C825.26 86.5169 836.691 89.4591 848.949 89.4591C852.92 89.4591 856.803 89.1436 860.567 88.5495C861.823 88.3512 861.865 86.5843 860.65 86.2087C848.72 82.5196 838.516 75.8804 831.298 67.36Z" fill="#FF4900"/>
</svg>
