<svg width="1662" height="682" viewBox="0 0 1662 682" fill="none" xmlns="http://www.w3.org/2000/svg">
<path opacity="0.2" d="M436.739 7.41211C348.999 281.772 265.876 432.751 18.9221 664.5C12.2864 670.727 16.6033 681.979 25.7033 681.979H358.268C365.005 681.979 369.815 675.44 368.248 668.887C318.84 462.368 586.404 178.984 988.735 20.7518C999.192 16.6392 996.347 0.373779 985.11 0.373779H446.298C441.942 0.373779 438.066 3.26266 436.739 7.41211Z" fill="#0049FF"/>
<path opacity="0.3" d="M857.169 679.833C996.139 604.075 1113.29 226.855 1160.23 24.5218C1163.12 12.0788 1153.59 0.378418 1140.82 0.378418H1046.94C1044.66 0.378418 1042.38 0.77193 1040.24 1.5363C610.369 154.83 318.022 452.668 368.204 667.756C370.195 676.291 378.037 681.984 386.801 681.984H848.33C851.438 681.984 854.44 681.321 857.169 679.833Z" fill="#0049FF"/>
<path opacity="0.25" d="M1647.76 433.777C1402.07 347.413 1125.94 477.631 1093.12 673.27C1092.29 678.227 1088.07 681.984 1083.04 681.984H895.376C884.826 681.984 879.806 665.078 887.763 658.151C1016.92 545.714 1122.98 191.387 1163.98 8.07941C1165 3.49586 1169.03 0.378418 1173.73 0.378418H1651.47C1657 0.378418 1661.47 4.85556 1661.47 10.3784V424.251C1661.47 431.276 1654.38 436.106 1647.76 433.777Z" fill="#3A73FF"/>
</svg>
