<svg width="88" height="85" viewBox="0 0 88 85" fill="none" xmlns="http://www.w3.org/2000/svg">
<path d="M0.532227 19.7455L0.532227 24.374C0.532227 33.1334 6.51695 40.493 14.6168 42.5895H3.07045L3.07045 84.1217H68.7033C79.0055 84.1217 87.3542 75.7729 87.3542 65.4708V61.2404C87.3542 52.5619 81.4317 45.2708 73.4065 43.1867L84.816 43.1867V0.939072H19.3449C8.95562 0.939072 0.532227 9.36246 0.532227 19.7517V19.7455Z" fill="#0049FF"/>
<path d="M46.276 27.8266C46.276 22.8137 41.9059 18.75 36.5151 18.75C31.1243 18.75 26.7542 22.8137 26.7542 27.8266C26.7542 32.8394 31.1243 36.9032 36.5151 36.9032C41.9059 36.9032 46.276 32.8394 46.276 27.8266Z" fill="#F7F5E9"/>
<path d="M45.3367 25.7355C45.3367 21.877 41.8579 18.7491 37.5666 18.7491C33.2752 18.7491 29.7964 21.877 29.7964 25.7355C29.7964 29.5939 33.2752 32.7218 37.5666 32.7218C41.8579 32.7218 45.3367 29.5939 45.3367 25.7355Z" fill="#322E23"/>
<path d="M45.3307 50.1845C45.3307 45.1716 40.9606 41.1079 35.5698 41.1079C30.179 41.1079 25.8088 45.1716 25.8088 50.1845C25.8088 55.1974 30.179 59.2611 35.5698 59.2611C40.9606 59.2611 45.3307 55.1974 45.3307 50.1845Z" fill="#F7F5E9"/>
<path d="M44.3915 48.0937C44.3915 44.2353 40.9126 41.1074 36.6213 41.1074C32.3299 41.1074 28.8511 44.2353 28.8511 48.0937C28.8511 51.9522 32.3299 55.0801 36.6213 55.0801C40.9126 55.0801 44.3915 51.9522 44.3915 48.0937Z" fill="#322E23"/>
<path d="M49.6848 54.2721C53.4424 52.468 55.9122 48.698 56.0428 44.5485C56.1921 40.0755 53.6041 35.9136 49.5168 34.0659" stroke="#322E23" stroke-width="1.18981" stroke-linecap="round" stroke-linejoin="round"/>
<path d="M52.8574 52.4306C55.9182 54.0667 59.0474 53.7059 59.9993 52.3248C61.0693 50.7757 60.0553 47.0369 56.2666 44.8781C56.0489 46.0664 55.6383 47.6279 54.8109 49.3263C54.1825 50.614 53.4858 51.6467 52.8574 52.4368V52.4306Z" fill="#322E23"/>
</svg>
