<svg width="322" height="288" viewBox="0 0 322 288" fill="none" xmlns="http://www.w3.org/2000/svg">
<circle cx="235.764" cy="86.1552" r="71.6427" stroke="#0049FF" stroke-width="29.0251"/>
<path opacity="0.7" d="M244.977 233.48C244.977 259.172 224.149 280 198.457 280C172.764 280 151.937 259.172 151.937 233.48C151.937 207.787 172.764 186.959 198.457 186.959" stroke="#3A73FF" stroke-width="15.6724"/>
<path d="M21.6978 82.1537C-6.51084 104.103 16.4224 139.088 45.9469 134.072L38.6413 156.86C35.4444 181.384 66.7225 198.946 85.2114 174.226L93.7392 150.136L116.483 159.62C152.252 162.801 153.436 121.889 133.959 112.341L110.494 102.097C137.201 76.463 106.911 43.4508 84.2398 52.9429L21.6978 82.1537Z" stroke="#CBCBCB" stroke-width="2.12287"/>
<rect x="19.0907" y="208.395" width="171.952" height="46.7031" rx="23.3515" stroke="#FF4900" stroke-width="14.8601"/>
</svg>
