<svg width="451" height="341" viewBox="0 0 451 341" fill="none" xmlns="http://www.w3.org/2000/svg">
<path d="M397.333 0C426.608 0.000249876 450.34 23.7326 450.34 53.0078V287.353C450.34 316.628 426.608 340.359 397.333 340.359H53.0078C23.7326 340.359 0.000213689 316.628 0 287.353V53.0078C0 23.7325 23.7325 0 53.0078 0H397.333ZM46.3545 28.2852C35.3088 28.2852 26.3545 37.2395 26.3545 48.2852V177.725C26.3545 188.77 35.3088 197.725 46.3545 197.725H404.732C415.778 197.725 424.732 188.77 424.732 177.725V48.2852C424.732 37.2395 415.778 28.2852 404.732 28.2852H46.3545Z" fill="url(#paint0_linear_144_174)"/>
<defs>
<linearGradient id="paint0_linear_144_174" x1="225.17" y1="-7.52904e-06" x2="43.5093" y2="301.354" gradientUnits="userSpaceOnUse">
<stop stop-color="#FF7C48"/>
<stop offset="1" stop-color="#FF4900"/>
</linearGradient>
</defs>
</svg>
