<svg width="127" height="125" viewBox="0 0 127 125" fill="none" xmlns="http://www.w3.org/2000/svg">
<path d="M126.719 0H0C0 29.4176 20.0435 54.1437 47.224 61.2807H0C0 96.2776 28.367 124.645 63.3638 124.645C98.3607 124.645 126.728 96.2776 126.728 61.2807H79.5037C106.675 54.1437 126.728 29.4176 126.728 0H126.719Z" fill="#FF4900"/>
<path d="M41.8078 101.785C49.6011 101.785 55.9189 94.9887 55.9189 86.6051C55.9189 78.2215 49.6011 71.4253 41.8078 71.4253C34.0145 71.4253 27.6968 78.2215 27.6968 86.6051C27.6968 94.9887 34.0145 101.785 41.8078 101.785Z" fill="#F7F5E9"/>
<path d="M44.4155 100.317C50.418 100.317 55.284 94.9074 55.284 88.2346C55.284 81.5617 50.418 76.1523 44.4155 76.1523C38.4129 76.1523 33.5469 81.5617 33.5469 88.2346C33.5469 94.9074 38.4129 100.317 44.4155 100.317Z" fill="#322E23"/>
<path d="M76.5871 100.318C84.3804 100.318 90.6982 93.5214 90.6982 85.1378C90.6982 76.7542 84.3804 69.958 76.5871 69.958C68.7938 69.958 62.4761 76.7542 62.4761 85.1378C62.4761 93.5214 68.7938 100.318 76.5871 100.318Z" fill="#F7F5E9"/>
<path d="M74.8388 97.2204C80.8413 97.2204 85.7074 91.811 85.7074 85.1381C85.7074 78.4653 80.8413 73.0559 74.8388 73.0559C68.8362 73.0559 63.9702 78.4653 63.9702 85.1381C63.9702 91.811 68.8362 97.2204 74.8388 97.2204Z" fill="#322E23"/>
<path d="M55.2578 107.391C55.2578 107.391 70.5553 105.516 71.4158 105.951C72.2762 106.386 63.3368 112.445 63.3368 112.445L55.2578 107.391Z" fill="#322E23"/>
</svg>
