<svg width="440" height="680" viewBox="0 0 440 680" fill="none" xmlns="http://www.w3.org/2000/svg">
<g opacity="0.6">
<mask id="mask0_4093_8264" style="mask-type:alpha" maskUnits="userSpaceOnUse" x="0" y="0" width="440" height="680">
<path d="M400 0C404.718 0 407.924 4.21589 409.212 8.75472C412.23 19.3887 420.609 27.7677 431.243 30.7863C435.783 32.0749 440 35.2812 440 40V369C440 380.046 430.229 388.577 421.276 395.047C413.234 400.859 408 410.318 408 421C408 431.682 413.234 441.141 421.276 446.953C430.229 453.423 440 461.954 440 473V640C440 662.091 422.091 680 400 680H262.633C256.34 680 252 673.293 252 667C252 649.327 237.673 635 220 635C202.327 635 188 649.327 188 667C188 673.293 183.66 680 177.367 680H40C17.9086 680 8.05429e-08 662.091 0 640V473C0 461.954 9.77109 453.423 18.7236 446.953C26.7664 441.141 32 431.682 32 421C32 410.318 26.7664 400.859 18.7236 395.047C9.77109 388.577 0 380.046 0 369V40C0 35.2813 4.21629 32.075 8.75567 30.7865C19.3895 27.7683 27.7683 19.3895 30.7865 8.75567C32.075 4.21629 35.2813 1.37613e-07 40 0H400Z" fill="#E6EDFF"/>
</mask>
<g mask="url(#mask0_4093_8264)">
<path d="M51.4498 68.7334H51.4667C51.4667 36.5114 24.9554 10 -7.26664 10C-39.4886 10 -65.5848 36.1216 -65.9831 68.0132H-66V96.8884C-66 113.495 -52.5367 126.967 -35.9216 126.967C-19.3149 126.967 -5.84322 113.504 -5.84322 96.8884V76.4351C-2.03046 104.573 22.3373 126.56 51.4498 126.56C51.5769 126.56 51.4159 126.238 51.543 126.238L51.4498 68.7334Z" fill="#FF4900"/>
<path d="M5.53587 58.0912C12.8264 58.0912 18.7365 51.7335 18.7365 43.8908C18.7365 36.0482 12.8264 29.6904 5.53587 29.6904C-1.75462 29.6904 -7.66473 36.0482 -7.66473 43.8908C-7.66473 51.7335 -1.75462 58.0912 5.53587 58.0912Z" fill="#F7F5E9"/>
<path d="M2.49419 56.7187C8.10946 56.7187 12.6615 51.6583 12.6615 45.416C12.6615 39.1737 8.10946 34.1133 2.49419 34.1133C-3.12108 34.1133 -7.67316 39.1737 -7.67316 45.416C-7.67316 51.6583 -3.12108 56.7187 2.49419 56.7187Z" fill="#322E23"/>
<path d="M-16.104 64.2255C-14.5111 66.6403 -11.6812 67.9874 -8.80893 67.6909C-5.71636 67.3689 -3.0898 65.1999 -2.20016 62.209" stroke="#322E23" stroke-width="5.59355" stroke-linecap="round" stroke-linejoin="round"/>
<path d="M-3.45471 60.4033C-3.37846 60.6829 -3.09038 61.5556 -2.20074 62.208C-1.40429 62.7926 -0.582437 62.8604 -0.277416 62.8689" stroke="#322E23" stroke-width="5.59355" stroke-linecap="round" stroke-linejoin="round"/>
<path d="M201.587 34.5405C202.605 32.3678 203.195 29.9557 203.195 27.3981V26.8165C203.195 17.5272 195.668 10 186.379 10H102.664C93.3748 10 85.8476 17.5272 85.8476 26.8165V27.3981C85.8476 36.6874 93.3748 44.2146 102.664 44.2146H115.007L96.3686 53.119C92.4083 54.6929 89.1921 57.7209 87.3787 61.5444C87.3103 61.6898 87.2419 61.8266 87.1734 61.972C87.0793 62.1859 86.9938 62.3997 86.9083 62.6136C85.3002 66.591 85.1804 71.1416 86.874 75.3756C86.9938 75.6836 87.1136 75.9829 87.2504 76.2823C87.2675 76.3251 87.2846 76.3764 87.3103 76.4192C87.3359 76.4705 87.3616 76.5133 87.3873 76.5646C89.9705 81.9705 95.3336 85.7683 101.638 86.1105C101.792 86.119 101.954 86.1276 102.117 86.1361C102.262 86.1361 102.407 86.1618 102.553 86.1618H109.747L95.3678 93.0304C88.6789 96.2209 85.0436 103.192 85.7364 110.163V110.54C85.7364 119.829 93.2636 127.356 102.553 127.356H186.268C195.557 127.356 203.084 119.829 203.084 110.54V109.958C203.084 100.669 195.557 93.1416 186.268 93.1416H174.481L190.006 85.7256C197.49 84.0234 203.093 77.343 203.093 69.3368V68.7551C203.093 59.4658 195.565 51.9386 186.276 51.9386H178.219L192.597 45.07C197.122 42.9059 200.253 39.0055 201.587 34.549V34.5405Z" fill="#FF4900"/>
<path d="M127.239 59.9365C134.599 59.9365 140.565 53.5181 140.565 45.6006C140.565 37.6831 134.599 31.2646 127.239 31.2646C119.879 31.2646 113.912 37.6831 113.912 45.6006C113.912 53.5181 119.879 59.9365 127.239 59.9365Z" fill="#F7F5E9"/>
<path d="M129.711 58.5507C135.38 58.5507 139.975 53.442 139.975 47.1401C139.975 40.8382 135.38 35.7295 129.711 35.7295C124.042 35.7295 119.446 40.8382 119.446 47.1401C119.446 53.442 124.042 58.5507 129.711 58.5507Z" fill="#322E23"/>
<path d="M160.085 58.5498C167.445 58.5498 173.411 52.1314 173.411 44.2139C173.411 36.2963 167.445 29.8779 160.085 29.8779C152.725 29.8779 146.758 36.2963 146.758 44.2139C146.758 52.1314 152.725 58.5498 160.085 58.5498Z" fill="#F7F5E9"/>
<path d="M158.434 55.6239C164.102 55.6239 168.698 50.5152 168.698 44.2133C168.698 37.9114 164.102 32.8027 158.434 32.8027C152.765 32.8027 148.169 37.9114 148.169 44.2133C148.169 50.5152 152.765 55.6239 158.434 55.6239Z" fill="#322E23"/>
<path d="M150.051 70.0811C150.488 69.5936 153.541 66.2491 158.537 66.3346C163.455 66.4116 166.38 69.7304 166.808 70.2436" stroke="#322E23" stroke-width="5.59355" stroke-linecap="round" stroke-linejoin="round"/>
<path d="M354.848 41.3845C354.848 24.0539 340.794 10 323.464 10H237.305L259.781 63.5002C246.783 67.3384 237.305 79.3559 237.305 93.5941C237.305 110.925 251.359 124.979 268.69 124.979H354.848L332.372 71.4783C345.37 67.6401 354.848 55.6227 354.848 41.3845Z" fill="#FF4900"/>
<path d="M298.884 72.6771C297.308 75.0655 294.509 76.398 291.668 76.1047C288.609 75.7863 286.012 73.6409 285.132 70.6826" stroke="#322E23" stroke-width="5.59355" stroke-linecap="round" stroke-linejoin="round"/>
<path d="M286.372 68.9053C286.296 69.1818 286.012 70.045 285.132 70.6903C284.344 71.2685 283.531 71.3356 283.229 71.344" stroke="#322E23" stroke-width="5.59355" stroke-linecap="round" stroke-linejoin="round"/>
<path d="M268.204 35.4414H295.985V43.4447C295.985 51.1127 289.758 57.3309 282.099 57.3309C274.431 57.3309 268.212 51.1043 268.212 43.4447V35.4414H268.204Z" fill="#F9F2EC"/>
<path d="M275.671 35.4414H293.395V40.2936C293.395 45.1207 289.473 49.0427 284.646 49.0427H284.411C279.584 49.0427 275.662 45.1207 275.662 40.2936V35.4414H275.671Z" fill="#333333"/>
<path d="M265.891 35.4414H297.275" stroke="#322E23" stroke-width="5.59355" stroke-linecap="round" stroke-linejoin="round"/>
<path d="M306.519 35.4414H334.3V43.4447C334.3 51.1127 328.074 57.3309 320.414 57.3309C312.746 57.3309 306.528 51.1043 306.528 43.4447V35.4414H306.519Z" fill="#F9F2EC"/>
<path d="M313.986 35.4414H331.711V40.2936C331.711 45.1207 327.789 49.0427 322.961 49.0427H322.727C317.9 49.0427 313.978 45.1207 313.978 40.2936V35.4414H313.986Z" fill="#333333"/>
<path d="M304.214 35.4414H335.59" stroke="#322E23" stroke-width="5.59355" stroke-linecap="round" stroke-linejoin="round"/>
<path d="M506.493 92.1165V127.019L458.88 127.019V104.717C453.007 117.858 439.832 127.019 424.511 127.019H389.609V79.4064H411.556C398.254 73.6007 388.958 60.3413 388.958 44.9016V9.99957L506.501 9.99957V57.6117H483.903C497.205 63.4174 506.501 76.6768 506.501 92.1165H506.493Z" fill="#FF4900"/>
<path d="M434.009 70.1179C440.819 70.1179 446.339 76.0544 446.339 83.3773C446.339 90.7003 440.819 96.6367 434.009 96.6367C427.199 96.6367 421.679 90.7003 421.679 83.3773C421.679 76.0544 427.199 70.1179 434.009 70.1179Z" fill="#F7F5E9"/>
<path d="M431.178 71.3946C436.42 71.3946 440.669 76.1203 440.669 81.9498C440.669 87.7792 436.42 92.5049 431.178 92.5049C425.937 92.5049 421.688 87.7792 421.688 81.9498C421.688 76.1203 425.937 71.3946 431.178 71.3946Z" fill="#322E23"/>
<path d="M44.9272 214.897L29.6607 198.072C42.2536 194.769 51.543 183.308 51.543 169.685C51.543 159.221 46.0596 150.033 37.809 144.84C31.4232 139.91 23.3258 138.445 15.9267 140.335H-29.958C-33.1339 139.782 -36.3865 139.825 -39.5624 140.48C-54.4032 141.945 -66 154.461 -66 169.685C-66 183.896 -55.9018 195.739 -42.4999 198.456L-57.0512 214.497C-66.5109 224.927 -65.7275 241.054 -55.2972 250.513C-44.867 259.973 -28.7405 259.19 -19.2808 248.759L-6.2536 234.395L7.13974 249.168C16.5994 259.598 32.7259 260.382 43.1562 250.922C53.5864 241.462 54.3698 225.336 44.9102 214.906L44.9272 214.897Z" fill="#FF4900"/>
<path d="M-15.4243 197.663C-11.7716 202.039 -5.93914 204.049 -0.387669 202.84C5.59804 201.537 10.2555 196.709 11.3368 190.664" stroke="#322E23" stroke-width="5.59355" stroke-linecap="round" stroke-linejoin="round"/>
<path d="M-1.36615 165.165H26.8595V173.296C26.8595 181.087 20.5332 187.405 12.7509 187.405C4.96014 187.405 -1.35763 181.079 -1.35763 173.296V165.165H-1.36615Z" fill="#F9F2EC"/>
<path d="M2.8226 165.165H20.8308V170.095C20.8308 174.999 16.846 178.984 11.9417 178.984H11.7032C6.79888 178.984 2.81409 174.999 2.81409 170.095V165.165H2.8226Z" fill="#333333"/>
<path d="M-3.70764 165.164H28.1792" stroke="#322E23" stroke-width="5.59355" stroke-linecap="round" stroke-linejoin="round"/>
<path d="M203.187 197.379H144.573L202.412 139.539H115.802C99.1485 139.539 85.6523 153.035 85.6523 169.689V256.299L85.8055 256.146H144.785C177.071 255.942 203.195 229.715 203.195 197.379H203.187Z" fill="#FF4900"/>
<path d="M154.013 230.164C161.235 228.958 166.038 221.682 164.741 213.913C163.443 206.144 156.537 200.823 149.315 202.029C142.093 203.235 137.29 210.511 138.587 218.28C139.884 226.049 146.791 231.37 154.013 230.164Z" fill="#F7F5E9"/>
<path d="M156.804 228.306C162.367 227.378 166.039 221.612 165.007 215.428C163.974 209.244 158.628 204.984 153.065 205.913C147.502 206.842 143.83 212.608 144.863 218.791C145.895 224.975 151.242 229.235 156.804 228.306Z" fill="#322E23"/>
<path d="M121.557 234.186C128.779 232.98 133.582 225.705 132.285 217.935C130.988 210.166 124.081 204.846 116.859 206.052C109.637 207.258 104.834 214.533 106.131 222.303C107.429 230.072 114.335 235.392 121.557 234.186Z" fill="#F7F5E9"/>
<path d="M124.349 232.329C129.911 231.4 133.584 225.634 132.551 219.45C131.518 213.266 126.172 209.006 120.609 209.935C115.047 210.864 111.374 216.63 112.407 222.814C113.439 228.998 118.786 233.258 124.349 232.329Z" fill="#322E23"/>
<path d="M135.553 239.05C135.8 239.493 136.931 241.39 139.178 241.943C141.646 242.556 144.437 241.297 145.985 238.761" stroke="#322E23" stroke-width="5.59355" stroke-linecap="round" stroke-linejoin="round"/>
<path d="M353.735 139.556H307.902V139.775H258.358C246.726 139.775 237.305 149.205 237.305 160.828V164.809C237.305 176.44 246.735 185.861 258.358 185.861H273.565L245.638 212.379C240.578 216.225 237.305 222.307 237.305 229.155V233.137C237.305 243.519 244.82 252.139 254.714 253.869L254.781 254.189H353.735L354.848 139.539H353.735V139.556Z" fill="#FF4900"/>
<path d="M280.887 229.568C288.145 229.568 294.028 223.239 294.028 215.432C294.028 207.625 288.145 201.296 280.887 201.296C273.63 201.296 267.746 207.625 267.746 215.432C267.746 223.239 273.63 229.568 280.887 229.568Z" fill="#F7F5E9"/>
<path d="M277.859 228.21C283.449 228.21 287.98 223.173 287.98 216.959C287.98 210.745 283.449 205.707 277.859 205.707C272.269 205.707 267.737 210.745 267.737 216.959C267.737 223.173 272.269 228.21 277.859 228.21Z" fill="#322E23"/>
<path d="M313.266 228.202C320.523 228.202 326.407 221.873 326.407 214.066C326.407 206.259 320.523 199.93 313.266 199.93C306.008 199.93 300.125 206.259 300.125 214.066C300.125 221.873 306.008 228.202 313.266 228.202Z" fill="#F7F5E9"/>
<path d="M310.247 226.835C315.837 226.835 320.368 221.798 320.368 215.584C320.368 209.37 315.837 204.332 310.247 204.332C304.657 204.332 300.126 209.37 300.126 215.584C300.126 221.798 304.657 226.835 310.247 226.835Z" fill="#322E23"/>
<path d="M291.734 234.309C293.319 236.713 296.137 238.054 298.996 237.759C302.074 237.438 304.689 235.279 305.575 232.302" stroke="#322E23" stroke-width="5.59355" stroke-linecap="round" stroke-linejoin="round"/>
<path d="M304.326 230.515C304.402 230.793 304.689 231.662 305.575 232.311C306.367 232.893 307.186 232.961 307.489 232.969" stroke="#322E23" stroke-width="5.59355" stroke-linecap="round" stroke-linejoin="round"/>
<path d="M479.926 139.539H473.386C461.008 139.539 450.608 147.996 447.646 159.442V143.126H388.958V235.87C388.958 250.427 400.755 262.225 415.313 262.225H421.291C433.554 262.225 443.857 253.856 446.802 242.516V258.638H506.501V166.123C506.501 151.442 494.598 139.539 479.917 139.539H479.926Z" fill="#FF4900"/>
<path d="M436.913 202.843C443.996 202.843 449.739 196.667 449.739 189.05C449.739 181.432 443.996 175.257 436.913 175.257C429.829 175.257 424.087 181.432 424.087 189.05C424.087 196.667 429.829 202.843 436.913 202.843Z" fill="#F7F5E9"/>
<path d="M439.867 201.515C445.319 201.515 449.739 196.599 449.739 190.535C449.739 184.472 445.319 179.556 439.867 179.556C434.415 179.556 429.995 184.472 429.995 190.535C429.995 196.599 434.415 201.515 439.867 201.515Z" fill="#322E23"/>
<path d="M431.137 208.995C433.686 214.305 439.013 217.795 444.877 217.979C451.197 218.19 457.079 214.533 459.689 208.758" stroke="#322E23" stroke-width="5.59355" stroke-linecap="round" stroke-linejoin="round"/>
<path d="M433.738 213.479C431.426 217.804 431.936 222.225 433.888 223.57C436.077 225.082 441.36 223.65 444.41 218.296C442.731 217.988 440.525 217.408 438.125 216.239C436.305 215.351 434.846 214.366 433.729 213.479H433.738Z" fill="#322E23"/>
<path d="M44.5521 320.276C48.9033 315.406 51.543 308.985 51.543 301.943C51.543 286.735 39.2131 274.405 24.005 274.405H-38.462C-53.6701 274.405 -66 286.735 -66 301.943C-66 315.482 -56.2331 326.731 -43.3582 329.038L-54.3002 340.432C-55.288 341.462 -56.182 342.543 -56.9825 343.676C-62.5173 348.717 -66 355.98 -66 364.053C-66 379.261 -53.6701 391.591 -38.462 391.591H24.005C39.2131 391.591 51.543 379.261 51.543 364.053C51.543 350.786 42.1678 339.716 29.6761 337.102L40.2093 326.135C41.9379 324.33 43.3855 322.363 44.5435 320.276H44.5521Z" fill="#FF4900"/>
<path d="M-15.8545 335.46C-15.8545 335.46 -0.493182 333.578 0.375362 334.012C1.24391 334.447 -7.73956 340.535 -7.73956 340.535L-15.8545 335.46Z" fill="#322E23"/>
<path d="M-1.36121 304.233H26.8665V312.365C26.8665 320.157 20.5397 326.475 12.7569 326.475C4.96554 326.475 -1.3527 320.148 -1.3527 312.365V304.233H-1.36121Z" fill="#F9F2EC"/>
<path d="M6.22568 304.233H24.2352V309.164C24.2352 314.068 20.2501 318.053 15.3454 318.053H15.107C10.2023 318.053 6.21716 314.068 6.21716 309.164V304.233H6.22568Z" fill="#333333"/>
<path d="M-3.70312 304.233H28.1861" stroke="#322E23" stroke-width="5.59355" stroke-linecap="round" stroke-linejoin="round"/>
<path d="M203.187 274.406H85.6523C85.6523 301.692 104.243 324.626 129.454 331.246H85.6523C85.6523 363.706 111.963 390.017 144.424 390.017C176.884 390.017 203.195 363.706 203.195 331.246H159.394C184.596 324.626 203.195 301.692 203.195 274.406H203.187Z" fill="#FF4900"/>
<path d="M124.431 368.814C131.659 368.814 137.519 362.51 137.519 354.734C137.519 346.958 131.659 340.654 124.431 340.654C117.202 340.654 111.342 346.958 111.342 354.734C111.342 362.51 117.202 368.814 124.431 368.814Z" fill="#F7F5E9"/>
<path d="M126.849 367.452C132.417 367.452 136.93 362.435 136.93 356.246C136.93 350.056 132.417 345.039 126.849 345.039C121.282 345.039 116.769 350.056 116.769 356.246C116.769 362.435 121.282 367.452 126.849 367.452Z" fill="#322E23"/>
<path d="M156.689 367.452C163.918 367.452 169.777 361.149 169.777 353.373C169.777 345.597 163.918 339.293 156.689 339.293C149.461 339.293 143.601 345.597 143.601 353.373C143.601 361.149 149.461 367.452 156.689 367.452Z" fill="#F7F5E9"/>
<path d="M155.067 364.58C160.635 364.58 165.148 359.563 165.148 353.374C165.148 347.184 160.635 342.167 155.067 342.167C149.5 342.167 144.987 347.184 144.987 353.374C144.987 359.563 149.5 364.58 155.067 364.58Z" fill="#322E23"/>
<path d="M136.906 374.014C136.906 374.014 151.095 372.275 151.893 372.678C152.691 373.081 144.399 378.701 144.399 378.701L136.906 374.014Z" fill="#322E23"/>
<path d="M307.952 333.178H354.84C354.84 300.718 328.528 274.406 296.068 274.406C263.608 274.406 238.694 299.355 237.366 330.634H237.305V390.742H354.848C354.848 362.352 334.72 338.663 307.96 333.169L307.952 333.178Z" fill="#FF4900"/>
<path d="M257.631 349.09H286.219V357.326C286.219 365.216 279.811 371.615 271.929 371.615C264.038 371.615 257.64 365.208 257.64 357.326V349.09H257.631Z" fill="#F9F2EC"/>
<path d="M261.874 349.09H280.113V354.083C280.113 359.05 276.077 363.086 271.11 363.086H270.868C265.901 363.086 261.865 359.05 261.865 354.083V349.09H261.874Z" fill="#333333"/>
<path d="M255.26 349.089H287.556" stroke="#322E23" stroke-width="5.59355" stroke-linecap="round" stroke-linejoin="round"/>
<path d="M297.068 349.087H325.656V357.323C325.656 365.213 319.248 371.612 311.366 371.612C303.475 371.612 297.076 365.205 297.076 357.323V349.087H297.068Z" fill="#F9F2EC"/>
<path d="M301.302 349.087H319.542V354.08C319.542 359.047 315.506 363.083 310.539 363.083H310.297C305.33 363.083 301.294 359.047 301.294 354.08V349.087H301.302Z" fill="#333333"/>
<path d="M294.697 349.088H326.984" stroke="#322E23" stroke-width="5.59355" stroke-linecap="round" stroke-linejoin="round"/>
<path d="M282.968 380.791C283.408 380.299 286.486 376.927 291.523 377.013C296.481 377.091 299.431 380.437 299.862 380.954" stroke="#322E23" stroke-width="5.59355" stroke-linecap="round" stroke-linejoin="round"/>
<path d="M498.228 343.722L483.297 328.791C496.161 326.529 505.931 315.318 505.931 301.811C505.931 286.676 493.661 274.406 478.527 274.406H416.362C401.228 274.406 388.958 286.676 388.958 301.811C388.958 304.472 389.348 307.048 390.051 309.48C391.204 314.471 393.712 319.208 397.601 323.097L458.223 383.719C469.265 394.76 487.178 394.76 498.22 383.719C509.261 372.678 509.261 354.764 498.22 343.722H498.228Z" fill="#FF4900"/>
<path d="M414.828 293.54H442.919V301.633C442.919 309.386 436.623 315.674 428.878 315.674C421.125 315.674 414.837 309.378 414.837 301.633V293.54H414.828Z" fill="#F9F2EC"/>
<path d="M418.989 293.541H436.912V298.447C436.912 303.328 432.946 307.294 428.065 307.294H427.828C422.947 307.294 418.981 303.328 418.981 298.447V293.541H418.989Z" fill="#333333"/>
<path d="M412.498 293.54H444.224" stroke="#322E23" stroke-width="5.59355" stroke-linecap="round" stroke-linejoin="round"/>
<path d="M439.716 324.682C440.148 324.199 443.174 320.886 448.122 320.97C452.995 321.047 455.893 324.334 456.317 324.843" stroke="#322E23" stroke-width="5.59355" stroke-linecap="round" stroke-linejoin="round"/>
</g>
</g>
</svg>
