<svg width="440" height="680" viewBox="0 0 440 680" fill="none" xmlns="http://www.w3.org/2000/svg">
<mask id="mask0_4835_5584" style="mask-type:alpha" maskUnits="userSpaceOnUse" x="0" y="0" width="440" height="680">
<path d="M400 0C404.718 0 407.924 4.21589 409.212 8.75472C412.23 19.3887 420.609 27.7677 431.243 30.7863C435.783 32.0749 440 35.2812 440 40V369C440 380.046 430.229 388.577 421.276 395.047C413.234 400.859 408 410.318 408 421C408 431.682 413.234 441.141 421.276 446.953C430.229 453.423 440 461.954 440 473V640C440 662.091 422.091 680 400 680H262.633C256.34 680 252 673.293 252 667C252 649.327 237.673 635 220 635C202.327 635 188 649.327 188 667C188 673.293 183.66 680 177.367 680H40C17.9086 680 8.05429e-08 662.091 0 640V473C0 461.954 9.77109 453.423 18.7236 446.953C26.7664 441.141 32 431.682 32 421C32 410.318 26.7664 400.859 18.7236 395.047C9.77109 388.577 0 380.046 0 369V40C0 35.2813 4.21629 32.075 8.75567 30.7865C19.3895 27.7683 27.7683 19.3895 30.7865 8.75567C32.075 4.21629 35.2813 1.37613e-07 40 0H400Z" fill="url(#paint0_linear_4835_5584)"/>
</mask>
<g mask="url(#mask0_4835_5584)">
<rect y="435" width="440" height="245" fill="white"/>
</g>
<defs>
<linearGradient id="paint0_linear_4835_5584" x1="220" y1="-75.0375" x2="220" y2="748.859" gradientUnits="userSpaceOnUse">
<stop stop-color="#0049FF"/>
<stop offset="0.526724" stop-color="white"/>
<stop offset="1" stop-color="#0049FF"/>
</linearGradient>
</defs>
</svg>
