<svg width="440" height="680" viewBox="0 0 440 680" fill="none" xmlns="http://www.w3.org/2000/svg">
<g opacity="0.6">
<mask id="mask0_4835_5606" style="mask-type:alpha" maskUnits="userSpaceOnUse" x="0" y="0" width="440" height="680">
<path d="M400 0C404.718 0 407.924 4.21589 409.212 8.75472C412.23 19.3887 420.609 27.7677 431.243 30.7863C435.783 32.0749 440 35.2812 440 40V369C440 380.046 430.229 388.577 421.276 395.047C413.234 400.859 408 410.318 408 421C408 431.682 413.234 441.141 421.276 446.953C430.229 453.423 440 461.954 440 473V640C440 662.091 422.091 680 400 680H262.633C256.34 680 252 673.293 252 667C252 649.327 237.673 635 220 635C202.327 635 188 649.327 188 667C188 673.293 183.66 680 177.367 680H40C17.9086 680 8.05429e-08 662.091 0 640V473C0 461.954 9.77109 453.423 18.7236 446.953C26.7664 441.141 32 431.682 32 421C32 410.318 26.7664 400.859 18.7236 395.047C9.77109 388.577 0 380.046 0 369V40C0 35.2813 4.21629 32.075 8.75567 30.7865C19.3895 27.7683 27.7683 19.3895 30.7865 8.75567C32.075 4.21629 35.2813 1.37613e-07 40 0H400Z" fill="#E6EDFF"/>
</mask>
<g mask="url(#mask0_4835_5606)">
<path d="M51.4498 57.7334H51.4667C51.4667 25.5114 24.9554 -1 -7.26664 -1C-39.4886 -1 -65.5848 25.1216 -65.9831 57.0132H-66V85.8884C-66 102.495 -52.5367 115.967 -35.9216 115.967C-19.3149 115.967 -5.84322 102.504 -5.84322 85.8884V65.4351C-2.03046 93.5732 22.3373 115.56 51.4498 115.56C51.5769 115.56 51.4159 115.238 51.543 115.238L51.4498 57.7334Z" fill="#0049FF"/>
<path d="M5.53654 47.0912C12.827 47.0912 18.7371 40.7335 18.7371 32.8908C18.7371 25.0482 12.827 18.6904 5.53654 18.6904C-1.75395 18.6904 -7.66406 25.0482 -7.66406 32.8908C-7.66406 40.7335 -1.75395 47.0912 5.53654 47.0912Z" fill="#F7F5E9"/>
<path d="M2.49449 45.7187C8.10976 45.7187 12.6618 40.6583 12.6618 34.416C12.6618 28.1737 8.10976 23.1133 2.49449 23.1133C-3.12078 23.1133 -7.67285 28.1737 -7.67285 34.416C-7.67285 40.6583 -3.12078 45.7187 2.49449 45.7187Z" fill="#322E23"/>
<path d="M-16.1035 53.2255C-14.5106 55.6403 -11.6807 56.9874 -8.80844 56.6909C-5.71588 56.3689 -3.08931 54.1999 -2.19967 51.209" stroke="#322E23" stroke-width="5.59355" stroke-linecap="round" stroke-linejoin="round"/>
<path d="M-3.4541 49.4033C-3.37785 49.6829 -3.08977 50.5556 -2.20013 51.208C-1.40368 51.7926 -0.581826 51.8604 -0.276806 51.8689" stroke="#322E23" stroke-width="5.59355" stroke-linecap="round" stroke-linejoin="round"/>
<path d="M201.587 23.5405C202.605 21.3678 203.195 18.9557 203.195 16.3981V15.8165C203.195 6.52722 195.668 -1 186.379 -1H102.664C93.3748 -1 85.8476 6.52722 85.8476 15.8165V16.3981C85.8476 25.6874 93.3748 33.2146 102.664 33.2146H115.007L96.3686 42.119C92.4083 43.6929 89.1921 46.7209 87.3787 50.5444C87.3103 50.6898 87.2419 50.8266 87.1734 50.972C87.0793 51.1859 86.9938 51.3997 86.9083 51.6136C85.3002 55.591 85.1804 60.1416 86.874 64.3756C86.9938 64.6836 87.1136 64.9829 87.2504 65.2823C87.2675 65.3251 87.2846 65.3764 87.3103 65.4192C87.3359 65.4705 87.3616 65.5133 87.3873 65.5646C89.9705 70.9705 95.3336 74.7683 101.638 75.1105C101.792 75.119 101.954 75.1276 102.117 75.1361C102.262 75.1361 102.407 75.1618 102.553 75.1618H109.747L95.3678 82.0304C88.6789 85.2209 85.0436 92.1921 85.7364 99.1634V99.5397C85.7364 108.829 93.2636 116.356 102.553 116.356H186.268C195.557 116.356 203.084 108.829 203.084 99.5397V98.9581C203.084 89.6688 195.557 82.1416 186.268 82.1416H174.481L190.006 74.7256C197.49 73.0234 203.093 66.343 203.093 58.3368V57.7551C203.093 48.4658 195.565 40.9386 186.276 40.9386H178.219L192.597 34.07C197.122 31.9059 200.253 28.0055 201.587 23.549V23.5405Z" fill="#0049FF"/>
<path d="M127.239 48.9365C134.599 48.9365 140.565 42.5181 140.565 34.6006C140.565 26.6831 134.599 20.2646 127.239 20.2646C119.879 20.2646 113.912 26.6831 113.912 34.6006C113.912 42.5181 119.879 48.9365 127.239 48.9365Z" fill="#F7F5E9"/>
<path d="M129.711 47.5507C135.38 47.5507 139.975 42.442 139.975 36.1401C139.975 29.8382 135.38 24.7295 129.711 24.7295C124.042 24.7295 119.446 29.8382 119.446 36.1401C119.446 42.442 124.042 47.5507 129.711 47.5507Z" fill="#322E23"/>
<path d="M160.084 47.5498C167.444 47.5498 173.411 41.1314 173.411 33.2139C173.411 25.2963 167.444 18.8779 160.084 18.8779C152.724 18.8779 146.758 25.2963 146.758 33.2139C146.758 41.1314 152.724 47.5498 160.084 47.5498Z" fill="#F7F5E9"/>
<path d="M158.433 44.6239C164.102 44.6239 168.698 39.5152 168.698 33.2133C168.698 26.9114 164.102 21.8027 158.433 21.8027C152.764 21.8027 148.169 26.9114 148.169 33.2133C148.169 39.5152 152.764 44.6239 158.433 44.6239Z" fill="#322E23"/>
<path d="M150.052 59.0811C150.488 58.5936 153.542 55.2491 158.537 55.3346C163.455 55.4116 166.381 58.7304 166.808 59.2436" stroke="#322E23" stroke-width="5.59355" stroke-linecap="round" stroke-linejoin="round"/>
<path d="M354.848 30.3845C354.848 13.0539 340.794 -1 323.463 -1H237.305L259.781 52.5002C246.783 56.3384 237.305 68.3559 237.305 82.5941C237.305 99.9247 251.359 113.979 268.689 113.979H354.848L332.372 60.4783C345.369 56.6401 354.848 44.6227 354.848 30.3845Z" fill="#0049FF"/>
<path d="M298.883 61.6771C297.308 64.0655 294.509 65.398 291.668 65.1047C288.609 64.7863 286.011 62.6409 285.131 59.6826" stroke="#322E23" stroke-width="5.59355" stroke-linecap="round" stroke-linejoin="round"/>
<path d="M286.371 57.9053C286.296 58.1818 286.011 59.045 285.131 59.6903C284.343 60.2685 283.53 60.3356 283.229 60.344" stroke="#322E23" stroke-width="5.59355" stroke-linecap="round" stroke-linejoin="round"/>
<path d="M268.204 24.4414H295.985V32.4447C295.985 40.1127 289.758 46.3309 282.099 46.3309C274.431 46.3309 268.212 40.1043 268.212 32.4447V24.4414H268.204Z" fill="#F9F2EC"/>
<path d="M275.67 24.4414H293.395V29.2936C293.395 34.1207 289.473 38.0427 284.646 38.0427H284.411C279.584 38.0427 275.662 34.1207 275.662 29.2936V24.4414H275.67Z" fill="#333333"/>
<path d="M265.891 24.4414H297.275" stroke="#322E23" stroke-width="5.59355" stroke-linecap="round" stroke-linejoin="round"/>
<path d="M306.519 24.4414H334.299V32.4447C334.299 40.1127 328.073 46.3309 320.413 46.3309C312.745 46.3309 306.527 40.1043 306.527 32.4447V24.4414H306.519Z" fill="#F9F2EC"/>
<path d="M313.985 24.4414H331.709V29.2936C331.709 34.1207 327.787 38.0427 322.96 38.0427H322.726C317.899 38.0427 313.977 34.1207 313.977 29.2936V24.4414H313.985Z" fill="#333333"/>
<path d="M304.214 24.4414H335.59" stroke="#322E23" stroke-width="5.59355" stroke-linecap="round" stroke-linejoin="round"/>
<path d="M506.493 81.1165V116.019L458.88 116.019V93.7168C453.007 106.858 439.832 116.019 424.511 116.019H389.609V68.4064H411.556C398.254 62.6007 388.958 49.3413 388.958 33.9016V-1.00043L506.501 -1.00043V46.6117H483.903C497.205 52.4174 506.501 65.6768 506.501 81.1165H506.493Z" fill="#0049FF"/>
<path d="M434.01 59.1179C440.819 59.1179 446.339 65.0544 446.339 72.3773C446.339 79.7003 440.819 85.6367 434.01 85.6367C427.2 85.6367 421.68 79.7003 421.68 72.3773C421.68 65.0544 427.2 59.1179 434.01 59.1179Z" fill="#F7F5E9"/>
<path d="M431.179 60.3946C436.42 60.3946 440.669 65.1203 440.669 70.9498C440.669 76.7792 436.42 81.5049 431.179 81.5049C425.937 81.5049 421.688 76.7792 421.688 70.9498C421.688 65.1203 425.937 60.3946 431.179 60.3946Z" fill="#322E23"/>
<path d="M44.9272 203.897L29.6607 187.072C42.2536 183.769 51.543 172.308 51.543 158.685C51.543 148.221 46.0596 139.033 37.809 133.84C31.4232 128.91 23.3258 127.445 15.9267 129.335H-29.958C-33.1339 128.782 -36.3865 128.825 -39.5624 129.48C-54.4032 130.945 -66 143.461 -66 158.685C-66 172.896 -55.9018 184.739 -42.4999 187.456L-57.0512 203.497C-66.5109 213.927 -65.7275 230.054 -55.2972 239.513C-44.867 248.973 -28.7405 248.19 -19.2808 237.759L-6.2536 223.395L7.13974 238.168C16.5994 248.598 32.7259 249.382 43.1562 239.922C53.5864 230.462 54.3698 214.336 44.9102 203.906L44.9272 203.897Z" fill="#0049FF"/>
<path d="M-15.4238 186.663C-11.7711 191.039 -5.93865 193.049 -0.387181 191.84C5.59853 190.537 10.256 185.709 11.3373 179.664" stroke="#322E23" stroke-width="5.59355" stroke-linecap="round" stroke-linejoin="round"/>
<path d="M-1.36621 154.165H26.8594V162.296C26.8594 170.087 20.5331 176.405 12.7509 176.405C4.96008 176.405 -1.35769 170.079 -1.35769 162.296V154.165H-1.36621Z" fill="#F9F2EC"/>
<path d="M2.82297 154.165H20.8312V159.095C20.8312 163.999 16.8464 167.984 11.942 167.984H11.7036C6.79925 167.984 2.81445 163.999 2.81445 159.095V154.165H2.82297Z" fill="#333333"/>
<path d="M-3.70801 154.164H28.1789" stroke="#322E23" stroke-width="5.59355" stroke-linecap="round" stroke-linejoin="round"/>
<path d="M203.187 186.379H144.573L202.412 128.539H115.802C99.1485 128.539 85.6523 142.035 85.6523 158.689V245.299L85.8055 245.146H144.785C177.071 244.942 203.195 218.715 203.195 186.379H203.187Z" fill="#0049FF"/>
<path d="M154.013 219.164C161.235 217.958 166.038 210.682 164.741 202.913C163.444 195.144 156.537 189.823 149.315 191.029C142.093 192.235 137.29 199.511 138.587 207.28C139.885 215.049 146.791 220.37 154.013 219.164Z" fill="#F7F5E9"/>
<path d="M156.805 217.306C162.367 216.378 166.04 210.612 165.007 204.428C163.974 198.244 158.628 193.984 153.065 194.913C147.503 195.842 143.83 201.608 144.863 207.791C145.895 213.975 151.242 218.235 156.805 217.306Z" fill="#322E23"/>
<path d="M121.557 223.186C128.779 221.98 133.582 214.705 132.285 206.935C130.988 199.166 124.081 193.846 116.859 195.052C109.637 196.258 104.834 203.533 106.131 211.303C107.429 219.072 114.335 224.392 121.557 223.186Z" fill="#F7F5E9"/>
<path d="M124.349 221.329C129.911 220.4 133.583 214.634 132.551 208.45C131.518 202.266 126.172 198.006 120.609 198.935C115.047 199.864 111.374 205.63 112.407 211.814C113.439 217.998 118.786 222.258 124.349 221.329Z" fill="#322E23"/>
<path d="M135.553 228.05C135.8 228.493 136.931 230.39 139.178 230.943C141.646 231.556 144.437 230.297 145.985 227.761" stroke="#322E23" stroke-width="5.59355" stroke-linecap="round" stroke-linejoin="round"/>
<path d="M353.734 128.556H307.901V128.775H258.357C246.726 128.775 237.305 138.205 237.305 149.828V153.809C237.305 165.44 246.734 174.861 258.357 174.861H273.565L245.638 201.379C240.577 205.225 237.305 211.307 237.305 218.155V222.137C237.305 232.519 244.82 241.139 254.713 242.869L254.781 243.189H353.734L354.848 128.539H353.734V128.556Z" fill="#0049FF"/>
<path d="M280.886 218.568C288.144 218.568 294.027 212.239 294.027 204.432C294.027 196.625 288.144 190.296 280.886 190.296C273.628 190.296 267.745 196.625 267.745 204.432C267.745 212.239 273.628 218.568 280.886 218.568Z" fill="#F7F5E9"/>
<path d="M277.858 217.21C283.448 217.21 287.979 212.173 287.979 205.959C287.979 199.745 283.448 194.707 277.858 194.707C272.268 194.707 267.736 199.745 267.736 205.959C267.736 212.173 272.268 217.21 277.858 217.21Z" fill="#322E23"/>
<path d="M313.265 217.202C320.522 217.202 326.406 210.873 326.406 203.066C326.406 195.259 320.522 188.93 313.265 188.93C306.007 188.93 300.124 195.259 300.124 203.066C300.124 210.873 306.007 217.202 313.265 217.202Z" fill="#F7F5E9"/>
<path d="M310.246 215.835C315.836 215.835 320.368 210.798 320.368 204.584C320.368 198.37 315.836 193.332 310.246 193.332C304.656 193.332 300.125 198.37 300.125 204.584C300.125 210.798 304.656 215.835 310.246 215.835Z" fill="#322E23"/>
<path d="M291.733 223.309C293.319 225.713 296.136 227.054 298.995 226.759C302.074 226.438 304.689 224.279 305.574 221.302" stroke="#322E23" stroke-width="5.59355" stroke-linecap="round" stroke-linejoin="round"/>
<path d="M304.326 219.515C304.402 219.793 304.689 220.662 305.574 221.311C306.367 221.893 307.185 221.961 307.489 221.969" stroke="#322E23" stroke-width="5.59355" stroke-linecap="round" stroke-linejoin="round"/>
<path d="M479.926 128.539H473.386C461.008 128.539 450.608 136.996 447.646 148.442V132.126H388.958V224.87C388.958 239.427 400.755 251.225 415.313 251.225H421.291C433.554 251.225 443.857 242.856 446.802 231.516V247.638H506.501V155.123C506.501 140.442 494.598 128.539 479.917 128.539H479.926Z" fill="#0049FF"/>
<path d="M436.913 191.843C443.996 191.843 449.739 185.667 449.739 178.05C449.739 170.432 443.996 164.257 436.913 164.257C429.829 164.257 424.087 170.432 424.087 178.05C424.087 185.667 429.829 191.843 436.913 191.843Z" fill="#F7F5E9"/>
<path d="M439.866 190.515C445.319 190.515 449.738 185.599 449.738 179.535C449.738 173.472 445.319 168.556 439.866 168.556C434.414 168.556 429.994 173.472 429.994 179.535C429.994 185.599 434.414 190.515 439.866 190.515Z" fill="#322E23"/>
<path d="M431.137 197.995C433.686 203.305 439.013 206.795 444.877 206.979C451.198 207.19 457.079 203.533 459.69 197.758" stroke="#322E23" stroke-width="5.59355" stroke-linecap="round" stroke-linejoin="round"/>
<path d="M433.739 202.479C431.427 206.804 431.937 211.225 433.888 212.57C436.077 214.082 441.36 212.65 444.411 207.296C442.732 206.988 440.525 206.408 438.125 205.239C436.306 204.351 434.846 203.366 433.73 202.479H433.739Z" fill="#322E23"/>
<path d="M44.5521 309.276C48.9033 304.406 51.543 297.985 51.543 290.943C51.543 275.735 39.2131 263.405 24.005 263.405H-38.462C-53.6701 263.405 -66 275.735 -66 290.943C-66 304.482 -56.2331 315.731 -43.3582 318.038L-54.3002 329.432C-55.288 330.462 -56.182 331.543 -56.9825 332.676C-62.5173 337.717 -66 344.98 -66 353.053C-66 368.261 -53.6701 380.591 -38.462 380.591H24.005C39.2131 380.591 51.543 368.261 51.543 353.053C51.543 339.786 42.1678 328.716 29.6761 326.102L40.2093 315.135C41.9379 313.33 43.3855 311.363 44.5435 309.276H44.5521Z" fill="#0049FF"/>
<path d="M-15.8545 324.46C-15.8545 324.46 -0.493182 322.578 0.375362 323.012C1.24391 323.447 -7.73956 329.535 -7.73956 329.535L-15.8545 324.46Z" fill="#322E23"/>
<path d="M-1.36133 293.233H26.8664V301.365C26.8664 309.157 20.5396 315.475 12.7568 315.475C4.96542 315.475 -1.35282 309.148 -1.35282 301.365V293.233H-1.36133Z" fill="#F9F2EC"/>
<path d="M6.22531 293.233H24.2348V298.164C24.2348 303.068 20.2497 307.053 15.345 307.053H15.1066C10.2019 307.053 6.2168 303.068 6.2168 298.164V293.233H6.22531Z" fill="#333333"/>
<path d="M-3.70312 293.233H28.1861" stroke="#322E23" stroke-width="5.59355" stroke-linecap="round" stroke-linejoin="round"/>
<path d="M203.187 263.406H85.6523C85.6523 290.692 104.243 313.626 129.454 320.246H85.6523C85.6523 352.706 111.963 379.017 144.424 379.017C176.884 379.017 203.195 352.706 203.195 320.246H159.394C184.596 313.626 203.195 290.692 203.195 263.406H203.187Z" fill="#0049FF"/>
<path d="M124.431 357.814C131.66 357.814 137.519 351.51 137.519 343.734C137.519 335.958 131.66 329.654 124.431 329.654C117.203 329.654 111.343 335.958 111.343 343.734C111.343 351.51 117.203 357.814 124.431 357.814Z" fill="#F7F5E9"/>
<path d="M126.85 356.452C132.418 356.452 136.931 351.435 136.931 345.246C136.931 339.056 132.418 334.039 126.85 334.039C121.283 334.039 116.77 339.056 116.77 345.246C116.77 351.435 121.283 356.452 126.85 356.452Z" fill="#322E23"/>
<path d="M156.69 356.452C163.918 356.452 169.778 350.149 169.778 342.373C169.778 334.597 163.918 328.293 156.69 328.293C149.461 328.293 143.602 334.597 143.602 342.373C143.602 350.149 149.461 356.452 156.69 356.452Z" fill="#F7F5E9"/>
<path d="M155.068 353.58C160.636 353.58 165.149 348.563 165.149 342.374C165.149 336.184 160.636 331.167 155.068 331.167C149.501 331.167 144.987 336.184 144.987 342.374C144.987 348.563 149.501 353.58 155.068 353.58Z" fill="#322E23"/>
<path d="M136.906 363.014C136.906 363.014 151.095 361.275 151.893 361.678C152.691 362.081 144.4 367.701 144.4 367.701L136.906 363.014Z" fill="#322E23"/>
<path d="M307.951 322.178H354.839C354.839 289.718 328.528 263.406 296.068 263.406C263.607 263.406 238.693 288.355 237.365 319.634H237.305V379.742H354.848C354.848 351.352 334.72 327.663 307.96 322.169L307.951 322.178Z" fill="#0049FF"/>
<path d="M257.631 338.09H286.219V346.326C286.219 354.216 279.811 360.615 271.929 360.615C264.038 360.615 257.639 354.208 257.639 346.326V338.09H257.631Z" fill="#F9F2EC"/>
<path d="M261.874 338.09H280.113V343.083C280.113 348.05 276.077 352.086 271.11 352.086H270.869C265.901 352.086 261.865 348.05 261.865 343.083V338.09H261.874Z" fill="#333333"/>
<path d="M255.26 338.089H287.556" stroke="#322E23" stroke-width="5.59355" stroke-linecap="round" stroke-linejoin="round"/>
<path d="M297.067 338.087H325.655V346.323C325.655 354.213 319.248 360.612 311.366 360.612C303.475 360.612 297.076 354.205 297.076 346.323V338.087H297.067Z" fill="#F9F2EC"/>
<path d="M301.303 338.087H319.542V343.08C319.542 348.047 315.506 352.083 310.539 352.083H310.297C305.33 352.083 301.294 348.047 301.294 343.08V338.087H301.303Z" fill="#333333"/>
<path d="M294.696 338.088H326.984" stroke="#322E23" stroke-width="5.59355" stroke-linecap="round" stroke-linejoin="round"/>
<path d="M282.967 369.791C283.407 369.299 286.485 365.927 291.522 366.013C296.48 366.091 299.43 369.437 299.861 369.954" stroke="#322E23" stroke-width="5.59355" stroke-linecap="round" stroke-linejoin="round"/>
<path d="M498.228 332.722L483.297 317.791C496.161 315.529 505.931 304.318 505.931 290.811C505.931 275.676 493.661 263.406 478.527 263.406H416.362C401.228 263.406 388.958 275.676 388.958 290.811C388.958 293.472 389.348 296.048 390.051 298.48C391.204 303.471 393.712 308.208 397.601 312.097L458.223 372.719C469.265 383.76 487.178 383.76 498.22 372.719C509.261 361.678 509.261 343.764 498.22 332.722H498.228Z" fill="#0049FF"/>
<path d="M414.828 282.54H442.919V290.633C442.919 298.386 436.623 304.674 428.878 304.674C421.124 304.674 414.837 298.378 414.837 290.633V282.54H414.828Z" fill="#F9F2EC"/>
<path d="M418.989 282.541H436.911V287.447C436.911 292.328 432.945 296.294 428.064 296.294H427.827C422.946 296.294 418.98 292.328 418.98 287.447V282.541H418.989Z" fill="#333333"/>
<path d="M412.498 282.54H444.224" stroke="#322E23" stroke-width="5.59355" stroke-linecap="round" stroke-linejoin="round"/>
<path d="M439.717 313.682C440.149 313.199 443.174 309.886 448.123 309.97C452.995 310.047 455.893 313.334 456.317 313.843" stroke="#322E23" stroke-width="5.59355" stroke-linecap="round" stroke-linejoin="round"/>
</g>
</g>
</svg>
