<svg width="74" height="48" viewBox="0 0 74 48" fill="none" xmlns="http://www.w3.org/2000/svg">
<path d="M61.4172 19.7937L73.9854 11.3506C73.9854 -9.08093 54.0434 6.28209 33.6104 6.28209C13.1774 6.28209 0.873997 -9.93857 0.0380037 9.74927H0L3.51843 47.5833H66.0972C66.0972 29.7139 61.3207 14.8029 44.4759 11.3451L61.4172 19.7937Z" fill="#FF4900"/>
<path d="M12.7943 21.3672H30.7899V26.551C30.7899 31.5178 26.7565 35.5455 21.7948 35.5455C16.8277 35.5455 12.7997 31.5124 12.7997 26.551V21.3672H12.7943Z" fill="#F9F2EC"/>
<path d="M15.465 21.3672H26.9464V24.5101C26.9464 27.6367 24.4058 30.1771 21.279 30.1771H21.127C18.0001 30.1771 15.4596 27.6367 15.4596 24.5101V21.3672H15.465Z" fill="#333333"/>
<path d="M11.3021 21.3662H31.632" stroke="#322E23" stroke-width="1.06454" stroke-linecap="round" stroke-linejoin="round"/>
<path d="M37.6191 21.3662H55.6147V26.5501C55.6147 31.5168 51.5813 35.5445 46.6197 35.5445C41.6525 35.5445 37.6246 31.5114 37.6246 26.5501V21.3662H37.6191Z" fill="#F9F2EC"/>
<path d="M40.2847 21.3662H51.7661V24.5091C51.7661 27.6357 49.2255 30.1761 46.0987 30.1761H45.9467C42.8198 30.1761 40.2793 27.6357 40.2793 24.5091V21.3662H40.2847Z" fill="#333333"/>
<path d="M36.1265 21.3662H56.4509" stroke="#322E23" stroke-width="1.06454" stroke-linecap="round" stroke-linejoin="round"/>
<path d="M28.7439 41.32C29.0208 41.0106 30.9587 38.8881 34.129 38.9424C37.2504 38.9913 39.107 41.0974 39.3784 41.4231" stroke="#322E23" stroke-width="1.06454" stroke-linecap="round" stroke-linejoin="round"/>
</svg>
