<svg width="440" height="680" viewBox="0 0 440 680" fill="none" xmlns="http://www.w3.org/2000/svg">
<g opacity="0.6">
<mask id="mask0_4835_5409" style="mask-type:alpha" maskUnits="userSpaceOnUse" x="0" y="0" width="440" height="680">
<path d="M400 0C404.718 0 407.924 4.21589 409.212 8.75472C412.23 19.3887 420.609 27.7677 431.243 30.7863C435.783 32.0749 440 35.2812 440 40V369C440 380.046 430.229 388.577 421.276 395.047C413.234 400.859 408 410.318 408 421C408 431.682 413.234 441.141 421.276 446.953C430.229 453.423 440 461.954 440 473V640C440 662.091 422.091 680 400 680H262.633C256.34 680 252 673.293 252 667C252 649.327 237.673 635 220 635C202.327 635 188 649.327 188 667C188 673.293 183.66 680 177.367 680H40C17.9086 680 8.05429e-08 662.091 0 640V473C0 461.954 9.77109 453.423 18.7236 446.953C26.7664 441.141 32 431.682 32 421C32 410.318 26.7664 400.859 18.7236 395.047C9.77109 388.577 0 380.046 0 369V40C0 35.2813 4.21629 32.075 8.75567 30.7865C19.3895 27.7683 27.7683 19.3895 30.7865 8.75567C32.075 4.21629 35.2813 1.37613e-07 40 0H400Z" fill="#E6EDFF"/>
</mask>
<g mask="url(#mask0_4835_5409)">
<path d="M51.4498 55.7334H51.4667C51.4667 23.5114 24.9554 -3 -7.26664 -3C-39.4886 -3 -65.5848 23.1216 -65.9831 55.0132H-66V83.8884C-66 100.495 -52.5367 113.967 -35.9216 113.967C-19.3149 113.967 -5.84322 100.504 -5.84322 83.8884V63.4351C-2.03046 91.5732 22.3373 113.56 51.4498 113.56C51.5769 113.56 51.4159 113.238 51.543 113.238L51.4498 55.7334Z" fill="#FF4900"/>
<path d="M5.53654 45.0912C12.827 45.0912 18.7371 38.7335 18.7371 30.8908C18.7371 23.0482 12.827 16.6904 5.53654 16.6904C-1.75395 16.6904 -7.66406 23.0482 -7.66406 30.8908C-7.66406 38.7335 -1.75395 45.0912 5.53654 45.0912Z" fill="#F7F5E9"/>
<path d="M2.49449 43.7187C8.10976 43.7187 12.6618 38.6583 12.6618 32.416C12.6618 26.1737 8.10976 21.1133 2.49449 21.1133C-3.12078 21.1133 -7.67285 26.1737 -7.67285 32.416C-7.67285 38.6583 -3.12078 43.7187 2.49449 43.7187Z" fill="#322E23"/>
<path d="M-16.1035 51.2255C-14.5106 53.6403 -11.6807 54.9874 -8.80844 54.6909C-5.71588 54.3689 -3.08931 52.1999 -2.19967 49.209" stroke="#322E23" stroke-width="5.59355" stroke-linecap="round" stroke-linejoin="round"/>
<path d="M-3.4541 47.4033C-3.37785 47.6829 -3.08977 48.5556 -2.20013 49.208C-1.40368 49.7926 -0.581826 49.8604 -0.276806 49.8689" stroke="#322E23" stroke-width="5.59355" stroke-linecap="round" stroke-linejoin="round"/>
<path d="M201.587 21.5405C202.605 19.3678 203.195 16.9557 203.195 14.3981V13.8165C203.195 4.52722 195.668 -3 186.379 -3H102.664C93.3748 -3 85.8476 4.52722 85.8476 13.8165V14.3981C85.8476 23.6874 93.3748 31.2146 102.664 31.2146H115.007L96.3686 40.119C92.4083 41.6929 89.1921 44.7209 87.3787 48.5444C87.3103 48.6898 87.2419 48.8266 87.1734 48.972C87.0793 49.1859 86.9938 49.3997 86.9083 49.6136C85.3002 53.591 85.1804 58.1416 86.874 62.3756C86.9938 62.6836 87.1136 62.9829 87.2504 63.2823C87.2675 63.3251 87.2846 63.3764 87.3103 63.4192C87.3359 63.4705 87.3616 63.5133 87.3873 63.5646C89.9705 68.9705 95.3336 72.7683 101.638 73.1105C101.792 73.119 101.954 73.1276 102.117 73.1361C102.262 73.1361 102.407 73.1618 102.553 73.1618H109.747L95.3678 80.0304C88.6789 83.2209 85.0436 90.1921 85.7364 97.1634V97.5397C85.7364 106.829 93.2636 114.356 102.553 114.356H186.268C195.557 114.356 203.084 106.829 203.084 97.5397V96.9581C203.084 87.6688 195.557 80.1416 186.268 80.1416H174.481L190.006 72.7256C197.49 71.0234 203.093 64.343 203.093 56.3368V55.7551C203.093 46.4658 195.565 38.9386 186.276 38.9386H178.219L192.597 32.07C197.122 29.9059 200.253 26.0055 201.587 21.549V21.5405Z" fill="#FF4900"/>
<path d="M127.239 46.9365C134.599 46.9365 140.565 40.5181 140.565 32.6006C140.565 24.6831 134.599 18.2646 127.239 18.2646C119.879 18.2646 113.912 24.6831 113.912 32.6006C113.912 40.5181 119.879 46.9365 127.239 46.9365Z" fill="#F7F5E9"/>
<path d="M129.711 45.5507C135.38 45.5507 139.975 40.442 139.975 34.1401C139.975 27.8382 135.38 22.7295 129.711 22.7295C124.042 22.7295 119.446 27.8382 119.446 34.1401C119.446 40.442 124.042 45.5507 129.711 45.5507Z" fill="#322E23"/>
<path d="M160.084 45.5498C167.444 45.5498 173.411 39.1314 173.411 31.2139C173.411 23.2963 167.444 16.8779 160.084 16.8779C152.724 16.8779 146.758 23.2963 146.758 31.2139C146.758 39.1314 152.724 45.5498 160.084 45.5498Z" fill="#F7F5E9"/>
<path d="M158.433 42.6239C164.102 42.6239 168.698 37.5152 168.698 31.2133C168.698 24.9114 164.102 19.8027 158.433 19.8027C152.764 19.8027 148.169 24.9114 148.169 31.2133C148.169 37.5152 152.764 42.6239 158.433 42.6239Z" fill="#322E23"/>
<path d="M150.052 57.0811C150.488 56.5936 153.542 53.2491 158.537 53.3346C163.455 53.4116 166.381 56.7304 166.808 57.2436" stroke="#322E23" stroke-width="5.59355" stroke-linecap="round" stroke-linejoin="round"/>
<path d="M354.848 28.3845C354.848 11.0539 340.794 -3 323.463 -3H237.305L259.781 50.5002C246.783 54.3384 237.305 66.3559 237.305 80.5941C237.305 97.9247 251.359 111.979 268.689 111.979H354.848L332.372 58.4783C345.369 54.6401 354.848 42.6227 354.848 28.3845Z" fill="#FF4900"/>
<path d="M298.883 59.6771C297.308 62.0655 294.509 63.398 291.668 63.1047C288.609 62.7863 286.011 60.6409 285.131 57.6826" stroke="#322E23" stroke-width="5.59355" stroke-linecap="round" stroke-linejoin="round"/>
<path d="M286.371 55.9053C286.296 56.1818 286.011 57.045 285.131 57.6903C284.343 58.2685 283.53 58.3356 283.229 58.344" stroke="#322E23" stroke-width="5.59355" stroke-linecap="round" stroke-linejoin="round"/>
<path d="M268.204 22.4414H295.985V30.4447C295.985 38.1127 289.758 44.3309 282.099 44.3309C274.431 44.3309 268.212 38.1043 268.212 30.4447V22.4414H268.204Z" fill="#F9F2EC"/>
<path d="M275.67 22.4414H293.395V27.2936C293.395 32.1207 289.473 36.0427 284.646 36.0427H284.411C279.584 36.0427 275.662 32.1207 275.662 27.2936V22.4414H275.67Z" fill="#333333"/>
<path d="M265.891 22.4414H297.275" stroke="#322E23" stroke-width="5.59355" stroke-linecap="round" stroke-linejoin="round"/>
<path d="M306.519 22.4414H334.299V30.4447C334.299 38.1127 328.073 44.3309 320.413 44.3309C312.745 44.3309 306.527 38.1043 306.527 30.4447V22.4414H306.519Z" fill="#F9F2EC"/>
<path d="M313.985 22.4414H331.709V27.2936C331.709 32.1207 327.787 36.0427 322.96 36.0427H322.726C317.899 36.0427 313.977 32.1207 313.977 27.2936V22.4414H313.985Z" fill="#333333"/>
<path d="M304.214 22.4414H335.59" stroke="#322E23" stroke-width="5.59355" stroke-linecap="round" stroke-linejoin="round"/>
<path d="M506.493 79.1165V114.019L458.88 114.019V91.7168C453.007 104.858 439.832 114.019 424.511 114.019H389.609V66.4064H411.556C398.254 60.6007 388.958 47.3413 388.958 31.9016V-3.00043L506.501 -3.00043V44.6117H483.903C497.205 50.4174 506.501 63.6768 506.501 79.1165H506.493Z" fill="#FF4900"/>
<path d="M434.01 57.1179C440.819 57.1179 446.339 63.0544 446.339 70.3773C446.339 77.7003 440.819 83.6367 434.01 83.6367C427.2 83.6367 421.68 77.7003 421.68 70.3773C421.68 63.0544 427.2 57.1179 434.01 57.1179Z" fill="#F7F5E9"/>
<path d="M431.179 58.3946C436.42 58.3946 440.669 63.1203 440.669 68.9498C440.669 74.7792 436.42 79.5049 431.179 79.5049C425.937 79.5049 421.688 74.7792 421.688 68.9498C421.688 63.1203 425.937 58.3946 431.179 58.3946Z" fill="#322E23"/>
<path d="M44.9272 201.897L29.6607 185.072C42.2536 181.769 51.543 170.308 51.543 156.685C51.543 146.221 46.0596 137.033 37.809 131.84C31.4232 126.91 23.3258 125.445 15.9267 127.335H-29.958C-33.1339 126.782 -36.3865 126.825 -39.5624 127.48C-54.4032 128.945 -66 141.461 -66 156.685C-66 170.896 -55.9018 182.739 -42.4999 185.456L-57.0512 201.497C-66.5109 211.927 -65.7275 228.054 -55.2972 237.513C-44.867 246.973 -28.7405 246.19 -19.2808 235.759L-6.2536 221.395L7.13974 236.168C16.5994 246.598 32.7259 247.382 43.1562 237.922C53.5864 228.462 54.3698 212.336 44.9102 201.906L44.9272 201.897Z" fill="#FF4900"/>
<path d="M-15.4238 184.663C-11.7711 189.039 -5.93865 191.049 -0.387181 189.84C5.59853 188.537 10.256 183.709 11.3373 177.664" stroke="#322E23" stroke-width="5.59355" stroke-linecap="round" stroke-linejoin="round"/>
<path d="M-1.36621 152.165H26.8594V160.296C26.8594 168.087 20.5331 174.405 12.7509 174.405C4.96008 174.405 -1.35769 168.079 -1.35769 160.296V152.165H-1.36621Z" fill="#F9F2EC"/>
<path d="M2.82297 152.165H20.8312V157.095C20.8312 161.999 16.8464 165.984 11.942 165.984H11.7036C6.79925 165.984 2.81445 161.999 2.81445 157.095V152.165H2.82297Z" fill="#333333"/>
<path d="M-3.70801 152.164H28.1789" stroke="#322E23" stroke-width="5.59355" stroke-linecap="round" stroke-linejoin="round"/>
<path d="M203.187 184.379H144.573L202.412 126.539H115.802C99.1485 126.539 85.6523 140.035 85.6523 156.689V243.299L85.8055 243.146H144.785C177.071 242.942 203.195 216.715 203.195 184.379H203.187Z" fill="#FF4900"/>
<path d="M154.013 217.164C161.235 215.958 166.038 208.682 164.741 200.913C163.444 193.144 156.537 187.823 149.315 189.029C142.093 190.235 137.29 197.511 138.587 205.28C139.885 213.049 146.791 218.37 154.013 217.164Z" fill="#F7F5E9"/>
<path d="M156.805 215.306C162.367 214.378 166.04 208.612 165.007 202.428C163.974 196.244 158.628 191.984 153.065 192.913C147.503 193.842 143.83 199.608 144.863 205.791C145.895 211.975 151.242 216.235 156.805 215.306Z" fill="#322E23"/>
<path d="M121.557 221.186C128.779 219.98 133.582 212.705 132.285 204.935C130.988 197.166 124.081 191.846 116.859 193.052C109.637 194.258 104.834 201.533 106.131 209.303C107.429 217.072 114.335 222.392 121.557 221.186Z" fill="#F7F5E9"/>
<path d="M124.349 219.329C129.911 218.4 133.583 212.634 132.551 206.45C131.518 200.266 126.172 196.006 120.609 196.935C115.047 197.864 111.374 203.63 112.407 209.814C113.439 215.998 118.786 220.258 124.349 219.329Z" fill="#322E23"/>
<path d="M135.553 226.05C135.8 226.493 136.931 228.39 139.178 228.943C141.646 229.556 144.437 228.297 145.985 225.761" stroke="#322E23" stroke-width="5.59355" stroke-linecap="round" stroke-linejoin="round"/>
<path d="M353.734 126.556H307.901V126.775H258.357C246.726 126.775 237.305 136.205 237.305 147.828V151.809C237.305 163.44 246.734 172.861 258.357 172.861H273.565L245.638 199.379C240.577 203.225 237.305 209.307 237.305 216.155V220.137C237.305 230.519 244.82 239.139 254.713 240.869L254.781 241.189H353.734L354.848 126.539H353.734V126.556Z" fill="#FF4900"/>
<path d="M280.886 216.568C288.144 216.568 294.027 210.239 294.027 202.432C294.027 194.625 288.144 188.296 280.886 188.296C273.628 188.296 267.745 194.625 267.745 202.432C267.745 210.239 273.628 216.568 280.886 216.568Z" fill="#F7F5E9"/>
<path d="M277.858 215.21C283.448 215.21 287.979 210.173 287.979 203.959C287.979 197.745 283.448 192.707 277.858 192.707C272.268 192.707 267.736 197.745 267.736 203.959C267.736 210.173 272.268 215.21 277.858 215.21Z" fill="#322E23"/>
<path d="M313.265 215.202C320.522 215.202 326.406 208.873 326.406 201.066C326.406 193.259 320.522 186.93 313.265 186.93C306.007 186.93 300.124 193.259 300.124 201.066C300.124 208.873 306.007 215.202 313.265 215.202Z" fill="#F7F5E9"/>
<path d="M310.246 213.835C315.836 213.835 320.368 208.798 320.368 202.584C320.368 196.37 315.836 191.332 310.246 191.332C304.656 191.332 300.125 196.37 300.125 202.584C300.125 208.798 304.656 213.835 310.246 213.835Z" fill="#322E23"/>
<path d="M291.733 221.309C293.319 223.713 296.136 225.054 298.995 224.759C302.074 224.438 304.689 222.279 305.574 219.302" stroke="#322E23" stroke-width="5.59355" stroke-linecap="round" stroke-linejoin="round"/>
<path d="M304.326 217.515C304.402 217.793 304.689 218.662 305.574 219.311C306.367 219.893 307.185 219.961 307.489 219.969" stroke="#322E23" stroke-width="5.59355" stroke-linecap="round" stroke-linejoin="round"/>
<path d="M479.926 126.539H473.386C461.008 126.539 450.608 134.996 447.646 146.442V130.126H388.958V222.87C388.958 237.427 400.755 249.225 415.313 249.225H421.291C433.554 249.225 443.857 240.856 446.802 229.516V245.638H506.501V153.123C506.501 138.442 494.598 126.539 479.917 126.539H479.926Z" fill="#FF4900"/>
<path d="M436.913 189.843C443.996 189.843 449.739 183.667 449.739 176.05C449.739 168.432 443.996 162.257 436.913 162.257C429.829 162.257 424.087 168.432 424.087 176.05C424.087 183.667 429.829 189.843 436.913 189.843Z" fill="#F7F5E9"/>
<path d="M439.866 188.515C445.319 188.515 449.738 183.599 449.738 177.535C449.738 171.472 445.319 166.556 439.866 166.556C434.414 166.556 429.994 171.472 429.994 177.535C429.994 183.599 434.414 188.515 439.866 188.515Z" fill="#322E23"/>
<path d="M431.137 195.995C433.686 201.305 439.013 204.795 444.877 204.979C451.198 205.19 457.079 201.533 459.69 195.758" stroke="#322E23" stroke-width="5.59355" stroke-linecap="round" stroke-linejoin="round"/>
<path d="M433.739 200.479C431.427 204.804 431.937 209.225 433.888 210.57C436.077 212.082 441.36 210.65 444.411 205.296C442.732 204.988 440.525 204.408 438.125 203.239C436.306 202.351 434.846 201.366 433.73 200.479H433.739Z" fill="#322E23"/>
<path d="M44.5521 307.276C48.9033 302.406 51.543 295.985 51.543 288.943C51.543 273.735 39.2131 261.405 24.005 261.405H-38.462C-53.6701 261.405 -66 273.735 -66 288.943C-66 302.482 -56.2331 313.731 -43.3582 316.038L-54.3002 327.432C-55.288 328.462 -56.182 329.543 -56.9825 330.676C-62.5173 335.717 -66 342.98 -66 351.053C-66 366.261 -53.6701 378.591 -38.462 378.591H24.005C39.2131 378.591 51.543 366.261 51.543 351.053C51.543 337.786 42.1678 326.716 29.6761 324.102L40.2093 313.135C41.9379 311.33 43.3855 309.363 44.5435 307.276H44.5521Z" fill="#FF4900"/>
<path d="M-15.8545 322.46C-15.8545 322.46 -0.493182 320.578 0.375362 321.012C1.24391 321.447 -7.73956 327.535 -7.73956 327.535L-15.8545 322.46Z" fill="#322E23"/>
<path d="M-1.36133 291.233H26.8664V299.365C26.8664 307.157 20.5396 313.475 12.7568 313.475C4.96542 313.475 -1.35282 307.148 -1.35282 299.365V291.233H-1.36133Z" fill="#F9F2EC"/>
<path d="M6.22531 291.233H24.2348V296.164C24.2348 301.068 20.2497 305.053 15.345 305.053H15.1066C10.2019 305.053 6.2168 301.068 6.2168 296.164V291.233H6.22531Z" fill="#333333"/>
<path d="M-3.70312 291.233H28.1861" stroke="#322E23" stroke-width="5.59355" stroke-linecap="round" stroke-linejoin="round"/>
<path d="M203.187 261.406H85.6523C85.6523 288.692 104.243 311.626 129.454 318.246H85.6523C85.6523 350.706 111.963 377.017 144.424 377.017C176.884 377.017 203.195 350.706 203.195 318.246H159.394C184.596 311.626 203.195 288.692 203.195 261.406H203.187Z" fill="#FF4900"/>
<path d="M124.431 355.814C131.66 355.814 137.519 349.51 137.519 341.734C137.519 333.958 131.66 327.654 124.431 327.654C117.203 327.654 111.343 333.958 111.343 341.734C111.343 349.51 117.203 355.814 124.431 355.814Z" fill="#F7F5E9"/>
<path d="M126.85 354.452C132.418 354.452 136.931 349.435 136.931 343.246C136.931 337.056 132.418 332.039 126.85 332.039C121.283 332.039 116.77 337.056 116.77 343.246C116.77 349.435 121.283 354.452 126.85 354.452Z" fill="#322E23"/>
<path d="M156.69 354.452C163.918 354.452 169.778 348.149 169.778 340.373C169.778 332.597 163.918 326.293 156.69 326.293C149.461 326.293 143.602 332.597 143.602 340.373C143.602 348.149 149.461 354.452 156.69 354.452Z" fill="#F7F5E9"/>
<path d="M155.068 351.58C160.636 351.58 165.149 346.563 165.149 340.374C165.149 334.184 160.636 329.167 155.068 329.167C149.501 329.167 144.987 334.184 144.987 340.374C144.987 346.563 149.501 351.58 155.068 351.58Z" fill="#322E23"/>
<path d="M136.906 361.014C136.906 361.014 151.095 359.275 151.893 359.678C152.691 360.081 144.4 365.701 144.4 365.701L136.906 361.014Z" fill="#322E23"/>
<path d="M307.951 320.178H354.839C354.839 287.718 328.528 261.406 296.068 261.406C263.607 261.406 238.693 286.355 237.365 317.634H237.305V377.742H354.848C354.848 349.352 334.72 325.663 307.96 320.169L307.951 320.178Z" fill="#FF4900"/>
<path d="M257.631 336.09H286.219V344.326C286.219 352.216 279.811 358.615 271.929 358.615C264.038 358.615 257.639 352.208 257.639 344.326V336.09H257.631Z" fill="#F9F2EC"/>
<path d="M261.874 336.09H280.113V341.083C280.113 346.05 276.077 350.086 271.11 350.086H270.869C265.901 350.086 261.865 346.05 261.865 341.083V336.09H261.874Z" fill="#333333"/>
<path d="M255.26 336.089H287.556" stroke="#322E23" stroke-width="5.59355" stroke-linecap="round" stroke-linejoin="round"/>
<path d="M297.067 336.087H325.655V344.323C325.655 352.213 319.248 358.612 311.366 358.612C303.475 358.612 297.076 352.205 297.076 344.323V336.087H297.067Z" fill="#F9F2EC"/>
<path d="M301.303 336.087H319.542V341.08C319.542 346.047 315.506 350.083 310.539 350.083H310.297C305.33 350.083 301.294 346.047 301.294 341.08V336.087H301.303Z" fill="#333333"/>
<path d="M294.696 336.088H326.984" stroke="#322E23" stroke-width="5.59355" stroke-linecap="round" stroke-linejoin="round"/>
<path d="M282.967 367.791C283.407 367.299 286.485 363.927 291.522 364.013C296.48 364.091 299.43 367.437 299.861 367.954" stroke="#322E23" stroke-width="5.59355" stroke-linecap="round" stroke-linejoin="round"/>
<path d="M498.228 330.722L483.297 315.791C496.161 313.529 505.931 302.318 505.931 288.811C505.931 273.676 493.661 261.406 478.527 261.406H416.362C401.228 261.406 388.958 273.676 388.958 288.811C388.958 291.472 389.348 294.048 390.051 296.48C391.204 301.471 393.712 306.208 397.601 310.097L458.223 370.719C469.265 381.76 487.178 381.76 498.22 370.719C509.261 359.678 509.261 341.764 498.22 330.722H498.228Z" fill="#FF4900"/>
<path d="M414.828 280.54H442.919V288.633C442.919 296.386 436.623 302.674 428.878 302.674C421.124 302.674 414.837 296.378 414.837 288.633V280.54H414.828Z" fill="#F9F2EC"/>
<path d="M418.989 280.541H436.911V285.447C436.911 290.328 432.945 294.294 428.064 294.294H427.827C422.946 294.294 418.98 290.328 418.98 285.447V280.541H418.989Z" fill="#333333"/>
<path d="M412.498 280.54H444.224" stroke="#322E23" stroke-width="5.59355" stroke-linecap="round" stroke-linejoin="round"/>
<path d="M439.717 311.682C440.149 311.199 443.174 307.886 448.123 307.97C452.995 308.047 455.893 311.334 456.317 311.843" stroke="#322E23" stroke-width="5.59355" stroke-linecap="round" stroke-linejoin="round"/>
</g>
</g>
</svg>
