<svg width="180" height="177" viewBox="0 0 180 177" fill="none" xmlns="http://www.w3.org/2000/svg">
<path d="M179.541 0.347412H0.464111C0.464111 41.9199 28.7892 76.8623 67.2002 86.9482H0.464111C0.464111 136.405 40.5519 176.493 90.0088 176.493C139.466 176.493 179.553 136.405 179.553 86.9482H112.817C151.216 76.8623 179.553 41.9199 179.553 0.347412H179.541Z" fill="#FF4900"/>
<path d="M59.5469 144.188C70.5603 144.188 79.4884 134.583 79.4884 122.736C79.4884 110.888 70.5603 101.284 59.5469 101.284C48.5335 101.284 39.6054 110.888 39.6054 122.736C39.6054 134.583 48.5335 144.188 59.5469 144.188Z" fill="#F7F5E9"/>
<path d="M63.2325 142.113C71.7152 142.113 78.5918 134.469 78.5918 125.039C78.5918 115.609 71.7152 107.965 63.2325 107.965C54.7498 107.965 47.8732 115.609 47.8732 125.039C47.8732 134.469 54.7498 142.113 63.2325 142.113Z" fill="#322E23"/>
<path d="M108.697 142.114C119.71 142.114 128.638 132.51 128.638 120.663C128.638 108.815 119.71 99.2107 108.697 99.2107C97.6832 99.2107 88.7551 108.815 88.7551 120.663C88.7551 132.51 97.6832 142.114 108.697 142.114Z" fill="#F7F5E9"/>
<path d="M106.226 137.737C114.709 137.737 121.585 130.093 121.585 120.663C121.585 111.233 114.709 103.589 106.226 103.589C97.7434 103.589 90.8668 111.233 90.8668 120.663C90.8668 130.093 97.7434 137.737 106.226 137.737Z" fill="#322E23"/>
<path d="M78.5543 152.11C78.5543 152.11 100.172 149.461 101.388 150.075C102.604 150.689 89.9713 159.252 89.9713 159.252L78.5543 152.11Z" fill="#322E23"/>
</svg>
