<svg width="1440" height="1024" viewBox="0 0 1440 1024" fill="none" xmlns="http://www.w3.org/2000/svg">
<line x1="-0.121338" y1="56.1177" x2="1440.12" y2="56.1177" stroke="white" stroke-width="0.5" stroke-dasharray="5 5"/>
<line x1="-0.121338" y1="170.026" x2="1440.12" y2="170.026" stroke="white" stroke-width="0.5" stroke-dasharray="5 5"/>
<line x1="-0.121338" y1="283.934" x2="1440.12" y2="283.934" stroke="white" stroke-width="0.5" stroke-dasharray="5 5"/>
<line x1="-0.121338" y1="397.842" x2="1440.12" y2="397.842" stroke="white" stroke-width="0.5" stroke-dasharray="5 5"/>
<line x1="-0.121338" y1="511.75" x2="1440.12" y2="511.75" stroke="white" stroke-width="0.5" stroke-dasharray="5 5"/>
<line x1="-0.121338" y1="625.658" x2="1440.12" y2="625.658" stroke="white" stroke-width="0.5" stroke-dasharray="5 5"/>
<line x1="-0.121338" y1="739.566" x2="1440.12" y2="739.566" stroke="white" stroke-width="0.5" stroke-dasharray="5 5"/>
<line x1="-0.121338" y1="853.474" x2="1440.12" y2="853.474" stroke="white" stroke-width="0.5" stroke-dasharray="5 5"/>
<line x1="-0.121338" y1="967.382" x2="1440.12" y2="967.382" stroke="white" stroke-width="0.5" stroke-dasharray="5 5"/>
<line x1="113.658" y1="1232.12" x2="113.658" y2="-208.121" stroke="white" stroke-width="0.5" stroke-dasharray="5 5"/>
<line x1="227.566" y1="1232.12" x2="227.566" y2="-208.121" stroke="white" stroke-width="0.5" stroke-dasharray="5 5"/>
<line x1="341.474" y1="1232.12" x2="341.474" y2="-208.121" stroke="white" stroke-width="0.5" stroke-dasharray="5 5"/>
<line x1="455.382" y1="1232.12" x2="455.382" y2="-208.121" stroke="white" stroke-width="0.5" stroke-dasharray="5 5"/>
<line x1="569.29" y1="1232.12" x2="569.29" y2="-208.121" stroke="white" stroke-width="0.5" stroke-dasharray="5 5"/>
<line x1="683.198" y1="1232.12" x2="683.198" y2="-208.121" stroke="white" stroke-width="0.5" stroke-dasharray="5 5"/>
<line x1="797.106" y1="1232.12" x2="797.106" y2="-208.121" stroke="white" stroke-width="0.5" stroke-dasharray="5 5"/>
<line x1="911.015" y1="1232.12" x2="911.015" y2="-208.121" stroke="white" stroke-width="0.5" stroke-dasharray="5 5"/>
</svg>
