<svg width="36" height="35" viewBox="0 0 36 35" fill="none" xmlns="http://www.w3.org/2000/svg">
<path fill-rule="evenodd" clip-rule="evenodd" d="M16.4393 0.16507C13.9456 0.16534 11.4884 0.762973 9.27311 1.90794C7.05786 3.05291 5.14913 4.71189 3.70671 6.74602C2.26428 8.78014 1.33012 11.1302 0.982441 13.5995C0.63476 16.0688 0.883671 18.5854 1.70834 20.9388C2.533 23.2921 3.90942 25.4136 5.72238 27.1258C7.53534 28.8379 9.73207 30.0909 12.1287 30.7797C14.5253 31.4685 17.0521 31.5732 19.4974 31.085C21.9428 30.5968 24.2357 29.5298 26.184 27.9735L32.5585 34.348C32.8857 34.664 33.3238 34.8388 33.7786 34.8349C34.2334 34.8309 34.6685 34.6485 34.9901 34.3269C35.3117 34.0053 35.4941 33.5702 35.4981 33.1154C35.502 32.6606 35.3272 32.2225 35.0112 31.8953L28.6367 25.5208C30.4719 23.224 31.6212 20.4557 31.9523 17.5345C32.2835 14.6133 31.783 11.658 30.5086 9.00871C29.2341 6.3594 27.2375 4.12381 24.7484 2.55927C22.2594 0.994723 19.3792 0.164815 16.4393 0.16507ZM6.03194 15.7761C6.03194 14.4094 6.30114 13.0561 6.82416 11.7934C7.34717 10.5307 8.11377 9.3834 9.08018 8.41699C10.0466 7.45057 11.1939 6.68397 12.4566 6.16096C13.7192 5.63794 15.0726 5.36874 16.4393 5.36874C17.806 5.36874 19.1593 5.63794 20.422 6.16096C21.6847 6.68397 22.832 7.45057 23.7984 8.41699C24.7648 9.3834 25.5314 10.5307 26.0544 11.7934C26.5774 13.0561 26.8466 14.4094 26.8466 15.7761C26.8466 18.5363 25.7502 21.1834 23.7984 23.1352C21.8466 25.087 19.1995 26.1834 16.4393 26.1834C13.6791 26.1834 11.0319 25.087 9.08018 23.1352C7.12843 21.1834 6.03194 18.5363 6.03194 15.7761Z" fill="#0538B9"/>
</svg>
