<svg width="1186" height="868" viewBox="0 0 1186 868" fill="none" xmlns="http://www.w3.org/2000/svg">
<g opacity="0.6">
<path d="M557.105 505.138L476.567 867.04H663.518L595.513 505.138H557.105Z" fill="url(#paint0_radial_2466_23)"/>
<path d="M598.794 461.498L688.67 25.5492L476.773 28.9437L557.915 461.498H598.794Z" fill="url(#paint1_radial_2466_23)"/>
<path d="M571.006 511.146L850.886 863.979L1028.41 740.51L610.628 491.824L589.899 452.324L555.559 452.324L571.006 511.146Z" fill="url(#paint2_radial_2466_23)"/>
<path d="M590.241 446.885L254.307 0.841309L31.779 142.081L546.311 477.689L590.241 446.885Z" fill="url(#paint3_radial_2466_23)"/>
<path d="M586.532 515.44L296.431 866.833L112.824 741.167L540.832 493.921L586.532 515.44Z" fill="url(#paint4_radial_2466_23)"/>
<path d="M565.68 446.876L899.914 21.3842L1101.19 167.367L611.38 468.395L565.68 446.876Z" fill="url(#paint5_radial_2466_23)"/>
<path d="M554.472 502.182L33.6521 575.054L0.489746 348.249L564.237 462.499L574.711 510.385L554.472 502.182Z" fill="url(#paint6_radial_2466_23)"/>
<path d="M592.14 504.557L1185.83 598.81L1169.88 356.117L584.779 461.86L592.14 504.557Z" fill="url(#paint7_radial_2466_23)"/>
</g>
<defs>
<radialGradient id="paint0_radial_2466_23" cx="0" cy="0" r="1" gradientUnits="userSpaceOnUse" gradientTransform="translate(593.158 433.941) rotate(90) scale(433.099 592.668)">
<stop stop-color="white"/>
<stop offset="1" stop-color="#999999" stop-opacity="0"/>
</radialGradient>
<radialGradient id="paint1_radial_2466_23" cx="0" cy="0" r="1" gradientUnits="userSpaceOnUse" gradientTransform="translate(593.158 433.941) rotate(90) scale(433.099 592.668)">
<stop stop-color="white"/>
<stop offset="1" stop-color="#999999" stop-opacity="0"/>
</radialGradient>
<radialGradient id="paint2_radial_2466_23" cx="0" cy="0" r="1" gradientUnits="userSpaceOnUse" gradientTransform="translate(593.158 433.941) rotate(90) scale(433.099 592.668)">
<stop stop-color="white"/>
<stop offset="1" stop-color="#999999" stop-opacity="0"/>
</radialGradient>
<radialGradient id="paint3_radial_2466_23" cx="0" cy="0" r="1" gradientUnits="userSpaceOnUse" gradientTransform="translate(593.158 433.941) rotate(90) scale(433.099 592.668)">
<stop stop-color="white"/>
<stop offset="1" stop-color="#999999" stop-opacity="0"/>
</radialGradient>
<radialGradient id="paint4_radial_2466_23" cx="0" cy="0" r="1" gradientUnits="userSpaceOnUse" gradientTransform="translate(593.158 433.941) rotate(90) scale(433.099 592.668)">
<stop stop-color="white"/>
<stop offset="1" stop-color="#999999" stop-opacity="0"/>
</radialGradient>
<radialGradient id="paint5_radial_2466_23" cx="0" cy="0" r="1" gradientUnits="userSpaceOnUse" gradientTransform="translate(593.158 433.941) rotate(90) scale(433.099 592.668)">
<stop stop-color="white"/>
<stop offset="1" stop-color="#999999" stop-opacity="0"/>
</radialGradient>
<radialGradient id="paint6_radial_2466_23" cx="0" cy="0" r="1" gradientUnits="userSpaceOnUse" gradientTransform="translate(593.158 433.941) rotate(90) scale(433.099 592.668)">
<stop stop-color="white"/>
<stop offset="1" stop-color="#999999" stop-opacity="0"/>
</radialGradient>
<radialGradient id="paint7_radial_2466_23" cx="0" cy="0" r="1" gradientUnits="userSpaceOnUse" gradientTransform="translate(593.158 433.941) rotate(90) scale(433.099 592.668)">
<stop stop-color="white"/>
<stop offset="1" stop-color="#999999" stop-opacity="0"/>
</radialGradient>
</defs>
</svg>
