<svg width="395" height="397" viewBox="0 0 395 397" fill="none" xmlns="http://www.w3.org/2000/svg">
<path d="M188.138 7.06019C191.532 -1.21024 203.245 -1.21025 206.64 7.06019L237.583 82.4477C239.69 87.5802 245.572 90.0166 250.691 87.877L325.629 56.5531C333.863 53.1114 342.139 61.3603 338.725 69.6054L307.478 145.062C305.366 150.164 307.788 156.012 312.89 158.126L388.091 189.284C396.321 192.693 396.321 204.351 388.091 207.76L312.89 238.918C307.788 241.032 305.366 246.88 307.478 251.982L338.725 327.439C342.139 335.684 333.863 343.933 325.629 340.491L250.691 309.167C245.572 307.027 239.69 309.464 237.583 314.596L206.64 389.984C203.245 398.254 191.532 398.254 188.138 389.984L157.194 314.596C155.087 309.464 149.205 307.027 144.086 309.167L69.1483 340.491C60.9145 343.933 52.6382 335.684 56.0525 327.439L87.2989 251.982C89.4116 246.88 86.9889 241.032 81.8874 238.918L6.68637 207.76C-1.54337 204.351 -1.54338 192.693 6.68636 189.284L81.8874 158.126C86.9889 156.012 89.4116 150.164 87.2989 145.062L56.0525 69.6055C52.6382 61.3603 60.9145 53.1114 69.1483 56.5531L144.086 87.877C149.205 90.0166 155.087 87.5802 157.194 82.4477L188.138 7.06019Z" fill="#FF4900"/>
</svg>
