<svg width="1867" height="1223" viewBox="0 0 1867 1223" fill="none" xmlns="http://www.w3.org/2000/svg">
<path d="M1768.35 2.35645C1821.78 2.01742 1865.27 45.2364 1865.27 98.667V978.334C1865.27 1031.53 1822.15 1074.65 1768.96 1074.65H1483.44L1395.99 1070.8C1354.1 1068.96 1319.14 1102.42 1319.14 1144.35C1319.14 1182.95 1287.96 1214.3 1249.36 1214.51L98.5635 1220.74C45.169 1221.03 1.73064 1177.82 1.73047 1124.43V297.816C1.73047 252.659 39.8508 216.877 84.918 219.731C131.978 222.713 171.785 185.347 171.785 138.192V108.194C171.785 55.2412 214.534 12.2199 267.486 11.8838L1768.35 2.35645Z" fill="#E6EDFF" stroke="#0538B9" stroke-width="3.46032"/>
</svg>
