<svg width="451" height="398" viewBox="0 0 451 398" fill="none" xmlns="http://www.w3.org/2000/svg">
<g filter="url(#filter0_d_2269_1674)">
<path d="M7.47668 49.1015C-1.40559 133.155 25.2086 207.909 79.7898 239.137C91.3636 245.765 108.076 252.647 130.874 254.714" stroke="#010101" stroke-width="38.1737" stroke-linecap="round" stroke-linejoin="round"/>
<path d="M170.455 303.439C194.847 300.451 211.118 269.436 206.799 234.163C202.479 198.89 179.204 172.717 154.812 175.705C130.42 178.692 114.148 209.708 118.467 244.98C122.787 280.253 146.063 306.426 170.455 303.439Z" fill="#0D56CC"/>
<path d="M148.723 227.887C150.982 251.747 154.438 288.226 184.526 313.263C186.999 315.316 226.374 347.144 263.498 332.05C297.644 318.171 305.143 274.671 309.698 248.232C313.175 228.045 323.491 168.424 284.986 132.262C279.405 127.014 256.165 106.639 222.401 107.65C216.169 107.835 196.936 108.655 179.657 121.056C141.237 148.614 146.923 208.715 148.745 227.895L148.723 227.887Z" fill="#0049FF"/>
<path d="M241.537 285.3C235.203 306.331 243.24 325.433 244.116 327.429C251.868 345.158 266.07 354.072 271.867 357.211C304.685 374.961 349.83 359.747 372.728 333.48C384.021 320.529 387.515 307.617 388.315 304.428C389.284 300.565 396.641 269.229 377.291 248.809C363.829 234.588 344.979 233.636 334.011 233.076C299.224 231.31 252.511 248.851 241.538 285.31L241.537 285.3Z" fill="#184F7C"/>
<path d="M285.199 232.796C267.39 238.458 251.06 245.443 236.367 256.939C231.509 260.615 226.901 264.692 221.88 269.008C229.18 243.4 259.4 226.185 285.199 232.796Z" fill="#1553AD"/>
<path d="M280.23 238.831C262.004 234.722 244.378 232.505 225.89 235.022C219.849 235.741 213.803 236.933 207.283 238.121C226.531 219.705 261.319 220.103 280.24 238.83L280.23 238.831Z" fill="#1553AD"/>
<path d="M267.975 235.842C261.539 257.232 269.71 276.665 270.589 278.682C278.473 296.71 292.926 305.782 298.813 308.963C332.193 327.013 378.107 311.546 401.392 284.822C412.879 271.647 416.431 258.518 417.244 255.274C418.227 251.347 425.708 219.48 406.03 198.701C392.339 184.245 373.17 183.269 362.012 182.7C326.631 180.902 279.122 198.741 267.964 235.833L267.975 235.842Z" fill="#19549B"/>
<path d="M266.014 217.414C268.601 229.77 276.34 237.499 278.683 239.778C304.423 264.831 351.38 248.848 358.911 246.285C364.218 244.478 393.551 234.029 413.389 204.614C421.151 193.104 429.848 180.198 427.643 163.22C424.4 138.199 400.266 125.747 398.359 124.792C381.024 116.178 364.065 119.748 353.643 122.097C306.116 132.818 258.066 179.434 266.024 217.413L266.014 217.414Z" fill="#1553AD"/>
<path d="M325.262 162.329C351.169 168.021 381.388 155.182 392.492 130.37C399.579 114.547 398.268 95.2516 389.115 80.524C369.009 48.1655 319.474 48.8577 287.637 60.1814" fill="#0D56CC"/>
<path d="M236.66 112.898C231.326 145.269 237.106 206.568 277.314 215.105C293.543 218.555 310.827 210.159 320.821 196.925C330.816 183.691 334.308 166.458 333.732 149.891C332.927 126.548 327.696 92.7781 313.616 73.4269C293.624 45.9553 250.56 45.2242 222.021 57.9423C192.055 71.298 172.785 99.4237 169.233 131.64C166.648 155.072 168.377 181.058 175.343 203.625" fill="#0049FF"/>
<path d="M228.792 142.467C229.397 147.493 229.824 152.352 230.868 157.094C231.857 161.821 233.013 166.443 234.7 170.843L235.282 172.507L235.976 174.125C236.454 175.192 236.831 176.292 237.348 177.333C237.865 178.374 238.401 179.402 238.887 180.447C239.384 181.49 240.028 182.453 240.584 183.468L241.441 184.961L242.395 186.391L243.339 187.821C243.641 188.31 243.972 188.774 244.331 189.214L246.392 191.938L248.642 194.491C249.352 195.382 250.21 196.118 251.004 196.926L252.215 198.124C252.63 198.504 253.083 198.848 253.507 199.217L254.79 200.322C255.214 200.69 255.64 201.069 256.11 201.38C257.022 202.036 257.953 202.679 258.849 203.369C260.763 204.554 262.68 205.76 264.72 206.772C265.723 207.312 266.793 207.707 267.823 208.201C268.885 208.618 269.951 209.066 271.039 209.437C279.764 212.502 289.416 213.413 299.472 213.064C290.299 217.269 279.573 218.593 269.132 216.57C263.896 215.602 258.854 213.559 254.163 210.936C253.024 210.234 251.9 209.489 250.768 208.754C250.188 208.405 249.663 207.985 249.139 207.576L247.555 206.34C247.03 205.92 246.496 205.512 245.998 205.058L244.543 203.669C243.585 202.724 242.562 201.851 241.709 200.819C238.048 196.893 235.136 192.38 232.758 187.665C230.349 182.954 228.69 177.92 227.615 172.836C225.43 162.65 225.864 152.09 228.802 142.465L228.792 142.467Z" fill="#1553AD"/>
</g>
<defs>
<filter id="filter0_d_2269_1674" x="-33.2749" y="18.0129" width="481.266" height="374.865" filterUnits="userSpaceOnUse" color-interpolation-filters="sRGB">
<feFlood flood-opacity="0" result="BackgroundImageFix"/>
<feColorMatrix in="SourceAlpha" type="matrix" values="0 0 0 0 0 0 0 0 0 0 0 0 0 0 0 0 0 0 127 0" result="hardAlpha"/>
<feOffset dy="8"/>
<feGaussianBlur stdDeviation="10"/>
<feComposite in2="hardAlpha" operator="out"/>
<feColorMatrix type="matrix" values="0 0 0 0 0 0 0 0 0 0 0 0 0 0 0 0 0 0 0.35 0"/>
<feBlend mode="normal" in2="BackgroundImageFix" result="effect1_dropShadow_2269_1674"/>
<feBlend mode="normal" in="SourceGraphic" in2="effect1_dropShadow_2269_1674" result="shape"/>
</filter>
</defs>
</svg>
