<svg width="196" height="312" viewBox="0 0 196 312" fill="none" xmlns="http://www.w3.org/2000/svg">
<g filter="url(#filter0_d_2782_382)">
<path d="M93.0041 47.4257C93.4212 45.2863 102.226 -3.97939 70.3388 -29.088C61.4571 -36.0831 51.8029 -39.3272 43.8301 -40.8318" stroke="#010101" stroke-width="37.457" stroke-miterlimit="10" stroke-linecap="round"/>
<path d="M33.3321 104.199C39.1492 83.5696 54.8675 73.0031 60.519 69.331C83.482 54.3984 122.325 48.9027 144.785 71.3569C161.196 87.7599 160.278 110.505 160.106 113.608C158.27 146.498 127.091 173.786 95.0059 176C88.2213 176.468 60.73 177.24 43.2176 155.461C25.5631 133.505 32.6148 106.764 33.3377 104.199L33.3321 104.199Z" fill="#0049FF"/>
<path d="M142.267 165.052C143.771 166.134 155.616 174.646 165.379 169.811C174.281 165.403 175.292 152.949 175.677 148.177C176.833 133.868 169.566 120.761 160.106 113.608C157.38 111.546 153.121 108.42 146.925 107.98C141.286 107.578 135.161 109.481 131.478 112.907C120.406 123.184 125.22 152.809 142.267 165.052Z" fill="#1553AD"/>
<path d="M121.015 183.081C121.912 183.761 136.909 194.856 148.253 188.691C156.565 184.176 157.957 173.084 158.772 166.598C161.732 143.073 145.763 126.369 142.031 122.459C135.117 115.223 130.595 114.316 128.28 114.137C119.973 113.484 113.554 120.039 112.585 121.027C99.1572 134.74 102.094 168.718 121.004 183.081L121.015 183.081Z" fill="#0D56CC"/>
<path d="M119.019 157.321C123.456 166.506 144.811 211.484 146.77 244.154C147.164 250.734 146.972 260.135 141.485 268.918C140.093 271.149 132.642 283.073 121.754 282.434C120.83 282.378 115.649 281.988 111.809 278.027C107.878 273.976 107.451 268.156 107.586 262.811C107.953 248.095 103.72 234.031 100.343 219.818C97.2635 206.876 91.0382 187.652 77.0798 163.507C91.0616 161.447 105.043 159.381 119.025 157.321L119.019 157.321Z" fill="#1553AD"/>
<path d="M94.5578 37.7562C72.4874 37.7843 54.6116 50.1639 54.631 65.407C54.6504 80.65 72.5577 92.9842 94.628 92.9561C116.698 92.928 134.574 80.5483 134.555 65.3053C134.535 50.0622 116.628 37.7281 94.5578 37.7562Z" fill="#0049FF"/>
<path d="M90.9786 163.2C83.2387 184.121 78.7255 212.929 74.7934 234.793C71.2218 254.631 65.0539 276.01 43.5609 282.55C38.4343 284.111 32.6819 284.232 27.8793 281.844C15.4756 275.676 21.1997 262.229 25.8341 252.857C29.5066 245.426 32.7249 237.763 35.4664 229.936C43.7079 206.404 47.5568 181.591 46.5266 156.681C61.0045 161.076 76.5008 158.804 90.9786 163.2Z" fill="#0D56CC"/>
<path d="M105.923 79.2121C114.951 85.6737 120.248 97.1154 119.172 108.27C118.121 119.765 110.14 129.902 99.6731 134.471C92.8692 137.583 85.1375 138.24 78.1858 136.609C81.7595 136.332 85.2138 135.794 88.5201 134.848C89.9379 134.484 91.9622 133.715 93.3458 133.169C93.8277 132.952 95.7838 132.025 96.2091 131.826C96.5322 131.627 97.5073 131.093 97.8531 130.894C117.711 119.216 119.413 96.7591 105.923 79.2178L105.923 79.2121Z" fill="#0D56CC"/>
<path d="M32.5652 125.724C33.1688 131.958 35.2943 143.835 44.0676 154.762C50.0907 162.259 58.6318 169.051 68.217 171.501C80.1345 174.543 87.0981 167.636 97.3838 163.385C111.066 157.728 128.631 162.755 134.879 155.145C140.39 148.427 136.886 132.126 126.307 124.532C115.246 116.592 97.7359 119.1 87.4954 132.116" fill="#0049FF"/>
</g>
<defs>
<filter id="filter0_d_2782_382" x="0.395752" y="-71.5635" width="195.402" height="383.25" filterUnits="userSpaceOnUse" color-interpolation-filters="sRGB">
<feFlood flood-opacity="0" result="BackgroundImageFix"/>
<feColorMatrix in="SourceAlpha" type="matrix" values="0 0 0 0 0 0 0 0 0 0 0 0 0 0 0 0 0 0 127 0" result="hardAlpha"/>
<feOffset dy="8"/>
<feGaussianBlur stdDeviation="10"/>
<feComposite in2="hardAlpha" operator="out"/>
<feColorMatrix type="matrix" values="0 0 0 0 0 0 0 0 0 0 0 0 0 0 0 0 0 0 0.2 0"/>
<feBlend mode="normal" in2="BackgroundImageFix" result="effect1_dropShadow_2782_382"/>
<feBlend mode="normal" in="SourceGraphic" in2="effect1_dropShadow_2782_382" result="shape"/>
</filter>
</defs>
</svg>
