<svg width="313" height="293" viewBox="0 0 313 293" fill="none" xmlns="http://www.w3.org/2000/svg">
<g filter="url(#filter0_d_2783_524)">
<path d="M145.768 59.5321C144.855 57.7926 124.51 17.5273 145.551 -12.4021C151.411 -20.7398 158.909 -26.0382 165.405 -29.3995" stroke="#010101" stroke-width="32.3072" stroke-linecap="round" stroke-linejoin="round"/>
<path d="M142.373 53.0836C161.439 47.3995 180.077 53.4663 184.003 66.6342C187.928 79.8021 175.655 95.0846 156.589 100.769C137.524 106.453 118.886 100.386 114.96 87.218C111.034 74.0501 123.307 58.7676 142.373 53.0836Z" fill="#1553AD"/>
<path d="M262.206 84.2401C253.386 94.8583 238.99 88.189 221.983 96.5467C218.236 98.3894 213.686 101.294 209.018 106.149C209.682 112.119 211.175 120.848 214.865 130.72C216.353 134.71 220.309 144.524 240.577 174.417C251.921 191.148 258.763 199.995 255.766 208.717C254.065 213.664 249.768 216.898 249.594 217.03C242.71 222.097 234.12 220.186 233.185 219.969C222.028 217.324 219.134 204.253 208.263 185.849C204.139 178.871 197.957 169.572 188.895 159.333C187.924 170.807 188.005 185.72 191.907 202.37C198.192 229.217 210.56 244.175 203.684 252.847C198.749 259.079 186.557 258.711 178.753 255.157C167.978 250.252 164.311 238.704 160.853 227.819C155.033 209.499 159.585 201.103 152.983 178.636C152.061 175.49 151.107 172.701 150.236 170.351C149.747 170.449 149.257 170.542 148.769 170.623C147.555 177.954 145.726 188.948 144.599 195.747C141.89 212.041 141.917 211.809 141.88 212.081C138.347 240.825 149.795 255.775 142.548 262.434C137.777 266.818 127.944 264.803 122.082 261.411C103.336 250.569 107.217 215.275 107.62 211.937C108.67 203.304 110.423 200.824 113.37 181.801C114.582 173.963 115.352 167.399 115.832 162.816C115.827 162.818 115.814 162.811 115.809 162.812C113.244 165.61 109.922 169.573 106.558 174.616C96.3281 189.955 90.5758 208.053 89.7862 210.578C86.0498 222.568 86.0617 227.602 81.0979 230.373C76.2262 233.095 69.4041 232.05 65.0512 228.78C58.8623 224.13 58.838 215.744 58.8202 209.276C58.801 203.054 60.1641 198.586 61.8973 193.069C65.5331 181.494 71.2564 173.448 76.3876 166.155C80.1524 160.811 83.7975 156.373 86.9282 152.841L87.6377 153.019C87.8391 152.388 88.0572 151.742 88.292 151.079C86.5115 146.754 84.4619 140.273 84.1152 132.254C83.5078 117.973 88.6848 107.433 91.597 101.682C95.5368 93.9006 100.516 84.0752 111.564 77.5104C127.386 68.1131 144.436 72.0861 148.994 73.3047C166.059 58.302 188.422 61.3367 192.359 61.8705C199.109 62.7824 204.62 64.763 208.574 66.5513C213.887 61.9256 222.099 56.6436 232.91 55.5336C244.509 54.3436 262.765 57.5833 266.157 68.4243C267.809 73.6953 265.71 80.0096 262.205 84.2352L262.206 84.2401ZM137.923 87.7584L136.047 90.2013C136.407 89.9394 136.768 89.6824 137.127 89.4204C137.376 88.8767 137.642 88.3173 137.923 87.7584Z" fill="#0049FF"/>
<path d="M178.252 134.569C163.117 140.671 147.338 144.468 131.024 144.342C125.56 144.36 120.151 143.955 114.66 143.474C134.973 152.611 161.224 148.91 178.253 134.574L178.252 134.569Z" fill="#0042E8"/>
</g>
<defs>
<filter id="filter0_d_2783_524" x="38.8201" y="-57.5566" width="247.911" height="350.502" filterUnits="userSpaceOnUse" color-interpolation-filters="sRGB">
<feFlood flood-opacity="0" result="BackgroundImageFix"/>
<feColorMatrix in="SourceAlpha" type="matrix" values="0 0 0 0 0 0 0 0 0 0 0 0 0 0 0 0 0 0 127 0" result="hardAlpha"/>
<feOffset dy="8"/>
<feGaussianBlur stdDeviation="10"/>
<feComposite in2="hardAlpha" operator="out"/>
<feColorMatrix type="matrix" values="0 0 0 0 0 0 0 0 0 0 0 0 0 0 0 0 0 0 0.2 0"/>
<feBlend mode="normal" in2="BackgroundImageFix" result="effect1_dropShadow_2783_524"/>
<feBlend mode="normal" in="SourceGraphic" in2="effect1_dropShadow_2783_524" result="shape"/>
</filter>
</defs>
</svg>
