<svg width="491" height="472" viewBox="0 0 491 472" fill="none" xmlns="http://www.w3.org/2000/svg">
<g filter="url(#filter0_d_2259_918)">
<path d="M108.597 238.279C105.233 237.352 27.6613 217.29 -16.3088 265.131C-28.5583 278.456 -34.9142 293.472 -38.2881 306.016" stroke="#010101" stroke-width="32.3072" stroke-linecap="round" stroke-linejoin="round"/>
<path d="M96.1229 234.828C93.4767 270.064 111.059 300.109 135.395 301.937C159.73 303.764 181.603 276.682 184.25 241.447C186.896 206.212 169.313 176.166 144.978 174.338C120.642 172.511 98.7692 199.593 96.1229 234.828Z" fill="#1553AD"/>
<path d="M195.546 430.973C210.633 411.649 193.611 389.194 201.675 356.518C203.455 349.319 206.772 340.323 213.429 330.385C224.042 329.279 239.753 328.564 258.279 331.231C265.768 332.303 284.294 335.452 343.838 359.307C377.164 372.658 395.105 381.182 409.106 372.679C417.046 367.856 421.032 359.175 421.195 358.822C427.382 344.96 420.814 330.777 420.083 329.237C411.27 310.878 387.493 310.805 351.444 298.907C337.774 294.392 319.297 287.184 298.099 275.336C317.643 269.308 343.551 263.803 373.919 264.271C422.884 265.015 453.522 280.815 465.968 265.601C474.913 254.677 469.66 233.662 460.539 221.464C447.95 204.624 426.522 202.633 406.324 200.751C372.333 197.588 359.487 208.665 318.002 205.713C312.194 205.304 306.993 204.704 302.585 204.082C302.57 203.197 302.545 202.312 302.502 201.434C314.764 196.553 333.149 189.217 344.519 184.688C371.768 173.819 371.375 173.953 371.834 173.787C420.375 156.775 450.649 170.981 459.461 155.885C465.263 145.947 458.044 129.647 449.94 120.759C424.03 92.3352 364.255 112.429 358.615 114.392C344.033 119.482 340.392 123.462 308.499 135.776C295.357 140.846 284.259 144.667 276.488 147.235C276.488 147.226 276.472 147.206 276.472 147.197C280.356 141.687 285.975 134.422 293.452 126.677C316.198 103.118 345.424 86.286 349.506 83.9603C368.897 72.9382 377.637 71.0534 380.567 61.3909C383.447 51.9069 379.05 40.4645 371.728 34.149C361.318 25.1697 346.755 28.3023 335.525 30.7197C324.721 33.0416 317.485 37.0979 308.568 42.1937C289.858 52.8844 278.063 65.8613 267.35 77.5261C259.503 86.0814 253.182 94.0866 248.237 100.856L248.815 102.02C247.796 102.608 246.757 103.231 245.696 103.89C237.517 102.437 225.495 101.334 211.449 103.768C186.439 108.12 170.108 121.093 161.231 128.323C149.22 138.105 134.055 150.465 126.846 172.12C116.528 203.133 129.876 231.215 133.716 238.662C114.143 273.953 127.874 311.609 130.29 318.239C134.428 329.608 139.951 338.42 144.55 344.604C138.535 355.574 132.478 371.824 134.644 391.005C136.97 411.582 149.502 442.034 169.598 443.816C179.369 444.687 189.532 438.655 195.537 430.973L195.546 430.973ZM154.606 213.981L158.135 209.801C157.817 210.524 157.508 211.248 157.189 211.971C156.34 212.608 155.47 213.281 154.606 213.981Z" fill="#0049FF"/>
<path d="M251.101 266.241C255.961 237.669 256.577 208.851 250.183 180.591C248.145 171.102 245.395 161.869 242.481 152.523C266.025 184.312 269.539 231.266 251.11 266.242L251.101 266.241Z" fill="#0042E8"/>
</g>
<defs>
<filter id="filter0_d_2259_918" x="-74.4458" y="16.1599" width="565.036" height="455.74" filterUnits="userSpaceOnUse" color-interpolation-filters="sRGB">
<feFlood flood-opacity="0" result="BackgroundImageFix"/>
<feColorMatrix in="SourceAlpha" type="matrix" values="0 0 0 0 0 0 0 0 0 0 0 0 0 0 0 0 0 0 127 0" result="hardAlpha"/>
<feOffset dy="8"/>
<feGaussianBlur stdDeviation="10"/>
<feComposite in2="hardAlpha" operator="out"/>
<feColorMatrix type="matrix" values="0 0 0 0 0 0 0 0 0 0 0 0 0 0 0 0 0 0 0.35 0"/>
<feBlend mode="normal" in2="BackgroundImageFix" result="effect1_dropShadow_2259_918"/>
<feBlend mode="normal" in="SourceGraphic" in2="effect1_dropShadow_2259_918" result="shape"/>
</filter>
</defs>
</svg>
