<svg width="1350" height="940" viewBox="0 0 1350 940" fill="none" xmlns="http://www.w3.org/2000/svg">
<g opacity="0.4">
<path d="M378.559 765.601C378.559 765.601 416.516 738.683 453.968 743.671C453.968 743.671 445.904 729.22 426.004 724.81C406.103 720.401 359.735 749.433 359.735 749.433L378.559 765.601Z" fill="#DE4000"/>
<path d="M426.004 724.811C426.004 724.811 452.838 735.556 459 743.264C465.163 750.972 459.936 776.791 479.841 793.89L446.052 797.601C446.052 797.601 434.63 793.561 438.159 757.936C440.558 733.718 426.004 724.811 426.004 724.811Z" fill="#FF4900"/>
<path d="M1189.41 171.662C1178.78 169.494 1170.48 169.732 1164.04 171.117C1163.55 163.535 1163.07 155.952 1162.59 148.371C1168.49 143.785 1175.93 144.317 1189.05 147.687C1229.48 158.071 1241.72 138.733 1241.72 138.733C1237.41 145.622 1224.83 178.887 1189.41 171.662Z" fill="#DE4000"/>
<path d="M1217.19 38.5566C1224.59 33.3052 1255.52 40.5933 1268.65 22.9341C1268.65 22.9341 1273.93 43.3582 1254.51 52.5923C1232.97 62.83 1204.92 47.4496 1206.59 77.2298C1206.59 77.2298 1194.89 54.3884 1217.19 38.5566Z" fill="#DE4000"/>
<path d="M1217.19 38.5571C1217.19 38.5571 1201.59 49.4604 1225.89 87.3559C1250.19 125.251 1247.95 127.664 1241.72 138.735C1235.49 149.807 1229.48 158.073 1229.48 158.073C1229.48 158.073 1236.8 142.416 1208.26 107.012C1172.31 62.4169 1217.19 38.5571 1217.19 38.5571Z" fill="#FF4900"/>
<path d="M360.035 601.515C360.035 601.515 383.987 618.944 388.245 647.141C388.245 647.141 395.543 636.404 394.36 620.808C393.177 605.211 366.283 582.578 366.283 582.578L360.035 601.515Z" fill="#022780"/>
<path d="M394.361 620.808C394.361 620.808 393.009 643.512 389.479 650.555C385.95 657.597 369.071 662.91 362.464 682.934L353.579 660.356C353.579 660.356 353.828 650.878 376.396 640.947C391.737 634.196 394.361 620.808 394.361 620.808Z" fill="#001B5E"/>
<path d="M788.817 326.969C794.124 326.802 799.878 327.28 805.754 328.06L801.795 306.564C781.954 308.15 767.383 316.481 762.688 331.482C755.997 352.864 762.94 346.108 762.94 346.108C762.94 346.108 764.479 327.728 788.817 326.969Z" fill="#003CD1"/>
<path d="M752.856 355.112C753.441 363.035 754.265 375.917 785.07 407.818C792.178 415.179 801.272 419.906 803.438 429.294C805.777 426.876 810.439 417.998 810.291 413.434C810.063 406.401 803.329 397.44 789.436 381.564C771.988 361.623 767.786 341.324 764.639 326.698C764.639 326.698 752.136 345.361 752.856 355.112Z" fill="#0049FF"/>
<path d="M813.12 50.4111C813.12 50.4111 806.072 65.2032 792.564 75.8214L805.273 77.8466C805.273 77.8466 822.273 65.5954 829.278 51.4229L813.12 50.4111Z" fill="#001B5E"/>
<path d="M389.413 846.691C389.413 846.691 416.051 876.295 422.328 876.211L446.766 914.795C446.766 914.795 441.674 918.465 416.536 890.738L389.413 846.691Z" fill="#0049FF"/>
<path d="M976.386 836.467C976.386 836.467 984.112 839.125 989.039 836.322L991.102 844.307C991.102 844.307 985.523 848.327 978.137 845.922L976.386 836.467Z" fill="#0049FF"/>
<path d="M413.975 351.67C413.975 351.67 426.882 335.911 424.297 328.611L445.24 319.959C445.24 319.959 450.203 327.708 438.192 342.688L413.975 351.67Z" fill="#FF4900"/>
<path d="M1089.21 88.9313C1089.21 88.9313 1077.84 93.4643 1073.11 104.445L1066 92.5597C1066 92.5597 1070.89 78.5981 1081.68 74.0239L1089.21 88.9313Z" fill="#0049FF"/>
<path d="M1238.26 734.874C1238.26 734.874 1257.12 740.87 1279.43 740.75L1267.82 748.732C1267.82 748.732 1240.62 749.61 1222.29 743.998L1238.26 734.874Z" fill="#001B5E"/>
<path d="M858.343 331.462C858.343 331.462 868.169 335.688 879.749 335.728L873.77 341.154C873.77 341.154 859.651 341.611 850.103 337.649L858.343 331.462Z" fill="#FF4900"/>
<path d="M97.0553 868.017C97.0553 868.017 111.223 876.145 127.847 876.387L119.341 886.549C119.341 886.549 99.0821 887.203 85.3149 879.584L97.0553 868.017Z" fill="#FF4900"/>
<path d="M195.839 574.434C195.839 574.434 183.715 556.775 165.799 551.538L179.047 537.077C179.047 537.077 201.257 541.872 213.149 558.571L195.839 574.434Z" fill="#FF4900"/>
<path d="M1210.72 497.218C1210.72 497.218 1188.1 481.704 1158.63 474.377L1176.93 466.087C1176.93 466.087 1213.13 473.904 1235.21 488.655L1210.72 497.218Z" fill="#FF4900"/>
<path d="M467.724 680.96C467.724 680.96 460.442 674.873 449.391 673.478L457.817 667.833C457.817 667.833 471.54 668.945 478.691 674.687L467.724 680.96Z" fill="#FF4900"/>
<path d="M467.724 680.96C467.724 680.96 460.442 674.873 449.391 673.478L457.817 667.833C457.817 667.833 471.54 668.945 478.691 674.687L467.724 680.96Z" fill="#FF4900"/>
<path d="M473.425 164.502C473.425 164.502 461.299 155.889 443.385 153.337L456.633 146.284C456.633 146.284 478.843 148.622 490.735 156.766L473.425 164.502Z" fill="#FF4900"/>
<path d="M268.697 496.038C268.697 496.038 260.542 488.339 247.889 486.911L257.779 479.227C257.779 479.227 273.517 480.191 281.532 487.444L268.697 496.038Z" fill="#0049FF"/>
<path d="M747.478 93.7328C747.478 93.7328 742.818 110.878 746.422 129.16L734.54 121.841C734.54 121.841 729.221 99.7488 733.477 83.1426L747.478 93.7328Z" fill="#0049FF"/>
<path d="M783.264 507.508C783.264 507.508 762.728 510.113 745.395 522.444L746.776 505.869C746.776 505.869 767.207 489.892 786.96 487.084L783.264 507.508Z" fill="#FF4900"/>
<path d="M431.802 49.8305C431.802 49.8305 427.142 66.9755 430.746 85.2576L418.864 77.9382C418.864 77.9382 413.545 55.8465 417.801 39.2402L431.802 49.8305Z" fill="#001B5E"/>
<path d="M680.271 871.948C680.271 871.948 693.818 877.174 711.863 879.363L700.251 882.609C700.251 882.609 678.04 880.346 664.812 875.385L680.271 871.948Z" fill="#0049FF"/>
<path d="M1277.25 541.848C1277.25 541.848 1290.79 547.074 1308.84 549.263L1297.23 552.509C1297.23 552.509 1275.02 550.246 1261.79 545.285L1277.25 541.848Z" fill="#FF4900"/>
<path d="M697.065 569.67L709.864 589.928C709.864 589.928 723.977 590.709 733.699 600.383C743.421 610.059 754.326 617.677 754.326 617.677L749.234 600.833C749.234 600.833 735.885 591.546 728.078 583.096C720.273 574.647 697.065 569.67 697.065 569.67Z" fill="#001B5E"/>
<path d="M391.491 208.61L402.978 224.164C402.978 224.164 413.502 226.116 421.66 233.904C429.818 241.691 438.647 248.145 438.647 248.145L433.204 235.764C433.204 235.764 422.4 227.891 415.782 221.158C409.165 214.425 391.491 208.61 391.491 208.61Z" fill="#001B5E"/>
<path d="M462.008 470.946L472.141 488.114C472.141 488.114 484.236 488.195 492.177 496.239C500.117 504.285 509.164 510.481 509.164 510.481L505.507 495.969C505.507 495.969 494.432 488.417 488.085 481.363C481.738 474.306 462.008 470.946 462.008 470.946Z" fill="#0049FF"/>
<path d="M989.301 396.197L996.153 411.514C996.153 411.514 1007.36 409.799 1013.53 416.506C1019.7 423.212 1027.17 427.941 1027.17 427.941L1025.93 414.265C1025.93 414.265 1016.78 408.509 1011.94 402.536C1007.1 396.563 989.301 396.197 989.301 396.197Z" fill="#FF4900"/>
<path d="M222.594 769.986C222.594 769.986 235.149 754.202 232.407 746.705L253.147 738.339C253.147 738.339 258.277 746.348 246.599 761.357L222.594 769.986Z" fill="#0049FF"/>
<path d="M595.437 428.57C595.437 428.57 563.042 446.213 524.643 434.106C524.643 434.106 535.64 449.228 556.403 457.305C577.167 465.383 617.526 447.435 617.526 447.435L595.437 428.57Z" fill="#022780"/>
<path d="M556.405 457.305C556.405 457.305 527.427 441.922 519.703 433.485C511.978 425.049 511.925 401.932 488.568 381.982L521.538 385.224C521.538 385.224 533.765 391.273 537.512 423.9C540.059 446.082 556.405 457.305 556.405 457.305Z" fill="#001B5E"/>
<path d="M767.381 786.588C767.381 786.588 734.987 804.231 696.586 792.125C696.586 792.125 707.583 807.246 728.348 815.324C749.112 823.401 789.471 805.454 789.471 805.454L767.381 786.588Z" fill="#022780"/>
<path d="M92.1564 260.138C92.1564 260.138 59.4662 257.36 49.0506 252.63C38.635 247.903 29.5163 226.66 0.202393 217.477L31.8001 207.521C31.8001 207.521 45.4189 208.287 61.6693 236.827C72.7192 256.229 92.1564 260.138 92.1564 260.138Z" fill="#FF4900"/>
<path d="M904.863 602.551C903.001 609.792 923.531 638.896 912.156 652.082C912.156 652.082 934.227 656.28 934.704 637.454C935.235 616.58 908.126 590.536 937.68 590.93C937.68 590.93 910.474 580.727 904.863 602.551Z" fill="#003CD1"/>
<path d="M904.863 602.552C904.863 602.552 908.623 587.293 955.888 608.864C1003.15 630.434 1009.87 623.221 1017.87 616.858C1025.88 610.494 1031.26 604.455 1031.26 604.455C1031.26 604.455 1013.94 617.023 967.235 591.322C908.412 558.952 904.863 602.552 904.863 602.552Z" fill="#0049FF"/>
<path d="M1139.89 874.914C1140.78 869.336 1141.77 863.785 1142.89 858.258C1140.25 857.208 1137.4 856.35 1134.17 855.921C1108.04 852.456 1105.47 870.466 1105.47 870.466L1114.17 889.724C1114.17 889.724 1115.09 875.841 1132.28 874.259C1134.81 874.024 1137.38 874.299 1139.89 874.914Z" fill="#FF4900"/>
<path d="M1117.4 891.291C1117.92 887.479 1118.48 883.673 1119.04 879.867C1109.1 877.789 1105.47 870.464 1105.47 870.464C1105.47 870.464 1105.34 883.001 1113.82 889.078C1115.02 889.938 1116.21 890.666 1117.4 891.291Z" fill="#FF4900"/>
<path d="M1142.38 262.152C1142.38 262.152 1123.26 283.382 1127.36 287.781L1095.89 308.23C1095.89 308.23 1088.17 304.968 1105.96 284.95L1142.38 262.152Z" fill="#0049FF"/>
<path d="M1027.77 776.444C1027.77 776.444 1033.95 792.615 1047.04 805.865L1033.88 805.422C1033.88 805.422 1017.32 789.86 1011.14 774.318L1027.77 776.444Z" fill="#001B5E"/>
<path d="M149.27 174.989C149.27 174.989 119.373 178.944 92.7693 157.726C92.7693 157.726 97.2694 172.946 111.244 185.621C125.219 198.295 161.387 196.531 161.387 196.531L149.27 174.989Z" fill="#003CD1"/>
<path d="M111.246 185.621C111.246 185.621 92.8419 164.707 89.0965 155.73C85.3512 146.753 91.4973 128.601 78.6826 105.821L103.439 118.426C103.439 118.426 111.322 126.904 105.503 153.646C101.545 171.827 111.246 185.621 111.246 185.621Z" fill="#0049FF"/>
<path d="M1270.98 656.828C1270.98 656.828 1250.8 659.497 1232.84 645.178C1232.84 645.178 1235.88 655.45 1245.31 664.004C1254.74 672.557 1279.15 671.367 1279.15 671.367L1270.98 656.828Z" fill="#DE4000"/>
<path d="M1245.31 664.004C1245.31 664.004 1232.89 649.889 1230.37 643.832C1227.84 637.775 1231.99 625.524 1223.34 610.15L1240.04 618.657C1240.04 618.657 1245.36 624.378 1241.44 642.426C1238.77 654.694 1245.31 664.004 1245.31 664.004Z" fill="#FF4900"/>
<path d="M65.1558 613.285C65.1558 613.285 76.9225 630.394 97.6564 620.835C107.403 616.342 119.237 607.139 122.403 588.116C127.503 557.467 109.127 553.203 109.127 553.203L88.803 562.185C88.803 562.185 103.031 564.21 103.649 584.637C104.267 605.065 82.955 626.201 65.1558 613.285Z" fill="#0049FF"/>
<path d="M14.1326 573.853C22.4308 573.843 37.2574 579.953 47.3583 600.369C57.4591 620.784 72.7752 631.08 97.6565 620.836C97.6565 620.836 77.6114 619.71 67.5089 598.457C57.4064 577.204 43.1696 568.369 33.0951 569.743C23.0207 571.117 14.1326 573.853 14.1326 573.853Z" fill="#003CD1"/>
<path d="M809.547 563.2C820.772 550.712 846.576 538.168 857.59 520.278C868.604 502.388 865.9 493.019 865.9 493.019C865.9 493.019 871.756 509.445 872.733 517.346C873.712 525.247 856.326 547.476 836.988 561.647C817.649 575.817 803.785 590.272 806.487 599.641C806.487 599.641 792.236 582.463 809.547 563.2Z" fill="#003CD1"/>
<path d="M920.752 415.365L902.904 427.331C902.904 427.331 893.607 429.821 871.743 425.51C849.878 421.2 834.379 442.978 836.325 455.34C836.325 455.34 832.893 441.302 841.775 425.527C850.658 409.749 865.456 402.24 882.821 407.273C902.314 412.921 920.752 415.365 920.752 415.365Z" fill="#003CD1"/>
<path d="M836.327 455.342C838.407 470.019 847.723 479.683 856.235 497.641C864.748 515.598 863.011 537.378 863.011 537.378C863.011 537.378 874.04 522.103 875.577 512.182C877.114 502.261 872.136 483.778 860.62 469.716C849.104 455.654 842.307 428.899 847.201 417.328C847.201 417.328 833.397 434.658 836.327 455.342Z" fill="#0049FF"/>
<path d="M989.761 243.326C989.761 243.326 977.955 267.734 981.031 286.628C984.107 305.521 998.647 314.168 994.449 342.017C994.449 342.017 1008.8 337.962 1012.28 334.499C1036.71 310.138 1002.93 297.025 989.761 243.326Z" fill="#003CD1"/>
<path d="M917.603 366.774C906.441 387.454 930.238 406.438 902.903 427.333C950.476 420.073 918.636 386.04 938.415 372.266C964.657 353.991 983.097 352.824 999.254 346.634C1017.59 339.607 1021.51 313.899 1021.51 313.899C1010.91 325.941 941.455 322.583 917.603 366.774Z" fill="#0049FF"/>
<path d="M1104.48 203.623C1106.38 192.054 1108.61 180.546 1111.16 169.108C1102.31 173.572 1092.99 177.957 1083.15 182.284C1017.94 210.963 989.763 243.326 989.763 243.326C989.763 243.326 972.247 266.599 981.033 286.628C981.033 286.628 998.117 254.244 1025.93 240.373C1041.22 232.744 1071.19 221.227 1104.48 203.623Z" fill="#0049FF"/>
<path d="M283.335 402.467C285.277 381.363 303.508 347.186 300.618 321.479C297.728 295.773 286.724 289.878 286.724 289.878C286.724 289.878 307.269 299.218 315.089 305.351C322.911 311.486 322.356 346.732 312.754 376.576C303.152 406.42 299.924 431.626 310.928 437.522C310.928 437.522 280.337 435.016 283.335 402.467Z" fill="#022780"/>
<path d="M429.383 446.553C429.383 446.553 417.841 467.581 391.14 478.547C364.44 489.513 352.895 510.542 352.895 510.542C352.895 510.542 344.828 505.388 337.985 499.5C337.985 499.5 332.872 484.682 359.987 465.874C379.329 452.458 421.331 433.075 422.085 421.818L429.383 446.553Z" fill="#022780"/>
<path d="M283.335 402.468C283.335 402.468 281.346 418.619 315.6 427.25C349.852 435.881 422.087 421.818 422.087 421.818L429.385 446.554C429.385 446.554 388.004 453.821 352.511 454.244C317.018 454.668 295.989 443.125 286.95 433.561C277.91 423.998 283.335 402.468 283.335 402.468Z" fill="#001B5E"/>
<path d="M339.362 488.397C339.362 488.397 374.435 502.156 397.451 507.196C429.014 514.109 446.368 527.848 449.774 539.114C453.18 550.38 451.2 562.37 451.2 562.37C451.2 562.37 436.5 542.266 413.311 535.131C385.3 526.512 356.908 525.604 343.584 513.682C330.823 502.263 339.362 488.397 339.362 488.397Z" fill="#001B5E"/>
<path d="M270.027 176.396L272.266 198.56C272.266 198.56 263.972 209.073 235.808 224.781C207.644 240.489 208.817 273.652 221.522 282.877C221.522 282.877 205.728 273.493 202.248 251.564C198.769 229.636 208.956 209.755 232.692 198.707C259.336 186.304 270.027 176.396 270.027 176.396Z" fill="#022780"/>
<path d="M221.522 282.877C236.343 294.037 255.009 294.286 279.833 302.611C304.657 310.935 321.251 331.804 321.251 331.804C321.251 331.804 320.604 308.404 313.881 298.231C307.158 288.057 285.847 276.109 260.976 273.924C236.104 271.74 205.713 254.08 201.348 239.445C201.348 239.445 200.633 267.147 221.522 282.877Z" fill="#001B5E"/>
<path d="M219.144 126.179C219.144 126.179 220.699 141.101 214.538 158.602C237.983 158.546 272.266 198.559 272.266 198.559L270.027 176.395C270.027 176.395 246.269 122.791 219.144 126.179Z" fill="#001B5E"/>
<path d="M602.129 234.732C603.696 217.312 610.047 205.481 613.431 197.773C614.8 210.4 626.513 219.072 633.427 222.546C681.484 246.681 692.631 267.581 692.631 267.581C692.631 267.581 698.926 287.127 679.566 302.512C679.566 302.512 676.206 283.505 655.767 267.078C640.712 254.977 617.383 254.275 602.129 234.732Z" fill="#DE4000"/>
<path d="M582.962 0.747262C582.962 0.747262 580.825 10.7558 569.787 23.4107C594.795 21.6311 623.066 48.7683 623.066 48.7683L625.688 32.2065C625.688 32.2065 612.13 -3.74127 582.962 0.747262Z" fill="#DE4000"/>
<path d="M625.688 32.207L623.066 48.7688C623.066 48.7688 611.06 57.4624 574.948 71.5624C538.695 85.7184 529.39 113.287 541.064 120.77C541.064 120.77 525.907 113.282 529.151 95.0267C532.262 77.5142 549.46 61.4336 578.634 51.5025C611.401 40.3487 625.688 32.207 625.688 32.207Z" fill="#FF4900"/>
<path d="M541.065 120.769C554.978 130.127 577.353 129.672 605.519 136.45C634.792 143.494 651.327 163.503 651.327 163.503C651.327 163.503 656.076 140.554 649.773 131.145C643.632 121.976 620.041 112.102 590.443 111.273C561.606 110.466 532.231 96.9344 532.018 85.2056C532.018 85.2056 522.224 108.101 541.065 120.769Z" fill="#DE4000"/>
<path d="M649.773 131.146C649.773 131.146 648.488 148.268 622.621 170.289C596.304 192.692 594.8 221.736 602.131 234.733C602.131 234.733 608.275 209.801 622.377 195.839C636.212 182.141 645.494 173.8 651.327 163.503C657.056 153.389 654.143 138.462 649.773 131.146Z" fill="#FF4900"/>
<path d="M726.083 391.942C729.397 399.274 730.547 405.709 730.221 411.343C730.221 411.343 722.837 428.453 714.252 434.141C715.328 420.26 711.355 398.348 696.36 382.681C677.269 362.735 652.149 356.726 638.491 349.503C623.339 341.492 639.062 322.116 639.062 322.116C643.399 333.245 708.541 353.12 726.083 391.942Z" fill="#DE4000"/>
<path d="M691.842 265.424C691.842 265.424 702.63 284.845 683.508 307.2C670.354 322.577 649.488 325.37 638.494 349.507C638.494 349.507 625.793 344.456 624.148 341.131C612.916 318.402 657.613 313.055 691.842 265.424Z" fill="#FF4900"/>
<path d="M1106.22 397.158C1124.6 394.319 1137.63 397.252 1146.04 398.472C1121.92 404.804 1086.76 476.733 1086.76 476.733C1086.76 476.733 1075.51 496.152 1052.75 493.754C1057.04 496.634 1062.29 487.054 1077.15 447.186C1084.18 428.308 1087.37 415.983 1106.22 397.158Z" fill="#022780"/>
<path d="M1348.88 322.056C1348.88 322.056 1338.2 322.549 1323.82 315.508C1328.27 338.064 1302.82 370.726 1302.82 370.726L1320.41 369.069C1320.41 369.069 1356.59 347.771 1348.88 322.056Z" fill="#022780"/>
<path d="M1320.41 369.069L1302.82 370.727C1302.82 370.727 1292.49 361.824 1274.01 332.083C1255.46 302.227 1225.67 300.444 1219.06 313.015C1219.06 313.015 1225.32 297.239 1244.74 295.737C1263.37 294.297 1281.97 306.159 1295.37 330.544C1310.42 357.934 1320.41 369.069 1320.41 369.069Z" fill="#001B5E"/>
<path d="M1219.06 313.015C1210.72 328.107 1213.5 348.569 1209.33 376.131C1205 404.778 1185.79 424.895 1185.79 424.895C1185.79 424.895 1210.27 423.623 1219.46 415.518C1228.41 407.62 1236.29 383.502 1234.1 356.084C1231.96 329.371 1243.07 299.037 1255.31 295.961C1255.31 295.961 1230.35 292.581 1219.06 313.015Z" fill="#022780"/>
<path d="M1219.46 415.519C1219.46 415.519 1201.42 418.544 1175.72 400.168C1149.58 381.474 1119.06 387.225 1106.22 397.157C1106.22 397.157 1132.93 396.683 1148.98 406.219C1164.74 415.575 1174.42 422.06 1185.79 424.894C1196.96 427.681 1212.26 421.335 1219.46 415.519Z" fill="#001B5E"/>
<path d="M1087.94 474.52C1087.94 474.52 1079.36 497.111 1051.44 500.179C1032.24 502.288 1018.18 489.235 993.556 499.566C993.556 499.566 990.127 486.495 991.712 482.776C1002.55 457.347 1032.18 485.794 1087.94 474.52Z" fill="#001B5E"/>
<path d="M611.002 820.487C611.002 820.487 642.318 802.585 636.199 784.424C632.926 774.712 618.284 754.452 609.183 742.705C600.081 730.96 600.269 720.487 600.269 720.487C600.269 720.487 590.666 734.18 588.848 749.413C587.156 763.606 609.908 785.707 615.389 796.779C622.59 811.332 611.002 820.487 611.002 820.487Z" fill="#003CD1"/>
<path d="M673.872 702.722C673.923 693.992 660.747 670.145 650.528 656.225C640.308 642.305 634.022 621.946 634.022 621.946C634.022 621.946 628.914 635.853 627.609 644.153C626.304 652.451 647.99 681.637 654.074 694.012C660.156 706.386 655.84 725.856 655.84 725.856C655.84 725.856 673.786 717.188 673.872 702.722Z" fill="#003CD1"/>
<path d="M540.832 841.544C544.342 843.439 549.544 846.293 557.145 850.507C583.424 865.078 596.81 884.095 596.81 884.095C596.81 884.095 605.295 878.563 612.504 872.264C612.504 872.264 617.993 856.514 589.832 836.809C573.292 825.235 554.941 825.713 548.592 819.588C546.115 826.94 543.541 834.263 540.832 841.544Z" fill="#003CD1"/>
<path d="M636.301 785.096C636.301 785.096 640.292 806.284 611.986 806.983C565.773 808.125 544.387 818.237 544.387 818.237L540.832 841.545C540.832 841.545 554.471 828.231 584.034 830.721C613.596 833.209 629.913 823.367 636.458 814.719C643.002 806.073 636.301 785.096 636.301 785.096Z" fill="#0049FF"/>
<path d="M611.174 860.511C611.174 860.511 574.377 875.392 550.271 880.928C517.21 888.521 498.938 903.231 495.266 915.202C491.597 927.171 493.549 939.864 493.549 939.864C493.549 939.864 509.109 918.43 533.42 910.671C562.784 901.298 592.472 900.094 606.514 887.345C619.963 875.135 611.174 860.511 611.174 860.511Z" fill="#0049FF"/>
<path d="M600.269 720.488C607.949 714.18 642.012 714.988 654.843 712.31C667.674 709.632 673.872 702.722 673.872 702.722C673.872 702.722 679.784 720.882 662.668 727.532C654.804 730.589 593.462 734.005 588.848 749.415C588.848 749.415 587.573 730.917 600.269 720.488Z" fill="#0049FF"/>
<path d="M992.543 172.804C992.543 172.804 977.492 160.655 975.951 154.378C974.411 148.102 987.54 131.905 979.711 116.821L1004.96 120.652C1004.96 120.652 1011.56 125.468 996.051 148.506C985.503 164.166 992.543 172.804 992.543 172.804Z" fill="#FF4900"/>
<path d="M312.179 8.33324C302.897 7.74169 296.082 5.67868 291.071 3.08838C288.955 9.24775 286.859 15.4121 284.758 21.578C288.614 26.6977 294.886 27.9269 306.496 28.0834C342.274 28.5695 348.053 47.313 348.053 47.313C346.036 40.6494 343.099 10.3089 312.179 8.33324Z" fill="#FF4900"/>
<path d="M307.608 132.193C312.548 138.198 339.774 139.114 346.672 156.669C346.672 156.669 355.624 140.959 341.631 128.96C326.116 115.658 299.455 122.082 307.521 97.8223C307.521 97.8223 292.715 114.091 307.608 132.193Z" fill="#FF4900"/>
<path d="M307.608 132.192C307.608 132.192 297.153 119.673 325.76 93.7796C354.365 67.8865 350.722 57.873 348.054 47.3157C345.386 36.7584 342.274 28.5723 342.274 28.5723C342.274 28.5723 347.143 50.6821 315.588 73.5631C275.842 102.381 307.608 132.192 307.608 132.192Z" fill="#DE4000"/>
<path d="M337.798 166.838C334.173 182.859 335.015 194.924 355.004 205.237C355.004 205.237 350.636 191.088 355.947 167.787C359.137 153.791 353.879 140.503 341.631 128.96C341.631 128.96 341.15 152.024 337.798 166.838Z" fill="#DE4000"/>
<path d="M126.564 824.063C115.713 824.117 107.636 826.052 101.62 828.724C99.5781 821.407 97.5579 814.082 95.5344 806.758C100.376 801.06 107.764 800.058 121.297 800.669C162.999 802.555 171.016 781.119 171.016 781.119C168.209 788.745 162.709 823.882 126.564 824.063Z" fill="#022780"/>
<path d="M126.489 688.091C132.655 681.435 164.428 682.233 173.662 662.26C173.662 662.26 183.013 681.17 165.894 694.186C146.914 708.617 116.301 699.309 124.034 728.115C124.034 728.115 107.906 708.152 126.489 688.091Z" fill="#022780"/>
<path d="M126.489 688.091C126.489 688.091 113.455 701.957 144.999 734.074C176.54 766.19 174.847 769.008 171.015 781.121C167.186 793.234 162.999 802.555 162.999 802.555C162.999 802.555 166.95 785.731 131.767 756.922C87.452 720.634 126.489 688.091 126.489 688.091Z" fill="#001B5E"/>
<path d="M902.683 100.678C902.683 100.678 927.131 97.6463 931.852 69.0278C934.071 55.5754 933.145 37.0445 916.898 22.381C890.723 -1.24479 874.237 16.6533 874.237 16.6533L869.235 44.476C869.235 44.476 880.767 29.8701 900.916 41.159C921.065 52.4479 927.139 88.4929 902.683 100.678Z" fill="#003CD1"/>
<path d="M830.25 134.2C835.824 124.984 851.706 112.109 878.227 112.863C904.747 113.618 925 102.654 931.85 69.0293C931.85 69.0293 917.271 90.6201 889.941 89.376C862.611 88.1319 844.495 98.7568 839.043 110.744C833.59 122.732 830.25 134.2 830.25 134.2Z" fill="#0049FF"/>
<path d="M191.071 452.018C188.693 439.763 177.186 419.286 150.094 409.1C122.999 398.913 106.395 378.685 111.366 339.57C111.366 339.57 118.471 368.909 146.556 378.903C174.641 388.896 189.205 407.872 190.477 423.066C191.753 438.26 191.071 452.018 191.071 452.018Z" fill="#DE4000"/>
<path d="M127.259 395.423C127.259 395.423 104.907 387.26 107.837 339.425C108.797 323.74 121.381 304.532 143.005 295.453C177.844 280.824 188.185 306.969 188.185 306.969L183.397 339.058C183.397 339.058 176.901 318.518 152.524 322.338C128.147 326.157 106.833 372.135 127.259 395.423Z" fill="#FF4900"/>
<path d="M860.744 681.549C860.744 681.549 893.352 699.838 888.66 721.875C886.151 733.66 873.124 758.963 864.96 773.688C856.797 788.412 857.796 800.781 857.796 800.781C857.796 800.781 847.16 785.471 844.167 767.626C841.379 751 862.352 722.773 866.956 709.178C873.005 691.311 860.744 681.549 860.744 681.549Z" fill="#DE4000"/>
<path d="M932.552 815.022C933.28 825.341 921.993 854.75 912.883 872.149C903.772 889.548 899.083 914.2 899.083 914.2C899.083 914.2 892.912 898.225 890.967 888.531C889.023 878.839 908.383 842.334 913.487 827.142C918.592 811.949 912.781 789.325 912.781 789.325C912.781 789.325 931.346 797.927 932.552 815.022Z" fill="#DE4000"/>
<path d="M888.708 721.073C888.708 721.073 891.045 695.651 862.771 697.427C816.608 700.328 794.5 690.335 794.5 690.335L789.151 663.101C789.151 663.101 803.78 677.59 833.061 671.93C862.342 666.268 879.372 676.409 886.568 686.03C893.764 695.651 888.708 721.073 888.708 721.073Z" fill="#FF4900"/>
<path d="M857.794 800.782C865.941 807.535 899.839 803.449 912.838 805.434C925.837 807.42 932.552 815.023 932.552 815.023C932.552 815.023 937.039 793.005 919.459 786.714C911.38 783.824 849.959 785.424 844.164 767.626C844.164 767.626 844.327 789.619 857.794 800.782Z" fill="#FF4900"/>
</g>
</svg>
