<svg width="483" height="484" viewBox="0 0 483 484" fill="none" xmlns="http://www.w3.org/2000/svg">
<path d="M271.789 28.3631C260.746 1.51131 222.717 1.51135 211.674 28.3631L182.565 99.1437L112.039 69.7208C85.272 58.5537 58.3923 85.3807 69.507 112.17L98.9109 183.04L28.1126 212.317C1.33874 223.389 1.33871 261.312 28.1126 272.384L82.7202 294.966C91.659 298.662 95.9036 308.909 92.1967 317.844L69.5071 372.531C58.3923 399.321 85.272 426.148 112.039 414.981L182.565 385.558L211.674 456.338C222.717 483.19 260.746 483.19 271.789 456.338L300.897 385.558L371.423 414.981C398.19 426.148 425.07 399.321 413.955 372.532L391.266 317.844C387.559 308.909 391.803 298.662 400.742 294.966L455.35 272.384C482.124 261.312 482.124 223.389 455.35 212.317L384.551 183.04L413.955 112.17C425.07 85.3808 398.19 58.5537 371.423 69.7208L300.897 99.1437L271.789 28.3631ZM184.884 100.111L184.88 100.109C184.881 100.11 184.883 100.111 184.884 100.111ZM184.884 384.59C184.883 384.591 184.881 384.592 184.879 384.592L184.884 384.59ZM181.611 383.237C181.61 383.236 181.61 383.235 181.609 383.234L181.611 383.237Z" stroke="#FF4900" stroke-width="15"/>
</svg>
