<svg width="380" height="482" viewBox="0 0 380 482" fill="none" xmlns="http://www.w3.org/2000/svg">
<rect x="0.5" y="0.5" width="378.383" height="480.189" rx="58.0295" fill="url(#paint0_linear_2313_143)" stroke="white"/>
<path d="M178.738 420.536C200.982 424.443 221.709 412.27 225.033 393.346C228.357 374.422 213.02 355.913 190.777 352.006C168.533 348.098 147.806 360.272 144.482 379.196C141.158 398.12 156.495 416.628 178.738 420.536Z" fill="#003DD5"/>
<path d="M312.686 353.07C301.697 340.271 285.862 352.402 265.731 344.393C261.297 342.627 255.852 339.565 250.103 333.843C250.338 325.491 251.275 313.175 254.62 298.835C255.968 293.038 259.62 278.723 280.119 233.432C291.592 208.082 298.622 194.506 294.439 183.12C292.066 176.662 286.881 173.094 286.671 172.948C278.376 167.389 268.746 171.781 267.699 172.273C255.205 178.203 253.049 196.781 242.262 224.335C238.169 234.782 231.932 248.847 222.493 264.795C220.381 249.206 219.167 228.671 222.159 204.961C226.977 166.731 239.774 143.611 231.171 133.089C224.996 125.528 211.124 128.537 202.533 135.029C190.674 143.989 187.503 160.632 184.511 176.319C179.478 202.72 185.405 213.338 179.843 245.606C179.067 250.124 178.223 254.158 177.435 257.57C176.869 257.536 176.302 257.509 175.738 257.497C173.712 247.659 170.663 232.907 168.782 223.784C164.265 201.921 164.315 202.234 164.25 201.867C157.703 163.042 169.45 140.122 160.602 132.447C154.776 127.394 143.737 132.186 137.348 138.055C116.917 156.822 124.435 204.588 125.187 209.098C127.14 220.76 129.356 223.814 134.384 249.383C136.453 259.918 137.906 268.792 138.855 274.999C138.849 274.998 138.835 275.01 138.829 275.009C135.659 271.686 131.522 266.915 127.244 260.668C114.233 241.661 106.087 217.94 104.965 214.628C99.6532 198.898 99.226 191.969 93.3217 189.175C87.5268 186.429 79.8372 189.268 75.1588 194.661C68.5072 202.328 69.214 213.873 69.7601 222.776C70.2831 231.341 72.2291 237.208 74.6891 244.443C79.8498 259.624 87.0822 269.52 93.5736 278.502C98.3355 285.081 102.882 290.44 106.762 294.657L107.555 294.267C107.84 295.093 108.146 295.939 108.472 296.802C106.82 303.119 105.05 312.457 105.356 323.561C105.914 343.335 112.742 356.776 116.567 364.091C121.743 373.989 128.282 386.486 141.458 393.251C160.328 402.933 179.426 393.967 184.518 391.355C205.296 408.495 230.536 399.729 234.98 398.186C242.599 395.546 248.711 391.69 253.064 388.418C259.529 393.692 269.358 399.274 281.787 398.582C295.12 397.838 315.659 389.634 318.578 374.021C320 366.429 317.054 358.172 312.685 353.077L312.686 353.07ZM170.625 373.74L168.272 370.763C168.705 371.05 169.139 371.33 169.572 371.616C169.903 372.313 170.255 373.029 170.625 373.74Z" fill="#175AFF"/>
<path d="M212.522 301.053C194.726 295.763 176.396 293.777 157.8 297.299C151.566 298.396 145.432 300.063 139.212 301.853C161.58 285.112 191.845 284.816 212.524 301.045L212.522 301.053Z" fill="#003DD5"/>
<path d="M46.3798 40.9188H59.8874C61.6493 40.9188 63.1595 41.1705 64.5018 41.6738C65.8442 42.1772 66.9349 42.9323 67.8158 43.8552C68.6548 44.7781 69.284 45.7849 69.7455 46.9175C70.2069 48.0501 70.4586 49.3086 70.4586 50.6929C70.4586 52.2031 70.2069 53.5454 69.7455 54.72C69.284 55.8946 68.6129 56.9014 67.7319 57.7404C66.851 58.5793 65.7603 59.2505 64.5018 59.712C63.2434 60.1734 61.7751 60.3832 60.1391 60.3832H52.2527V72.1289H46.3798V40.9188ZM52.2527 55.7268H59.2163C60.9781 55.7268 62.3205 55.3073 63.2434 54.3844C64.1662 53.5035 64.6277 52.287 64.6277 50.7768C64.6277 49.1827 64.1662 48.0082 63.2434 47.1692C62.3205 46.3302 60.9781 45.9107 59.3002 45.9107H52.2527V55.7268ZM86.5074 72.1289C86.2977 71.8772 86.1299 71.5416 86.004 71.0802C85.8782 70.6187 85.7943 69.9895 85.7523 69.2344H85.6685C84.9134 70.2412 84.0324 71.0382 82.9418 71.7094C81.8511 72.3806 80.3829 72.6742 78.621 72.6742C77.5303 72.6742 76.4816 72.5484 75.5587 72.2548C74.6358 72.0031 73.8388 71.5836 73.1676 70.9963C72.4964 70.4509 71.9511 69.7798 71.5735 68.9408C71.1541 68.1018 70.9863 67.137 70.9863 66.0463C70.9863 64.7878 71.196 63.781 71.6574 62.942C72.1189 62.1031 72.7481 61.4319 73.5871 60.9285C74.3841 60.4251 75.349 60.0476 76.4816 59.7959C77.5723 59.5442 78.8307 59.2925 80.1731 59.1247C82.0189 58.9149 83.4032 58.6213 84.3261 58.2018C85.249 57.7823 85.7104 57.0692 85.7104 56.0624C85.7104 55.0976 85.3748 54.3005 84.7036 53.7132C84.0324 53.126 83.0257 52.8323 81.6833 52.8323C80.1731 52.8323 79.0405 53.1679 78.2854 53.7971C77.5303 54.4683 77.1528 55.3493 77.1108 56.4399H72.0769C72.0769 55.5171 72.2867 54.5942 72.7062 53.7132C73.1257 52.8323 73.713 52.0353 74.51 51.3641C75.307 50.6929 76.3138 50.1895 77.4884 49.77C78.6629 49.3505 80.0473 49.1408 81.6413 49.1408C82.8998 49.1408 84.0324 49.2666 85.0392 49.4344C86.046 49.6442 86.885 49.9798 87.6401 50.4412C89.7375 51.7416 90.8282 53.881 90.8282 56.8175V68.6052C90.8282 69.5281 90.8701 70.2412 91.0379 70.7446C91.2057 71.248 91.4155 71.5836 91.6672 71.7514V72.1289H86.5074ZM80.1731 69.0247C81.096 69.0247 81.893 68.8988 82.6062 68.6052C83.2774 68.3115 83.8646 67.934 84.368 67.4726C84.8295 67.0111 85.207 66.4658 85.4587 65.8785C85.7104 65.2912 85.8362 64.662 85.8362 63.9908V60.6768C85.2909 61.0124 84.6197 61.306 83.8646 61.5577C83.0676 61.8094 82.2706 61.9772 81.4735 62.145C79.7956 62.4806 78.5371 62.8582 77.6562 63.3615C76.7333 63.8649 76.3138 64.7039 76.3138 65.9204C76.3138 66.5077 76.3977 67.0111 76.6074 67.4306C76.8172 67.8501 77.1108 68.1437 77.4464 68.3954C77.782 68.6471 78.2015 68.8149 78.7049 68.8988C79.1663 68.9827 79.6697 69.0247 80.1731 69.0247ZM94.9143 49.7281H100.074V53.0421H100.2C100.997 51.7836 101.962 50.8188 103.094 50.1476C104.185 49.4764 105.569 49.1408 107.163 49.1408C108.59 49.1408 109.932 49.4344 111.107 49.9798C112.281 50.5671 113.33 51.3641 114.169 52.3709C115.008 53.4196 115.637 54.6781 116.099 56.1043C116.56 57.5726 116.812 59.2086 116.812 60.9704C116.812 62.8162 116.56 64.4522 116.099 65.8785C115.637 67.3467 115.008 68.6052 114.169 69.612C113.33 70.6607 112.281 71.4577 111.065 72.0031C109.848 72.5903 108.506 72.842 106.996 72.842C105.485 72.842 104.143 72.5484 102.969 71.9192C101.794 71.3319 100.871 70.4509 100.2 69.2764H100.074C100.116 69.6959 100.158 70.2831 100.2 70.9963C100.2 71.7094 100.242 72.5903 100.242 73.6391V79.6378H94.9143V49.7281ZM105.989 68.6052C106.828 68.6052 107.625 68.4374 108.296 68.0598C108.967 67.7242 109.555 67.1789 110.016 66.5077C110.435 65.8365 110.771 65.0395 111.023 64.1166C111.274 63.1937 111.4 62.187 111.4 61.0963C111.4 60.0056 111.274 58.9569 111.065 58.034C110.813 57.1111 110.477 56.2721 110.016 55.601C109.555 54.9298 109.009 54.4264 108.338 54.0488C107.667 53.6713 106.87 53.4615 105.947 53.4615C104.94 53.4615 104.059 53.6713 103.304 54.0488C102.549 54.4683 101.962 55.0137 101.458 55.6849C100.955 56.398 100.619 57.195 100.368 58.1179C100.116 59.0408 100.032 60.0476 100.032 61.0963C100.032 62.187 100.116 63.1518 100.368 64.0747C100.619 64.9976 100.955 65.7526 101.458 66.4238C101.962 67.095 102.549 67.6404 103.304 68.0179C104.059 68.4374 104.94 68.6052 105.989 68.6052ZM129.998 72.8001C128.194 72.8001 126.6 72.5064 125.173 71.8772C123.747 71.2899 122.573 70.4509 121.608 69.3603C120.601 68.3115 119.846 67.0531 119.342 65.6268C118.839 64.2005 118.587 62.6484 118.587 60.9704C118.587 59.2925 118.839 57.7404 119.384 56.3141C119.888 54.8878 120.643 53.6293 121.65 52.5387C122.614 51.4899 123.789 50.651 125.173 50.0637C126.516 49.4764 128.026 49.1408 129.704 49.1408C131.34 49.1408 132.808 49.4344 134.067 49.9798C135.325 50.5251 136.458 51.2802 137.423 52.287C138.513 53.4615 139.31 54.9298 139.856 56.6077C140.359 58.2857 140.611 60.1734 140.611 62.2709H123.873C124.041 64.2005 124.67 65.7946 125.677 66.9692C126.684 68.1437 128.152 68.731 130.039 68.731C131.298 68.731 132.347 68.4793 133.186 67.9759C134.025 67.4726 134.612 66.7175 134.989 65.7946H140.191C139.898 66.8014 139.478 67.7662 138.891 68.6052C138.303 69.4442 137.59 70.1992 136.751 70.8285C135.87 71.4577 134.864 71.9611 133.731 72.2967C132.598 72.6323 131.34 72.8001 129.998 72.8001ZM129.704 53.0001C127.942 53.0001 126.6 53.5454 125.677 54.6361C124.754 55.7268 124.167 57.1531 123.957 58.9149H135.115C134.989 57.0692 134.444 55.6429 133.521 54.5942C132.598 53.5454 131.298 53.0001 129.704 53.0001ZM148.661 53.7552H148.787C150.213 50.8607 152.353 49.3925 155.205 49.3925C155.835 49.3925 156.296 49.4764 156.632 49.6022V54.3844H156.464C156.002 54.3005 155.499 54.2166 154.996 54.2166C153.234 54.2166 151.766 54.762 150.591 55.9365C149.416 57.1111 148.829 58.7471 148.829 60.8865V72.1289H143.502V49.7281H148.661V53.7552Z" fill="white"/>
<path d="M46.5116 87.9265H48.3336V92.035C48.3336 92.4875 48.3277 92.9282 48.3158 93.3569C48.3038 93.7856 48.286 94.1607 48.2622 94.4822L54.675 87.9087H56.9614L51.6204 93.2497L57.3901 101.217H55.2644L50.3521 94.4286L48.3336 96.4114V101.217H46.5116V87.9265ZM61.6148 101.484C60.8765 101.484 60.2156 101.354 59.6321 101.092C59.0604 100.83 58.5722 100.472 58.1673 100.02C57.7624 99.5553 57.4528 99.0194 57.2384 98.4121C57.036 97.7928 56.9347 97.1319 56.9347 96.4293C56.9347 95.7386 57.0419 95.0896 57.2563 94.4822C57.4825 93.863 57.7922 93.3271 58.1852 92.8746C58.59 92.4101 59.0723 92.0469 59.6321 91.7849C60.2037 91.5229 60.8348 91.3919 61.5255 91.3919C62.24 91.3919 62.8712 91.5229 63.419 91.7849C63.9668 92.0469 64.4312 92.4101 64.8123 92.8746C65.2053 93.3509 65.497 93.9225 65.6876 94.5894C65.89 95.2563 65.9913 96.0006 65.9913 96.8223H58.6317C58.6675 97.2867 58.7568 97.7214 58.8997 98.1263C59.0426 98.5312 59.2391 98.8825 59.4891 99.1802C59.7392 99.4779 60.0429 99.7101 60.4002 99.8768C60.7574 100.044 61.1683 100.127 61.6327 100.127C62.2996 100.127 62.8474 99.984 63.2761 99.6982C63.7167 99.4005 64.0144 98.9956 64.1692 98.4835H65.7948C65.5804 99.3767 65.1041 100.103 64.3657 100.663C63.6393 101.211 62.7223 101.484 61.6148 101.484ZM61.5255 92.6781C61.0968 92.6781 60.7157 92.7555 60.3823 92.9103C60.0489 93.0532 59.763 93.2556 59.5249 93.5176C59.2867 93.7796 59.0962 94.0892 58.9533 94.4465C58.8104 94.8038 58.7151 95.1967 58.6675 95.6255H64.2228C64.1752 94.6966 63.9192 93.9761 63.4547 93.464C63.0022 92.9401 62.3591 92.6781 61.5255 92.6781ZM69.0485 93.3569H69.1021C69.3998 92.7972 69.7868 92.3506 70.2631 92.0171C70.7395 91.6718 71.2992 91.4991 71.9423 91.4991C72.0733 91.4991 72.1804 91.511 72.2638 91.5348C72.3591 91.5468 72.4543 91.5706 72.5496 91.6063V93.1782H72.496C72.3769 93.1425 72.2697 93.1187 72.1745 93.1068C72.0792 93.0949 71.9601 93.0889 71.8172 93.0889C71.448 93.0889 71.0967 93.1604 70.7633 93.3033C70.4299 93.4343 70.1381 93.6248 69.888 93.8749C69.6379 94.125 69.4355 94.4286 69.2807 94.7859C69.1378 95.1432 69.0663 95.5481 69.0663 96.0006V101.217H67.4051V91.6242H69.0485V93.3569ZM73.2267 91.6242H74.7272V88.6053H76.3706V91.6242H78.3534V92.9103H76.3706V98.9658C76.3706 99.3112 76.4539 99.5493 76.6207 99.6803C76.7993 99.7994 77.0434 99.859 77.353 99.859C77.496 99.859 77.6448 99.8471 77.7996 99.8232C77.9663 99.7875 78.0973 99.7577 78.1926 99.7339H78.2462V101.127C77.7937 101.234 77.3471 101.288 76.9065 101.288C76.2634 101.276 75.7394 101.127 75.3345 100.841C74.9296 100.544 74.7272 100.044 74.7272 99.3409V92.9103H73.2267V91.6242ZM82.5795 101.413C82.127 101.413 81.6983 101.354 81.2934 101.234C80.9004 101.127 80.555 100.961 80.2573 100.734C79.9715 100.508 79.7452 100.228 79.5785 99.8947C79.4118 99.5493 79.3284 99.1445 79.3284 98.68C79.3284 98.1203 79.4237 97.6618 79.6142 97.3046C79.8167 96.9473 80.0965 96.6615 80.4538 96.4472C80.823 96.2328 81.2576 96.0661 81.7578 95.947C82.2699 95.8279 82.8355 95.7326 83.4548 95.6612C83.812 95.6255 84.1336 95.5778 84.4194 95.5183C84.7052 95.4587 84.9493 95.3813 85.1517 95.2861C85.3542 95.1789 85.509 95.0479 85.6162 94.8931C85.7234 94.7383 85.777 94.5358 85.777 94.2857C85.777 93.7618 85.5983 93.3509 85.2411 93.0532C84.8957 92.7555 84.3896 92.6066 83.7227 92.6066C82.9606 92.6066 82.389 92.7733 82.0079 93.1068C81.6387 93.4402 81.4422 93.8928 81.4184 94.4644H79.8107C79.8226 94.0595 79.912 93.6724 80.0787 93.3033C80.2454 92.9341 80.4895 92.6066 80.8111 92.3208C81.1326 92.035 81.5315 91.8087 82.0079 91.642C82.4961 91.4753 83.0618 91.3919 83.7049 91.3919C84.1574 91.3919 84.5801 91.4336 84.9731 91.517C85.3661 91.6003 85.7174 91.7313 86.027 91.91C86.4319 92.1481 86.7475 92.4816 86.9738 92.9103C87.2 93.339 87.3132 93.8749 87.3132 94.518V99.0016C87.3132 99.3826 87.3787 99.6684 87.5097 99.859C87.6407 100.05 87.9145 100.097 88.3313 100.002H88.4028V101.163C88.2837 101.199 88.1527 101.228 88.0098 101.252C87.8788 101.288 87.7121 101.306 87.5097 101.306C86.9976 101.306 86.6106 101.187 86.3486 100.949C86.0866 100.699 85.9079 100.317 85.8127 99.8054H85.7948C85.64 100.02 85.4614 100.222 85.2589 100.413C85.0565 100.603 84.8243 100.776 84.5623 100.931C84.3003 101.074 84.0026 101.187 83.6691 101.27C83.3476 101.365 82.9844 101.413 82.5795 101.413ZM82.9903 100.198C83.4667 100.198 83.8775 100.121 84.2229 99.9661C84.5801 99.7994 84.8719 99.597 85.0982 99.3588C85.3363 99.1087 85.509 98.8348 85.6162 98.5371C85.7353 98.2394 85.7948 97.9536 85.7948 97.6797V96.1078C85.5566 96.2626 85.2411 96.3995 84.8481 96.5186C84.467 96.6258 84.08 96.7151 83.687 96.7865C83.294 96.858 82.9367 96.9354 82.6152 97.0188C82.2937 97.0902 82.0198 97.1974 81.7935 97.3403C81.5673 97.4713 81.3886 97.644 81.2576 97.8583C81.1385 98.0608 81.079 98.3287 81.079 98.6622C81.079 98.9718 81.1326 99.2278 81.2398 99.4303C81.3469 99.6208 81.4899 99.7756 81.6685 99.8947C81.8471 100.014 82.0496 100.097 82.2758 100.145C82.514 100.181 82.7522 100.198 82.9903 100.198ZM93.0744 101.502C91.7406 101.502 90.7105 101.217 89.9841 100.645C89.2577 100.061 88.8587 99.2814 88.7873 98.3049H90.4664C90.514 98.6502 90.6152 98.942 90.7701 99.1802C90.9249 99.4184 91.1154 99.6089 91.3417 99.7518C91.5798 99.8947 91.8478 100.002 92.1455 100.073C92.4432 100.133 92.7648 100.163 93.1101 100.163C93.8723 100.163 94.42 100.02 94.7535 99.7339C95.0988 99.4362 95.2715 99.073 95.2715 98.6443C95.2715 98.1203 95.0631 97.7571 94.6463 97.5547C94.2414 97.3403 93.6162 97.1498 92.7707 96.983C92.3063 96.8878 91.8537 96.7806 91.4131 96.6615C90.9844 96.5424 90.6033 96.3817 90.2699 96.1792C89.9484 95.9768 89.6864 95.7088 89.4839 95.3754C89.2934 95.0419 89.1981 94.6132 89.1981 94.0892C89.1981 93.2676 89.5018 92.6185 90.1091 92.1422C90.7284 91.6539 91.5977 91.4098 92.7171 91.4098C93.9199 91.4098 94.8309 91.6658 95.4501 92.1779C96.0694 92.69 96.4326 93.3628 96.5398 94.1964H94.8785C94.8071 93.6963 94.5927 93.3152 94.2355 93.0532C93.8901 92.7912 93.3721 92.6602 92.6814 92.6602C92.0264 92.6602 91.5501 92.7912 91.2524 93.0532C90.9665 93.3152 90.8236 93.6308 90.8236 93.9999C90.8236 94.25 90.8772 94.4584 90.9844 94.6251C91.1035 94.7799 91.2702 94.9109 91.4846 95.0181C91.7108 95.1253 91.9788 95.2146 92.2884 95.2861C92.6099 95.3575 92.9732 95.4349 93.378 95.5183C93.8544 95.6135 94.3069 95.7207 94.7356 95.8398C95.1643 95.9589 95.5395 96.1256 95.861 96.34C96.1944 96.5543 96.4564 96.8401 96.647 97.1974C96.8375 97.5427 96.9328 97.9953 96.9328 98.555C96.9328 99.0432 96.8375 99.4719 96.647 99.8411C96.4564 100.21 96.1885 100.52 95.8431 100.77C95.5097 101.008 95.1048 101.187 94.6284 101.306C94.1521 101.437 93.6341 101.502 93.0744 101.502Z" fill="white"/>
<rect opacity="0.7" x="260.115" y="31.1289" width="85.5887" height="41.8372" rx="20.9186" fill="#001B5E"/>
<ellipse cx="280.634" cy="52.0472" rx="16.113" ry="17.015" fill="#0049FF"/>
<path d="M316.813 47.7071H312.632V46.0853C313.206 46.0684 313.755 46.0008 314.279 45.8826C314.82 45.7643 315.301 45.57 315.724 45.2997C316.163 45.0125 316.526 44.6493 316.813 44.2101C317.1 43.7539 317.286 43.1964 317.371 42.5375H319.271V60.707H316.813V47.7071Z" fill="white"/>
<defs>
<linearGradient id="paint0_linear_2313_143" x1="276.971" y1="2.76234e-06" x2="102.412" y2="481.189" gradientUnits="userSpaceOnUse">
<stop stop-color="#043DCA"/>
<stop offset="1" stop-color="#031B56"/>
</linearGradient>
</defs>
</svg>
