<svg width="75" height="48" viewBox="0 0 75 48" fill="none" xmlns="http://www.w3.org/2000/svg">
<path d="M61.6496 20.1882L74.2179 11.7451C74.2179 -8.6864 54.2758 6.67662 33.8429 6.67662C13.4099 6.67662 1.10642 -9.54404 0.270426 10.1438H0.232422L3.75085 47.9779H66.3297C66.3297 30.1085 61.5531 15.1974 44.7084 11.7397L61.6496 20.1882Z" fill="#FF4900"/>
<path d="M13.0273 21.7607H31.0229V26.9446C31.0229 31.9113 26.9895 35.939 22.0278 35.939C17.0607 35.939 13.0328 31.9059 13.0328 26.9446V21.7607H13.0273Z" fill="#F9F2EC"/>
<path d="M15.6988 21.7607H27.1801V24.9036C27.1801 28.0302 24.6396 30.5706 21.5127 30.5706H21.3607C18.2339 30.5706 15.6934 28.0302 15.6934 24.9036V21.7607H15.6988Z" fill="#333333"/>
<path d="M11.5352 21.7603H31.865" stroke="#322E23" stroke-width="1.06454" stroke-linecap="round" stroke-linejoin="round"/>
<path d="M37.8516 21.7603H55.8472V26.9441C55.8472 31.9109 51.8138 35.9385 46.8521 35.9385C41.885 35.9385 37.857 31.9054 37.857 26.9441V21.7603H37.8516Z" fill="#F9F2EC"/>
<path d="M40.5171 21.7603H51.9985V24.9031C51.9985 28.0298 49.4579 30.5701 46.3311 30.5701H46.1791C43.0523 30.5701 40.5117 28.0298 40.5117 24.9031V21.7603H40.5171Z" fill="#333333"/>
<path d="M36.3594 21.7603H56.6838" stroke="#322E23" stroke-width="1.06454" stroke-linecap="round" stroke-linejoin="round"/>
<path d="M28.9766 41.715C29.2534 41.4056 31.1914 39.2832 34.3617 39.3374C37.4831 39.3863 39.3396 41.4924 39.6111 41.8181" stroke="#322E23" stroke-width="1.06454" stroke-linecap="round" stroke-linejoin="round"/>
</svg>
