<svg width="348" height="202" viewBox="0 0 348 202" fill="none" xmlns="http://www.w3.org/2000/svg">
<g filter="url(#filter0_d_5097_5484)">
<rect x="4" y="100.296" width="340" height="93" rx="20" fill="url(#paint0_linear_5097_5484)"/>
</g>
<rect x="228" y="100.296" width="35" height="93" fill="url(#paint1_linear_5097_5484)"/>
<rect x="84" y="100.296" width="35" height="93" fill="url(#paint2_linear_5097_5484)"/>
<path d="M95.0039 3.29582C142.775 -16.9303 171.283 60.9696 174.116 99.9696C61.1163 102.47 39.5005 26.7958 95.0039 3.29582ZM156.959 85.2597C155.288 62.2565 138.473 16.3104 110.297 28.2402C77.5603 42.1011 90.3098 86.7341 156.959 85.2597Z" fill="url(#paint3_linear_5097_5484)"/>
<path d="M228.526 28.7336C193.186 13.7707 172.097 71.3999 170.001 100.251C253.595 102.1 269.586 46.1184 228.526 28.7336ZM182.692 89.3693C183.928 72.3522 196.368 38.3613 217.213 47.1867C241.43 57.4407 231.998 90.4602 182.692 89.3693Z" fill="url(#paint4_linear_5097_5484)"/>
<defs>
<filter id="filter0_d_5097_5484" x="0" y="100.296" width="348" height="101" filterUnits="userSpaceOnUse" color-interpolation-filters="sRGB">
<feFlood flood-opacity="0" result="BackgroundImageFix"/>
<feColorMatrix in="SourceAlpha" type="matrix" values="0 0 0 0 0 0 0 0 0 0 0 0 0 0 0 0 0 0 127 0" result="hardAlpha"/>
<feOffset dy="4"/>
<feGaussianBlur stdDeviation="2"/>
<feComposite in2="hardAlpha" operator="out"/>
<feColorMatrix type="matrix" values="0 0 0 0 0 0 0 0 0 0 0 0 0 0 0 0 0 0 0.25 0"/>
<feBlend mode="normal" in2="BackgroundImageFix" result="effect1_dropShadow_5097_5484"/>
<feBlend mode="normal" in="SourceGraphic" in2="effect1_dropShadow_5097_5484" result="shape"/>
</filter>
<linearGradient id="paint0_linear_5097_5484" x1="174" y1="100.296" x2="174" y2="241.796" gradientUnits="userSpaceOnUse">
<stop stop-color="#FF4900"/>
<stop offset="1" stop-color="#992C00"/>
</linearGradient>
<linearGradient id="paint1_linear_5097_5484" x1="245.5" y1="100.296" x2="245.569" y2="204.27" gradientUnits="userSpaceOnUse">
<stop stop-color="#0049FF"/>
<stop offset="1" stop-color="#002C99"/>
</linearGradient>
<linearGradient id="paint2_linear_5097_5484" x1="101.5" y1="100.296" x2="101.569" y2="204.27" gradientUnits="userSpaceOnUse">
<stop stop-color="#0049FF"/>
<stop offset="1" stop-color="#002C99"/>
</linearGradient>
<linearGradient id="paint3_linear_5097_5484" x1="85" y1="9.79589" x2="170" y2="100.296" gradientUnits="userSpaceOnUse">
<stop stop-color="#0049FF"/>
<stop offset="1" stop-color="#002C99"/>
</linearGradient>
<linearGradient id="paint4_linear_5097_5484" x1="239" y1="36.2955" x2="172.499" y2="97.7953" gradientUnits="userSpaceOnUse">
<stop stop-color="#0049FF"/>
<stop offset="1" stop-color="#002C99"/>
</linearGradient>
</defs>
</svg>
