<svg width="502" height="451" viewBox="0 0 502 451" fill="none" xmlns="http://www.w3.org/2000/svg">
<g filter="url(#filter0_d_2269_1687)">
<path d="M494.07 79.9947C497.758 170.582 464.138 248.776 403.625 278.457C390.793 284.757 372.45 290.976 347.932 291.623" stroke="#010101" stroke-width="39.8307" stroke-linecap="round" stroke-linejoin="round"/>
<path d="M302.249 341.064C276.377 336.191 261.123 301.872 268.179 264.41C275.235 226.948 301.928 200.529 327.8 205.402C353.672 210.275 368.926 244.594 361.87 282.056C354.814 319.518 328.121 345.936 302.249 341.064Z" fill="#F24103"/>
<path d="M330.689 261.689C326.626 287.075 320.41 325.888 286.512 350.622C283.726 352.65 239.429 384.018 200.781 365.31C165.233 348.109 160.222 301.027 157.179 272.412C154.856 250.564 147.947 186.033 191.613 149.966C197.943 144.732 224.198 124.517 260.225 127.918C266.876 128.544 287.383 130.743 304.999 145.205C344.171 177.343 333.939 241.289 330.665 261.696L330.689 261.689Z" fill="#FF4900"/>
<path d="M227.496 316.763C232.813 339.711 222.901 359.608 221.827 361.684C212.313 380.129 196.513 388.696 190.099 391.659C153.786 408.406 106.571 389.019 83.9042 359.329C72.7257 344.689 69.8819 330.628 69.2477 327.158C68.478 322.957 62.7784 288.907 84.8767 268.377C100.252 254.078 120.471 254.354 132.236 254.507C169.551 255.006 218.281 276.992 227.493 316.774L227.496 316.763Z" fill="#D32F1E"/>
<path d="M184.438 257.571C203.087 264.855 220.064 273.453 234.979 286.768C239.917 291.037 244.562 295.718 249.632 300.684C243.597 272.77 212.477 252.266 184.438 257.571Z" fill="#F24103"/>
<path d="M189.336 264.362C209.106 261.214 228.103 260.052 247.696 264.016C254.105 265.2 260.486 266.892 267.375 268.611C248.069 247.575 210.848 245.613 189.325 264.36L189.336 264.362Z" fill="#F24103"/>
<path d="M202.645 262.003C208.048 285.343 197.969 305.584 196.89 307.683C187.215 326.44 171.136 335.159 164.623 338.16C127.687 355.189 79.6673 335.48 56.6191 305.273C45.2489 290.38 42.3584 276.083 41.7126 272.554C40.9333 268.282 35.137 233.656 57.6112 212.763C73.2475 198.229 93.8095 198.501 105.778 198.659C143.73 199.163 193.291 221.522 202.658 261.994L202.645 262.003Z" fill="#DD3217"/>
<path d="M206.027 242.414C202.407 255.463 193.599 263.205 190.936 265.483C161.685 290.535 112.587 270.2 104.712 266.94C99.1625 264.641 68.5241 251.441 49.3466 218.59C41.8427 205.737 33.4364 191.323 36.9675 173.301C42.164 146.738 68.8266 135.067 70.9315 134.176C90.0604 126.145 107.945 131.131 118.925 134.361C168.998 149.102 217.148 202.303 206.016 242.412L206.027 242.414Z" fill="#E83E0A"/>
<path d="M146.477 179.375C118.385 183.69 86.9646 167.87 76.8076 140.547C70.3241 123.123 73.0579 102.557 83.8623 87.4203C107.594 54.1622 160.506 58.305 193.761 72.6132" fill="#F24103"/>
<path d="M244.619 132.557C248.085 167.576 237.67 232.797 194.092 239.175C176.503 241.753 158.603 231.579 148.832 216.726C139.061 201.873 136.519 183.186 138.279 165.491C140.753 140.558 148.68 104.767 165.07 85.0192C188.342 56.9845 234.435 59.1592 264.067 74.7335C295.183 91.0884 313.841 122.52 315.413 157.251C316.557 182.512 312.913 210.21 303.907 233.889" fill="#FF4900"/>
<path d="M250.999 164.752C250.005 170.091 249.213 175.263 247.769 180.267C246.384 185.259 244.829 190.128 242.722 194.722L241.984 196.463L241.131 198.149C240.546 199.258 240.067 200.409 239.442 201.488C238.817 202.567 238.173 203.631 237.581 204.716C236.978 205.799 236.223 206.784 235.558 207.833L234.539 209.373L233.42 210.837L232.312 212.303C231.955 212.806 231.569 213.28 231.155 213.726L228.764 216.501L226.181 219.08C225.361 219.985 224.392 220.714 223.488 221.523L222.111 222.723C221.641 223.101 221.133 223.439 220.654 223.804L219.206 224.899C218.727 225.264 218.246 225.641 217.722 225.941C216.701 226.581 215.661 227.205 214.656 227.882C212.527 229.019 210.395 230.179 208.143 231.122C207.033 231.631 205.862 231.98 204.727 232.439C203.563 232.812 202.393 233.218 201.204 233.541C191.663 236.222 181.28 236.534 170.553 235.471C180.07 240.602 191.446 242.756 202.749 241.307C208.415 240.631 213.946 238.79 219.143 236.304C220.409 235.631 221.662 234.91 222.923 234.202C223.567 233.867 224.158 233.455 224.746 233.053L226.525 231.838C227.115 231.425 227.714 231.025 228.278 230.573L229.93 229.186C231.019 228.241 232.174 227.375 233.157 226.33C237.342 222.378 240.767 217.747 243.635 212.864C246.536 207.986 248.658 202.711 250.159 197.342C253.199 186.588 253.465 175.255 250.988 164.75L250.999 164.752Z" fill="#F24103"/>
</g>
<defs>
<filter id="filter0_d_2269_1687" x="16.1367" y="48.0791" width="518.119" height="377.771" filterUnits="userSpaceOnUse" color-interpolation-filters="sRGB">
<feFlood flood-opacity="0" result="BackgroundImageFix"/>
<feColorMatrix in="SourceAlpha" type="matrix" values="0 0 0 0 0 0 0 0 0 0 0 0 0 0 0 0 0 0 127 0" result="hardAlpha"/>
<feOffset dy="8"/>
<feGaussianBlur stdDeviation="10"/>
<feComposite in2="hardAlpha" operator="out"/>
<feColorMatrix type="matrix" values="0 0 0 0 0 0 0 0 0 0 0 0 0 0 0 0 0 0 0.35 0"/>
<feBlend mode="normal" in2="BackgroundImageFix" result="effect1_dropShadow_2269_1687"/>
<feBlend mode="normal" in="SourceGraphic" in2="effect1_dropShadow_2269_1687" result="shape"/>
</filter>
</defs>
</svg>
