<svg width="198" height="370" viewBox="0 0 198 370" fill="none" xmlns="http://www.w3.org/2000/svg">
<g filter="url(#filter0_d_2782_478)">
<path d="M101.507 247.312C101.06 249.437 91.5711 298.368 122.957 323.838C131.699 330.934 141.266 334.306 149.183 335.921" stroke="#010101" stroke-width="32.3072" stroke-miterlimit="10" stroke-linecap="round"/>
<path d="M161.761 191.649C155.666 212.107 139.859 222.399 134.177 225.973C111.091 240.507 72.3302 245.411 50.2924 222.722C34.1905 206.147 35.4381 183.511 35.6548 180.423C37.9646 147.697 69.413 120.98 101.396 119.245C108.159 118.879 135.547 118.512 152.667 140.457C169.926 162.579 162.513 189.105 161.755 191.649L161.761 191.649Z" fill="#FF4900"/>
<path d="M54.1725 129.454C52.6899 128.355 41.0189 119.705 31.2259 124.377C22.2972 128.636 21.1081 141.023 20.6545 145.769C19.2937 160.002 26.3384 173.161 35.6548 180.423C38.3389 182.515 42.5342 185.691 48.6976 186.22C54.3078 186.702 60.4347 184.897 64.1526 181.54C75.3292 171.468 70.9685 141.896 54.1725 129.454Z" fill="#E83E0A"/>
<path d="M75.5992 111.813C74.7157 111.124 59.9438 99.8556 48.5568 105.828C40.2143 110.202 38.6648 121.229 37.7589 127.675C34.467 151.058 50.1243 167.926 53.7837 171.874C60.5623 179.181 65.0528 180.151 67.3554 180.363C75.6175 181.135 82.1061 174.702 83.0853 173.732C96.658 160.273 94.2312 126.394 75.6105 111.814L75.5992 111.813Z" fill="#F24103"/>
<path d="M77.2095 137.489C72.9258 128.277 52.3192 83.1744 50.8466 50.6129C50.5504 44.0542 50.8795 34.6956 56.4714 26.0292C57.891 23.8276 65.4851 12.0634 76.318 12.8587C77.2381 12.9275 82.3908 13.3923 86.1569 17.3926C90.0122 21.4846 90.3524 27.2866 90.1397 32.6066C89.5587 47.2565 93.5681 61.3238 96.7225 75.5266C99.6002 88.4598 105.518 107.695 119.064 131.943C105.111 133.789 91.1574 135.642 77.2039 137.489L77.2095 137.489Z" fill="#E83E0A"/>
<path d="M99.8183 256.919C121.797 257.214 139.779 245.148 139.983 229.968C140.187 214.789 122.535 202.244 100.557 201.949C78.5781 201.653 60.5957 213.72 60.3919 228.899C60.188 244.079 77.8398 256.624 99.8183 256.919Z" fill="#FF4900"/>
<path d="M105.219 132.05C113.233 111.33 118.149 82.7078 122.385 60.9929C126.232 41.2901 132.687 20.091 154.186 13.8929C159.314 12.4135 165.044 12.3774 169.792 14.8257C182.054 21.1496 176.156 34.4566 171.404 43.7219C167.638 51.068 164.321 58.6517 161.477 66.4057C152.925 89.7182 148.729 114.372 149.39 139.193C135.037 134.604 119.572 136.639 105.219 132.05Z" fill="#F24103"/>
<path d="M89.1079 215.462C80.2117 208.895 75.105 197.424 76.3389 186.331C77.5547 174.899 85.6504 164.922 96.1405 160.525C102.961 157.526 110.67 156.985 117.569 158.711C114.006 158.934 110.559 159.419 107.252 160.313C105.835 160.655 103.808 161.391 102.422 161.915C101.939 162.123 99.9777 163.018 99.5513 163.21C99.2266 163.403 98.2477 163.921 97.9005 164.114C77.9542 175.453 75.9307 197.791 89.108 215.456L89.1079 215.462Z" fill="#E83E0A"/>
<path d="M162.845 170.225C162.336 164.008 160.393 152.15 151.816 141.14C145.928 133.585 137.522 126.697 128.013 124.117C116.19 120.913 109.154 127.69 98.849 131.772C85.1412 137.205 67.7233 131.942 61.3901 139.428C55.8033 146.038 59.0541 162.322 69.4775 170.039C80.3765 178.107 97.85 175.867 108.238 163.056" fill="#FF4900"/>
</g>
<defs>
<filter id="filter0_d_2782_478" x="0.48584" y="0.820312" width="196.589" height="379.258" filterUnits="userSpaceOnUse" color-interpolation-filters="sRGB">
<feFlood flood-opacity="0" result="BackgroundImageFix"/>
<feColorMatrix in="SourceAlpha" type="matrix" values="0 0 0 0 0 0 0 0 0 0 0 0 0 0 0 0 0 0 127 0" result="hardAlpha"/>
<feOffset dy="8"/>
<feGaussianBlur stdDeviation="10"/>
<feComposite in2="hardAlpha" operator="out"/>
<feColorMatrix type="matrix" values="0 0 0 0 0 0 0 0 0 0 0 0 0 0 0 0 0 0 0.2 0"/>
<feBlend mode="normal" in2="BackgroundImageFix" result="effect1_dropShadow_2782_478"/>
<feBlend mode="normal" in="SourceGraphic" in2="effect1_dropShadow_2782_478" result="shape"/>
</filter>
</defs>
</svg>
