<svg width="553" height="335" viewBox="0 0 553 335" fill="none" xmlns="http://www.w3.org/2000/svg">
<g filter="url(#filter0_d_2259_893)">
<path d="M463.709 144.227C467.713 144.807 559.846 156.684 603.519 95.2997C615.687 78.2016 620.83 60.01 622.9 45.0928" stroke="#010101" stroke-width="32.3072" stroke-miterlimit="10" stroke-linecap="round"/>
<path d="M353.065 38.7195C391.837 47.6424 412.846 75.8303 420.164 85.9767C449.922 127.202 463.616 198.721 424.014 242.389C395.084 274.295 352.832 274.645 347.063 274.606C285.919 274.171 232.514 218.828 225.514 159.543C224.033 147.006 220.12 96.1076 258.919 61.6739C298.031 26.9609 348.245 37.6213 353.066 38.73L353.065 38.7195Z" fill="#FF4900"/>
<path d="M250.075 246.176C248.205 249.063 233.494 271.792 243.338 289.456C252.314 305.561 275.495 306.312 284.376 306.595C311.01 307.447 334.654 292.791 347.063 274.606C350.639 269.366 356.05 261.188 356.307 249.662C356.542 239.17 352.462 227.986 345.778 221.467C325.726 201.867 271.236 213.466 250.075 246.176Z" fill="#E83E0A"/>
<path d="M214.733 208.403C213.554 210.127 194.338 238.933 206.79 259.409C215.911 274.41 236.603 275.991 248.701 276.916C292.582 280.28 322.111 249.167 329.023 241.894C341.814 228.423 343.088 219.957 343.21 215.649C343.672 200.19 330.939 188.88 329.02 187.173C302.385 163.515 239.654 172.026 214.732 208.382L214.733 208.403Z" fill="#F24103"/>
<path d="M262.3 202.378C245.672 211.433 164.21 255.083 103.818 261.664C91.6536 262.989 74.2074 263.481 57.4279 254.102C53.1653 251.721 30.3874 238.984 30.5886 218.741C30.6081 217.021 30.8646 207.382 37.8611 199.905C45.0174 192.251 55.7693 190.934 65.6898 190.702C93.0076 190.054 118.7 180.937 144.746 173.394C168.463 166.515 203.542 153.239 247.046 125.181C252.127 150.917 257.219 176.652 262.301 202.389L262.3 202.378Z" fill="#E83E0A"/>
<path d="M481.776 146.234C479.732 105.319 455.167 73.2942 426.908 74.706C398.649 76.1177 377.398 110.431 379.442 151.347C381.486 192.262 406.051 224.286 434.31 222.875C462.569 221.463 483.82 187.15 481.776 146.234Z" fill="#FF4900"/>
<path d="M248.88 150.921C209.394 138.459 155.575 132.692 114.685 127.375C77.5834 122.544 37.3907 113.039 23.3254 73.781C19.9687 64.4172 19.2256 53.7632 23.2194 44.6437C33.5353 21.0906 58.9827 30.4894 76.7772 38.2356C90.8854 44.3736 105.383 49.6487 120.141 54.0251C164.512 67.181 210.864 72.0772 256.953 67.919C250.111 95.1576 255.722 123.682 248.88 150.921Z" fill="#F24103"/>
<path d="M405.931 171.047C394.766 188.369 374.031 199.221 353.253 198.235C331.846 197.322 312.332 183.441 302.917 164.448C296.533 152.114 294.618 137.839 297.014 124.803C297.85 131.404 299.159 137.76 301.211 143.804C302.015 146.4 303.623 150.084 304.761 152.599C305.205 153.473 307.1 157.016 307.508 157.787C307.906 158.368 308.985 160.127 309.385 160.751C332.828 196.514 374.616 197.642 405.92 171.047L405.931 171.047Z" fill="#E83E0A"/>
<path d="M313.088 39.2297C301.585 40.9115 279.757 45.9242 260.291 63.176C246.933 75.0196 235.113 91.4677 231.436 109.46C226.871 131.829 240.306 144.116 249.115 162.802C260.837 187.658 253.103 220.677 267.776 231.574C280.729 241.186 310.633 233.218 323.758 212.919C337.48 191.695 331.252 159.458 306.196 141.647" fill="#FF4900"/>
</g>
<defs>
<filter id="filter0_d_2259_893" x="0.506836" y="16.9373" width="658.549" height="317.694" filterUnits="userSpaceOnUse" color-interpolation-filters="sRGB">
<feFlood flood-opacity="0" result="BackgroundImageFix"/>
<feColorMatrix in="SourceAlpha" type="matrix" values="0 0 0 0 0 0 0 0 0 0 0 0 0 0 0 0 0 0 127 0" result="hardAlpha"/>
<feOffset dy="8"/>
<feGaussianBlur stdDeviation="10"/>
<feComposite in2="hardAlpha" operator="out"/>
<feColorMatrix type="matrix" values="0 0 0 0 0 0 0 0 0 0 0 0 0 0 0 0 0 0 0.35 0"/>
<feBlend mode="normal" in2="BackgroundImageFix" result="effect1_dropShadow_2259_893"/>
<feBlend mode="normal" in="SourceGraphic" in2="effect1_dropShadow_2259_893" result="shape"/>
</filter>
</defs>
</svg>
