<svg width="302" height="298" viewBox="0 0 302 298" fill="none" xmlns="http://www.w3.org/2000/svg">
<g filter="url(#filter0_d_2780_222)">
<path d="M141.378 224.999C140.506 226.699 121.1 266.046 141.844 294.952C147.621 303.005 154.962 308.087 161.31 311.294" stroke="#010101" stroke-width="32.3072" stroke-linecap="round" stroke-linejoin="round"/>
<path d="M138.137 231.3C156.731 236.648 174.798 230.573 178.492 217.731C182.185 204.889 170.106 190.143 151.513 184.796C132.919 179.448 114.851 185.523 111.158 198.365C107.464 211.207 119.543 225.952 138.137 231.3Z" fill="#F24103"/>
<path d="M254.373 199.875C245.696 189.633 231.76 196.254 215.143 188.286C211.482 186.53 207.03 183.748 202.445 179.071C203.035 173.259 204.404 164.757 207.899 155.123C209.309 151.228 213.064 141.647 232.491 112.387C243.365 96.0106 249.936 87.3436 246.938 78.89C245.238 74.0955 241.029 70.9908 240.858 70.8641C234.117 66.0013 225.781 67.9404 224.874 68.1609C214.05 70.8381 211.359 83.5759 200.961 101.575C197.016 108.399 191.091 117.5 182.376 127.543C181.324 116.393 181.262 101.891 184.899 85.6634C190.759 59.4974 202.645 44.8351 195.877 36.4664C191.019 30.4531 179.167 30.9255 171.611 34.4549C161.18 39.3257 157.723 50.5907 154.462 61.2084C148.975 79.0777 153.481 87.1992 147.272 109.109C146.405 112.177 145.504 114.898 144.678 117.192C144.202 117.101 143.725 117.016 143.25 116.941C142.001 109.823 140.118 99.1496 138.958 92.5492C136.17 76.7297 136.198 76.9552 136.161 76.6908C132.454 48.7721 143.445 34.1266 136.336 27.7193C131.655 23.5009 122.112 25.5533 116.443 28.9064C98.3167 39.6264 102.423 73.9112 102.846 77.1534C103.948 85.5381 105.676 87.9341 108.721 106.405C109.973 114.015 110.784 120.391 111.294 124.843C111.289 124.841 111.277 124.848 111.272 124.847C108.751 122.15 105.483 118.328 102.165 113.456C92.0722 98.6354 86.3081 81.0906 85.5165 78.6429C81.7702 67.0189 81.7344 62.1235 76.8813 59.4753C72.1183 56.8738 65.4941 57.9545 61.2919 61.1755C55.3174 65.755 55.3727 73.911 55.4163 80.2007C55.4562 86.2513 56.8237 90.5827 58.5611 95.9313C62.2057 107.153 67.8469 114.924 72.9054 121.968C76.6167 127.128 80.2032 131.41 83.2808 134.815L83.9691 134.635C84.1709 135.247 84.389 135.874 84.6236 136.516C82.9329 140.739 81.0008 147.06 80.7391 154.861C80.283 168.754 85.4165 178.955 88.3025 184.52C92.207 192.05 97.1417 201.558 107.947 207.838C123.422 216.827 139.964 212.803 144.385 211.575C161.121 226.003 182.838 222.842 186.662 222.286C193.218 221.335 198.558 219.358 202.386 217.581C207.596 222.029 215.631 227.089 226.155 228.066C237.446 229.114 255.168 225.792 258.364 215.218C259.921 210.077 257.821 203.956 254.372 199.88L254.373 199.875ZM133.483 197.624L131.636 195.266C131.988 195.517 132.341 195.764 132.693 196.015C132.941 196.542 133.204 197.083 133.483 197.624Z" fill="#FF4900"/>
<path d="M172.259 151.723C157.484 145.932 142.104 142.388 126.242 142.664C120.927 142.698 115.671 143.142 110.336 143.663C130.003 134.586 155.566 137.938 172.261 151.718L172.259 151.723Z" fill="#E83E0A"/>
</g>
<defs>
<filter id="filter0_d_2780_222" x="35.4086" y="13.3491" width="243.478" height="342.102" filterUnits="userSpaceOnUse" color-interpolation-filters="sRGB">
<feFlood flood-opacity="0" result="BackgroundImageFix"/>
<feColorMatrix in="SourceAlpha" type="matrix" values="0 0 0 0 0 0 0 0 0 0 0 0 0 0 0 0 0 0 127 0" result="hardAlpha"/>
<feOffset dy="8"/>
<feGaussianBlur stdDeviation="10"/>
<feComposite in2="hardAlpha" operator="out"/>
<feColorMatrix type="matrix" values="0 0 0 0 0 0 0 0 0 0 0 0 0 0 0 0 0 0 0.2 0"/>
<feBlend mode="normal" in2="BackgroundImageFix" result="effect1_dropShadow_2780_222"/>
<feBlend mode="normal" in="SourceGraphic" in2="effect1_dropShadow_2780_222" result="shape"/>
</filter>
</defs>
</svg>
