<svg width="82" height="53" viewBox="0 0 82 53" fill="none" xmlns="http://www.w3.org/2000/svg">
<path d="M29.4617 10.7719C38.1837 -5.38867 67.5301 -2.46415 68.9666 21.5463C89.4878 25.3947 83.5879 53.0979 66.4012 52.3285H12.7879C-1.57725 49.7634 -6.04111 30.1655 10.992 21.5463C8.72168 10.7724 22.8305 5.01641 29.4617 10.7719ZM40.5906 23.5151L34.6912 29.1586C34.282 29.5504 34.2674 30.1994 34.659 30.6088C35.0506 31.018 35.6997 31.0324 36.1092 30.641L40.2742 26.6567V37.3393C40.2747 37.9056 40.7342 38.3647 41.3006 38.3647C41.8669 38.3645 42.3255 37.9055 42.326 37.3393V26.8158L45.9451 30.6078L46.0213 30.6801C46.4164 31.0179 47.011 31.0084 47.3953 30.642C47.7795 30.2753 47.8169 29.6815 47.4979 29.2709L47.4295 29.1908L42.0428 23.5483L41.3328 22.8051L40.5906 23.5151Z" fill="#0538B9"/>
</svg>
