<svg width="95" height="100" viewBox="0 0 95 100" fill="none" xmlns="http://www.w3.org/2000/svg">
<path d="M27.6615 47.1758C25.8837 47.1758 24.1787 47.882 22.9216 49.1391C21.6645 50.3962 20.9583 52.1012 20.9583 53.879C20.9583 55.6568 21.6645 57.3618 22.9216 58.6189C24.1787 59.876 25.8837 60.5822 27.6615 60.5822C29.4393 60.5822 31.1443 59.876 32.4014 58.6189C33.6585 57.3618 34.3648 55.6568 34.3648 53.879C34.3648 52.1012 33.6585 50.3962 32.4014 49.1391C31.1443 47.882 29.4393 47.1758 27.6615 47.1758ZM67.8809 47.1758C66.1031 47.1758 64.3981 47.882 63.141 49.1391C61.8839 50.3962 61.1776 52.1012 61.1776 53.879C61.1776 55.6568 61.8839 57.3618 63.141 58.6189C64.3981 59.876 66.1031 60.5822 67.8809 60.5822C69.6587 60.5822 71.3637 59.876 72.6208 58.6189C73.8779 57.3618 74.5841 55.6568 74.5841 53.879C74.5841 52.1012 73.8779 50.3962 72.6208 49.1391C71.3637 47.882 69.6587 47.1758 67.8809 47.1758ZM41.068 53.879C41.068 52.1012 41.7742 50.3962 43.0313 49.1391C44.2884 47.882 45.9934 47.1758 47.7712 47.1758C49.549 47.1758 51.254 47.882 52.5111 49.1391C53.7682 50.3962 54.4744 52.1012 54.4744 53.879C54.4744 55.6568 53.7682 57.3618 52.5111 58.6189C51.254 59.876 49.549 60.5822 47.7712 60.5822C45.9934 60.5822 44.2884 59.876 43.0313 58.6189C41.7742 57.3618 41.068 55.6568 41.068 53.879ZM27.6615 68.6261C25.8837 68.6261 24.1787 69.3323 22.9216 70.5894C21.6645 71.8465 20.9583 73.5515 20.9583 75.3293C20.9583 77.1071 21.6645 78.8121 22.9216 80.0692C24.1787 81.3263 25.8837 82.0325 27.6615 82.0325C29.4393 82.0325 31.1443 81.3263 32.4014 80.0692C33.6585 78.8121 34.3648 77.1071 34.3648 75.3293C34.3648 73.5515 33.6585 71.8465 32.4014 70.5894C31.1443 69.3323 29.4393 68.6261 27.6615 68.6261ZM41.068 75.3293C41.068 73.5515 41.7742 71.8465 43.0313 70.5894C44.2884 69.3323 45.9934 68.6261 47.7712 68.6261C49.549 68.6261 51.254 69.3323 52.5111 70.5894C53.7682 71.8465 54.4744 73.5515 54.4744 75.3293C54.4744 77.1071 53.7682 78.8121 52.5111 80.0692C51.254 81.3263 49.549 82.0325 47.7712 82.0325C45.9934 82.0325 44.2884 81.3263 43.0313 80.0692C41.7742 78.8121 41.068 77.1071 41.068 75.3293Z" fill="#BACEFF"/>
<path d="M39.0141 0.253418H56.5283C62.3842 0.253418 67.0282 0.253418 70.7659 0.559084C74.5948 0.870114 77.8284 1.52435 80.7886 3.02587C85.5808 5.47037 89.476 9.36937 91.9159 14.1639C93.4228 17.1134 94.077 20.3524 94.3881 24.1812C94.6937 27.9189 94.6937 32.5629 94.6937 38.4189V61.2956C94.6937 67.1516 94.6937 71.7955 94.3881 75.5333C94.077 79.3621 93.4228 82.5958 91.9213 85.5559C89.4782 90.3473 85.5811 94.2425 80.7886 96.6833C77.8284 98.1902 74.5948 98.8444 70.7659 99.1554C67.0282 99.4611 62.3842 99.4611 56.5283 99.4611H39.0141C33.1582 99.4611 28.5142 99.4611 24.7764 99.1554C20.9476 98.8444 17.7139 98.1902 14.7592 96.6886C9.96576 94.2464 6.06864 90.3493 3.62645 85.5559C2.11956 82.5958 1.46533 79.3621 1.1543 75.5333C0.848632 71.7955 0.848633 67.1516 0.848633 61.2956V38.4189C0.848633 32.5629 0.848632 27.9189 1.1543 24.1812C1.46533 20.3524 2.11956 17.1187 3.62108 14.1639C6.06468 9.36973 9.96376 5.47251 14.7592 3.03123C17.7086 1.52435 20.9476 0.870114 24.7764 0.559084C28.5142 0.253418 33.1582 0.253418 39.0141 0.253418ZM8.8925 36.4508V61.1187C8.8925 67.1945 8.8925 71.506 9.17135 74.879C9.43948 78.2038 9.95965 80.2684 10.7908 81.904C12.4616 85.1825 15.1272 87.8481 18.4057 89.5189C20.0413 90.3501 22.1059 90.8649 25.4307 91.1384C28.8091 91.4119 33.1206 91.4172 39.1911 91.4172H56.3513C62.4271 91.4172 66.7386 91.4172 70.1117 91.1384C73.4365 90.8702 75.5011 90.3501 77.1366 89.5189C80.4152 87.8481 83.0807 85.1825 84.7515 81.904C85.5827 80.2684 86.0975 78.2038 86.371 74.879C86.6445 71.5006 86.6499 67.1891 86.6499 61.1187V36.4508H8.8925ZM34.3647 16.3411C32.9425 16.3411 31.5785 16.9061 30.5728 17.9118C29.5671 18.9175 29.0022 20.2815 29.0022 21.7037C29.0022 23.126 29.5671 24.49 30.5728 25.4956C31.5785 26.5013 32.9425 27.0663 34.3647 27.0663H61.1776C62.5999 27.0663 63.9639 26.5013 64.9695 25.4956C65.9752 24.49 66.5402 23.126 66.5402 21.7037C66.5402 20.2815 65.9752 18.9175 64.9695 17.9118C63.9639 16.9061 62.5999 16.3411 61.1776 16.3411H34.3647Z" fill="#0538B9"/>
</svg>
