<svg width="20" height="13" viewBox="0 0 20 13" fill="none" xmlns="http://www.w3.org/2000/svg">
<path id="Vector" d="M0.568621 1.22868C0.848223 0.949167 1.22739 0.792143 1.62275 0.792143C2.01811 0.792143 2.39728 0.949167 2.67688 1.22868L10.0573 8.60908L17.4377 1.22868C17.7189 0.957089 18.0955 0.806806 18.4864 0.810203C18.8774 0.8136 19.2513 0.970406 19.5278 1.24685C19.8042 1.52329 19.961 1.89725 19.9644 2.28818C19.9678 2.67911 19.8175 3.05574 19.5459 3.33694L11.1114 11.7715C10.8318 12.051 10.4526 12.208 10.0573 12.208C9.66192 12.208 9.28275 12.051 9.00315 11.7715L0.568621 3.33694C0.289104 3.05734 0.13208 2.67817 0.13208 2.28281C0.13208 1.88746 0.289104 1.50829 0.568621 1.22868Z" fill="#002787"/>
</svg>
