<svg width="21" height="12" viewBox="0 0 21 12" fill="none" xmlns="http://www.w3.org/2000/svg">
<path d="M19.9797 11.5399C19.7001 11.8194 19.3209 11.9764 18.9256 11.9764C18.5302 11.9764 18.1511 11.8194 17.8715 11.5399L10.4911 4.15948L3.11067 11.5399C2.82947 11.8115 2.45284 11.9617 2.0619 11.9584C1.67097 11.955 1.29701 11.7981 1.02057 11.5217C0.744131 11.2453 0.587326 10.8713 0.583929 10.4804C0.580532 10.0894 0.730816 9.71282 1.00241 9.43161L9.43694 0.997088C9.71654 0.717571 10.0957 0.560547 10.4911 0.560547C10.8864 0.560547 11.2656 0.717571 11.5452 0.997088L19.9797 9.43161C20.2592 9.71121 20.4163 10.0904 20.4163 10.4857C20.4163 10.8811 20.2592 11.2603 19.9797 11.5399Z" fill="#002787"/>
</svg>
