<svg width="104" height="102" viewBox="0 0 104 102" fill="none" xmlns="http://www.w3.org/2000/svg">
<path d="M102.47 0.621845L62.2943 0.621845V0.814068L18.8659 0.814068C8.6705 0.814068 0.41217 9.07981 0.41217 19.2678L0.41217 22.7575C0.41217 32.9528 8.6779 41.2112 18.8659 41.2112H32.1961L7.71678 64.4558C3.28078 67.8271 0.41217 73.1577 0.41217 79.1611L0.41217 82.6508C0.41217 91.7519 6.99961 99.3079 15.672 100.824L15.7311 101.104H102.47L103.445 0.607056H102.47V0.621845Z" fill="#FF4900"/>
<path d="M38.6144 79.5234C44.976 79.5234 50.1332 73.9756 50.1332 67.1322C50.1332 60.2887 44.976 54.741 38.6144 54.741C32.2527 54.741 27.0956 60.2887 27.0956 67.1322C27.0956 73.9756 32.2527 79.5234 38.6144 79.5234Z" fill="#F7F5E9"/>
<path d="M35.9598 78.3331C40.8597 78.3331 44.8318 73.9174 44.8318 68.4704C44.8318 63.0233 40.8597 58.6077 35.9598 58.6077C31.06 58.6077 27.0878 63.0233 27.0878 68.4704C27.0878 73.9174 31.06 78.3331 35.9598 78.3331Z" fill="#322E23"/>
<path d="M66.9961 78.3262C73.3578 78.3262 78.5149 72.7785 78.5149 65.935C78.5149 59.0916 73.3578 53.5438 66.9961 53.5438C60.6344 53.5438 55.4773 59.0916 55.4773 65.935C55.4773 72.7785 60.6344 78.3262 66.9961 78.3262Z" fill="#F7F5E9"/>
<path d="M64.3498 77.1281C69.2497 77.1281 73.2218 72.7124 73.2218 67.2654C73.2218 61.8184 69.2497 57.4027 64.3498 57.4027C59.45 57.4027 55.4778 61.8184 55.4778 67.2654C55.4778 72.7124 59.45 77.1281 64.3498 77.1281Z" fill="#322E23"/>
<path d="M48.1219 83.6782C49.5118 85.7853 51.9812 86.9608 54.4875 86.7021C57.1861 86.4211 59.478 84.5284 60.2543 81.9186" stroke="#322E23" stroke-width="1.49324" stroke-linecap="round" stroke-linejoin="round"/>
<path d="M59.1602 80.3521C59.2268 80.596 59.4781 81.3575 60.2544 81.9268C60.9494 82.437 61.6666 82.4961 61.9327 82.5035" stroke="#322E23" stroke-width="1.49324" stroke-linecap="round" stroke-linejoin="round"/>
</svg>
