<svg width="314" height="314" viewBox="0 0 314 314" fill="none" xmlns="http://www.w3.org/2000/svg">
<path d="M247.256 1.91009L30.1311 31.5577C-24.134 58.0591 9.57411 115.833 43.1073 114.546L77.0086 109.917L45.4238 131.511C-9.42679 163.359 21.1961 212.996 56.896 215.528L79.497 212.442L58.4403 226.838C1.74129 259.597 40.5999 318.972 70.0228 311.663L290.377 281.574C326.24 264.827 316.515 208.057 276.924 201.119L241.409 205.969L274.497 183.347C316.962 157.14 297.663 106.121 261.045 102.892L236.023 106.308L259.39 90.774C305.758 59.4261 284.792 5.83685 247.256 1.91009Z" stroke="#A2A2A2" stroke-width="2.19327"/>
</svg>
