<svg width="72" height="91" viewBox="0 0 72 91" fill="none" xmlns="http://www.w3.org/2000/svg">
<g id="Group 81">
<path id="Vector" d="M40.7219 43.0561C40.7219 41.2286 41.4478 39.4761 42.74 38.1839C44.0322 36.8917 45.7847 36.1658 47.6121 36.1658C49.4396 36.1658 51.1921 36.8917 52.4843 38.1839C53.7765 39.4761 54.5024 41.2286 54.5024 43.0561C54.5024 44.8835 53.7765 46.636 52.4843 47.9282C51.1921 49.2204 49.4396 49.9463 47.6121 49.9463C45.7847 49.9463 44.0322 49.2204 42.74 47.9282C41.4478 46.636 40.7219 44.8835 40.7219 43.0561ZM32.1595 50.4195C31.8499 49.924 31.4192 49.5154 30.9082 49.2321C30.3971 48.9489 29.8224 48.8002 29.2381 48.8002C28.6537 48.8002 28.079 48.9489 27.568 49.2321C27.0569 49.5154 26.6263 49.924 26.3166 50.4195L14.8328 68.7936C14.5074 69.315 14.3275 69.914 14.3117 70.5284C14.2959 71.1428 14.4447 71.7503 14.7427 72.2878C15.0408 72.8254 15.4772 73.2734 16.0067 73.5854C16.5363 73.8974 17.1396 74.0621 17.7543 74.0623H54.5024C55.1422 74.0623 55.7694 73.8842 56.3137 73.5478C56.8579 73.2114 57.2977 72.7302 57.5839 72.1579C57.87 71.5856 57.9911 70.945 57.9337 70.3078C57.8762 69.6706 57.6424 69.0619 57.2585 68.5501L50.3683 59.3631C50.0474 58.9352 49.6312 58.5879 49.1529 58.3487C48.6745 58.1095 48.147 57.985 47.6121 57.985C47.0773 57.985 46.5498 58.1095 46.0714 58.3487C45.5931 58.5879 45.1769 58.9352 44.856 59.3631L40.9791 64.5308L32.1595 50.4195Z" fill="#E8E8E8"/>
<path id="Vector_2" fill-rule="evenodd" clip-rule="evenodd" d="M13.1607 0.565918C9.81048 0.565918 6.59744 1.89681 4.22844 4.2658C1.85945 6.63479 0.528564 9.84784 0.528564 13.1981V77.5074C0.528564 80.8577 1.85945 84.0707 4.22844 86.4397C6.59744 88.8087 9.81048 90.1396 13.1607 90.1396H59.096C62.4462 90.1396 65.6593 88.8087 68.0283 86.4397C70.3973 84.0707 71.7281 80.8577 71.7281 77.5074V26.8317C71.7281 25.0815 71.1585 23.3819 70.102 21.9855L56.3307 3.75841C55.5814 2.76675 54.6123 1.96235 53.4996 1.40841C52.387 0.854468 51.161 0.566086 49.9181 0.565918H13.1607ZM7.41885 13.1981C7.41885 10.0286 9.99122 7.4562 13.1607 7.4562H46.4638V27.6539C46.4638 29.5556 48.0072 31.0991 49.9089 31.0991H64.8379V77.5074C64.8379 80.6769 62.2655 83.2493 59.096 83.2493H13.1607C9.99122 83.2493 7.41885 80.6769 7.41885 77.5074V13.1981Z" fill="#E8E8E8"/>
</g>
</svg>
