<svg width="231" height="230" viewBox="0 0 231 230" fill="none" xmlns="http://www.w3.org/2000/svg">
<path d="M95.8781 118.269L19.9806 134.419C31.1609 186.962 82.8136 220.49 135.357 209.31C187.9 198.129 219.636 149.163 211.012 98.075L211.11 98.0542L190.407 0.756973L0.139788 41.2424C9.91808 87.1969 50.6589 118.611 95.8671 118.286L95.8781 118.269Z" fill="#0049FF"/>
<path d="M171.853 75.1821L125.577 85.0287L122.74 71.6975C120.023 58.9246 128.19 46.3597 140.949 43.6449C153.722 40.927 166.287 49.0949 169.002 61.8538L171.839 75.1851L171.853 75.1821Z" fill="#F9F2EC"/>
<path d="M164.985 76.6436L135.461 82.9258L133.741 74.8433C132.03 66.8026 137.173 58.8795 145.214 57.1686L145.605 57.0854C153.645 55.3745 161.568 60.5175 163.279 68.5581L164.999 76.6406L164.985 76.6436Z" fill="#333333"/>
<path d="M175.69 74.3662L123.412 85.4901" stroke="#322E23" stroke-width="2.81923" stroke-linecap="round" stroke-linejoin="round"/>
<path d="M108.017 88.7661L61.741 98.6127L58.9044 85.2815C56.1865 72.5086 64.3544 59.9437 77.1133 57.2289C89.8862 54.511 102.451 62.6789 105.166 75.4378L108.003 88.7691L108.017 88.7661Z" fill="#F9F2EC"/>
<path d="M101.162 90.2242L71.6376 96.5064L69.9178 88.4239C68.2069 80.3832 73.3498 72.4601 81.3905 70.7492L81.7813 70.666C89.822 68.9551 97.7451 74.098 99.456 82.1387L101.176 90.2212L101.162 90.2242Z" fill="#333333"/>
<path d="M111.854 87.9487L59.5903 99.0696" stroke="#322E23" stroke-width="2.81923" stroke-linecap="round" stroke-linejoin="round"/>
<path d="M119.92 32.5941C119.377 33.5412 115.555 40.0598 107.373 41.6549C99.32 43.2372 93.3933 38.8368 92.5172 38.1477" stroke="#322E23" stroke-width="2.81923" stroke-linecap="round" stroke-linejoin="round"/>
</svg>
