<svg width="154" height="146" viewBox="0 0 154 146" fill="none" xmlns="http://www.w3.org/2000/svg">
<path d="M0.862793 33.0125L0.862793 41.1357C0.862793 56.5086 11.3662 69.4249 25.5817 73.1044H5.31744L5.31744 145.995H120.505C138.586 145.995 153.238 131.342 153.238 113.262V105.837C153.238 90.6063 142.844 77.8101 128.759 74.1525H148.783V0.00666809H33.8796C15.6461 0.00666809 0.862793 14.79 0.862793 33.0235V33.0125Z" fill="#FF4900"/>
<path d="M81.1453 47.1952C81.1453 38.3975 73.4756 31.2655 64.0145 31.2655C54.5535 31.2655 46.8838 38.3975 46.8838 47.1952C46.8838 55.993 54.5535 63.125 64.0145 63.125C73.4756 63.125 81.1453 55.993 81.1453 47.1952Z" fill="#F7F5E9"/>
<path d="M79.4965 43.5259C79.4965 36.7542 73.391 31.2647 65.8596 31.2647C58.3281 31.2647 52.2227 36.7542 52.2227 43.5259C52.2227 50.2975 58.3281 55.7871 65.8596 55.7871C73.391 55.7871 79.4965 50.2975 79.4965 43.5259Z" fill="#322E23"/>
<path d="M79.4861 86.435C79.4861 77.6372 71.8164 70.5053 62.3554 70.5053C52.8943 70.5053 45.2246 77.6372 45.2246 86.435C45.2246 95.2327 52.8943 102.365 62.3554 102.365C71.8164 102.365 79.4861 95.2327 79.4861 86.435Z" fill="#F7F5E9"/>
<path d="M77.8373 82.7661C77.8373 75.9944 71.7318 70.5049 64.2004 70.5049C56.6689 70.5049 50.5635 75.9944 50.5635 82.7661C50.5635 89.5378 56.6689 95.0273 64.2004 95.0273C71.7318 95.0273 77.8373 89.5378 77.8373 82.7661Z" fill="#322E23"/>
<path d="M87.1273 93.6089C93.7219 90.4426 98.0565 83.8261 98.2858 76.5437C98.5478 68.6934 94.0058 61.3891 86.8325 58.1464" stroke="#322E23" stroke-width="1.92483" stroke-linecap="round" stroke-linejoin="round"/>
<path d="M92.6958 90.3775C98.0676 93.249 103.559 92.6157 105.23 90.1919C107.108 87.4732 105.328 80.9114 98.679 77.1227C98.2969 79.2081 97.5763 81.9486 96.1241 84.9293C95.0214 87.1894 93.7985 89.0018 92.6958 90.3885V90.3775Z" fill="#322E23"/>
</svg>
