<svg width="481" height="47" viewBox="0 0 481 47" fill="none" xmlns="http://www.w3.org/2000/svg">
<path d="M232.725 9.8773H255.018V14.2696H246.418V37.3384H241.288V14.2696H232.725V9.8773ZM265.977 37.3384C265.792 37.1169 265.645 36.8216 265.534 36.4156C265.423 36.0096 265.349 35.456 265.313 34.7916H265.239C264.574 35.6774 263.799 36.3787 262.84 36.9693C261.88 37.5598 260.588 37.8182 259.038 37.8182C258.078 37.8182 257.155 37.7075 256.343 37.4491C255.531 37.2276 254.83 36.8585 254.24 36.3418C253.649 35.862 253.169 35.2714 252.837 34.5332C252.468 33.795 252.32 32.9461 252.32 31.9864C252.32 30.8791 252.505 29.9933 252.911 29.2551C253.317 28.5169 253.87 27.9263 254.609 27.4834C255.31 27.0405 256.159 26.7083 257.155 26.4868C258.115 26.2654 259.222 26.0439 260.403 25.8963C262.028 25.7117 263.246 25.4533 264.058 25.0842C264.87 24.7151 265.276 24.0877 265.276 23.2018C265.276 22.3529 264.98 21.6516 264.39 21.1349C263.799 20.6181 262.913 20.3598 261.732 20.3598C260.403 20.3598 259.407 20.655 258.743 21.2087C258.078 21.7992 257.746 22.5744 257.709 23.534H253.28C253.28 22.722 253.464 21.91 253.833 21.1349C254.203 20.3598 254.719 19.6585 255.421 19.0679C256.122 18.4773 257.008 18.0344 258.041 17.6653C259.075 17.2962 260.293 17.1117 261.695 17.1117C262.803 17.1117 263.799 17.2224 264.685 17.37C265.571 17.5546 266.309 17.8499 266.973 18.2559C268.819 19.4001 269.779 21.2825 269.779 23.8662V34.2379C269.779 35.05 269.816 35.6774 269.963 36.1203C270.111 36.5633 270.295 36.8585 270.517 37.0062V37.3384H265.977ZM260.403 34.607C261.216 34.607 261.917 34.4963 262.544 34.2379C263.135 33.9796 263.652 33.6474 264.094 33.2414C264.5 32.8354 264.833 32.3555 265.054 31.8388C265.276 31.322 265.386 30.7684 265.386 30.1778V27.2619C264.907 27.5572 264.316 27.8156 263.652 28.037C262.95 28.2585 262.249 28.4061 261.548 28.5538C260.071 28.8491 258.964 29.1813 258.189 29.6242C257.377 30.0671 257.008 30.8053 257.008 31.8757C257.008 32.3924 257.082 32.8354 257.266 33.2045C257.451 33.5736 257.709 33.8319 258.004 34.0534C258.3 34.2748 258.669 34.4225 259.112 34.4963C259.518 34.5701 259.961 34.607 260.403 34.607ZM280.35 27.8894L278.025 30.2147V37.3384H273.374V9.8773H278.025V20.5074C278.025 21.4671 277.988 22.3529 277.951 23.2018C277.914 24.0877 277.877 24.789 277.877 25.3426L285.296 17.6284H290.869L283.635 24.8259L291.718 37.3384H286.256L280.35 27.8894ZM301.359 37.9289C299.772 37.9289 298.37 37.6706 297.115 37.1169C295.86 36.6002 294.826 35.862 293.977 34.9023C293.091 33.9796 292.427 32.8723 291.984 31.6173C291.541 30.3624 291.32 28.9967 291.32 27.5203C291.32 26.0439 291.541 24.6782 292.021 23.4233C292.464 22.1683 293.128 21.061 294.014 20.1014C294.863 19.1786 295.897 18.4404 297.115 17.9237C298.296 17.4069 299.624 17.1117 301.101 17.1117C302.54 17.1117 303.832 17.37 304.939 17.8499C306.047 18.3297 307.043 18.9941 307.892 19.8799C308.852 20.9134 309.553 22.2053 310.033 23.6817C310.476 25.1581 310.697 26.819 310.697 28.6645H295.97C296.118 30.3624 296.672 31.765 297.557 32.7984C298.443 33.8319 299.735 34.3487 301.396 34.3487C302.503 34.3487 303.426 34.1272 304.164 33.6843C304.903 33.2414 305.419 32.577 305.752 31.765H310.328C310.07 32.6508 309.701 33.4997 309.184 34.2379C308.667 34.9761 308.04 35.6405 307.302 36.1942C306.527 36.7478 305.641 37.1907 304.644 37.486C303.648 37.7813 302.54 37.9289 301.359 37.9289ZM301.101 20.5074C299.551 20.5074 298.37 20.9872 297.557 21.9469C296.745 22.9065 296.229 24.1615 296.044 25.7117H305.862C305.752 24.0877 305.272 22.8327 304.46 21.91C303.648 20.9872 302.503 20.5074 301.101 20.5074ZM334.609 37.3384C334.425 37.1169 334.277 36.8216 334.166 36.4156C334.056 36.0096 333.982 35.456 333.945 34.7916H333.871C333.207 35.6774 332.432 36.3787 331.472 36.9693C330.512 37.5598 329.221 37.8182 327.67 37.8182C326.711 37.8182 325.788 37.7075 324.976 37.4491C324.164 37.2276 323.463 36.8585 322.872 36.3418C322.281 35.862 321.802 35.2714 321.469 34.5332C321.1 33.795 320.953 32.9461 320.953 31.9864C320.953 30.8791 321.137 29.9933 321.543 29.2551C321.949 28.5169 322.503 27.9263 323.241 27.4834C323.942 27.0405 324.791 26.7083 325.788 26.4868C326.748 26.2654 327.855 26.0439 329.036 25.8963C330.66 25.7117 331.878 25.4533 332.69 25.0842C333.502 24.7151 333.908 24.0877 333.908 23.2018C333.908 22.3529 333.613 21.6516 333.022 21.1349C332.432 20.6181 331.546 20.3598 330.365 20.3598C329.036 20.3598 328.039 20.655 327.375 21.2087C326.711 21.7992 326.378 22.5744 326.342 23.534H321.912C321.912 22.722 322.097 21.91 322.466 21.1349C322.835 20.3598 323.352 19.6585 324.053 19.0679C324.754 18.4773 325.64 18.0344 326.674 17.6653C327.707 17.2962 328.925 17.1117 330.328 17.1117C331.435 17.1117 332.432 17.2224 333.318 17.37C334.203 17.5546 334.942 17.8499 335.606 18.2559C337.451 19.4001 338.411 21.2825 338.411 23.8662V34.2379C338.411 35.05 338.448 35.6774 338.596 36.1203C338.743 36.5633 338.928 36.8585 339.149 37.0062V37.3384H334.609ZM329.036 34.607C329.848 34.607 330.549 34.4963 331.177 34.2379C331.767 33.9796 332.284 33.6474 332.727 33.2414C333.133 32.8354 333.465 32.3555 333.687 31.8388C333.908 31.322 334.019 30.7684 334.019 30.1778V27.2619C333.539 27.5572 332.948 27.8156 332.284 28.037C331.583 28.2585 330.881 28.4061 330.18 28.5538C328.704 28.8491 327.596 29.1813 326.821 29.6242C326.009 30.0671 325.64 30.8053 325.64 31.8757C325.64 32.3924 325.714 32.8354 325.899 33.2045C326.083 33.5736 326.342 33.8319 326.637 34.0534C326.932 34.2748 327.301 34.4225 327.744 34.4963C328.15 34.5701 328.593 34.607 329.036 34.607ZM350.678 9.8773H355.402V37.3384H350.678V9.8773ZM368.065 37.9289C366.515 37.9289 365.149 37.6706 363.894 37.1169C362.639 36.6002 361.606 35.862 360.72 34.9023C359.834 33.9796 359.17 32.8723 358.69 31.6173C358.21 30.3624 357.988 28.9967 357.988 27.5203C357.988 26.0439 358.21 24.6782 358.69 23.4233C359.17 22.1683 359.834 21.061 360.72 20.1014C361.606 19.1786 362.639 18.4404 363.894 17.9237C365.149 17.4069 366.515 17.1117 368.065 17.1117C369.578 17.1117 370.944 17.4069 372.199 17.9237C373.417 18.4404 374.45 19.1786 375.336 20.1014C376.222 21.061 376.886 22.1683 377.366 23.4233C377.809 24.6782 378.068 26.0439 378.068 27.5203C378.068 28.9967 377.809 30.3624 377.366 31.6173C376.886 32.8723 376.222 33.9796 375.336 34.9023C374.45 35.862 373.417 36.6002 372.199 37.1169C370.944 37.6706 369.578 37.9289 368.065 37.9289ZM368.028 34.3856C368.877 34.3856 369.615 34.2379 370.28 33.8688C370.944 33.5366 371.498 33.0568 371.94 32.4293C372.383 31.8388 372.716 31.1006 372.937 30.2516C373.158 29.4396 373.306 28.5169 373.306 27.5203C373.306 26.5606 373.158 25.6379 372.937 24.789C372.716 23.94 372.383 23.2018 371.94 22.5744C371.498 21.9469 370.944 21.4671 370.28 21.098C369.615 20.7658 368.877 20.5812 368.028 20.5812C367.142 20.5812 366.404 20.7658 365.74 21.098C365.075 21.4671 364.522 21.9469 364.079 22.5744C363.636 23.2018 363.304 23.94 363.082 24.789C362.861 25.6379 362.75 26.5606 362.75 27.5203C362.75 28.5169 362.861 29.4396 363.082 30.2516C363.304 31.1006 363.636 31.8388 364.079 32.4293C364.522 33.0568 365.075 33.5366 365.74 33.8688C366.404 34.2379 367.142 34.3856 368.028 34.3856ZM389.711 37.9289C388.16 37.9289 386.795 37.6706 385.54 37.1169C384.285 36.6002 383.251 35.862 382.366 34.9023C381.48 33.9796 380.815 32.8723 380.335 31.6173C379.856 30.3624 379.634 28.9967 379.634 27.5203C379.634 26.0439 379.856 24.6782 380.335 23.4233C380.815 22.1683 381.48 21.061 382.366 20.1014C383.251 19.1786 384.285 18.4404 385.54 17.9237C386.795 17.4069 388.16 17.1117 389.711 17.1117C391.224 17.1117 392.59 17.4069 393.845 17.9237C395.063 18.4404 396.096 19.1786 396.982 20.1014C397.868 21.061 398.532 22.1683 399.012 23.4233C399.455 24.6782 399.713 26.0439 399.713 27.5203C399.713 28.9967 399.455 30.3624 399.012 31.6173C398.532 32.8723 397.868 33.9796 396.982 34.9023C396.096 35.862 395.063 36.6002 393.845 37.1169C392.59 37.6706 391.224 37.9289 389.711 37.9289ZM389.674 34.3856C390.523 34.3856 391.261 34.2379 391.925 33.8688C392.59 33.5366 393.143 33.0568 393.586 32.4293C394.029 31.8388 394.361 31.1006 394.583 30.2516C394.804 29.4396 394.952 28.5169 394.952 27.5203C394.952 26.5606 394.804 25.6379 394.583 24.789C394.361 23.94 394.029 23.2018 393.586 22.5744C393.143 21.9469 392.59 21.4671 391.925 21.098C391.261 20.7658 390.523 20.5812 389.674 20.5812C388.788 20.5812 388.05 20.7658 387.385 21.098C386.721 21.4671 386.167 21.9469 385.724 22.5744C385.281 23.2018 384.949 23.94 384.728 24.789C384.506 25.6379 384.396 26.5606 384.396 27.5203C384.396 28.5169 384.506 29.4396 384.728 30.2516C384.949 31.1006 385.281 31.8388 385.724 32.4293C386.167 33.0568 386.721 33.5366 387.385 33.8688C388.05 34.2379 388.788 34.3856 389.674 34.3856ZM409.252 27.8894L406.927 30.2147V37.3384H402.276V9.8773H406.927V20.5074C406.927 21.4671 406.89 22.3529 406.853 23.2018C406.816 24.0877 406.78 24.789 406.78 25.3426L414.198 17.6284H419.772L412.537 24.8259L420.621 37.3384H415.158L409.252 27.8894ZM422.996 17.5546V9.8773H427.942V17.5546L426.724 28.5169H424.251L422.996 17.5546ZM422.922 32.2079H428.09V37.3384H422.922V32.2079Z" fill="#0538B9"/>
<path d="M210.503 23.4069H6.07756L15.7597 33.0157" stroke="#0538B9" stroke-width="4.61376" stroke-linecap="round"/>
</svg>
