<svg width="341" height="66" viewBox="0 0 341 66" fill="none" xmlns="http://www.w3.org/2000/svg">
<rect width="310.486" height="65.0847" rx="32.5424" transform="matrix(-1 0 0 1 340.544 0.00012207)" fill="#FF4900"/>
<path d="M3.38406 65.0851H58.3326L35.3929 42.6788C10.3193 55.4824 -7.81905 65.0851 3.38406 65.0851Z" fill="#FF4900"/>
<path d="M73.6488 19.68H79.1388L82.7988 30.3C83.0188 30.96 83.2388 31.72 83.4588 32.58C83.6788 33.44 83.8888 34.26 84.0888 35.04C84.3088 35.96 84.5288 36.88 84.7488 37.8H84.8388C85.0388 36.88 85.2488 35.96 85.4688 35.04C85.6488 34.28 85.8488 33.47 86.0688 32.61C86.3088 31.73 86.5388 30.96 86.7588 30.3L90.3588 19.68H95.9688V42H92.0988V30.36C92.0988 29.76 92.1088 29.06 92.1288 28.26C92.1488 27.46 92.1788 26.7 92.2188 25.98C92.2588 25.14 92.3088 24.28 92.3688 23.4H92.3088C92.1288 24.2 91.9388 24.98 91.7388 25.74C91.5788 26.4 91.3988 27.09 91.1988 27.81C91.0188 28.53 90.8388 29.17 90.6588 29.73L86.4288 42H83.0688L78.8088 29.73C78.6288 29.17 78.4388 28.53 78.2388 27.81C78.0388 27.09 77.8588 26.4 77.6988 25.74C77.4988 24.98 77.3188 24.2 77.1588 23.4H77.0988C77.1388 24.28 77.1788 25.14 77.2188 25.98C77.2588 26.7 77.2888 27.46 77.3088 28.26C77.3488 29.06 77.3688 29.76 77.3688 30.36V42H73.6488V19.68ZM109.553 42C109.413 41.82 109.293 41.57 109.193 41.25C109.113 40.91 109.053 40.47 109.013 39.93H108.953C108.433 40.63 107.783 41.22 107.003 41.7C106.223 42.16 105.193 42.39 103.913 42.39C103.133 42.39 102.403 42.29 101.723 42.09C101.063 41.89 100.493 41.59 100.013 41.19C99.5332 40.79 99.1532 40.3 98.8732 39.72C98.5932 39.12 98.4532 38.43 98.4532 37.65C98.4532 36.75 98.6132 36.01 98.9332 35.43C99.2732 34.83 99.7332 34.35 100.313 33.99C100.893 33.63 101.583 33.36 102.383 33.18C103.183 32.98 104.063 32.82 105.023 32.7C106.343 32.54 107.333 32.32 107.993 32.04C108.653 31.74 108.983 31.23 108.983 30.51C108.983 29.81 108.743 29.25 108.263 28.83C107.783 28.41 107.063 28.2 106.103 28.2C105.023 28.2 104.213 28.43 103.673 28.89C103.153 29.35 102.873 29.98 102.833 30.78H99.2332C99.2532 30.1 99.4032 29.45 99.6832 28.83C99.9832 28.19 100.413 27.63 100.973 27.15C101.553 26.67 102.263 26.29 103.103 26.01C103.943 25.71 104.933 25.56 106.073 25.56C106.993 25.56 107.803 25.63 108.503 25.77C109.223 25.91 109.843 26.15 110.363 26.49C111.883 27.41 112.643 28.93 112.643 31.05V39.48C112.643 40.14 112.693 40.65 112.793 41.01C112.913 41.37 113.063 41.61 113.243 41.73V42H109.553ZM105.023 39.78C105.683 39.78 106.263 39.68 106.763 39.48C107.263 39.26 107.683 38.99 108.023 38.67C108.363 38.33 108.623 37.95 108.803 37.53C108.983 37.09 109.073 36.64 109.073 36.18V33.81C108.693 34.05 108.223 34.26 107.663 34.44C107.103 34.6 106.533 34.74 105.953 34.86C104.773 35.08 103.863 35.37 103.223 35.73C102.583 36.07 102.263 36.68 102.263 37.56C102.263 37.98 102.333 38.34 102.473 38.64C102.633 38.92 102.833 39.15 103.073 39.33C103.333 39.49 103.633 39.61 103.973 39.69C104.313 39.75 104.663 39.78 105.023 39.78ZM119.255 28.86H119.345C120.365 26.78 121.895 25.74 123.935 25.74C124.395 25.74 124.735 25.79 124.955 25.89V29.31H124.835C124.515 29.23 124.165 29.19 123.785 29.19C122.525 29.17 121.475 29.58 120.635 30.42C119.795 31.24 119.375 32.42 119.375 33.96V42H115.565V25.98H119.255V28.86ZM126.8 19.68H130.7V23.37H126.8V19.68ZM126.86 25.98H130.67V42H126.86V25.98ZM149.213 42.51C148.133 42.51 147.163 42.28 146.303 41.82C145.443 41.36 144.773 40.65 144.293 39.69H144.203V42H140.513V19.68H144.323V24.96C144.323 25.6 144.313 26.22 144.293 26.82C144.273 27.42 144.243 27.93 144.203 28.35H144.293C144.813 27.51 145.483 26.84 146.303 26.34C147.123 25.82 148.103 25.56 149.243 25.56C150.263 25.56 151.193 25.76 152.033 26.16C152.893 26.56 153.623 27.13 154.223 27.87C154.823 28.61 155.283 29.5 155.603 30.54C155.943 31.58 156.113 32.74 156.113 34.02C156.113 35.32 155.953 36.5 155.633 37.56C155.313 38.6 154.853 39.49 154.253 40.23C153.653 40.97 152.923 41.54 152.063 41.94C151.223 42.32 150.273 42.51 149.213 42.51ZM148.403 39.39C149.683 39.39 150.643 38.89 151.283 37.89C151.923 36.89 152.243 35.59 152.243 33.99C152.243 33.21 152.163 32.49 152.003 31.83C151.843 31.15 151.603 30.57 151.283 30.09C150.963 29.59 150.563 29.21 150.083 28.95C149.603 28.67 149.043 28.53 148.403 28.53C147.683 28.53 147.053 28.68 146.513 28.98C145.973 29.26 145.533 29.65 145.193 30.15C144.853 30.63 144.593 31.21 144.413 31.89C144.253 32.55 144.173 33.26 144.173 34.02C144.173 34.8 144.263 35.52 144.443 36.18C144.623 36.84 144.893 37.41 145.253 37.89C145.613 38.35 146.053 38.72 146.573 39C147.093 39.26 147.703 39.39 148.403 39.39ZM165.515 42.48C164.235 42.48 163.085 42.26 162.065 41.82C161.065 41.38 160.215 40.78 159.515 40.02C158.815 39.26 158.275 38.37 157.895 37.35C157.535 36.31 157.355 35.2 157.355 34.02C157.355 32.82 157.545 31.71 157.925 30.69C158.305 29.65 158.845 28.75 159.545 27.99C160.245 27.23 161.085 26.64 162.065 26.22C163.045 25.78 164.125 25.56 165.305 25.56C166.485 25.56 167.525 25.76 168.425 26.16C169.345 26.54 170.145 27.09 170.825 27.81C171.605 28.65 172.185 29.68 172.565 30.9C172.945 32.1 173.125 33.45 173.105 34.95H161.135C161.275 36.33 161.705 37.45 162.425 38.31C163.165 39.15 164.205 39.57 165.545 39.57C166.465 39.57 167.215 39.39 167.795 39.03C168.395 38.65 168.825 38.13 169.085 37.47H172.805C172.605 38.19 172.295 38.86 171.875 39.48C171.475 40.08 170.965 40.61 170.345 41.07C169.725 41.51 169.005 41.85 168.185 42.09C167.385 42.35 166.495 42.48 165.515 42.48ZM165.305 28.32C164.045 28.32 163.085 28.71 162.425 29.49C161.765 30.27 161.355 31.29 161.195 32.55H169.175C169.095 31.23 168.715 30.2 168.035 29.46C167.375 28.7 166.465 28.32 165.305 28.32ZM178.863 28.86H178.953C179.973 26.78 181.503 25.74 183.543 25.74C184.003 25.74 184.343 25.79 184.563 25.89V29.31H184.443C184.123 29.23 183.773 29.19 183.393 29.19C182.133 29.17 181.083 29.58 180.243 30.42C179.403 31.24 178.983 32.42 178.983 33.96V42H175.173V25.98H178.863V28.86ZM192.137 34.32L190.247 36.21V42H186.467V19.68H190.247V28.32C190.247 29.08 190.227 29.81 190.187 30.51C190.167 31.21 190.147 31.79 190.127 32.25L196.157 25.98H200.687L194.807 31.83L201.377 42H196.937L192.137 34.32ZM209.213 42.48C207.933 42.48 206.783 42.26 205.763 41.82C204.763 41.38 203.913 40.78 203.213 40.02C202.513 39.26 201.973 38.37 201.593 37.35C201.233 36.31 201.053 35.2 201.053 34.02C201.053 32.82 201.243 31.71 201.623 30.69C202.003 29.65 202.543 28.75 203.243 27.99C203.943 27.23 204.783 26.64 205.763 26.22C206.743 25.78 207.823 25.56 209.003 25.56C210.183 25.56 211.223 25.76 212.123 26.16C213.043 26.54 213.843 27.09 214.523 27.81C215.303 28.65 215.883 29.68 216.263 30.9C216.643 32.1 216.823 33.45 216.803 34.95H204.833C204.973 36.33 205.403 37.45 206.123 38.31C206.863 39.15 207.903 39.57 209.243 39.57C210.163 39.57 210.913 39.39 211.493 39.03C212.093 38.65 212.523 38.13 212.783 37.47H216.503C216.303 38.19 215.993 38.86 215.573 39.48C215.173 40.08 214.663 40.61 214.043 41.07C213.423 41.51 212.703 41.85 211.883 42.09C211.083 42.35 210.193 42.48 209.213 42.48ZM209.003 28.32C207.743 28.32 206.783 28.71 206.123 29.49C205.463 30.27 205.053 31.29 204.893 32.55H212.873C212.793 31.23 212.413 30.2 211.733 29.46C211.073 28.7 210.163 28.32 209.003 28.32ZM222.591 28.32H222.681C223.201 27.42 223.871 26.74 224.691 26.28C225.531 25.8 226.521 25.56 227.661 25.56C229.401 25.56 230.751 26.06 231.711 27.06C232.691 28.04 233.181 29.4 233.181 31.14V42H229.371V31.77C229.371 30.81 229.101 30.06 228.561 29.52C228.041 28.98 227.291 28.71 226.311 28.71C225.771 28.71 225.281 28.81 224.841 29.01C224.401 29.19 224.021 29.46 223.701 29.82C223.381 30.16 223.131 30.57 222.951 31.05C222.771 31.53 222.681 32.05 222.681 32.61V42H218.871V25.98H222.591V28.32ZM246.317 42C246.177 41.82 246.057 41.57 245.957 41.25C245.877 40.91 245.817 40.47 245.777 39.93H245.717C245.197 40.63 244.547 41.22 243.767 41.7C242.987 42.16 241.957 42.39 240.677 42.39C239.897 42.39 239.167 42.29 238.487 42.09C237.827 41.89 237.257 41.59 236.777 41.19C236.297 40.79 235.917 40.3 235.637 39.72C235.357 39.12 235.217 38.43 235.217 37.65C235.217 36.75 235.377 36.01 235.697 35.43C236.037 34.83 236.497 34.35 237.077 33.99C237.657 33.63 238.347 33.36 239.147 33.18C239.947 32.98 240.827 32.82 241.787 32.7C243.107 32.54 244.097 32.32 244.757 32.04C245.417 31.74 245.747 31.23 245.747 30.51C245.747 29.81 245.507 29.25 245.027 28.83C244.547 28.41 243.827 28.2 242.867 28.2C241.787 28.2 240.977 28.43 240.437 28.89C239.917 29.35 239.637 29.98 239.597 30.78H235.997C236.017 30.1 236.167 29.45 236.447 28.83C236.747 28.19 237.177 27.63 237.737 27.15C238.317 26.67 239.027 26.29 239.867 26.01C240.707 25.71 241.697 25.56 242.837 25.56C243.757 25.56 244.567 25.63 245.267 25.77C245.987 25.91 246.607 26.15 247.127 26.49C248.647 27.41 249.407 28.93 249.407 31.05V39.48C249.407 40.14 249.457 40.65 249.557 41.01C249.677 41.37 249.827 41.61 250.007 41.73V42H246.317ZM241.787 39.78C242.447 39.78 243.027 39.68 243.527 39.48C244.027 39.26 244.447 38.99 244.787 38.67C245.127 38.33 245.387 37.95 245.567 37.53C245.747 37.09 245.837 36.64 245.837 36.18V33.81C245.457 34.05 244.987 34.26 244.427 34.44C243.867 34.6 243.297 34.74 242.717 34.86C241.537 35.08 240.627 35.37 239.987 35.73C239.347 36.07 239.027 36.68 239.027 37.56C239.027 37.98 239.097 38.34 239.237 38.64C239.397 38.92 239.597 39.15 239.837 39.33C240.097 39.49 240.397 39.61 240.737 39.69C241.077 39.75 241.427 39.78 241.787 39.78ZM252.389 19.68H256.229V42H252.389V19.68ZM269.521 42C269.381 41.82 269.261 41.57 269.161 41.25C269.081 40.91 269.021 40.47 268.981 39.93H268.921C268.401 40.63 267.751 41.22 266.971 41.7C266.191 42.16 265.161 42.39 263.881 42.39C263.101 42.39 262.371 42.29 261.691 42.09C261.031 41.89 260.461 41.59 259.981 41.19C259.501 40.79 259.121 40.3 258.841 39.72C258.561 39.12 258.421 38.43 258.421 37.65C258.421 36.75 258.581 36.01 258.901 35.43C259.241 34.83 259.701 34.35 260.281 33.99C260.861 33.63 261.551 33.36 262.351 33.18C263.151 32.98 264.031 32.82 264.991 32.7C266.311 32.54 267.301 32.32 267.961 32.04C268.621 31.74 268.951 31.23 268.951 30.51C268.951 29.81 268.711 29.25 268.231 28.83C267.751 28.41 267.031 28.2 266.071 28.2C264.991 28.2 264.181 28.43 263.641 28.89C263.121 29.35 262.841 29.98 262.801 30.78H259.201C259.221 30.1 259.371 29.45 259.651 28.83C259.951 28.19 260.381 27.63 260.941 27.15C261.521 26.67 262.231 26.29 263.071 26.01C263.911 25.71 264.901 25.56 266.041 25.56C266.961 25.56 267.771 25.63 268.471 25.77C269.191 25.91 269.811 26.15 270.331 26.49C271.851 27.41 272.611 28.93 272.611 31.05V39.48C272.611 40.14 272.661 40.65 272.761 41.01C272.881 41.37 273.031 41.61 273.211 41.73V42H269.521ZM264.991 39.78C265.651 39.78 266.231 39.68 266.731 39.48C267.231 39.26 267.651 38.99 267.991 38.67C268.331 38.33 268.591 37.95 268.771 37.53C268.951 37.09 269.041 36.64 269.041 36.18V33.81C268.661 34.05 268.191 34.26 267.631 34.44C267.071 34.6 266.501 34.74 265.921 34.86C264.741 35.08 263.831 35.37 263.191 35.73C262.551 36.07 262.231 36.68 262.231 37.56C262.231 37.98 262.301 38.34 262.441 38.64C262.601 38.92 262.801 39.15 263.041 39.33C263.301 39.49 263.601 39.61 263.941 39.69C264.281 39.75 264.631 39.78 264.991 39.78ZM279.253 28.32H279.343C279.863 27.42 280.533 26.74 281.353 26.28C282.193 25.8 283.183 25.56 284.323 25.56C286.063 25.56 287.413 26.06 288.373 27.06C289.353 28.04 289.843 29.4 289.843 31.14V42H286.033V31.77C286.033 30.81 285.763 30.06 285.223 29.52C284.703 28.98 283.953 28.71 282.973 28.71C282.433 28.71 281.943 28.81 281.503 29.01C281.063 29.19 280.683 29.46 280.363 29.82C280.043 30.16 279.793 30.57 279.613 31.05C279.433 31.53 279.343 32.05 279.343 32.61V42H275.533V25.98H279.253V28.32ZM292.989 25.92V19.68H297.009V25.92L296.019 34.83H294.009L292.989 25.92ZM292.929 37.83H297.129V42H292.929V37.83Z" fill="white"/>
</svg>
