<svg width="892" height="708" viewBox="0 0 892 708" fill="none" xmlns="http://www.w3.org/2000/svg">
<g filter="url(#filter0_d_4036_2452)">
<path d="M20 128V364V547.5C24 629 133.5 630 171.5 547.5L205.5 473.5C241.348 405.66 295.585 410.341 338 473.5L417 624.5C481 750 674 632.5 554 514.5L451.5 404.5C451.5 404.5 427.145 374.622 451.5 347.5C473.5 323 508.5 342 508.5 342L737.5 492.5C737.5 492.5 798.5 532.5 840 503.5C896.458 464.047 858 375.5 858 375.5L762.5 141C738.5 78 676.5 12 586 12H156C81.5 12 20 43.5 20 128Z" fill="#3A73FF"/>
</g>
<g filter="url(#filter1_d_4036_2452)">
<path d="M554.747 515.364C674.746 633.364 481.747 750.863 417.747 625.364L346.214 488.636C364.887 459.886 398.599 428.457 455.851 409.232L554.747 515.364ZM496.883 12.8639L477.886 13.2516C480.099 121.636 501.732 191.997 531.722 236.897C562.064 282.322 600.161 300.434 631.608 305.362C694.759 315.257 751.411 276.877 767.414 210.588C770.436 198.069 775.113 189.401 780.174 183.429L858.747 376.364C858.844 376.588 897.133 464.961 840.747 504.364C799.309 533.32 738.431 493.484 738.247 493.364L582.493 391.002C590.273 391.019 598.277 391.2 606.51 391.556L607.332 372.574L608.154 353.592C579.309 352.344 552.851 353.13 528.614 355.591L509.247 342.864C509.247 342.864 474.247 323.864 452.247 348.364C444.479 357.014 441.666 365.944 441.437 374.096C385.327 393.408 347.584 423.645 323.562 454.776C284.001 411.095 237.938 414.39 206.247 474.364L172.247 548.364C134.247 630.864 24.747 629.864 20.7468 548.364V438.091C33.2693 453.056 50.3797 466.005 71.8308 475.529L79.5408 458.164L87.2507 440.798C41.4181 420.449 28.2301 384.381 35.7703 356.126C43.3548 327.705 74.3665 298.492 135.16 298.492C212.251 298.492 255.701 246.55 278.713 187.708C301.519 129.389 306.415 60.0693 305.635 12.8639H496.883ZM107.364 491.322C115.286 495.741 126.08 499.962 137.373 502.743C148.525 505.489 161.824 507.245 174.308 505.345L171.451 486.561L168.593 467.778C162.932 468.639 155.061 467.963 146.458 465.844C137.995 463.761 130.445 460.685 125.876 458.136L107.364 491.322ZM648.356 391.574C659.636 391.574 682.083 398.912 697.257 426.028L713.837 416.75L730.418 407.471C708.512 368.325 673.367 353.574 648.356 353.574V391.574ZM20.7468 128.864C12.7468 17.8644 69.7468 8.36573 156.747 12.8639H286.634L267.636 13.1891C268.407 58.2713 263.575 122.081 243.323 173.868C223.223 225.265 190.147 260.492 135.16 260.492C84.0942 260.492 44.5081 278.27 20.7468 305.677V128.864ZM583.116 12.8639C581.745 29.0204 584.53 52.1729 598.235 71.8298C613.451 93.6529 639.935 108.041 679.52 106.392L678.73 87.4089L677.939 68.4255C649.362 69.616 636.136 59.7474 629.407 50.0964C622.071 39.5753 620.144 25.9088 620.973 16.1364C692.907 30.1839 742.405 87.1547 763.247 141.864L764.946 146.038C750.398 156.589 737.107 174.196 730.474 201.671C718.865 249.762 680.055 274.49 637.491 267.82C616.081 264.465 587.513 252.008 563.321 215.79C538.808 179.091 518.058 116.838 515.887 12.8639H583.116Z" fill="#0049FF"/>
</g>
<defs>
<filter id="filter0_d_4036_2452" x="0" y="0" width="890.79" height="706.398" filterUnits="userSpaceOnUse" color-interpolation-filters="sRGB">
<feFlood flood-opacity="0" result="BackgroundImageFix"/>
<feColorMatrix in="SourceAlpha" type="matrix" values="0 0 0 0 0 0 0 0 0 0 0 0 0 0 0 0 0 0 127 0" result="hardAlpha"/>
<feOffset dy="8"/>
<feGaussianBlur stdDeviation="10"/>
<feComposite in2="hardAlpha" operator="out"/>
<feColorMatrix type="matrix" values="0 0 0 0 0 0 0 0 0 0 0 0 0 0 0 0 0 0 0.2 0"/>
<feBlend mode="normal" in2="BackgroundImageFix" result="effect1_dropShadow_4036_2452"/>
<feBlend mode="normal" in="SourceGraphic" in2="effect1_dropShadow_4036_2452" result="shape"/>
</filter>
<filter id="filter1_d_4036_2452" x="0" y="0" width="891.537" height="707.261" filterUnits="userSpaceOnUse" color-interpolation-filters="sRGB">
<feFlood flood-opacity="0" result="BackgroundImageFix"/>
<feColorMatrix in="SourceAlpha" type="matrix" values="0 0 0 0 0 0 0 0 0 0 0 0 0 0 0 0 0 0 127 0" result="hardAlpha"/>
<feOffset dy="8"/>
<feGaussianBlur stdDeviation="10"/>
<feComposite in2="hardAlpha" operator="out"/>
<feColorMatrix type="matrix" values="0 0 0 0 0 0 0 0 0 0 0 0 0 0 0 0 0 0 0.2 0"/>
<feBlend mode="normal" in2="BackgroundImageFix" result="effect1_dropShadow_4036_2452"/>
<feBlend mode="normal" in="SourceGraphic" in2="effect1_dropShadow_4036_2452" result="shape"/>
</filter>
</defs>
</svg>
