<svg width="811" height="452" viewBox="0 0 811 452" fill="none" xmlns="http://www.w3.org/2000/svg">
<mask id="mask0_3562_2653" style="mask-type:alpha" maskUnits="userSpaceOnUse" x="0" y="0" width="811" height="452">
<path d="M810.042 0.862874H39.1245C29.5863 2.35908 7.70423 10.4012 0.41025 40.1382V102.418C1.34538 113.639 12.6418 138.663 39.1245 142.254H140.679C159.195 142.254 188.932 150.109 192.298 181.529V251.664C190.054 272.984 172.1 292.061 140.679 292.061H83.4496H48.1019C33.5139 292.061 3.10341 297.223 0.41025 338.069L0.410352 402.593C0.223367 414.562 9.94873 444.337 39.1246 451.968H810.042V0.862874Z" fill="#D9D9D9"/>
</mask>
<g mask="url(#mask0_3562_2653)">
<path d="M131.689 85.0615L131.708 85.0616C131.878 46.6173 102.714 14.8347 67.0968 14.6504C31.4796 14.4661 2.4953 45.4828 1.88612 83.5306L1.86739 83.5305L1.71438 117.982C1.62638 137.795 16.4369 153.946 34.8027 154.041C53.1592 154.136 68.1218 138.15 68.2098 118.326L68.3182 93.9229C72.3836 127.517 99.2024 153.889 131.382 154.055C131.523 154.056 131.347 153.671 131.487 153.672L131.689 85.0615Z" fill="#0049FF"/>
<path d="M45.0289 73.5356C53.0914 73.5864 59.658 66.0497 59.6957 56.7017C59.7334 47.3537 53.228 39.7344 45.1654 39.6836C37.1029 39.6327 30.5363 47.1695 30.4986 56.5175C30.4609 65.8654 36.9664 73.4847 45.0289 73.5356Z" fill="#F7F5E9"/>
<path d="M41.6724 71.8862C47.8824 71.9254 52.941 65.9253 52.971 58.4846C53.001 51.0439 47.9911 44.9803 41.7811 44.9411C35.5711 44.9019 30.5125 50.902 30.4825 58.3427C30.4525 65.7834 35.4624 71.847 41.6724 71.8862Z" fill="#322E23"/>
<path d="M81.0011 72.0848C89.0636 72.1356 95.6302 64.5989 95.6679 55.2509C95.7056 45.9029 89.2001 38.2836 81.1376 38.2328C73.075 38.1819 66.5085 45.7187 66.4708 55.0667C66.4331 64.4146 72.9385 72.0339 81.0011 72.0848Z" fill="#F7F5E9"/>
<path d="M77.6444 70.4329C83.8544 70.4721 88.9129 64.472 88.9429 57.0313C88.9729 49.5906 83.963 43.527 77.753 43.4878C71.543 43.4486 66.4845 49.4487 66.4545 56.8894C66.4244 64.3301 71.4343 70.3937 77.6444 70.4329Z" fill="#322E23"/>
<path d="M57.0402 79.2941C58.7891 82.1818 61.9108 83.805 65.0875 83.4696C68.5079 83.1053 71.4224 80.5369 72.4208 76.9781" stroke="#322E23" stroke-width="1.67806" stroke-linecap="round" stroke-linejoin="round"/>
<path d="M71.043 74.8098C71.1259 75.1437 71.44 76.1861 72.4203 76.9696C73.298 77.6717 74.2063 77.7576 74.5435 77.7697" stroke="#322E23" stroke-width="1.67806" stroke-linecap="round" stroke-linejoin="round"/>
<path d="M131.689 85.0615L131.707 85.0616C131.878 46.6173 102.714 14.8347 67.0966 14.6504C31.4794 14.4661 2.49505 45.4828 1.88588 83.5306L1.86715 83.5305L1.71413 117.982C1.62614 137.795 16.4366 153.946 34.8025 154.041C53.159 154.136 68.1215 138.15 68.2096 118.326L68.318 93.9229C72.3834 127.517 99.2022 153.889 131.382 154.055C131.523 154.056 131.346 153.671 131.487 153.672L131.689 85.0615Z" fill="#0049FF"/>
<path d="M45.0287 73.5356C53.0912 73.5864 59.6577 66.0497 59.6954 56.7017C59.7331 47.3537 53.2277 39.7344 45.1652 39.6836C37.1026 39.6327 30.5361 47.1695 30.4984 56.5175C30.4607 65.8654 36.9661 73.4847 45.0287 73.5356Z" fill="#F7F5E9"/>
<path d="M41.6722 71.8862C47.8822 71.9254 52.9407 65.9253 52.9707 58.4846C53.0008 51.0439 47.9909 44.9803 41.7809 44.9411C35.5708 44.9019 30.5123 50.902 30.4823 58.3427C30.4523 65.7834 35.4622 71.847 41.6722 71.8862Z" fill="#322E23"/>
<path d="M81.0006 72.0849C89.0631 72.1358 95.6297 64.599 95.6674 55.251C95.7051 45.9031 89.1996 38.2838 81.1371 38.2329C73.0746 38.182 66.508 45.7188 66.4703 55.0668C66.4326 64.4148 72.938 72.0341 81.0006 72.0849Z" fill="#F7F5E9"/>
<path d="M77.6441 70.4329C83.8541 70.4721 88.9127 64.472 88.9427 57.0313C88.9727 49.5906 83.9628 43.527 77.7528 43.4878C71.5428 43.4486 66.4842 49.4487 66.4542 56.8894C66.4242 64.3301 71.4341 70.3937 77.6441 70.4329Z" fill="#322E23"/>
<path d="M57.04 79.2941C58.7888 82.1818 61.9105 83.805 65.0873 83.4696C68.5077 83.1053 71.4222 80.5369 72.4206 76.9781" stroke="#322E23" stroke-width="1.67806" stroke-linecap="round" stroke-linejoin="round"/>
<path d="M71.0427 74.8098C71.1256 75.1437 71.4398 76.1861 72.4201 76.9696C73.2977 77.6717 74.206 77.7576 74.5432 77.7697" stroke="#322E23" stroke-width="1.67806" stroke-linecap="round" stroke-linejoin="round"/>
<path d="M802.151 89.9052L802.17 89.9053C802.341 51.461 773.176 19.6784 737.559 19.4941C701.942 19.3098 672.958 50.3265 672.349 88.3743L672.33 88.3742L672.177 122.826C672.089 142.639 686.899 158.789 705.265 158.884C723.622 158.979 738.584 142.993 738.672 123.17L738.781 98.7666C742.846 132.36 769.665 158.732 801.845 158.899C801.985 158.9 801.809 158.515 801.95 158.515L802.151 89.9052Z" fill="#0049FF"/>
<path d="M715.491 78.3806C723.554 78.4314 730.12 70.8946 730.158 61.5467C730.196 52.1987 723.69 44.5794 715.628 44.5286C707.565 44.4777 700.999 52.0145 700.961 61.3625C700.923 70.7104 707.429 78.3297 715.491 78.3806Z" fill="#F7F5E9"/>
<path d="M712.135 76.7301C718.345 76.7693 723.403 70.7692 723.433 63.3285C723.463 55.8878 718.453 49.8242 712.243 49.785C706.033 49.7458 700.975 55.7459 700.945 63.1866C700.915 70.6273 705.925 76.691 712.135 76.7301Z" fill="#322E23"/>
<path d="M751.463 76.9291C759.526 76.98 766.092 69.4432 766.13 60.0952C766.168 50.7473 759.662 43.128 751.6 43.0771C743.537 43.0263 736.971 50.563 736.933 59.911C736.895 69.259 743.401 76.8783 751.463 76.9291Z" fill="#F7F5E9"/>
<path d="M748.107 75.2778C754.317 75.317 759.376 69.3168 759.406 61.8762C759.436 54.4355 754.426 48.3718 748.216 48.3327C742.006 48.2935 736.947 54.2936 736.917 61.7343C736.887 69.175 741.897 75.2386 748.107 75.2778Z" fill="#322E23"/>
<path d="M727.503 84.1379C729.251 87.0255 732.373 88.6487 735.55 88.3134C738.97 87.949 741.885 85.3806 742.883 81.8219" stroke="#322E23" stroke-width="1.67806" stroke-linecap="round" stroke-linejoin="round"/>
<path d="M741.505 79.6535C741.588 79.9874 741.902 81.0298 742.883 81.8133C743.76 82.5154 744.669 82.6014 745.006 82.6134" stroke="#322E23" stroke-width="1.67806" stroke-linecap="round" stroke-linejoin="round"/>
<path d="M297.828 45.1237C298.964 42.5373 299.629 39.6628 299.643 36.6113L299.646 35.9174C299.695 24.8342 291.415 15.8104 281.147 15.7573L188.611 15.2784C178.343 15.2253 169.983 24.1631 169.934 35.2462L169.931 35.9401C169.881 47.0233 178.162 56.0471 188.43 56.1002L202.073 56.1708L181.424 66.6881C177.038 68.5432 173.467 72.1376 171.442 76.689C171.366 76.8621 171.289 77.025 171.213 77.1981C171.108 77.4527 171.012 77.7074 170.916 77.962C169.118 82.6984 168.961 88.127 170.811 93.1884C170.942 93.5564 171.072 93.9143 171.222 94.2723C171.241 94.3234 171.259 94.3848 171.288 94.4359C171.316 94.4973 171.344 94.5485 171.372 94.6099C174.199 101.074 180.107 105.636 187.073 106.081C187.243 106.092 187.423 106.103 187.603 106.114C187.763 106.115 187.924 106.146 188.085 106.147L196.036 106.188L180.106 114.301C172.695 118.069 168.64 126.366 169.369 134.687L169.367 135.136C169.318 146.22 177.598 155.243 187.866 155.297L280.402 155.775C290.67 155.829 299.03 146.891 299.08 135.808L299.083 135.114C299.132 124.031 290.851 115.007 280.583 114.954L267.554 114.886L284.754 106.127C293.037 104.139 299.265 96.2004 299.307 86.6481L299.31 85.9541C299.36 74.871 291.079 65.8471 280.811 65.794L271.905 65.7479L287.835 57.6352C292.848 55.0791 296.329 50.4433 297.828 45.1339L297.828 45.1237Z" fill="#FF4900"/>
<path d="M215.517 74.9818C223.657 75.0332 230.286 67.4245 230.324 57.9873C230.362 48.55 223.795 40.8581 215.655 40.8067C207.516 40.7553 200.887 48.3641 200.848 57.8013C200.81 67.2385 207.378 74.9305 215.517 74.9818Z" fill="#F7F5E9"/>
<path d="M218.255 73.3462C224.525 73.3858 229.632 67.3284 229.662 59.8167C229.692 52.305 224.634 46.1834 218.365 46.1439C212.096 46.1043 206.989 52.1617 206.959 59.6734C206.928 67.1851 211.986 73.3066 218.255 73.3462Z" fill="#322E23"/>
<path d="M251.832 73.5164C259.971 73.5677 266.6 65.959 266.639 56.5218C266.677 47.0846 260.109 39.3926 251.97 39.3412C243.83 39.2899 237.201 46.8986 237.163 56.3358C237.125 65.773 243.692 73.465 251.832 73.5164Z" fill="#F7F5E9"/>
<path d="M250.021 70.0209C256.29 70.0605 261.397 64.0031 261.427 56.4914C261.457 48.9796 256.4 42.8581 250.13 42.8186C243.861 42.779 238.754 48.8364 238.724 56.3481C238.694 63.8598 243.751 69.9813 250.021 70.0209Z" fill="#322E23"/>
<path d="M240.673 87.2324C241.158 86.6532 244.551 82.6803 250.073 82.8109C255.509 82.9309 258.725 86.9074 259.195 87.5221" stroke="#322E23" stroke-width="1.67806" stroke-linecap="round" stroke-linejoin="round"/>
<path d="M467.201 54.1665C467.293 33.4892 451.833 16.6411 432.676 16.5419L337.439 16.0491L362 80.0093C347.612 84.5144 337.071 98.7983 336.996 115.786C336.904 136.463 352.364 153.311 371.521 153.411L466.758 153.903L442.197 89.9432C456.585 85.4382 467.125 71.1543 467.201 54.1665Z" fill="#0049FF"/>
<path d="M405.174 91.1858C403.421 94.0222 400.32 95.5926 397.181 95.2252C393.801 94.8265 390.94 92.2536 389.982 88.7226" stroke="#322E23" stroke-width="1.67806" stroke-linecap="round" stroke-linejoin="round"/>
<path d="M391.364 86.6123C391.279 86.9416 390.96 87.969 389.983 88.7329C389.11 89.4175 388.211 89.4923 387.877 89.5004" stroke="#322E23" stroke-width="1.67806" stroke-linecap="round" stroke-linejoin="round"/>
<path d="M371.447 46.5814L402.168 46.7992L402.13 56.3264C402.094 65.4546 395.179 72.8081 386.709 72.748C378.229 72.6879 371.382 65.2269 371.418 56.1087L371.456 46.5815L371.447 46.5814Z" fill="#F9F2EC"/>
<path d="M379.705 46.6233L399.305 46.7622L399.282 52.5381C399.259 58.284 394.904 62.9217 389.566 62.8839L389.306 62.8821C383.968 62.8442 379.65 58.1449 379.672 52.399L379.695 46.6232L379.705 46.6233Z" fill="#333333"/>
<path d="M368.902 46.5678L403.594 46.7473" stroke="#322E23" stroke-width="1.67806" stroke-linecap="round" stroke-linejoin="round"/>
<path d="M413.799 46.7996L444.52 47.0174L444.482 56.5446C444.446 65.6727 437.531 73.0262 429.061 72.9661C420.581 72.906 413.734 65.445 413.771 56.3268L413.808 46.7996L413.799 46.7996Z" fill="#F9F2EC"/>
<path d="M422.057 46.8423L441.657 46.9813L441.634 52.7571C441.612 58.503 437.256 63.1408 431.918 63.103L431.659 63.1011C426.321 63.0633 422.002 58.364 422.025 52.6181L422.048 46.8423L422.057 46.8423Z" fill="#333333"/>
<path d="M411.264 46.7868L445.946 46.9663" stroke="#322E23" stroke-width="1.67806" stroke-linecap="round" stroke-linejoin="round"/>
<path d="M634.555 115.563L634.37 157.205L581.741 156.932L581.86 130.324C575.298 145.969 560.686 156.823 543.75 156.736L505.171 156.536L505.423 99.7297L529.682 99.8552C515.01 92.8523 504.805 76.9792 504.887 58.558L505.072 16.916L635 17.5884L634.748 74.3948L609.769 74.2655C624.441 81.2685 634.647 97.1415 634.565 115.563L634.555 115.563Z" fill="#FF4900"/>
<path d="M554.545 88.9179C562.075 88.9654 568.152 96.0798 568.116 104.808C568.081 113.537 561.948 120.574 554.417 120.527C546.886 120.479 540.81 113.365 540.845 104.636C540.881 95.9077 547.014 88.8704 554.545 88.9179Z" fill="#F7F5E9"/>
<path d="M551.41 90.421C557.206 90.4576 561.882 96.1202 561.854 103.069C561.826 110.017 557.105 115.621 551.308 115.584C545.512 115.547 540.835 109.885 540.863 102.936C540.891 95.9877 545.613 90.3845 551.41 90.421Z" fill="#322E23"/>
<path d="M588.11 90.6234C595.641 90.6709 601.717 97.7853 601.682 106.514C601.647 115.242 595.513 122.28 587.983 122.232C580.452 122.185 574.376 115.07 574.411 106.342C574.446 97.6132 580.58 90.5758 588.11 90.6234Z" fill="#F7F5E9"/>
<path d="M584.966 92.1259C590.763 92.1625 595.439 97.825 595.411 104.774C595.383 111.722 590.661 117.325 584.865 117.289C579.068 117.252 574.392 111.59 574.42 104.641C574.448 97.6926 579.17 92.0893 584.966 92.1259Z" fill="#322E23"/>
<path d="M563.018 79.922C563.018 79.922 578.786 82.0907 579.676 81.6114C580.565 81.132 571.375 74.3389 571.375 74.3389L563.018 79.922Z" fill="#322E23"/>
<path d="M123.554 293.325L106.768 273.164C120.705 269.295 131.034 255.674 131.106 239.42C131.161 226.935 125.149 215.942 116.057 209.698C109.024 203.78 100.081 201.986 91.8924 204.199L41.1729 203.937C37.6652 203.258 34.0697 203.29 30.5557 204.054C14.1434 205.717 1.25833 220.584 1.17766 238.748C1.10235 255.703 12.2019 269.891 27.0015 273.209L10.8319 292.264C0.320226 304.655 1.10065 323.9 12.5798 335.246C24.059 346.592 41.8889 345.75 52.4006 333.359L66.8766 316.296L81.6029 333.998C92.004 346.497 109.826 347.523 121.405 336.297C132.984 325.07 133.936 305.834 123.535 293.335L123.554 293.325Z" fill="#FF4900"/>
<path d="M56.933 272.41C60.9493 277.649 67.3871 280.081 73.5303 278.674C80.1541 277.159 85.3271 271.434 86.5527 264.235" stroke="#322E23" stroke-width="1.67806" stroke-linecap="round" stroke-linejoin="round"/>
<path d="M60.7907 276.725C59.5062 282.211 61.1711 287.023 63.5488 288.001C66.2084 289.092 71.3331 286.015 73.1317 279.161C71.3142 279.283 68.8668 279.239 66.0735 278.593C63.9574 278.104 62.1811 277.393 60.7907 276.715L60.7907 276.725Z" fill="#322E23"/>
<path d="M29.6042 233.501L60.8149 233.698L60.7759 243.386C60.7384 252.669 53.7127 260.153 45.1074 260.099C36.4927 260.044 29.5372 252.462 29.5746 243.19L29.6137 233.501L29.6042 233.501Z" fill="#F9F2EC"/>
<path d="M34.2294 233.525L54.1419 233.65L54.1182 239.524C54.0946 245.368 49.6693 250.088 44.2463 250.053L43.9827 250.052C38.5597 250.017 34.1727 245.242 34.1963 239.398L34.22 233.525L34.2294 233.525Z" fill="#333333"/>
<path d="M27.0276 233.487L62.2743 233.67" stroke="#322E23" stroke-width="1.67806" stroke-linecap="round" stroke-linejoin="round"/>
<path d="M72.6353 233.724L103.846 233.921L103.807 243.609C103.769 252.892 96.7437 260.376 88.1384 260.322C79.5237 260.267 72.5682 252.685 72.6056 243.413L72.6447 233.724L72.6353 233.724Z" fill="#F9F2EC"/>
<path d="M77.2694 233.747L97.1819 233.873L97.1582 239.747C97.1347 245.59 92.7093 250.31 87.2864 250.276L87.0227 250.274C81.5998 250.24 77.2127 245.464 77.2363 239.621L77.26 233.747L77.2694 233.747Z" fill="#333333"/>
<path d="M70.0579 233.71L105.305 233.892" stroke="#322E23" stroke-width="1.67806" stroke-linecap="round" stroke-linejoin="round"/>
<path d="M802.714 298.654L785.928 278.493C799.865 274.623 810.194 261.003 810.266 244.749C810.322 232.263 804.309 221.271 795.217 215.027C788.184 209.108 779.241 207.315 771.053 209.528L720.333 209.265C716.825 208.587 713.23 208.619 709.716 209.383C693.304 211.045 680.418 225.912 680.338 244.076C680.263 261.031 691.362 275.22 706.162 278.537L689.992 297.593C679.48 309.983 680.261 329.228 691.74 340.574C703.219 351.92 721.049 351.078 731.561 338.688L746.037 321.624L760.763 339.326C771.164 351.825 788.986 352.852 800.565 341.625C812.145 330.398 813.096 311.162 802.695 298.664L802.714 298.654Z" fill="#FF4900"/>
<path d="M736.093 277.738C740.11 282.978 746.547 285.409 752.691 284.003C759.314 282.488 764.487 276.763 765.713 269.564" stroke="#322E23" stroke-width="1.67806" stroke-linecap="round" stroke-linejoin="round"/>
<path d="M739.951 282.054C738.667 287.539 740.332 292.351 742.709 293.329C745.369 294.421 750.494 291.343 752.292 284.489C750.475 284.611 748.027 284.567 745.234 283.921C743.118 283.432 741.342 282.721 739.951 282.043L739.951 282.054Z" fill="#322E23"/>
<path d="M708.764 238.829L739.975 239.026L739.936 248.715C739.898 257.997 732.873 265.481 724.267 265.427C715.653 265.372 708.697 257.791 708.734 248.518L708.774 238.829L708.764 238.829Z" fill="#F9F2EC"/>
<path d="M713.389 238.853L733.302 238.979L733.278 244.852C733.254 250.696 728.829 255.416 723.406 255.382L723.142 255.38C717.72 255.346 713.332 250.57 713.356 244.727L713.38 238.853L713.389 238.853Z" fill="#333333"/>
<path d="M706.188 238.816L741.434 238.998" stroke="#322E23" stroke-width="1.67806" stroke-linecap="round" stroke-linejoin="round"/>
<path d="M751.796 239.052L783.006 239.249L782.967 248.938C782.93 258.221 775.904 265.704 767.299 265.65C758.684 265.596 751.728 258.014 751.766 248.741L751.805 239.052L751.796 239.052Z" fill="#F9F2EC"/>
<path d="M756.429 239.077L776.342 239.202L776.318 245.076C776.294 250.919 771.869 255.639 766.446 255.605L766.182 255.604C760.759 255.569 756.372 250.794 756.396 244.95L756.42 239.077L756.429 239.077Z" fill="#333333"/>
<path d="M749.218 239.039L784.464 239.221" stroke="#322E23" stroke-width="1.67806" stroke-linecap="round" stroke-linejoin="round"/>
<path d="M308.502 276.58L243.712 276.244L307.953 207.566L212.216 207.071C193.808 206.976 178.818 223.001 178.73 242.87L178.271 346.206L178.441 346.024L243.636 346.361C279.324 346.302 308.341 315.161 308.512 276.58L308.502 276.58Z" fill="#0049FF"/>
<path d="M253.979 315.431C261.965 314.042 267.308 305.388 265.911 296.103C264.515 286.818 256.909 280.417 248.923 281.807C240.937 283.196 235.595 291.849 236.991 301.134C238.387 310.419 245.993 316.82 253.979 315.431Z" fill="#F7F5E9"/>
<path d="M257.073 313.228C263.224 312.158 267.31 305.3 266.199 297.91C265.087 290.519 259.2 285.396 253.049 286.466C246.898 287.536 242.812 294.394 243.924 301.785C245.035 309.175 250.922 314.298 257.073 313.228Z" fill="#322E23"/>
<path d="M218.082 320.045C226.068 318.656 231.411 310.002 230.015 300.717C228.618 291.432 221.012 285.031 213.026 286.421C205.04 287.81 199.698 296.463 201.094 305.748C202.49 315.034 210.096 321.434 218.082 320.045Z" fill="#F7F5E9"/>
<path d="M221.176 317.842C227.327 316.772 231.413 309.914 230.302 302.524C229.19 295.133 223.303 290.01 217.152 291.08C211.001 292.15 206.916 299.009 208.027 306.399C209.138 313.789 215.025 318.912 221.176 317.842Z" fill="#322E23"/>
<path d="M233.521 325.911C233.791 326.44 235.032 328.711 237.513 329.384C240.237 330.129 243.329 328.642 245.054 325.625" stroke="#322E23" stroke-width="1.67806" stroke-linecap="round" stroke-linejoin="round"/>
<path d="M465.3 205.201L414.638 204.939L414.636 205.201L359.872 204.918C347.015 204.851 336.551 216.048 336.489 229.915L336.468 234.665C336.407 248.542 346.78 259.837 359.628 259.903L376.437 259.99L345.428 291.469C339.813 296.029 336.164 303.266 336.127 311.438L336.106 316.187C336.051 328.575 344.313 338.903 355.24 341.022L355.312 341.405L464.692 341.971L466.531 205.188L465.3 205.181L465.3 205.201Z" fill="#FF4900"/>
<path d="M384.306 312.163C392.332 312.214 398.869 304.711 398.906 295.406C398.944 286.1 392.468 278.515 384.442 278.464C376.416 278.414 369.879 285.916 369.841 295.222C369.804 304.528 376.28 312.113 384.306 312.163Z" fill="#F7F5E9"/>
<path d="M380.964 310.529C387.146 310.568 392.182 304.595 392.212 297.188C392.241 289.781 387.254 283.745 381.072 283.706C374.89 283.667 369.855 289.64 369.825 297.047C369.795 304.454 374.782 310.49 380.964 310.529Z" fill="#322E23"/>
<path d="M420.103 310.719C428.129 310.769 434.666 303.267 434.704 293.961C434.741 284.655 428.265 277.07 420.239 277.02C412.213 276.969 405.676 284.472 405.639 293.778C405.601 303.083 412.077 310.668 420.103 310.719Z" fill="#F7F5E9"/>
<path d="M416.772 309.075C422.954 309.114 427.99 303.141 428.02 295.734C428.049 288.327 423.062 282.29 416.88 282.251C410.698 282.212 405.663 288.185 405.633 295.592C405.603 303 410.59 309.036 416.772 309.075Z" fill="#322E23"/>
<path d="M396.262 317.894C398.003 320.769 401.111 322.385 404.273 322.051C407.678 321.688 410.579 319.131 411.573 315.589" stroke="#322E23" stroke-width="1.67806" stroke-linecap="round" stroke-linejoin="round"/>
<path d="M410.202 313.442C410.285 313.774 410.598 314.812 411.574 315.592C412.447 316.291 413.351 316.376 413.687 316.388" stroke="#322E23" stroke-width="1.67806" stroke-linecap="round" stroke-linejoin="round"/>
<path d="M604.788 205.904L597.558 205.866C583.876 205.795 572.336 215.826 569.001 229.465L569.087 209.998L504.215 209.662L503.724 320.316C503.647 337.685 516.625 351.828 532.716 351.911L539.324 351.945C552.879 352.016 564.312 342.089 567.628 328.576L567.542 347.812L633.532 348.153L634.022 237.773C634.1 220.257 621.006 205.987 604.778 205.903L604.788 205.904Z" fill="#0049FF"/>
<path d="M591.829 282.944C599.663 282.994 606.043 275.673 606.08 266.594C606.116 257.514 599.796 250.113 591.962 250.064C584.128 250.014 577.748 257.335 577.712 266.415C577.675 275.494 583.996 282.895 591.829 282.944Z" fill="#F7F5E9"/>
<path d="M595.101 281.381C601.13 281.419 606.042 275.59 606.071 268.362C606.1 261.134 601.236 255.244 595.206 255.206C589.177 255.168 584.265 260.996 584.236 268.224C584.207 275.453 589.071 281.343 595.101 281.381Z" fill="#322E23"/>
<path d="M556.914 281.17C564.748 281.22 571.128 273.899 571.164 264.819C571.201 255.74 564.88 248.339 557.046 248.29C549.213 248.24 542.833 255.561 542.796 264.64C542.759 273.72 549.08 281.121 556.914 281.17Z" fill="#F7F5E9"/>
<path d="M560.184 279.607C566.214 279.645 571.126 273.816 571.155 266.588C571.184 259.36 566.32 253.47 560.29 253.432C554.26 253.393 549.348 259.222 549.319 266.45C549.29 273.678 554.155 279.569 560.184 279.607Z" fill="#322E23"/>
<path d="M550.487 288.493C553.278 294.835 559.15 299.026 565.631 299.283C572.617 299.574 579.137 295.254 582.052 288.389" stroke="#322E23" stroke-width="1.67806" stroke-linecap="round" stroke-linejoin="round"/>
<path d="M553.339 293.859C550.761 299.002 551.302 304.278 553.453 305.894C555.866 307.711 561.714 306.035 565.114 299.67C563.259 299.293 560.822 298.587 558.175 297.178C556.167 296.108 554.559 294.924 553.329 293.859L553.339 293.859Z" fill="#322E23"/>
<path d="M122.442 453.005C127.277 447.223 130.228 439.583 130.263 431.185C130.339 413.049 116.768 398.268 99.9529 398.172L30.8851 397.78C14.0701 397.685 0.37561 412.311 0.299573 430.448C0.231882 446.594 10.9745 460.07 25.1984 462.902L13.0432 476.421C11.946 477.643 10.952 478.927 10.0613 480.273C3.91642 486.25 0.0294023 494.89 -0.0109573 504.517C-0.0869934 522.653 13.4842 537.434 30.2992 537.53L99.367 537.922C116.182 538.017 129.876 523.391 129.953 505.254C130.019 489.433 119.708 476.173 105.91 472.977L117.611 459.964C119.531 457.822 121.141 455.485 122.432 453.005L122.442 453.005Z" fill="#0049FF"/>
<path d="M28.7173 433.342L59.9325 433.563L59.8942 443.244C59.8575 452.519 52.8314 459.991 44.2249 459.93C35.6089 459.868 28.6518 452.287 28.6884 443.023L28.7267 433.342L28.7173 433.342Z" fill="#F9F2EC"/>
<path d="M37.1088 433.385L57.0241 433.527L57.0009 439.395C56.9778 445.234 52.5523 449.946 47.1285 449.908L46.8648 449.906C41.4411 449.867 37.0531 445.092 37.0762 439.254L37.0994 433.385L37.1088 433.385Z" fill="#333333"/>
<path d="M26.1421 433.329L61.3819 433.511" stroke="#322E23" stroke-width="1.67806" stroke-linecap="round" stroke-linejoin="round"/>
<path d="M71.7507 433.566L102.966 433.787L102.928 443.468C102.891 452.743 95.8648 460.214 87.2583 460.153C78.6424 460.092 71.6852 452.511 71.7219 443.246L71.7601 433.566L71.7507 433.566Z" fill="#F9F2EC"/>
<path d="M80.142 433.609L100.057 433.751L100.034 439.619C100.011 445.458 95.5855 450.17 90.1617 450.131L89.8981 450.13C84.4743 450.091 80.0863 445.316 80.1094 439.478L80.1326 433.609L80.142 433.609Z" fill="#333333"/>
<path d="M69.1755 433.552L104.425 433.734" stroke="#322E23" stroke-width="1.67806" stroke-linecap="round" stroke-linejoin="round"/>
<path d="M802.463 448.824C807.299 443.042 810.25 435.402 810.285 427.004C810.361 408.868 796.79 394.087 779.975 393.991L710.907 393.599C694.092 393.504 680.397 408.13 680.321 426.267C680.254 442.413 690.996 455.889 705.22 458.721L693.065 472.24C691.968 473.462 690.974 474.746 690.083 476.092C683.938 482.069 680.051 490.709 680.011 500.336C679.935 518.472 693.506 533.253 710.321 533.349L779.389 533.741C796.204 533.836 809.898 519.209 809.974 501.073C810.041 485.252 799.73 471.992 785.931 468.796L797.633 455.783C799.553 453.641 801.163 451.304 802.454 448.824L802.463 448.824Z" fill="#0049FF"/>
<path d="M708.738 429.162L739.953 429.384L739.915 439.064C739.878 448.339 732.852 455.811 724.246 455.75C715.63 455.689 708.673 448.108 708.709 438.843L708.747 429.162L708.738 429.162Z" fill="#F9F2EC"/>
<path d="M717.13 429.206L737.045 429.347L737.022 435.216C736.999 441.054 732.573 445.766 727.149 445.728L726.886 445.726C721.462 445.687 717.074 440.913 717.097 435.074L717.12 429.206L717.13 429.206Z" fill="#333333"/>
<path d="M706.163 429.149L741.402 429.331" stroke="#322E23" stroke-width="1.67806" stroke-linecap="round" stroke-linejoin="round"/>
<path d="M751.772 429.386L782.987 429.607L782.949 439.288C782.912 448.563 775.886 456.034 767.279 455.973C758.663 455.912 751.706 448.331 751.743 439.066L751.781 429.386L751.772 429.386Z" fill="#F9F2EC"/>
<path d="M760.163 429.429L780.079 429.57L780.055 435.439C780.032 441.277 775.607 445.989 770.183 445.951L769.919 445.949C764.496 445.91 760.108 441.136 760.131 435.297L760.154 429.429L760.163 429.429Z" fill="#333333"/>
<path d="M749.197 429.372L784.446 429.554" stroke="#322E23" stroke-width="1.67806" stroke-linecap="round" stroke-linejoin="round"/>
<path d="M298.024 399.146L168.104 398.473C167.96 431.028 188.388 458.497 216.22 466.54L167.803 466.289C167.631 505.018 196.575 536.56 232.456 536.746C268.337 536.932 297.56 505.69 297.732 466.961L249.315 466.711C277.208 458.957 297.888 431.7 298.033 399.146L298.024 399.146Z" fill="#FF4900"/>
<path d="M413.516 469.867L465.344 470.135C465.516 431.406 436.572 399.863 400.691 399.678C364.811 399.492 337.139 429.116 335.505 466.428L335.439 466.427L335.12 538.143L465.048 538.815C465.199 504.943 443.076 476.564 413.525 469.856L413.516 469.867Z" fill="#0049FF"/>
<path d="M623.785 483.536L607.36 465.636C621.591 463.011 632.45 449.691 632.522 433.575C632.602 415.518 619.104 400.808 602.375 400.722L533.661 400.366C516.932 400.28 503.304 414.849 503.223 432.906C503.209 436.08 503.627 439.156 504.391 442.062C505.639 448.023 508.386 453.689 512.665 458.352L579.353 531.027C591.5 544.264 611.301 544.367 623.564 531.256C635.827 518.146 635.922 496.773 623.776 483.536L623.785 483.536Z" fill="#FF4900"/>
<path d="M531.853 423.186L562.914 423.382L562.876 433.025C562.838 442.263 555.846 449.711 547.282 449.657C538.708 449.603 531.786 442.057 531.823 432.829L531.862 423.186L531.853 423.186Z" fill="#F9F2EC"/>
<path d="M536.456 423.21L556.274 423.335L556.25 429.181C556.227 434.996 551.823 439.694 546.425 439.66L546.163 439.658C540.766 439.624 536.4 434.871 536.423 429.056L536.447 423.21L536.456 423.21Z" fill="#333333"/>
<path d="M529.288 423.172L564.357 423.354" stroke="#322E23" stroke-width="1.67806" stroke-linecap="round" stroke-linejoin="round"/>
<path d="M574.678 423.408L605.74 423.604L605.701 433.246C605.663 442.484 598.671 449.932 590.107 449.878C581.533 449.824 574.611 442.278 574.648 433.05L574.687 423.408L574.678 423.408Z" fill="#F9F2EC"/>
<path d="M579.281 423.433L599.099 423.558L599.075 429.403C599.052 435.219 594.647 439.916 589.25 439.882L588.988 439.881C583.591 439.847 579.225 435.094 579.248 429.278L579.272 423.433L579.281 423.433Z" fill="#333333"/>
<path d="M572.113 423.394L607.191 423.576" stroke="#322E23" stroke-width="1.67806" stroke-linecap="round" stroke-linejoin="round"/>
</g>
</svg>
