<svg width="388" height="580" viewBox="0 0 388 580" fill="none" xmlns="http://www.w3.org/2000/svg">
<g filter="url(#filter0_d_4086_2300)">
<path d="M337.996 17.9175C341.771 17.9175 344.336 21.2906 345.366 24.9218C347.781 33.4287 354.484 40.1318 362.991 42.5468C366.622 43.5777 369.996 46.1427 369.996 49.9175V313.118C369.996 321.954 362.179 328.779 355.017 333.955C348.583 338.605 344.396 346.172 344.396 354.717C344.397 363.262 348.583 370.83 355.017 375.48C362.179 380.655 369.996 387.48 369.996 396.317V529.917C369.996 547.59 355.669 561.917 337.996 561.917H228.103C223.068 561.917 219.597 556.552 219.597 551.517C219.597 537.379 208.135 525.917 193.996 525.917C179.858 525.918 168.396 537.379 168.396 551.517C168.396 556.552 164.925 561.917 159.89 561.917H49.9961C32.3232 561.917 17.9963 547.59 17.9961 529.917V396.317C17.9961 387.48 25.8129 380.655 32.975 375.48C39.4094 370.83 43.5966 363.262 43.5967 354.717C43.5967 346.172 39.4095 338.604 32.975 333.954C25.8129 328.778 17.9961 321.953 17.9961 313.117V49.9175C17.9961 46.1421 21.3706 43.5768 25.0024 42.5457C33.509 40.1307 40.2116 33.4277 42.6259 24.9208C43.6565 21.2895 46.2214 17.9175 49.9961 17.9175H337.996Z" fill="#E6EDFF"/>
<g opacity="0.6">
<mask id="mask0_4086_2300" style="mask-type:alpha" maskUnits="userSpaceOnUse" x="17" y="17" width="353" height="545">
<path d="M337.996 17.917C341.771 17.917 344.336 21.2901 345.366 24.9213C347.781 33.4282 354.484 40.1313 362.991 42.5463C366.622 43.5772 369.996 46.1422 369.996 49.917V313.117C369.996 321.954 362.179 328.779 355.017 333.954C348.583 338.604 344.396 346.172 344.396 354.717C344.397 363.262 348.583 370.829 355.017 375.479C362.179 380.655 369.996 387.48 369.996 396.316V529.917C369.996 547.59 355.669 561.917 337.996 561.917H228.103C223.068 561.917 219.597 556.552 219.597 551.517C219.597 537.378 208.135 525.917 193.996 525.917C179.858 525.917 168.396 537.378 168.396 551.517C168.396 556.552 164.925 561.917 159.89 561.917H49.9961C32.3232 561.917 17.9963 547.59 17.9961 529.917V396.316C17.9961 387.48 25.8129 380.655 32.975 375.479C39.4094 370.829 43.5966 363.262 43.5967 354.717C43.5967 346.171 39.4095 338.604 32.975 333.954C25.8129 328.778 17.9961 321.953 17.9961 313.116V49.917C17.9961 46.1416 21.3706 43.5763 25.0024 42.5452C33.509 40.1302 40.2116 33.4272 42.6259 24.9203C43.6565 21.2891 46.2214 17.917 49.9961 17.917H337.996Z" fill="#E6EDFF"/>
</mask>
<g mask="url(#mask0_4086_2300)">
<path d="M59.1561 72.9042H59.1697C59.1697 47.1266 37.9606 25.9175 12.183 25.9175C-13.5946 25.9175 -34.4716 46.8148 -34.7902 72.328H-34.8037V95.4282C-34.8037 108.714 -24.0331 119.491 -10.741 119.491C2.54433 119.491 13.3217 108.72 13.3217 95.4282V79.0656C16.3719 101.576 35.8661 119.166 59.1561 119.166C59.2578 119.166 59.129 118.908 59.2307 118.908L59.1561 72.9042Z" fill="#0049FF"/>
<path d="M22.4247 64.391C28.2571 64.391 32.9852 59.3048 32.9852 53.0307C32.9852 46.7566 28.2571 41.6704 22.4247 41.6704C16.5923 41.6704 11.8643 46.7566 11.8643 53.0307C11.8643 59.3048 16.5923 64.391 22.4247 64.391Z" fill="#F7F5E9"/>
<path d="M19.9913 63.2933C24.4835 63.2933 28.1252 59.245 28.1252 54.2511C28.1252 49.2573 24.4835 45.209 19.9913 45.209C15.4991 45.209 11.8574 49.2573 11.8574 54.2511C11.8574 59.245 15.4991 63.2933 19.9913 63.2933Z" fill="#322E23"/>
<path d="M5.11328 69.2978C6.38759 71.2296 8.65152 72.3073 10.9493 72.0701C13.4234 71.8125 15.5246 70.0773 16.2364 67.6846" stroke="#322E23" stroke-width="4.47484" stroke-linecap="round" stroke-linejoin="round"/>
<path d="M15.2324 66.2397C15.2934 66.4634 15.5239 67.1616 16.2356 67.6835C16.8728 68.1512 17.5302 68.2054 17.7743 68.2122" stroke="#322E23" stroke-width="4.47484" stroke-linecap="round" stroke-linejoin="round"/>
<path d="M179.265 45.5494C180.08 43.8113 180.552 41.8815 180.552 39.8355V39.3702C180.552 31.9388 174.53 25.917 167.099 25.917H100.127C92.6956 25.917 86.6738 31.9388 86.6738 39.3702V39.8355C86.6738 47.2669 92.6956 53.2887 100.127 53.2887H110.001L95.0906 60.4122C91.9223 61.6713 89.3494 64.0937 87.8987 67.1525C87.8439 67.2688 87.7892 67.3783 87.7344 67.4946C87.6592 67.6657 87.5907 67.8368 87.5223 68.0079C86.2358 71.1898 86.14 74.8303 87.4949 78.2175C87.5907 78.4638 87.6865 78.7034 87.796 78.9429C87.8097 78.9771 87.8234 79.0181 87.8439 79.0523C87.8645 79.0934 87.885 79.1276 87.9055 79.1687C89.9721 83.4934 94.2626 86.5317 99.3058 86.8054C99.429 86.8122 99.559 86.8191 99.689 86.8259C99.8054 86.8259 99.9217 86.8464 100.038 86.8464H105.793L94.29 92.3413C88.9388 94.8937 86.0306 100.471 86.5848 106.048V106.349C86.5848 113.78 92.6066 119.802 100.038 119.802H167.01C174.441 119.802 180.463 113.78 180.463 106.349V105.883C180.463 98.452 174.441 92.4303 167.01 92.4303H157.58L170 86.4974C175.988 85.1357 180.47 79.7914 180.47 73.3864V72.9211C180.47 65.4897 174.448 59.4679 167.017 59.4679H160.571L172.074 53.973C175.693 52.2417 178.198 49.1214 179.265 45.5562V45.5494Z" fill="#FF4900"/>
<path d="M119.787 65.8657C125.675 65.8657 130.449 60.731 130.449 54.397C130.449 48.063 125.675 42.9282 119.787 42.9282C113.899 42.9282 109.126 48.063 109.126 54.397C109.126 60.731 113.899 65.8657 119.787 65.8657Z" fill="#F7F5E9"/>
<path d="M121.765 64.7569C126.3 64.7569 129.977 60.67 129.977 55.6285C129.977 50.587 126.3 46.5 121.765 46.5C117.23 46.5 113.554 50.587 113.554 55.6285C113.554 60.67 117.23 64.7569 121.765 64.7569Z" fill="#322E23"/>
<path d="M146.065 64.7559C151.953 64.7559 156.726 59.6211 156.726 53.2871C156.726 46.9531 151.953 41.8184 146.065 41.8184C140.177 41.8184 135.403 46.9531 135.403 53.2871C135.403 59.6211 140.177 64.7559 146.065 64.7559Z" fill="#F7F5E9"/>
<path d="M144.744 62.4151C149.279 62.4151 152.955 58.3282 152.955 53.2867C152.955 48.2452 149.279 44.1582 144.744 44.1582C140.209 44.1582 136.532 48.2452 136.532 53.2867C136.532 58.3282 140.209 62.4151 144.744 62.4151Z" fill="#322E23"/>
<path d="M138.037 73.9824C138.386 73.5923 140.829 70.9167 144.825 70.9852C148.76 71.0468 151.1 73.7018 151.442 74.1124" stroke="#322E23" stroke-width="4.47484" stroke-linecap="round" stroke-linejoin="round"/>
<path d="M301.875 51.0246C301.875 37.1601 290.632 25.917 276.768 25.917H207.841L225.822 68.7172C215.423 71.7877 207.841 81.4017 207.841 92.7923C207.841 106.657 219.084 117.9 232.948 117.9H301.875L283.894 75.0997C294.293 72.0291 301.875 62.4151 301.875 51.0246Z" fill="#0049FF"/>
<path d="M257.103 76.059C255.843 77.9697 253.604 79.0357 251.331 78.801C248.884 78.5463 246.806 76.83 246.102 74.4634" stroke="#322E23" stroke-width="4.47484" stroke-linecap="round" stroke-linejoin="round"/>
<path d="M247.094 73.0415C247.034 73.2627 246.806 73.9533 246.102 74.4695C245.472 74.9321 244.821 74.9857 244.58 74.9924" stroke="#322E23" stroke-width="4.47484" stroke-linecap="round" stroke-linejoin="round"/>
<path d="M232.56 46.2695H254.784V52.6721C254.784 58.8066 249.803 63.7811 243.675 63.7811C237.541 63.7811 232.566 58.7998 232.566 52.6721V46.2695H232.56Z" fill="#F9F2EC"/>
<path d="M238.533 46.2695H252.713V50.1513C252.713 54.013 249.575 57.1506 245.713 57.1506H245.526C241.664 57.1506 238.526 54.013 238.526 50.1513V46.2695H238.533Z" fill="#333333"/>
<path d="M230.709 46.2695H255.817" stroke="#322E23" stroke-width="4.47484" stroke-linecap="round" stroke-linejoin="round"/>
<path d="M263.212 46.269H285.437V52.6716C285.437 58.8061 280.455 63.7806 274.328 63.7806C268.193 63.7806 263.219 58.7994 263.219 52.6716V46.269H263.212Z" fill="#F9F2EC"/>
<path d="M269.185 46.269H283.365V50.1508C283.365 54.0125 280.227 57.1501 276.366 57.1501H276.178C272.316 57.1501 269.179 54.0125 269.179 50.1508V46.269H269.185Z" fill="#333333"/>
<path d="M261.368 46.2695H286.469" stroke="#322E23" stroke-width="4.47484" stroke-linecap="round" stroke-linejoin="round"/>
<path d="M423.19 91.6106V119.532H385.1V101.691C380.401 112.204 369.861 119.532 357.604 119.532H329.683V81.4425H347.24C336.599 76.7979 329.162 66.1904 329.162 53.8387V25.917H423.196V64.0067H405.118C415.76 68.6513 423.196 79.2588 423.196 91.6106H423.19Z" fill="#FF4900"/>
<path d="M365.203 74.0115C370.65 74.0115 375.067 78.7607 375.067 84.6191C375.067 90.4774 370.65 95.2266 365.203 95.2266C359.755 95.2266 355.339 90.4774 355.339 84.6191C355.339 78.7607 359.755 74.0115 365.203 74.0115Z" fill="#F7F5E9"/>
<path d="M362.938 75.0327C367.131 75.0327 370.53 78.8133 370.53 83.4768C370.53 88.1403 367.131 91.9209 362.938 91.9209C358.745 91.9209 355.346 88.1403 355.346 83.4768C355.346 78.8133 358.745 75.0327 362.938 75.0327Z" fill="#322E23"/>
<path d="M53.938 189.834L41.7248 176.374C51.7992 173.732 59.2307 164.563 59.2307 153.665C59.2307 145.293 54.844 137.943 48.2435 133.788C43.1348 129.844 36.657 128.673 30.7377 130.185H-5.97014C-8.51087 129.742 -11.1129 129.776 -13.6536 130.301C-25.5263 131.472 -34.8037 141.485 -34.8037 153.665C-34.8037 165.033 -26.7251 174.508 -16.0036 176.681L-27.6447 189.514C-35.2124 197.858 -34.5857 210.76 -26.2415 218.327C-17.8973 225.895 -4.99607 225.268 2.57163 216.924L12.9934 205.433L23.7081 217.251C31.2758 225.595 44.177 226.222 52.5212 218.654C60.8654 211.086 61.4921 198.185 53.9244 189.841L53.938 189.834Z" fill="#FF4900"/>
<path d="M5.65723 176.047C8.57941 179.548 13.2454 181.156 17.6865 180.188C22.4751 179.146 26.2011 175.284 27.0661 170.448" stroke="#322E23" stroke-width="4.47484" stroke-linecap="round" stroke-linejoin="round"/>
<path d="M16.9033 150.049H39.4838V156.554C39.4838 162.787 34.4228 167.841 28.197 167.841C21.9644 167.841 16.9101 162.78 16.9101 156.554V150.049H16.9033Z" fill="#F9F2EC"/>
<path d="M20.2539 150.049H34.6605V153.993C34.6605 157.916 31.4726 161.104 27.5491 161.104H27.3584C23.4349 161.104 20.2471 157.916 20.2471 153.993V150.049H20.2539Z" fill="#333333"/>
<path d="M15.0303 150.048H40.5398" stroke="#322E23" stroke-width="4.47484" stroke-linecap="round" stroke-linejoin="round"/>
<path d="M180.545 175.82H133.654L179.926 129.548H110.637C97.3145 129.548 86.5176 140.345 86.5176 153.668V222.956L86.6401 222.834H133.824C159.652 222.67 180.552 201.689 180.552 175.82H180.545Z" fill="#0049FF"/>
<path d="M141.205 202.049C146.983 201.084 150.825 195.263 149.788 189.048C148.75 182.833 143.225 178.576 137.447 179.541C131.669 180.506 127.827 186.327 128.865 192.542C129.902 198.757 135.428 203.014 141.205 202.049Z" fill="#F7F5E9"/>
<path d="M143.439 200.563C147.889 199.82 150.827 195.207 150.001 190.26C149.175 185.313 144.897 181.905 140.447 182.648C135.997 183.391 133.059 188.004 133.885 192.951C134.711 197.898 138.989 201.306 143.439 200.563Z" fill="#322E23"/>
<path d="M115.241 205.266C121.019 204.301 124.862 198.481 123.824 192.265C122.786 186.05 117.261 181.794 111.483 182.758C105.705 183.723 101.863 189.544 102.901 195.759C103.939 201.975 109.464 206.231 115.241 205.266Z" fill="#F7F5E9"/>
<path d="M117.475 203.78C121.925 203.037 124.863 198.424 124.037 193.477C123.211 188.53 118.934 185.122 114.483 185.865C110.033 186.609 107.095 191.221 107.922 196.168C108.748 201.115 113.025 204.523 117.475 203.78Z" fill="#322E23"/>
<path d="M126.438 209.157C126.635 209.511 127.54 211.029 129.338 211.472C131.312 211.962 133.545 210.954 134.784 208.926" stroke="#322E23" stroke-width="4.47484" stroke-linecap="round" stroke-linejoin="round"/>
<path d="M300.984 129.562H264.317V129.737H224.682C215.377 129.737 207.84 137.281 207.84 146.579V149.764C207.84 159.069 215.384 166.606 224.682 166.606H236.848L214.506 187.821C210.458 190.897 207.84 195.762 207.84 201.241V204.426C207.84 212.733 213.852 219.629 221.767 221.012L221.821 221.268H300.984L301.874 129.548H300.984V129.562Z" fill="#FF4900"/>
<path d="M242.705 201.572C248.511 201.572 253.218 196.508 253.218 190.263C253.218 184.017 248.511 178.954 242.705 178.954C236.899 178.954 232.192 184.017 232.192 190.263C232.192 196.508 236.899 201.572 242.705 201.572Z" fill="#F7F5E9"/>
<path d="M240.283 200.485C244.755 200.485 248.38 196.455 248.38 191.484C248.38 186.512 244.755 182.482 240.283 182.482C235.811 182.482 232.186 186.512 232.186 191.484C232.186 196.455 235.811 200.485 240.283 200.485Z" fill="#322E23"/>
<path d="M268.608 200.479C274.414 200.479 279.121 195.416 279.121 189.17C279.121 182.925 274.414 177.861 268.608 177.861C262.802 177.861 258.096 182.925 258.096 189.17C258.096 195.416 262.802 200.479 268.608 200.479Z" fill="#F7F5E9"/>
<path d="M266.194 199.386C270.666 199.386 274.291 195.356 274.291 190.385C274.291 185.413 270.666 181.383 266.194 181.383C261.722 181.383 258.097 185.413 258.097 190.385C258.097 195.356 261.722 199.386 266.194 199.386Z" fill="#322E23"/>
<path d="M251.383 205.365C252.651 207.288 254.905 208.361 257.192 208.124C259.655 207.868 261.747 206.141 262.456 203.759" stroke="#322E23" stroke-width="4.47484" stroke-linecap="round" stroke-linejoin="round"/>
<path d="M261.456 202.33C261.517 202.552 261.746 203.247 262.455 203.767C263.089 204.232 263.743 204.286 263.986 204.293" stroke="#322E23" stroke-width="4.47484" stroke-linecap="round" stroke-linejoin="round"/>
<path d="M401.937 129.549H396.704C386.802 129.549 378.483 136.314 376.112 145.471V132.418H329.162V206.613C329.162 218.259 338.6 227.697 350.246 227.697H355.028C364.839 227.697 373.081 221.002 375.437 211.93V224.828H423.196V150.816C423.196 139.071 413.674 129.549 401.93 129.549H401.937Z" fill="#0049FF"/>
<path d="M367.525 180.192C373.192 180.192 377.786 175.251 377.786 169.157C377.786 163.063 373.192 158.123 367.525 158.123C361.859 158.123 357.265 163.063 357.265 169.157C357.265 175.251 361.859 180.192 367.525 180.192Z" fill="#F7F5E9"/>
<path d="M369.889 179.129C374.251 179.129 377.787 175.197 377.787 170.345C377.787 165.494 374.251 161.562 369.889 161.562C365.527 161.562 361.991 165.494 361.991 170.345C361.991 175.197 365.527 179.129 369.889 179.129Z" fill="#322E23"/>
<path d="M362.905 185.113C364.945 189.361 369.207 192.153 373.897 192.301C378.954 192.469 383.659 189.544 385.748 184.923" stroke="#322E23" stroke-width="4.47484" stroke-linecap="round" stroke-linejoin="round"/>
<path d="M364.987 188.7C363.137 192.16 363.545 195.697 365.106 196.773C366.857 197.983 371.084 196.837 373.524 192.554C372.181 192.307 370.416 191.843 368.496 190.908C367.04 190.198 365.873 189.41 364.98 188.7H364.987Z" fill="#322E23"/>
<path d="M53.6379 274.138C57.1189 270.242 59.2307 265.105 59.2307 259.472C59.2307 247.305 49.3667 237.441 37.2003 237.441H-12.7733C-24.9398 237.441 -34.8037 247.305 -34.8037 259.472C-34.8037 270.303 -26.9902 279.302 -16.6903 281.148L-25.4439 290.263C-26.2341 291.087 -26.9493 291.952 -27.5897 292.858C-32.0176 296.891 -34.8037 302.701 -34.8037 309.159C-34.8037 321.326 -24.9398 331.19 -12.7733 331.19H37.2003C49.3667 331.19 59.2307 321.326 59.2307 309.159C59.2307 298.546 51.7305 289.69 41.7372 287.599L50.1638 278.825C51.5466 277.381 52.7047 275.807 53.6311 274.138H53.6379Z" fill="#0049FF"/>
<path d="M5.3125 286.285C5.3125 286.285 17.6015 284.779 18.2964 285.127C18.9912 285.474 11.8044 290.345 11.8044 290.345L5.3125 286.285Z" fill="#322E23"/>
<path d="M16.9072 261.303H39.4894V267.809C39.4894 274.042 34.428 279.096 28.2017 279.096C21.9686 279.096 16.914 274.035 16.914 267.809V261.303H16.9072Z" fill="#F9F2EC"/>
<path d="M22.9775 261.303H37.3851V265.247C37.3851 269.171 34.1971 272.359 30.2733 272.359H30.0826C26.1588 272.359 22.9707 269.171 22.9707 265.247V261.303H22.9775Z" fill="#333333"/>
<path d="M15.0342 261.303H40.5455" stroke="#322E23" stroke-width="4.47484" stroke-linecap="round" stroke-linejoin="round"/>
<path d="M180.545 237.442H86.5176C86.5176 259.27 101.39 277.618 121.559 282.913H86.5176C86.5176 308.882 107.566 329.931 133.535 329.931C159.503 329.931 180.552 308.882 180.552 282.913H145.511C165.673 277.618 180.552 259.27 180.552 237.442H180.545Z" fill="#FF4900"/>
<path d="M117.54 312.968C123.323 312.968 128.011 307.925 128.011 301.705C128.011 295.484 123.323 290.441 117.54 290.441C111.757 290.441 107.069 295.484 107.069 301.705C107.069 307.925 111.757 312.968 117.54 312.968Z" fill="#F7F5E9"/>
<path d="M119.475 311.879C123.929 311.879 127.54 307.865 127.54 302.914C127.54 297.963 123.929 293.949 119.475 293.949C115.021 293.949 111.41 297.963 111.41 302.914C111.41 307.865 115.021 311.879 119.475 311.879Z" fill="#322E23"/>
<path d="M143.347 311.879C149.129 311.879 153.817 306.837 153.817 300.616C153.817 294.395 149.129 289.352 143.347 289.352C137.564 289.352 132.876 294.395 132.876 300.616C132.876 306.837 137.564 311.879 143.347 311.879Z" fill="#F7F5E9"/>
<path d="M142.049 309.582C146.503 309.582 150.114 305.568 150.114 300.617C150.114 295.665 146.503 291.651 142.049 291.651C137.595 291.651 133.984 295.665 133.984 300.617C133.984 305.568 137.595 309.582 142.049 309.582Z" fill="#322E23"/>
<path d="M127.521 317.128C127.521 317.128 138.872 315.737 139.51 316.059C140.148 316.382 133.515 320.878 133.515 320.878L127.521 317.128Z" fill="#322E23"/>
<path d="M264.357 284.459H301.867C301.867 258.491 280.818 237.442 254.85 237.442C228.882 237.442 208.951 257.401 207.888 282.424H207.84V330.51H301.874C301.874 307.799 285.772 288.847 264.364 284.452L264.357 284.459Z" fill="#0049FF"/>
<path d="M224.102 297.188H246.972V303.777C246.972 310.089 241.846 315.208 235.54 315.208C229.228 315.208 224.108 310.082 224.108 303.777V297.188H224.102Z" fill="#F9F2EC"/>
<path d="M227.495 297.188H242.087V301.183C242.087 305.156 238.858 308.385 234.884 308.385H234.691C230.717 308.385 227.488 305.156 227.488 301.183V297.188H227.495Z" fill="#333333"/>
<path d="M222.204 297.188H248.041" stroke="#322E23" stroke-width="4.47484" stroke-linecap="round" stroke-linejoin="round"/>
<path d="M255.648 297.187H278.519V303.776C278.519 310.088 273.393 315.207 267.087 315.207C260.774 315.207 255.655 310.081 255.655 303.776V297.187H255.648Z" fill="#F9F2EC"/>
<path d="M259.036 297.187H273.628V301.182C273.628 305.155 270.399 308.384 266.425 308.384H266.232C262.258 308.384 259.029 305.155 259.029 301.182V297.187H259.036Z" fill="#333333"/>
<path d="M253.753 297.188H279.583" stroke="#322E23" stroke-width="4.47484" stroke-linecap="round" stroke-linejoin="round"/>
<path d="M244.37 322.549C244.722 322.156 247.185 319.459 251.214 319.528C255.181 319.59 257.54 322.267 257.885 322.681" stroke="#322E23" stroke-width="4.47484" stroke-linecap="round" stroke-linejoin="round"/>
<path d="M416.578 292.895L404.634 280.95C414.924 279.14 422.741 270.171 422.741 259.365C422.741 247.258 412.924 237.442 400.817 237.442H351.086C338.978 237.442 329.162 247.258 329.162 259.365C329.162 261.494 329.474 263.555 330.037 265.501C330.959 269.493 332.965 273.283 336.077 276.395L384.574 324.892C393.408 333.725 407.738 333.725 416.572 324.892C425.405 316.059 425.405 301.728 416.572 292.895H416.578Z" fill="#FF4900"/>
<path d="M349.858 252.75H372.331V259.224C372.331 265.426 367.294 270.456 361.098 270.456C354.895 270.456 349.865 265.42 349.865 259.224V252.75H349.858Z" fill="#F9F2EC"/>
<path d="M353.187 252.75H367.525V256.675C367.525 260.58 364.353 263.752 360.448 263.752H360.258C356.353 263.752 353.181 260.58 353.181 256.675V252.75H353.187Z" fill="#333333"/>
<path d="M347.994 252.75H373.375" stroke="#322E23" stroke-width="4.47484" stroke-linecap="round" stroke-linejoin="round"/>
<path d="M369.769 277.662C370.114 277.276 372.534 274.625 376.493 274.693C380.391 274.754 382.71 277.384 383.049 277.791" stroke="#322E23" stroke-width="4.47484" stroke-linecap="round" stroke-linejoin="round"/>
</g>
</g>
<mask id="mask1_4086_2300" style="mask-type:alpha" maskUnits="userSpaceOnUse" x="17" y="17" width="353" height="545">
<path d="M337.996 17.917C341.771 17.917 344.336 21.2901 345.366 24.9213C347.781 33.4282 354.484 40.1313 362.991 42.5463C366.622 43.5772 369.996 46.1422 369.996 49.917V313.117C369.996 321.954 362.179 328.779 355.017 333.954C348.583 338.604 344.396 346.172 344.396 354.717C344.397 363.262 348.583 370.829 355.017 375.479C362.179 380.655 369.996 387.48 369.996 396.316V529.917C369.996 547.59 355.669 561.917 337.996 561.917H228.103C223.068 561.917 219.597 556.552 219.597 551.517C219.597 537.378 208.135 525.917 193.996 525.917C179.858 525.917 168.396 537.378 168.396 551.517C168.396 556.552 164.925 561.917 159.89 561.917H49.9961C32.3232 561.917 17.9963 547.59 17.9961 529.917V396.316C17.9961 387.48 25.8129 380.655 32.975 375.479C39.4094 370.829 43.5966 363.262 43.5967 354.717C43.5967 346.171 39.4095 338.604 32.975 333.954C25.8129 328.778 17.9961 321.953 17.9961 313.116V49.917C17.9961 46.1416 21.3706 43.5763 25.0024 42.5452C33.509 40.1302 40.2116 33.4272 42.6259 24.9203C43.6565 21.2891 46.2214 17.917 49.9961 17.917H337.996Z" fill="#E6EDFF"/>
</mask>
<g mask="url(#mask1_4086_2300)">
<rect x="17.9961" y="17.917" width="352" height="351.2" fill="url(#paint0_linear_4086_2300)"/>
</g>
<mask id="mask2_4086_2300" style="mask-type:alpha" maskUnits="userSpaceOnUse" x="17" y="17" width="353" height="545">
<path d="M337.996 17.917C341.771 17.917 344.336 21.2901 345.366 24.9213C347.781 33.4282 354.484 40.1313 362.991 42.5463C366.622 43.5772 369.996 46.1422 369.996 49.917V313.117C369.996 321.954 362.179 328.779 355.017 333.954C348.583 338.604 344.396 346.172 344.396 354.717C344.397 363.262 348.583 370.829 355.017 375.479C362.179 380.655 369.996 387.48 369.996 396.316V529.917C369.996 547.59 355.669 561.917 337.996 561.917H228.103C223.068 561.917 219.597 556.552 219.597 551.517C219.597 537.378 208.135 525.917 193.996 525.917C179.858 525.917 168.396 537.378 168.396 551.517C168.396 556.552 164.925 561.917 159.89 561.917H49.9961C32.3232 561.917 17.9963 547.59 17.9961 529.917V396.316C17.9961 387.48 25.8129 380.655 32.975 375.479C39.4094 370.829 43.5966 363.262 43.5967 354.717C43.5967 346.171 39.4095 338.604 32.975 333.954C25.8129 328.778 17.9961 321.953 17.9961 313.116V49.917C17.9961 46.1416 21.3706 43.5763 25.0024 42.5452C33.509 40.1302 40.2116 33.4272 42.6259 24.9203C43.6565 21.2891 46.2214 17.917 49.9961 17.917H337.996Z" fill="#E6EDFF"/>
</mask>
<g mask="url(#mask2_4086_2300)">
<rect x="17.9961" y="175.517" width="352" height="203.2" fill="url(#paint1_linear_4086_2300)"/>
</g>
<mask id="mask3_4086_2300" style="mask-type:alpha" maskUnits="userSpaceOnUse" x="17" y="17" width="353" height="545">
<path d="M337.996 17.917C341.771 17.917 344.336 21.2901 345.366 24.9213C347.781 33.4282 354.484 40.1313 362.991 42.5463C366.622 43.5772 369.996 46.1422 369.996 49.917V313.117C369.996 321.954 362.179 328.779 355.017 333.954C348.583 338.604 344.396 346.172 344.396 354.717C344.397 363.262 348.583 370.829 355.017 375.479C362.179 380.655 369.996 387.48 369.996 396.316V529.917C369.996 547.59 355.669 561.917 337.996 561.917H228.103C223.068 561.917 219.597 556.552 219.597 551.517C219.597 537.378 208.135 525.917 193.996 525.917C179.858 525.917 168.396 537.378 168.396 551.517C168.396 556.552 164.925 561.917 159.89 561.917H49.9961C32.3232 561.917 17.9963 547.59 17.9961 529.917V396.316C17.9961 387.48 25.8129 380.655 32.975 375.479C39.4094 370.829 43.5966 363.262 43.5967 354.717C43.5967 346.171 39.4095 338.604 32.975 333.954C25.8129 328.778 17.9961 321.953 17.9961 313.116V49.917C17.9961 46.1416 21.3706 43.5763 25.0024 42.5452C33.509 40.1302 40.2116 33.4272 42.6259 24.9203C43.6565 21.2891 46.2214 17.917 49.9961 17.917H337.996Z" fill="url(#paint2_linear_4086_2300)"/>
</mask>
<g mask="url(#mask3_4086_2300)">
<rect x="17.9961" y="365.917" width="352" height="196" fill="white"/>
</g>
</g>
<path d="M26.7959 527.121V404.721C26.7959 386.801 36.6626 382.587 41.5959 382.721H341.996C356.076 385.601 360.663 398.587 361.196 404.721V527.121C358.956 544.721 343.729 550.987 336.396 551.921H231.596C226.396 498.321 152.796 504.321 152.796 551.921C125.863 551.654 67.5159 551.281 49.5959 551.921C31.6759 552.561 26.9292 535.654 26.7959 527.121Z" stroke="#0049FF" stroke-width="3.2"/>
<path d="M275.463 185.463H275.487C275.487 140.945 238.859 104.317 194.342 104.317C149.824 104.317 113.77 140.407 113.22 184.468H113.196V224.361C113.196 247.305 131.797 265.917 154.752 265.917C177.696 265.917 196.308 247.317 196.308 224.361V196.103C201.576 234.979 235.242 265.355 275.463 265.355C275.639 265.355 275.417 264.911 275.592 264.911L275.463 185.463Z" fill="#0049FF"/>
<path d="M167.079 172.655C177.151 172.655 185.316 163.871 185.316 153.036C185.316 142.2 177.151 133.417 167.079 133.417C157.006 133.417 148.841 142.2 148.841 153.036C148.841 163.871 157.006 172.655 167.079 172.655Z" fill="#F7F5E9"/>
<path d="M162.876 170.76C170.634 170.76 176.923 163.768 176.923 155.144C176.923 146.52 170.634 139.528 162.876 139.528C155.118 139.528 148.829 146.52 148.829 155.144C148.829 163.768 155.118 170.76 162.876 170.76Z" fill="#322E23"/>
<path d="M212.031 170.76C222.103 170.76 230.269 161.976 230.269 151.141C230.269 140.306 222.103 131.522 212.031 131.522C201.958 131.522 193.793 140.306 193.793 151.141C193.793 161.976 201.958 170.76 212.031 170.76Z" fill="#F7F5E9"/>
<path d="M207.828 168.863C215.586 168.863 221.875 161.872 221.875 153.248C221.875 144.623 215.586 137.632 207.828 137.632C200.07 137.632 193.781 144.623 193.781 153.248C193.781 161.872 200.07 168.863 207.828 168.863Z" fill="#322E23"/>
<path d="M182.133 179.235C184.334 182.571 188.243 184.432 192.212 184.022C196.484 183.578 200.113 180.581 201.342 176.449" stroke="#322E23" stroke-width="4.47484" stroke-linecap="round" stroke-linejoin="round"/>
<path d="M199.609 173.955C199.715 174.341 200.113 175.547 201.342 176.448C202.442 177.256 203.578 177.35 203.999 177.361" stroke="#322E23" stroke-width="4.47484" stroke-linecap="round" stroke-linejoin="round"/>
<rect x="50.3961" y="435.918" width="287.2" height="63.2" rx="6" fill="white" stroke="#0049FF" stroke-width="0.8"/>
<path d="M72.3965 457.615V482.627" stroke="#0049FF" stroke-width="6.4" stroke-linecap="round"/>
<path d="M85.1963 445.584V489.276" stroke="#0049FF" stroke-width="6.4" stroke-linecap="round"/>
<path d="M97.9961 451.917V484.844" stroke="#0049FF" stroke-width="6.4" stroke-linecap="round"/>
<path d="M110.797 456.981V481.994" stroke="#0049FF" stroke-width="6.4" stroke-linecap="round"/>
<path d="M123.596 453.816V484.844" stroke="#0049FF" stroke-width="6.4" stroke-linecap="round"/>
<path d="M136.396 456.982V481.994" stroke="#0049FF" stroke-width="6.4" stroke-linecap="round"/>
<path d="M149.196 445.584V490.543" stroke="#0049FF" stroke-width="6.4" stroke-linecap="round"/>
<path d="M161.996 456.981V481.994" stroke="#0049FF" stroke-width="6.4" stroke-linecap="round"/>
<path d="M174.796 456.349V481.361" stroke="#0049FF" stroke-width="6.4" stroke-linecap="round"/>
<path d="M187.597 444.317V488.01" stroke="#0049FF" stroke-width="6.4" stroke-linecap="round"/>
<path d="M200.396 450.65V483.577" stroke="#0049FF" stroke-width="6.4" stroke-linecap="round"/>
<path d="M213.196 455.716V480.728" stroke="#0049FF" stroke-width="6.4" stroke-linecap="round"/>
<path d="M225.996 452.55V483.578" stroke="#0049FF" stroke-width="6.4" stroke-linecap="round"/>
<path d="M238.796 455.716V480.728" stroke="#0049FF" stroke-width="6.4" stroke-linecap="round"/>
<path d="M251.597 444.317V489.276" stroke="#0049FF" stroke-width="6.4" stroke-linecap="round"/>
<path d="M264.396 453.816V478.828" stroke="#0049FF" stroke-width="6.4" stroke-linecap="round"/>
<path d="M277.196 453.816V484.844" stroke="#0049FF" stroke-width="6.4" stroke-linecap="round"/>
<path d="M289.996 456.981V481.994" stroke="#0049FF" stroke-width="6.4" stroke-linecap="round"/>
<path d="M302.796 445.584V490.543" stroke="#0049FF" stroke-width="6.4" stroke-linecap="round"/>
<path d="M315.597 456.981V481.994" stroke="#0049FF" stroke-width="6.4" stroke-linecap="round"/>
<defs>
<filter id="filter0_d_4086_2300" x="0.396093" y="0.316992" width="387.2" height="579.2" filterUnits="userSpaceOnUse" color-interpolation-filters="sRGB">
<feFlood flood-opacity="0" result="BackgroundImageFix"/>
<feColorMatrix in="SourceAlpha" type="matrix" values="0 0 0 0 0 0 0 0 0 0 0 0 0 0 0 0 0 0 127 0" result="hardAlpha"/>
<feOffset/>
<feGaussianBlur stdDeviation="8.8"/>
<feComposite in2="hardAlpha" operator="out"/>
<feColorMatrix type="matrix" values="0 0 0 0 0.0634896 0 0 0 0 0.292431 0 0 0 0 0.6625 0 0 0 1 0"/>
<feBlend mode="normal" in2="BackgroundImageFix" result="effect1_dropShadow_4086_2300"/>
<feBlend mode="normal" in="SourceGraphic" in2="effect1_dropShadow_4086_2300" result="shape"/>
</filter>
<linearGradient id="paint0_linear_4086_2300" x1="193.996" y1="17.917" x2="193.996" y2="369.117" gradientUnits="userSpaceOnUse">
<stop stop-color="#0049FF"/>
<stop offset="1" stop-color="white" stop-opacity="0"/>
</linearGradient>
<linearGradient id="paint1_linear_4086_2300" x1="193.996" y1="175.517" x2="193.996" y2="378.717" gradientUnits="userSpaceOnUse">
<stop stop-color="white" stop-opacity="0"/>
<stop offset="0.716346" stop-color="#0049FF"/>
</linearGradient>
<linearGradient id="paint2_linear_4086_2300" x1="193.996" y1="-42.113" x2="193.996" y2="617.004" gradientUnits="userSpaceOnUse">
<stop stop-color="#0049FF"/>
<stop offset="0.526724" stop-color="white"/>
<stop offset="1" stop-color="#0049FF"/>
</linearGradient>
</defs>
</svg>
