<svg width="352" height="544" viewBox="0 0 352 544" fill="none" xmlns="http://www.w3.org/2000/svg">
<path d="M320 0C323.775 0 326.34 3.37406 327.371 7.00539C329.786 15.5121 336.489 22.2149 344.996 24.6296C348.627 25.6603 352 28.2253 352 32V295.2C352 304.037 344.183 310.862 337.021 316.038C330.587 320.688 326.401 328.255 326.4 336.8C326.4 350.717 337.507 362.041 351.34 362.392C351.706 362.396 352 362.695 352 363.061V512C352 529.673 337.673 544 320 544H210.107C205.072 544 201.601 538.635 201.601 533.601C201.601 519.462 190.139 508.001 176 508.001C161.862 508.001 150.4 519.462 150.4 533.601C150.4 538.635 146.929 544 141.894 544H32C14.3269 544 0 529.673 0 512V378.4C0 369.564 7.81684 362.739 14.9789 357.563C21.4134 352.913 25.6006 345.345 25.6006 336.8C25.6005 328.255 21.4133 320.687 14.9789 316.037C7.81683 310.862 0 304.037 0 295.2V32C0 28.2253 3.37308 25.6604 7.00438 24.6298C15.5118 22.2152 22.2151 15.5118 24.6297 7.00436C25.6603 3.37306 28.2253 2.67203e-06 32 0H320Z" fill="#FFDDCF"/>
<g opacity="0.6">
<mask id="mask0_4086_2528" style="mask-type:alpha" maskUnits="userSpaceOnUse" x="0" y="0" width="352" height="544">
<path d="M320 0C323.775 0 326.34 3.37406 327.371 7.00539C329.786 15.5121 336.489 22.2149 344.996 24.6296C348.627 25.6603 352 28.2253 352 32V295.2C352 304.037 344.183 310.862 337.021 316.038C330.587 320.688 326.401 328.255 326.4 336.8C326.4 350.717 337.507 362.041 351.34 362.392C351.706 362.396 352 362.695 352 363.061V512C352 529.673 337.673 544 320 544H210.107C205.072 544 201.601 538.635 201.601 533.601C201.601 519.462 190.139 508.001 176 508.001C161.862 508.001 150.4 519.462 150.4 533.601C150.4 538.635 146.929 544 141.894 544H32C14.3269 544 0 529.673 0 512V378.4C0 369.564 7.81684 362.739 14.9789 357.563C21.4134 352.913 25.6006 345.345 25.6006 336.8C25.6005 328.255 21.4133 320.687 14.9789 316.037C7.81683 310.862 0 304.037 0 295.2V32C0 28.2253 3.37308 25.6604 7.00438 24.6298C15.5118 22.2152 22.2151 15.5118 24.6297 7.00436C25.6603 3.37306 28.2253 2.67203e-06 32 0H320Z" fill="#E6EDFF"/>
</mask>
<g mask="url(#mask0_4086_2528)">
<path d="M41.1601 54.9867H41.1736C41.1736 29.2091 19.9645 8 -5.81309 8C-31.5907 8 -52.4677 28.8973 -52.7862 54.4106H-52.7998V77.5108C-52.7998 90.7961 -42.0292 101.574 -28.7371 101.574C-15.4517 101.574 -4.67435 90.8029 -4.67435 77.5108V61.1481C-1.62414 83.6587 17.8701 101.248 41.1601 101.248C41.2617 101.248 41.133 100.991 41.2346 100.991L41.1601 54.9867Z" fill="#FF4900"/>
<path d="M4.42963 46.4711C10.262 46.4711 14.9901 41.3849 14.9901 35.1108C14.9901 28.8367 10.262 23.7505 4.42963 23.7505C-1.40277 23.7505 -6.13086 28.8367 -6.13086 35.1108C-6.13086 41.3849 -1.40277 46.4711 4.42963 46.4711Z" fill="#F7F5E9"/>
<path d="M1.99619 45.3739C6.48841 45.3739 10.1301 41.3256 10.1301 36.3317C10.1301 31.3379 6.48841 27.2896 1.99619 27.2896C-2.49603 27.2896 -6.1377 31.3379 -6.1377 36.3317C-6.1377 41.3256 -2.49603 45.3739 1.99619 45.3739Z" fill="#322E23"/>
<path d="M-12.8828 51.3813C-11.6085 53.3131 -9.34457 54.3908 -7.04675 54.1536C-4.5727 53.896 -2.47144 52.1608 -1.75973 49.7681" stroke="#322E23" stroke-width="4.47484" stroke-linecap="round" stroke-linejoin="round"/>
<path d="M-2.76367 48.3237C-2.70267 48.5474 -2.47221 49.2456 -1.76049 49.7675C-1.12334 50.2352 -0.46585 50.2894 -0.221833 50.2962" stroke="#322E23" stroke-width="4.47484" stroke-linecap="round" stroke-linejoin="round"/>
<path d="M161.27 27.6324C162.085 25.8943 162.557 23.9646 162.557 21.9185V21.4532C162.557 14.0218 156.535 8 149.104 8H82.1319C74.7005 8 68.6787 14.0218 68.6787 21.4532V21.9185C68.6787 29.35 74.7005 35.3717 82.1319 35.3717H92.0062L77.0955 42.4952C73.9272 43.7543 71.3543 46.1767 69.9036 49.2355C69.8488 49.3519 69.7941 49.4613 69.7393 49.5777C69.6641 49.7487 69.5956 49.9198 69.5272 50.0909C68.2407 53.2729 68.1449 56.9133 69.4998 60.3005C69.5956 60.5469 69.6914 60.7864 69.8009 61.0259C69.8146 61.0601 69.8283 61.1012 69.8488 61.1354C69.8693 61.1764 69.8899 61.2107 69.9104 61.2517C71.977 65.5765 76.2675 68.6147 81.3107 68.8884C81.4339 68.8953 81.5639 68.9021 81.6939 68.909C81.8103 68.909 81.9266 68.9295 82.0429 68.9295H87.7978L76.2949 74.4244C70.9437 76.9768 68.0354 82.5538 68.5897 88.1308V88.4319C68.5897 95.8633 74.6115 101.885 82.0429 101.885H149.015C156.446 101.885 162.468 95.8633 162.468 88.4319V87.9665C162.468 80.5351 156.446 74.5133 149.015 74.5133H139.585L152.005 68.5805C157.993 67.2188 162.475 61.8744 162.475 55.4694V55.0041C162.475 47.5727 156.453 41.5509 149.022 41.5509H142.576L154.078 36.056C157.698 34.3248 160.203 31.2044 161.27 27.6392V27.6324Z" fill="#FF4900"/>
<path d="M101.792 47.9473C107.68 47.9473 112.453 42.8125 112.453 36.4785C112.453 30.1445 107.68 25.0098 101.792 25.0098C95.9041 25.0098 91.1309 30.1445 91.1309 36.4785C91.1309 42.8125 95.9041 47.9473 101.792 47.9473Z" fill="#F7F5E9"/>
<path d="M103.769 46.8395C108.304 46.8395 111.981 42.7525 111.981 37.711C111.981 32.6695 108.304 28.5825 103.769 28.5825C99.234 28.5825 95.5576 32.6695 95.5576 37.711C95.5576 42.7525 99.234 46.8395 103.769 46.8395Z" fill="#322E23"/>
<path d="M128.069 46.8379C133.957 46.8379 138.73 41.7032 138.73 35.3691C138.73 29.0351 133.957 23.9004 128.069 23.9004C122.18 23.9004 117.407 29.0351 117.407 35.3691C117.407 41.7032 122.18 46.8379 128.069 46.8379Z" fill="#F7F5E9"/>
<path d="M126.748 44.4977C131.283 44.4977 134.959 40.4107 134.959 35.3692C134.959 30.3277 131.283 26.2407 126.748 26.2407C122.213 26.2407 118.536 30.3277 118.536 35.3692C118.536 40.4107 122.213 44.4977 126.748 44.4977Z" fill="#322E23"/>
<path d="M120.042 56.0649C120.391 55.6749 122.834 52.9993 126.83 53.0677C130.765 53.1293 133.105 55.7843 133.447 56.1949" stroke="#322E23" stroke-width="4.47484" stroke-linecap="round" stroke-linejoin="round"/>
<path d="M283.879 33.1076C283.879 19.2431 272.636 8 258.772 8H189.845L207.826 50.8002C197.427 53.8708 189.845 63.4847 189.845 74.8753C189.845 88.7398 201.088 99.9829 214.952 99.9829H283.879L265.898 57.1827C276.297 54.1121 283.879 44.4982 283.879 33.1076Z" fill="#FF4900"/>
<path d="M239.107 58.141C237.847 60.0518 235.608 61.1177 233.335 60.8831C230.888 60.6283 228.809 58.912 228.105 56.5454" stroke="#322E23" stroke-width="4.47484" stroke-linecap="round" stroke-linejoin="round"/>
<path d="M229.098 55.1235C229.038 55.3448 228.81 56.0353 228.106 56.5515C227.476 57.0141 226.825 57.0678 226.584 57.0745" stroke="#322E23" stroke-width="4.47484" stroke-linecap="round" stroke-linejoin="round"/>
<path d="M214.563 28.353H236.788V34.7556C236.788 40.8901 231.807 45.8646 225.679 45.8646C219.545 45.8646 214.57 40.8834 214.57 34.7556V28.353H214.563Z" fill="#F9F2EC"/>
<path d="M220.537 28.353H234.717V32.2348C234.717 36.0965 231.579 39.2341 227.717 39.2341H227.53C223.668 39.2341 220.53 36.0965 220.53 32.2348V28.353H220.537Z" fill="#333333"/>
<path d="M212.713 28.353H237.82" stroke="#322E23" stroke-width="4.47484" stroke-linecap="round" stroke-linejoin="round"/>
<path d="M245.216 28.353H267.441V34.7556C267.441 40.8901 262.459 45.8646 256.332 45.8646C250.197 45.8646 245.223 40.8834 245.223 34.7556V28.353H245.216Z" fill="#F9F2EC"/>
<path d="M251.189 28.353H265.369V32.2348C265.369 36.0965 262.231 39.2341 258.37 39.2341H258.182C254.32 39.2341 251.183 36.0965 251.183 32.2348V28.353H251.189Z" fill="#333333"/>
<path d="M243.372 28.353H268.473" stroke="#322E23" stroke-width="4.47484" stroke-linecap="round" stroke-linejoin="round"/>
<path d="M405.195 73.6926V101.614L367.105 101.614V83.7728C362.406 94.2857 351.866 101.614 339.609 101.614H311.688V63.5245H329.245C318.604 58.88 311.167 48.2724 311.167 35.9207V7.99902L405.201 7.99902V46.0887H387.123C397.765 50.7333 405.201 61.3408 405.201 73.6926H405.195Z" fill="#FF4900"/>
<path d="M347.208 56.0936C352.655 56.0936 357.071 60.8427 357.071 66.7011C357.071 72.5594 352.655 77.3086 347.208 77.3086C341.76 77.3086 337.344 72.5594 337.344 66.7011C337.344 60.8427 341.76 56.0936 347.208 56.0936Z" fill="#F7F5E9"/>
<path d="M344.943 57.1147C349.136 57.1147 352.535 60.8953 352.535 65.5588C352.535 70.2224 349.136 74.0029 344.943 74.0029C340.75 74.0029 337.351 70.2224 337.351 65.5588C337.351 60.8953 340.75 57.1147 344.943 57.1147Z" fill="#322E23"/>
<path d="M35.942 171.917L23.7288 158.458C33.8032 155.815 41.2346 146.646 41.2346 135.748C41.2346 127.376 36.848 120.026 30.2475 115.871C25.1388 111.927 18.6609 110.756 12.7416 112.268H-23.9662C-26.5069 111.825 -29.109 111.859 -31.6497 112.384C-43.5224 113.555 -52.7998 123.568 -52.7998 135.748C-52.7998 147.116 -44.7212 156.591 -33.9997 158.764L-45.6408 171.597C-53.2085 179.941 -52.5818 192.843 -44.2376 200.41C-35.8934 207.978 -22.9921 207.351 -15.4244 199.007L-5.00265 187.516L5.71203 199.334C13.2797 207.678 26.181 208.305 34.5252 200.737C42.8694 193.17 43.4961 180.268 35.9284 171.924L35.942 171.917Z" fill="#FF4900"/>
<path d="M-12.3389 158.13C-9.41668 161.632 -4.75072 163.239 -0.309541 162.272C4.47903 161.23 8.20498 157.368 9.07006 152.531" stroke="#322E23" stroke-width="4.47484" stroke-linecap="round" stroke-linejoin="round"/>
<path d="M-1.09277 132.133H21.4878V138.638C21.4878 144.871 16.4267 149.925 10.2009 149.925C3.96826 149.925 -1.08596 144.864 -1.08596 138.638V132.133H-1.09277Z" fill="#F9F2EC"/>
<path d="M2.25877 132.133H16.6653V136.077C16.6653 140.001 13.4775 143.189 9.55401 143.189H9.36329C5.43979 143.189 2.25195 140.001 2.25195 136.077V132.133H2.25877Z" fill="#333333"/>
<path d="M-2.96582 132.131H22.5437" stroke="#322E23" stroke-width="4.47484" stroke-linecap="round" stroke-linejoin="round"/>
<path d="M162.55 157.903H115.659L161.931 111.631H92.6421C79.3194 111.631 68.5225 122.428 68.5225 135.75V205.039L68.645 204.916H115.829C141.657 204.753 162.557 183.772 162.557 157.903H162.55Z" fill="#FF4900"/>
<path d="M123.211 184.131C128.989 183.166 132.831 177.345 131.793 171.13C130.756 164.915 125.23 160.658 119.453 161.623C113.675 162.588 109.833 168.409 110.87 174.624C111.908 180.839 117.433 185.096 123.211 184.131Z" fill="#F7F5E9"/>
<path d="M125.445 182.646C129.895 181.902 132.833 177.29 132.007 172.343C131.18 167.396 126.903 163.988 122.453 164.731C118.003 165.474 115.065 170.087 115.891 175.034C116.717 179.981 120.995 183.389 125.445 182.646Z" fill="#322E23"/>
<path d="M97.2463 187.35C103.024 186.385 106.866 180.564 105.829 174.349C104.791 168.134 99.2656 163.877 93.4879 164.842C87.7101 165.807 83.8677 171.627 84.9056 177.843C85.9434 184.058 91.4686 188.314 97.2463 187.35Z" fill="#F7F5E9"/>
<path d="M99.4788 185.864C103.929 185.121 106.867 180.508 106.041 175.561C105.215 170.614 100.937 167.206 96.4873 167.949C92.0372 168.693 89.0994 173.305 89.9254 178.252C90.7515 183.199 95.0287 186.607 99.4788 185.864Z" fill="#322E23"/>
<path d="M108.442 191.24C108.64 191.594 109.545 193.112 111.342 193.555C113.317 194.045 115.55 193.037 116.789 191.009" stroke="#322E23" stroke-width="4.47484" stroke-linecap="round" stroke-linejoin="round"/>
<path d="M282.988 111.644H246.322V111.82H206.687C197.382 111.82 189.845 119.364 189.845 128.662V131.847C189.845 141.152 197.389 148.689 206.687 148.689H218.853L196.511 169.903C192.463 172.98 189.845 177.845 189.845 183.324V186.509C189.845 194.815 195.857 201.711 203.772 203.094L203.826 203.351H282.988L283.879 111.631H282.988V111.644Z" fill="#FF4900"/>
<path d="M224.711 183.654C230.517 183.654 235.224 178.591 235.224 172.345C235.224 166.099 230.517 161.036 224.711 161.036C218.905 161.036 214.198 166.099 214.198 172.345C214.198 178.591 218.905 183.654 224.711 183.654Z" fill="#F7F5E9"/>
<path d="M222.288 182.568C226.759 182.568 230.385 178.538 230.385 173.566C230.385 168.595 226.759 164.565 222.288 164.565C217.816 164.565 214.19 168.595 214.19 173.566C214.19 178.538 217.816 182.568 222.288 182.568Z" fill="#322E23"/>
<path d="M250.613 182.562C256.419 182.562 261.126 177.499 261.126 171.253C261.126 165.007 256.419 159.944 250.613 159.944C244.807 159.944 240.101 165.007 240.101 171.253C240.101 177.499 244.807 182.562 250.613 182.562Z" fill="#F7F5E9"/>
<path d="M248.199 181.468C252.671 181.468 256.296 177.438 256.296 172.467C256.296 167.496 252.671 163.466 248.199 163.466C243.727 163.466 240.102 167.496 240.102 172.467C240.102 177.438 243.727 181.468 248.199 181.468Z" fill="#322E23"/>
<path d="M233.388 187.446C234.656 189.369 236.91 190.442 239.197 190.206C241.66 189.95 243.752 188.222 244.46 185.84" stroke="#322E23" stroke-width="4.47484" stroke-linecap="round" stroke-linejoin="round"/>
<path d="M243.462 184.411C243.523 184.633 243.752 185.328 244.461 185.848C245.095 186.313 245.749 186.367 245.992 186.374" stroke="#322E23" stroke-width="4.47484" stroke-linecap="round" stroke-linejoin="round"/>
<path d="M383.942 111.631H378.709C368.807 111.631 360.487 118.396 358.117 127.553V114.5H311.167V188.695C311.167 200.342 320.605 209.779 332.251 209.779H337.033C346.844 209.779 355.086 203.084 357.442 194.012V206.91H405.201V132.898C405.201 121.153 395.679 111.631 383.935 111.631H383.942Z" fill="#FF4900"/>
<path d="M349.531 162.272C355.198 162.272 359.792 157.332 359.792 151.238C359.792 145.144 355.198 140.204 349.531 140.204C343.864 140.204 339.271 145.144 339.271 151.238C339.271 157.332 343.864 162.272 349.531 162.272Z" fill="#F7F5E9"/>
<path d="M351.895 161.211C356.257 161.211 359.793 157.278 359.793 152.427C359.793 147.576 356.257 143.643 351.895 143.643C347.533 143.643 343.997 147.576 343.997 152.427C343.997 157.278 347.533 161.211 351.895 161.211Z" fill="#322E23"/>
<path d="M344.91 167.197C346.95 171.444 351.211 174.236 355.902 174.384C360.959 174.553 365.664 171.627 367.752 167.007" stroke="#322E23" stroke-width="4.47484" stroke-linecap="round" stroke-linejoin="round"/>
<path d="M346.992 170.783C345.142 174.243 345.55 177.781 347.111 178.857C348.862 180.066 353.089 178.92 355.529 174.637C354.186 174.391 352.421 173.927 350.501 172.991C349.045 172.281 347.878 171.494 346.984 170.783H346.992Z" fill="#322E23"/>
<path d="M35.6419 256.22C39.1229 252.323 41.2346 247.187 41.2346 241.553C41.2346 229.387 31.3707 219.523 19.2043 219.523H-30.7694C-42.9359 219.523 -52.7998 229.387 -52.7998 241.553C-52.7998 252.385 -44.9863 261.383 -34.6864 263.229L-43.44 272.344C-44.2302 273.168 -44.9454 274.034 -45.5858 274.94C-50.0136 278.972 -52.7998 284.783 -52.7998 291.241C-52.7998 303.407 -42.9359 313.271 -30.7694 313.271H19.2043C31.3707 313.271 41.2346 303.407 41.2346 291.241C41.2346 280.628 33.7345 271.772 23.7411 269.681L32.1677 260.907C33.5506 259.462 34.7086 257.889 35.6351 256.22H35.6419Z" fill="#FF4900"/>
<path d="M-12.6836 268.366C-12.6836 268.366 -0.394537 266.861 0.300299 267.208C0.995134 267.556 -6.19165 272.426 -6.19165 272.426L-12.6836 268.366Z" fill="#322E23"/>
<path d="M-1.08887 243.384H21.4933V249.889C21.4933 256.122 16.4319 261.177 10.2056 261.177C3.97253 261.177 -1.08206 256.116 -1.08206 249.889V243.384H-1.08887Z" fill="#F9F2EC"/>
<path d="M4.98045 243.384H19.3881V247.328C19.3881 251.252 16.2 254.44 12.2762 254.44H12.0855C8.1617 254.44 4.97363 251.252 4.97363 247.328V243.384H4.98045Z" fill="#333333"/>
<path d="M-2.96191 243.384H22.5495" stroke="#322E23" stroke-width="4.47484" stroke-linecap="round" stroke-linejoin="round"/>
<path d="M162.55 219.525H68.5225C68.5225 241.354 83.3951 259.701 103.564 264.997H68.5225C68.5225 290.965 89.5713 312.014 115.54 312.014C141.508 312.014 162.557 290.965 162.557 264.997H127.516C147.678 259.701 162.557 241.354 162.557 219.525H162.55Z" fill="#FF4900"/>
<path d="M99.5449 295.051C105.328 295.051 110.016 290.008 110.016 283.788C110.016 277.567 105.328 272.524 99.5449 272.524C93.7621 272.524 89.0742 277.567 89.0742 283.788C89.0742 290.008 93.7621 295.051 99.5449 295.051Z" fill="#F7F5E9"/>
<path d="M101.48 293.962C105.934 293.962 109.544 289.948 109.544 284.997C109.544 280.045 105.934 276.031 101.48 276.031C97.0257 276.031 93.415 280.045 93.415 284.997C93.415 289.948 97.0257 293.962 101.48 293.962Z" fill="#322E23"/>
<path d="M125.352 293.962C131.134 293.962 135.822 288.919 135.822 282.698C135.822 276.477 131.134 271.434 125.352 271.434C119.569 271.434 114.881 276.477 114.881 282.698C114.881 288.919 119.569 293.962 125.352 293.962Z" fill="#F7F5E9"/>
<path d="M124.054 291.664C128.508 291.664 132.119 287.65 132.119 282.699C132.119 277.747 128.508 273.733 124.054 273.733C119.6 273.733 115.989 277.747 115.989 282.699C115.989 287.65 119.6 291.664 124.054 291.664Z" fill="#322E23"/>
<path d="M109.525 299.211C109.525 299.211 120.876 297.82 121.515 298.143C122.153 298.465 115.52 302.961 115.52 302.961L109.525 299.211Z" fill="#322E23"/>
<path d="M246.362 266.543H283.872C283.872 240.574 262.823 219.525 236.855 219.525C210.887 219.525 190.955 239.484 189.893 264.507H189.845V312.594H283.879C283.879 289.882 267.777 270.93 246.369 266.536L246.362 266.543Z" fill="#FF4900"/>
<path d="M206.105 279.271H228.976V285.86C228.976 292.173 223.85 297.292 217.544 297.292C211.231 297.292 206.112 292.166 206.112 285.86V279.271H206.105Z" fill="#F9F2EC"/>
<path d="M209.5 279.271H224.092V283.266C224.092 287.24 220.863 290.469 216.889 290.469H216.696C212.722 290.469 209.493 287.24 209.493 283.266V279.271H209.5Z" fill="#333333"/>
<path d="M204.208 279.271H230.045" stroke="#322E23" stroke-width="4.47484" stroke-linecap="round" stroke-linejoin="round"/>
<path d="M237.654 279.271H260.525V285.86C260.525 292.173 255.399 297.292 249.093 297.292C242.78 297.292 237.661 292.166 237.661 285.86V279.271H237.654Z" fill="#F9F2EC"/>
<path d="M241.042 279.271H255.634V283.266C255.634 287.24 252.405 290.469 248.431 290.469H248.238C244.264 290.469 241.035 287.24 241.035 283.266V279.271H241.042Z" fill="#333333"/>
<path d="M235.758 279.271H261.588" stroke="#322E23" stroke-width="4.47484" stroke-linecap="round" stroke-linejoin="round"/>
<path d="M226.375 304.632C226.727 304.239 229.19 301.542 233.219 301.611C237.186 301.673 239.545 304.35 239.89 304.764" stroke="#322E23" stroke-width="4.47484" stroke-linecap="round" stroke-linejoin="round"/>
<path d="M398.583 274.978L386.639 263.034C396.929 261.224 404.746 252.255 404.746 241.449C404.746 229.342 394.929 219.525 382.822 219.525H333.091C320.983 219.525 311.167 229.342 311.167 241.449C311.167 243.578 311.479 245.638 312.042 247.584C312.963 251.577 314.97 255.366 318.082 258.478L366.579 306.976C375.412 315.809 389.743 315.809 398.577 306.976C407.41 298.142 407.41 283.812 398.577 274.978H398.583Z" fill="#FF4900"/>
<path d="M331.864 234.833H354.337V241.308C354.337 247.51 349.3 252.54 343.104 252.54C336.901 252.54 331.871 247.504 331.871 241.308V234.833H331.864Z" fill="#F9F2EC"/>
<path d="M335.193 234.834H349.531V238.759C349.531 242.664 346.358 245.836 342.454 245.836H342.264C338.359 245.836 335.187 242.664 335.187 238.759V234.834H335.193Z" fill="#333333"/>
<path d="M330 234.833H355.381" stroke="#322E23" stroke-width="4.47484" stroke-linecap="round" stroke-linejoin="round"/>
<path d="M351.773 259.746C352.119 259.36 354.539 256.709 358.498 256.777C362.396 256.838 364.715 259.468 365.054 259.875" stroke="#322E23" stroke-width="4.47484" stroke-linecap="round" stroke-linejoin="round"/>
</g>
</g>
<mask id="mask1_4086_2528" style="mask-type:alpha" maskUnits="userSpaceOnUse" x="0" y="0" width="352" height="544">
<path d="M320 0C323.775 0 326.34 3.37406 327.371 7.00539C329.786 15.5121 336.489 22.2149 344.996 24.6296C348.627 25.6603 352 28.2253 352 32V295.2C352 304.037 344.183 310.862 337.021 316.038C330.587 320.688 326.401 328.255 326.4 336.8C326.4 350.717 337.507 362.041 351.34 362.392C351.706 362.396 352 362.695 352 363.061V512C352 529.673 337.673 544 320 544H210.107C205.072 544 201.601 538.635 201.601 533.601C201.601 519.462 190.139 508.001 176 508.001C161.862 508.001 150.4 519.462 150.4 533.601C150.4 538.635 146.929 544 141.894 544H32C14.3269 544 0 529.673 0 512V378.4C0 369.564 7.81684 362.739 14.9789 357.563C21.4134 352.913 25.6006 345.345 25.6006 336.8C25.6005 328.255 21.4133 320.687 14.9789 316.037C7.81683 310.862 0 304.037 0 295.2V32C0 28.2253 3.37308 25.6604 7.00438 24.6298C15.5118 22.2152 22.2151 15.5118 24.6297 7.00436C25.6603 3.37306 28.2253 2.67203e-06 32 0H320Z" fill="#E6EDFF"/>
</mask>
<g mask="url(#mask1_4086_2528)">
<rect width="352" height="351.2" fill="url(#paint0_linear_4086_2528)"/>
</g>
<mask id="mask2_4086_2528" style="mask-type:alpha" maskUnits="userSpaceOnUse" x="0" y="0" width="352" height="544">
<path d="M320 0C323.775 0 326.34 3.37406 327.371 7.00539C329.786 15.5121 336.489 22.2149 344.996 24.6296C348.627 25.6603 352 28.2253 352 32V295.2C352 304.037 344.183 310.862 337.021 316.038C330.587 320.688 326.401 328.255 326.4 336.8C326.4 350.717 337.507 362.041 351.34 362.392C351.706 362.396 352 362.695 352 363.061V512C352 529.673 337.673 544 320 544H210.107C205.072 544 201.601 538.635 201.601 533.601C201.601 519.462 190.139 508.001 176 508.001C161.862 508.001 150.4 519.462 150.4 533.601C150.4 538.635 146.929 544 141.894 544H32C14.3269 544 0 529.673 0 512V378.4C0 369.564 7.81684 362.739 14.9789 357.563C21.4134 352.913 25.6006 345.345 25.6006 336.8C25.6005 328.255 21.4133 320.687 14.9789 316.037C7.81683 310.862 0 304.037 0 295.2V32C0 28.2253 3.37308 25.6604 7.00438 24.6298C15.5118 22.2152 22.2151 15.5118 24.6297 7.00436C25.6603 3.37306 28.2253 2.67203e-06 32 0H320Z" fill="#E6EDFF"/>
</mask>
<g mask="url(#mask2_4086_2528)">
<rect y="157.6" width="352" height="203.2" fill="url(#paint1_linear_4086_2528)"/>
</g>
<mask id="mask3_4086_2528" style="mask-type:alpha" maskUnits="userSpaceOnUse" x="0" y="0" width="352" height="544">
<path d="M320 0C323.775 0 326.34 3.37406 327.371 7.00539C329.786 15.5121 336.489 22.2149 344.996 24.6296C348.627 25.6603 352 28.2253 352 32V295.2C352 304.037 344.183 310.862 337.021 316.038C330.587 320.688 326.401 328.255 326.4 336.8C326.4 350.717 337.507 362.041 351.34 362.392C351.706 362.396 352 362.695 352 363.061V512C352 529.673 337.673 544 320 544H210.107C205.072 544 201.601 538.635 201.601 533.601C201.601 519.462 190.139 508.001 176 508.001C161.862 508.001 150.4 519.462 150.4 533.601C150.4 538.635 146.929 544 141.894 544H32C14.3269 544 0 529.673 0 512V378.4C0 369.564 7.81684 362.739 14.9789 357.563C21.4134 352.913 25.6006 345.345 25.6006 336.8C25.6005 328.255 21.4133 320.687 14.9789 316.037C7.81683 310.862 0 304.037 0 295.2V32C0 28.2253 3.37308 25.6604 7.00438 24.6298C15.5118 22.2152 22.2151 15.5118 24.6297 7.00436C25.6603 3.37306 28.2253 2.64217e-06 32 0H320Z" fill="url(#paint2_linear_4086_2528)"/>
</mask>
<g mask="url(#mask3_4086_2528)">
<rect y="348" width="352" height="196" fill="url(#paint3_linear_4086_2528)"/>
</g>
<path d="M10 510.4V388C10 370.08 19.8667 365.867 24.8 366H325.2C339.28 368.88 343.867 381.867 344.4 388V510.4C342.16 528 326.934 534.267 319.6 535.2H214.8C209.6 481.6 136 487.6 136 535.2C109.067 534.934 50.72 534.56 32.8 535.2C14.88 535.84 10.1333 518.934 10 510.4Z" stroke="#FF4900" stroke-width="3.2"/>
<path d="M238.493 193.376L218.441 171.279C234.981 166.94 247.182 151.887 247.182 133.994C247.182 120.25 239.98 108.184 229.144 101.362C220.756 94.8872 210.121 92.9637 200.403 95.4463H140.138C135.966 94.7194 131.694 94.7753 127.523 95.6364C108.031 97.5599 92.7998 113.999 92.7998 133.994C92.7998 152.659 106.063 168.214 123.665 171.782L104.553 192.851C92.1288 206.55 93.1577 227.731 106.857 240.155C120.556 252.579 141.737 251.551 154.161 237.851L171.271 218.985L188.862 238.388C201.287 252.087 222.467 253.116 236.167 240.692C249.866 228.267 250.895 207.087 238.47 193.387L238.493 193.376Z" fill="#FF4900"/>
<path d="M159.227 170.741C164.024 176.489 171.684 179.129 178.976 177.541C186.838 175.83 192.955 169.489 194.375 161.549" stroke="#322E23" stroke-width="2.23742" stroke-linecap="round" stroke-linejoin="round"/>
<path d="M163.834 175.459C162.336 181.509 164.338 186.799 167.167 187.861C170.332 189.047 176.404 185.625 178.507 178.065C176.348 178.21 173.441 178.177 170.119 177.484C167.603 176.958 165.49 176.186 163.834 175.448V175.459Z" fill="#322E23"/>
<path d="M126.562 128.056H163.633V138.735C163.633 148.968 155.324 157.266 145.103 157.266C134.871 157.266 126.573 148.957 126.573 138.735V128.056H126.562Z" fill="#F9F2EC"/>
<path d="M132.052 128.055H155.704V134.53C155.704 140.971 150.471 146.205 144.029 146.205H143.716C137.275 146.205 132.041 140.971 132.041 134.53V128.055H132.052Z" fill="#333333"/>
<path d="M123.486 128.055H165.367" stroke="#322E23" stroke-width="2.23742" stroke-linecap="round" stroke-linejoin="round"/>
<path d="M177.69 128.059H214.762V138.738C214.762 148.971 206.453 157.269 196.232 157.269C185.999 157.269 177.702 148.96 177.702 138.738V128.059H177.69Z" fill="#F9F2EC"/>
<path d="M183.192 128.058H206.844V134.533C206.844 140.975 201.61 146.208 195.169 146.208H194.856C188.414 146.208 183.181 140.975 183.181 134.533V128.058H183.192Z" fill="#333333"/>
<path d="M174.615 128.056H216.496" stroke="#322E23" stroke-width="2.23742" stroke-linecap="round" stroke-linejoin="round"/>
<rect x="32.7998" y="416" width="288" height="64" rx="6.4" fill="white"/>
<path d="M54.4004 440.498V465.51" stroke="#FF4900" stroke-width="6.4" stroke-linecap="round"/>
<path d="M67.2002 428.467V472.159" stroke="#FF4900" stroke-width="6.4" stroke-linecap="round"/>
<path d="M80.001 434.799V467.726" stroke="#FF4900" stroke-width="6.4" stroke-linecap="round"/>
<path d="M92.8008 439.864V464.876" stroke="#FF4900" stroke-width="6.4" stroke-linecap="round"/>
<path d="M105.601 436.698V467.726" stroke="#FF4900" stroke-width="6.4" stroke-linecap="round"/>
<path d="M118.4 439.864V464.876" stroke="#FF4900" stroke-width="6.4" stroke-linecap="round"/>
<path d="M131.201 428.467V473.425" stroke="#FF4900" stroke-width="6.4" stroke-linecap="round"/>
<path d="M144 439.864V464.876" stroke="#FF4900" stroke-width="6.4" stroke-linecap="round"/>
<path d="M156.801 439.231V464.244" stroke="#FF4900" stroke-width="6.4" stroke-linecap="round"/>
<path d="M169.601 427.2V470.892" stroke="#FF4900" stroke-width="6.4" stroke-linecap="round"/>
<path d="M182.4 433.532V466.46" stroke="#FF4900" stroke-width="6.4" stroke-linecap="round"/>
<path d="M195.201 438.599V463.611" stroke="#FF4900" stroke-width="6.4" stroke-linecap="round"/>
<path d="M208.001 435.432V466.46" stroke="#FF4900" stroke-width="6.4" stroke-linecap="round"/>
<path d="M220.801 438.599V463.611" stroke="#FF4900" stroke-width="6.4" stroke-linecap="round"/>
<path d="M233.601 427.2V472.159" stroke="#FF4900" stroke-width="6.4" stroke-linecap="round"/>
<path d="M246.4 436.698V461.71" stroke="#FF4900" stroke-width="6.4" stroke-linecap="round"/>
<path d="M259.201 436.698V467.726" stroke="#FF4900" stroke-width="6.4" stroke-linecap="round"/>
<path d="M272 439.864V464.876" stroke="#FF4900" stroke-width="6.4" stroke-linecap="round"/>
<path d="M284.801 428.467V473.425" stroke="#FF4900" stroke-width="6.4" stroke-linecap="round"/>
<path d="M297.601 439.864V464.876" stroke="#FF4900" stroke-width="6.4" stroke-linecap="round"/>
<defs>
<linearGradient id="paint0_linear_4086_2528" x1="176" y1="0" x2="176" y2="351.2" gradientUnits="userSpaceOnUse">
<stop stop-color="#FF4900"/>
<stop offset="1" stop-color="white" stop-opacity="0"/>
</linearGradient>
<linearGradient id="paint1_linear_4086_2528" x1="176" y1="157.6" x2="176" y2="360.8" gradientUnits="userSpaceOnUse">
<stop stop-color="white" stop-opacity="0"/>
<stop offset="0.716346" stop-color="#FF4900"/>
</linearGradient>
<linearGradient id="paint2_linear_4086_2528" x1="176" y1="-60.03" x2="176" y2="599.087" gradientUnits="userSpaceOnUse">
<stop stop-color="#0049FF"/>
<stop offset="0.526724" stop-color="white"/>
<stop offset="1" stop-color="#0049FF"/>
</linearGradient>
<linearGradient id="paint3_linear_4086_2528" x1="176" y1="348" x2="176" y2="544" gradientUnits="userSpaceOnUse">
<stop stop-color="#FFCBB5"/>
<stop offset="0.543269" stop-color="white"/>
<stop offset="1" stop-color="#FFCBB5"/>
</linearGradient>
</defs>
</svg>
